M48
; DRILL file {KiCad (6.0.7-1)-1} date 2022 September 28, Wednesday 22:03:46
; FORMAT={-:-/ absolute / inch / decimal}
; #@! TF.CreationDate,2022-09-28T22:03:46+09:00
; #@! TF.GenerationSoftware,Kicad,Pcbnew,(6.0.7-1)-1
; #@! TF.FileFunction,Plated,1,2,PTH
FMAT,2
INCH
; #@! TA.AperFunction,Plated,PTH,ViaDrill
T1C0.0157
%
G90
G05
T1
X-0.2109Y-1.2188
X-0.2109Y-1.6406
X-0.2109Y-2.3438
X-0.2109Y-3.0469
X-0.2109Y-3.75
X-0.2109Y-4.4531
X-0.2109Y-5.3203
X-0.0234Y-2.2266
X0.0703Y-5.2266
X0.1172Y-1.8516
X0.1641Y-2.9766
X0.1641Y-3.6797
X0.1641Y-4.4297
X0.2109Y-1.8516
X0.2109Y-4.8516
X0.2578Y-3.6797
X0.2578Y-5.1563
X0.3047Y-1.2188
X0.3047Y-2.6016
X0.3047Y-4.8516
X0.3516Y-2.1797
X0.3516Y-2.2734
X0.3516Y-2.9297
X0.3516Y-3.0234
X0.3891Y-5.3203
X0.3984Y-2.6016
X0.3984Y-3.3516
X0.4219Y-1.5469
X0.4453Y-2.1797
X0.4453Y-2.9297
X0.4922Y-3.3516
X0.5156Y-1.6406
X0.5859Y-4.1016
X0.6797Y-4.1016
X0.7266Y-2.2266
X0.75Y-1.3359
X0.75Y-1.4297
X0.8203Y-1.2188
X0.8203Y-2.6016
X0.8672Y-1.8516
X0.8672Y-3.7266
X0.9609Y-1.8516
X0.9891Y-5.3203
X1.0078Y-5.2266
X1.0547Y-2.1797
X1.0547Y-2.2734
X1.0547Y-4.4766
X1.125Y-2.9297
X1.125Y-3.0234
X1.1484Y-2.1797
X1.1484Y-4.8516
X1.1719Y-1.5469
X1.1953Y-5.1563
X1.2188Y-2.9297
X1.2422Y-2.6016
X1.2422Y-3.6797
X1.2422Y-3.7734
X1.2422Y-4.4297
X1.2422Y-4.5234
X1.2422Y-4.8516
X1.2656Y-1.6406
X1.3359Y-1.2188
X1.3359Y-2.6016
X1.3359Y-3.6797
X1.3359Y-4.4297
X1.4297Y-3.3516
X1.4766Y-2.2266
X1.4766Y-2.9766
X1.5234Y-3.3516
X1.5891Y-5.3203
X1.6172Y-1.8516
X1.6641Y-3.7266
X1.6641Y-4.4766
X1.6875Y-1.3359
X1.6875Y-1.4297
X1.7109Y-1.8516
X1.8047Y-0.8672
X1.8047Y-2.1797
X1.8047Y-2.2734
X1.8047Y-4.1016
X1.875Y-2.9297
X1.875Y-3.0234
X1.8984Y-2.1797
X1.8984Y-4.1016
X1.9219Y-1.5469
X1.9453Y-5.2266
X1.9688Y-2.9297
X1.9922Y-2.6016
X1.9922Y-3.6797
X1.9922Y-3.7734
X2.0156Y-1.6406
X2.0625Y-1.125
X2.0625Y-1.2656
X2.0859Y-2.6016
X2.0859Y-3.6797
X2.0859Y-4.8516
X2.1328Y-5.1563
X2.1797Y-3.3516
X2.1797Y-4.8516
X2.1891Y-5.3203
X2.2266Y-1.3125
X2.2266Y-2.2266
X2.2266Y-2.9766
X2.2734Y-0.8672
X2.2734Y-3.3516
X2.3672Y-1.8516
X2.3906Y-1.5469
X2.4141Y-1.3828
X2.4141Y-3.7266
X2.4141Y-4.4766
X2.4609Y-1.8516
X2.5313Y-1.5469
X2.5547Y-2.1797
X2.5547Y-2.2734
X2.5547Y-4.1016
X2.6016Y-1.2891
X2.6016Y-4.6641
X2.625Y-2.9297
X2.625Y-3.0234
X2.6484Y-2.1797
X2.6484Y-4.1016
X2.6719Y-0.9844
X2.7188Y-2.9297
X2.7422Y-0.8672
X2.7422Y-2.6016
X2.7422Y-3.6797
X2.7422Y-3.7734
X2.7422Y-4.4297
X2.7422Y-4.5234
X2.7891Y-5.3203
X2.7891Y-4.6641
X2.794Y-1.1329
X2.794Y-1.2656
X2.8359Y-2.6016
X2.8359Y-3.6797
X2.8359Y-4.4297
X2.8594Y-1.1438
X2.8594Y-1.0438
X2.8594Y-1.0938
X2.8828Y-1.4766
X2.9297Y-3.3516
X2.9297Y-5.1328
X2.9766Y-1.1016
X2.9766Y-2.2266
X2.9766Y-2.9766
X3.0234Y-3.3516
X3.0938Y-1.1484
X3.1172Y-1.8516
X3.1406Y-1.5469
X3.1641Y-1.2891
X3.1641Y-1.3828
X3.1641Y-4.4766
X3.1641Y-4.6641
X3.1875Y-3.7266
X3.2109Y-0.8672
X3.2109Y-1.8516
X3.2813Y-1.5469
X3.3047Y-2.1797
X3.3047Y-2.2734
X3.3047Y-4.1016
X3.375Y-2.9297
X3.375Y-3.0234
X3.3891Y-5.3203
X3.3984Y-2.1797
X3.3984Y-4.1016
X3.4219Y-1.2422
X3.4688Y-2.9297
X3.4922Y-1.0547
X3.4922Y-1.1484
X3.4922Y-2.6016
X3.4922Y-3.6797
X3.4922Y-3.7734
X3.5391Y-5.2266
X3.5625Y-1.6406
X3.5859Y-2.6016
X3.5859Y-3.6797
X3.6563Y-1.5469
X3.6797Y-0.8672
X3.6797Y-3.3516
X3.6797Y-4.8516
X3.7266Y-2.9766
X3.7266Y-5.1563
X3.7734Y-1.2422
X3.7734Y-1.3828
X3.7734Y-2.1797
X3.7734Y-2.2734
X3.7734Y-3.3516
X3.7734Y-4.8516
X3.8672Y-1.8516
X3.8672Y-2.1797
X3.9141Y-3.7266
X3.9141Y-4.4766
X3.9609Y-1.8516
X3.9891Y-5.3203
X4.0547Y-4.1016
X4.1016Y-1.3359
X4.1016Y-2.2266
X4.1016Y-4.6641
X4.125Y-1.0781
X4.125Y-2.9297
X4.125Y-3.0234
X4.1484Y-0.8672
X4.1484Y-4.1016
X4.2188Y-2.9297
X4.2422Y-2.6016
X4.2422Y-3.6797
X4.2422Y-3.7734
X4.2422Y-4.4297
X4.2422Y-4.5234
X4.2891Y-1.4531
X4.2891Y-4.6641
X4.3125Y-1.6406
X4.3359Y-1.3125
X4.3359Y-2.6016
X4.3359Y-3.6797
X4.3359Y-4.4297
X4.4063Y-1.4063
X4.4063Y-1.5469
X4.4297Y-3.3516
X4.4766Y-2.9766
X4.4766Y-5.1328
X4.5Y-1.1484
X4.5234Y-2.1797
X4.5234Y-2.2734
X4.5234Y-3.3516
X4.5891Y-5.3203
X4.6172Y-0.8672
X4.6172Y-1.8516
X4.6172Y-2.1797
X4.6641Y-3.7266
X4.6641Y-4.4766
X4.6641Y-4.6641
X4.6875Y-1.0313
X4.6875Y-1.4063
X4.7109Y-1.8516
X4.8047Y-4.1016
X4.8516Y-2.2266
X4.875Y-2.9297
X4.875Y-3.0234
X4.8984Y-4.1016
X4.9688Y-1.0313
X4.9688Y-2.9297
X4.9922Y-1.4297
X4.9922Y-2.6016
X4.9922Y-3.6797
X4.9922Y-3.7734
X4.9933Y-1.3508
X5.0156Y-1.6172
X5.0156Y-1.6875
X5.0156Y-2.1797
X5.0296Y-1.2953
X5.0391Y-0.8672
X5.0859Y-1.6875
X5.0859Y-2.6016
X5.0859Y-3.6797
X5.0964Y-1.3032
X5.1086Y-0.909
X5.1094Y-1.1953
X5.1094Y-1.5234
X5.1797Y-1.3594
X5.1797Y-1.5234
X5.1797Y-1.5938
X5.1797Y-3.3516
X5.1797Y-1.1766
X5.1891Y-5.3203
X5.2266Y-2.9766
X5.25Y-5.1328
X5.2734Y-1.1813
X5.2734Y-2.1797
X5.2734Y-2.2734
X5.2734Y-3.3516
X5.29Y-1.48
X5.34Y-1.3
X5.3438Y-1.0313
X5.3438Y-1.1953
X5.3672Y-1.8516
X5.3672Y-2.1797
X5.39Y-1.49
X5.4141Y-3.7266
X5.4141Y-4.4766
X5.4141Y-4.6641
X5.4609Y-1.8516
X5.5547Y-1.1719
X5.5547Y-4.1016
X5.5789Y-0.909
X5.6Y-1.45
X5.6016Y-1.0781
X5.6016Y-1.3125
X5.6016Y-2.2266
X5.625Y-2.9297
X5.625Y-3.0234
X5.6325Y-1.0015
X5.6477Y-5.2266
X5.6484Y-0.8672
X5.6484Y-4.1016
X5.6719Y-0.9844
X5.7188Y-1.0781
X5.7188Y-2.9297
X5.7422Y-2.6016
X5.7422Y-3.6797
X5.7422Y-3.7734
X5.7891Y-5.3203
X5.8359Y-2.6016
X5.8359Y-3.6797
X5.8436Y-4.8516
X5.9223Y-4.8516
X5.9297Y-3.3516
X5.9531Y-2.9766
X5.9766Y-1.0781
X5.9766Y-1.4766
X5.9766Y-1.6172
X5.9766Y-5.1563
X6.0234Y-0.8672
X6.0234Y-0.966
X6.0234Y-3.3516
X6.1078Y-0.9234
X6.1078Y-1.1063
X6.1078Y-1.2063
X6.1172Y-1.8516
X6.1172Y-2.2266
X6.1172Y-2.9297
X6.1641Y-3.7266
X6.1641Y-4.4766
X6.1876Y-5.0814
X6.2109Y-1.8516
X6.2344Y-1.0313
X6.2344Y-1.1484
X6.2344Y-1.2656
X6.24Y-1.45
X6.24Y-1.56
X6.3047Y-2.1797
X6.3047Y-2.2734
X6.3047Y-2.9297
X6.3047Y-3.0234
X6.3047Y-4.1016
X6.3516Y-4.6641
X6.3891Y-5.3203
X6.3984Y-2.1797
X6.3984Y-4.1016
X6.41Y-1.53
X6.4453Y-0.8672
X6.4688Y-2.9297
X6.49Y-1.45
X6.4914Y-0.9147
X6.4922Y-2.6016
X6.4922Y-3.6797
X6.4922Y-3.7734
X6.4922Y-4.4297
X6.4922Y-4.5234
X6.5391Y-1.1719
X6.5859Y-0.9558
X6.5859Y-1.3359
X6.5859Y-2.6016
X6.5859Y-3.6797
X6.5859Y-4.4297
X6.5859Y-5.1328
X6.6094Y-1.6406
X6.6094Y-4.6641
X6.6328Y-2.1797
X6.6328Y-2.2734
X6.6563Y-1.4063
X6.6797Y-1.0015
X6.6797Y-3.3516
X6.7031Y-1.0547
X6.7266Y-2.1797
X6.7266Y-2.9766
X6.7734Y-1.1719
X6.7734Y-1.2656
X6.7734Y-3.3516
X6.8672Y-1.8516
X6.8672Y-2.2266
X6.9141Y-3.7266
X6.9141Y-4.4766
X6.9141Y-4.6641
X6.9375Y-2.9297
X6.9609Y-0.8672
X6.9609Y-1.8516
X6.9891Y-5.3203
X7.0078Y-3.6797
X7.0078Y-3.7734
X7.0547Y-2.1797
X7.0547Y-2.2734
X7.0547Y-4.1016
X7.0781Y-1.1719
X7.1016Y-1.0313
X7.1016Y-1.3125
X7.1016Y-1.5938
X7.1016Y-2.9297
X7.1016Y-3.0234
X7.1016Y-3.6797
X7.1016Y-5.1328
X7.1484Y-2.1797
X7.1484Y-4.1016
X7.1907Y-5.2266
X7.1953Y-1.5
X7.2422Y-2.6016
X7.2422Y-2.9297
X7.2703Y-4.4297
X7.2891Y-1.5938
X7.3166Y-1.7151
X7.3359Y-2.6016
X7.336Y-4.8516
X7.3547Y-4.4297
X7.3547Y-4.5234
X7.3828Y-1.0313
X7.3828Y-1.3125
X7.4063Y-1.1719
X7.4297Y-0.8672
X7.4297Y-2.1797
X7.4297Y-3.3516
X7.4297Y-4.8516
X7.4531Y-2.2734
X7.4766Y-2.9766
X7.5234Y-3.3516
X7.5234Y-3.7266
X7.5469Y-2.1797
X7.5703Y-5.1563
X7.5891Y-5.3203
X7.6172Y-1.8516
X7.6172Y-2.2266
X7.6172Y-3.6797
X7.6172Y-3.7734
X7.6641Y-4.4766
X7.6875Y-2.9297
X7.7109Y-1.8516
X7.7109Y-3.6797
X7.7578Y-1.4063
X7.8047Y-2.1797
X7.8047Y-2.2734
X7.8047Y-4.1016
X7.8281Y-1.0547
X7.8516Y-2.9297
X7.8516Y-3.0234
X7.8984Y-0.8672
X7.8984Y-1.5703
X7.8984Y-2.1797
X7.8984Y-4.1016
X7.9453Y-1.1719
X7.9453Y-4.4297
X7.9453Y-4.5234
X7.9922Y-1.6641
X7.9922Y-2.6016
X7.9922Y-2.9297
X7.9922Y-3.6797
X7.9922Y-3.7734
X8.0156Y-1.2891
X8.0391Y-4.4297
X8.0859Y-2.6016
X8.0859Y-3.6797
X8.1328Y-5.2266
X8.1797Y-3.3516
X8.1891Y-5.3203
X8.2266Y-1.3359
X8.2266Y-2.2266
X8.2266Y-2.9766
X8.2734Y-3.3516
X8.2735Y-4.8516
X8.3672Y-0.8672
X8.3672Y-1.8516
X8.3672Y-4.8516
X8.4141Y-1.3828
X8.4141Y-3.7266
X8.4141Y-4.4766
X8.4141Y-5.1563
X8.4609Y-1.8516
X8.5313Y-1.5469
X8.5547Y-2.1797
X8.5547Y-2.2734
X8.5547Y-4.1016
X8.6016Y-1.0547
X8.625Y-1.2656
X8.625Y-2.9297
X8.625Y-3.0234
X8.6484Y-1.5469
X8.6484Y-2.1797
X8.6484Y-4.1016
X8.6916Y-1.1203
X8.7188Y-2.9297
X8.7422Y-2.6016
X8.7422Y-3.6797
X8.7422Y-3.7734
X8.7422Y-4.4297
X8.7422Y-4.5234
X8.7891Y-5.3203
X8.7891Y-1.3359
X8.8359Y-0.8672
X8.8359Y-2.6016
X8.8359Y-3.6797
X8.8359Y-4.4297
X8.8828Y-1.4531
X8.8865Y-1.0203
X8.8865Y-1.0703
X8.8865Y-1.1203
X8.9297Y-3.3516
X8.9531Y-4.5234
X8.9766Y-2.2266
X8.9766Y-2.9766
X9.0234Y-1.1016
X9.0234Y-3.3516
X9.0469Y-4.4297
X9.0469Y-4.5234
X9.1172Y-1.8516
X9.1172Y-4.8516
X9.1406Y-1.3359
X9.1406Y-1.5469
X9.1641Y-3.7266
X9.1641Y-5.1563
X9.2109Y-1.8516
X9.2109Y-4.8516
X9.3047Y-0.8672
X9.3047Y-1.2891
X9.3047Y-2.1797
X9.3047Y-2.2734
X9.3047Y-2.9297
X9.3047Y-3.0234
X9.3047Y-3.6797
X9.3047Y-3.7734
X9.3516Y-5.2266
X9.3891Y-5.3203
X9.3984Y-2.1797
X9.3984Y-2.9297
X9.3984Y-3.6797
X9.4453Y-4.4766
X9.4922Y-1.1016
X9.4922Y-1.2422
X9.4922Y-2.6016
X9.5391Y-1.5234
X9.5391Y-1.6172
X9.5859Y-2.6016
X9.5859Y-4.1016
X9.6797Y-4.1016
X9.7266Y-2.9766
X9.7266Y-5.2266
X9.7734Y-0.8672
X9.7734Y-1.4063
X9.8672Y-3.6797
X9.8672Y-3.7734
X9.8672Y-4.8516
X9.9141Y-1.2188
X9.9141Y-5.1563
X9.9609Y-1.6406
X9.9609Y-2.1797
X9.9609Y-2.2734
X9.9609Y-2.9297
X9.9609Y-3.0234
X9.9609Y-3.6797
X9.9609Y-4.8516
X9.9891Y-5.3203
X10.0313Y-1.5703
X10.0547Y-2.1797
X10.0547Y-2.9297
X10.0781Y-4.4297
X10.0781Y-4.5234
X10.125Y-1.3359
X10.1484Y-3.3516
X10.1719Y-4.4297
X10.2422Y-1.8516
X10.2422Y-3.3516
X10.2891Y-2.9766
X10.3359Y-1.8516
X10.3828Y-3.7266
X10.4297Y-2.6016
X10.4766Y-2.2266
X10.4766Y-4.4766
X10.4766Y-5.2266
X10.5234Y-1.2188
X10.5234Y-2.6016
X10.5891Y-5.3203
X10.6172Y-4.1016
X10.6172Y-4.8516
X10.6641Y-5.1563
X10.7109Y-1.6406
X10.7109Y-2.1797
X10.7109Y-2.2734
X10.7109Y-4.1016
X10.7109Y-4.8516
X10.7813Y-1.6406
X10.7813Y-2.1797
X10.8047Y-2.9297
X10.8047Y-3.0234
X10.8047Y-3.6797
X10.8047Y-3.7734
X10.8281Y-4.4297
X10.8281Y-4.5234
X10.8516Y-1.3359
X10.8516Y-1.4297
X10.8984Y-2.9297
X10.8984Y-3.6797
X10.9219Y-4.4297
X11.0859Y-1.6406
X11.1328Y-1.2188
X11.1563Y-1.5703
X11.1563Y-2.1797
X11.1563Y-2.2734
X11.1563Y-2.9297
X11.1563Y-3.0234
X11.1563Y-3.6797
X11.1563Y-3.7734
X11.1563Y-4.4297
X11.1563Y-4.5234
X11.1891Y-5.3203
X11.25Y-2.1797
X11.25Y-2.9297
X11.25Y-3.6797
X11.25Y-4.4297
X11.3672Y-1.8516
X11.3672Y-2.6016
X11.3672Y-3.3516
X11.3672Y-4.1016
X11.3672Y-4.8516
X11.4141Y-5.1563
X11.4609Y-1.8516
X11.4609Y-2.6016
X11.4609Y-3.3516
X11.4609Y-4.1016
X11.4609Y-4.8516
X11.6016Y-2.2266
X11.6016Y-2.9766
X11.6016Y-3.7266
X11.6016Y-4.4766
X11.6016Y-5.2266
X11.7891Y-5.3203
X11.7891Y-1.2188
X11.7891Y-1.7344
X11.7891Y-2.4375
X11.7891Y-3.1406
X11.7891Y-3.8438
X11.7891Y-4.5469
T0
M30
