  0
SECTION
  2
HEADER
  9
$ACADVER
  1
AC1014
  9
$HANDSEED
  5
FFFF
  9
$MEASUREMENT
 70
     1
  0
ENDSEC
  0
SECTION
  2
TABLES
  0
TABLE
  2
VPORT
  5
8
330
0
100
AcDbSymbolTable
 70
     4
  0
VPORT
  5
2E
330
8
100
AcDbSymbolTableRecord
100
AcDbViewportTableRecord
  2
*ACTIVE
 70
     0
 10
0.0
 20
0.0
 11
1.0
 21
1.0
 12
210.0
 22
148.5
 13
0.0
 23
0.0
 14
10.0
 24
10.0
 15
10.0
 25
10.0
 16
0.0
 26
0.0
 36
1.0
 17
0.0
 27
0.0
 37
0.0
 40
341.0
 41
1.24
 42
50.0
 43
0.0
 44
0.0
 50
0.0
 51
0.0
 71
     0
 72
   100
 73
     1
 74
     3
 75
     0
 76
     0
 77
     0
 78
     0
  0
ENDTAB
  0
TABLE
  2
LTYPE
  5
5
330
0
100
AcDbSymbolTable
 70
     1
  0
LTYPE
  5
14
330
5
100
AcDbSymbolTableRecord
100
AcDbLinetypeTableRecord
  2
BYBLOCK
 70
     0
  3

 72
    65
 73
     0
 40
0.0
  0
LTYPE
  5
15
330
5
100
AcDbSymbolTableRecord
100
AcDbLinetypeTableRecord
  2
BYLAYER
 70
     0
  3

 72
    65
 73
     0
 40
0.0
  0
LTYPE
  5
16
330
5
100
AcDbSymbolTableRecord
100
AcDbLinetypeTableRecord
  2
CONTINUOUS
 70
     0
  3
Solid line
 72
    65
 73
     0
 40
0.0
  0
ENDTAB
  0
TABLE
  2
LAYER
  5
2
100
AcDbSymbolTable
 70
1
  0
LAYER
  5
50
100
AcDbSymbolTableRecord
100
AcDbLayerTableRecord
  2
0
 70
0
  6
CONTINUOUS
  0
ENDTAB
  0
TABLE
  2
STYLE
  5
3
330
0
100
AcDbSymbolTable
 70
     1
  0
STYLE
  5
11
330
3
100
AcDbSymbolTableRecord
100
AcDbTextStyleTableRecord
  2
STANDARD
 70
     0
 40
0.0
 41
1.0
 50
0.0
 71
     0
 42
2.5
  3
txt
  4

  0
ENDTAB
  0
TABLE
  2
VIEW
  5
6
330
0
100
AcDbSymbolTable
 70
     0
  0
ENDTAB
  0
TABLE
  2
UCS
  5
7
330
0
100
AcDbSymbolTable
 70
     0
  0
ENDTAB
  0
TABLE
  2
APPID
  5
9
330
0
100
AcDbSymbolTable
 70
     2
  0
APPID
  5
12
330
9
100
AcDbSymbolTableRecord
100
AcDbRegAppTableRecord
  2
ACAD
 70
     0
  0
ENDTAB
  0
TABLE
  2
DIMSTYLE
  5
A
330
0
100
AcDbSymbolTable
 70
     1
  0
DIMSTYLE
105
27
330
A
100
AcDbSymbolTableRecord
100
AcDbDimStyleTableRecord
  2
ISO-25
 70
     0
  3

  4

  5

  6

  7

 40
1.0
 41
2.5
 42
0.625
 43
3.75
 44
1.25
 45
0.0
 46
0.0
 47
0.0
 48
0.0
140
2.5
141
2.5
142
0.0
143
0.03937007874016
144
1.0
145
0.0
146
1.0
147
0.625
 71
     0
 72
     0
 73
     0
 74
     0
 75
     0
 76
     0
 77
     1
 78
     8
170
     0
171
     3
172
     1
173
     0
174
     0
175
     0
176
     0
177
     0
178
     0
270
     2
271
     2
272
     2
273
     2
274
     3
340
11
275
     0
280
     0
281
     0
282
     0
283
     0
284
     8
285
     0
286
     0
287
     3
288
     0
  0
ENDTAB
  0
TABLE
  2
BLOCK_RECORD
  5
1
330
0
100
AcDbSymbolTable
 70
     1
  0
BLOCK_RECORD
  5
1F
330
1
100
AcDbSymbolTableRecord
100
AcDbBlockTableRecord
  2
*MODEL_SPACE
  0
BLOCK_RECORD
  5
1B
330
1
100
AcDbSymbolTableRecord
100
AcDbBlockTableRecord
  2
*PAPER_SPACE
  0
ENDTAB
  0
ENDSEC
  0
SECTION
  2
BLOCKS
  0
BLOCK
  5
20
330
1F
100
AcDbEntity
  8
0
100
AcDbBlockBegin
  2
*MODEL_SPACE
 70
     0
 10
0.0
 20
0.0
 30
0.0
  3
*MODEL_SPACE
  1

  0
ENDBLK
  5
21
330
1F
100
AcDbEntity
  8
0
100
AcDbBlockEnd
  0
BLOCK
  5
1C
330
1B
100
AcDbEntity
 67
     1
  8
0
100
AcDbBlockBegin
  2
*PAPER_SPACE
  1

  0
ENDBLK
  5
1D
330
1B
100
AcDbEntity
 67
     1
  8
0
100
AcDbBlockEnd
  0
ENDSEC
  0
SECTION
  2
ENTITIES
  0
LWPOLYLINE
  5
100
100
AcDbEntity
  8
0
 62
7
100
AcDbPolyline
 90
210
 70
1
 10
155.156998
 20
147.618000
 30
0.0
 10
155.250000
 20
147.029633
 30
0.0
 10
155.250000
 20
146.998001
 30
0.0
 10
155.250000
 20
138.723000
 30
0.0
 10
155.250000
 20
100.623000
 30
0.0
 10
155.250000
 20
62.521999
 30
0.0
 10
155.250000
 20
56.002998
 30
0.0
 10
155.250000
 20
55.971367
 30
0.0
 10
155.156998
 20
55.382999
 30
0.0
 10
154.871994
 20
54.823002
 30
0.0
 10
154.427002
 20
54.379002
 30
0.0
 10
153.867996
 20
54.094002
 30
0.0
 10
153.279312
 20
54.000000
 30
0.0
 10
153.248001
 20
54.000000
 30
0.0
 10
153.128006
 20
54.000000
 30
0.0
 10
139.126999
 20
54.000000
 30
0.0
 10
134.076996
 20
54.000000
 30
0.0
 10
133.651993
 20
54.000000
 30
0.0
 10
132.826996
 20
54.000000
 30
0.0
 10
131.270996
 20
54.000000
 30
0.0
 10
131.102005
 20
54.000000
 30
0.0
 10
130.445999
 20
54.000000
 30
0.0
 10
129.313995
 20
54.000000
 30
0.0
 10
128.720993
 20
54.000000
 30
0.0
 10
127.802002
 20
54.000000
 30
0.0
 10
126.077003
 20
54.000000
 30
0.0
 10
125.420998
 20
54.000000
 30
0.0
 10
124.552002
 20
54.000000
 30
0.0
 10
123.695999
 20
54.000000
 30
0.0
 10
122.170998
 20
54.000000
 30
0.0
 10
120.077003
 20
54.000000
 30
0.0
 10
115.315002
 20
54.000000
 30
0.0
 10
115.027000
 20
54.000000
 30
0.0
 10
110.552002
 20
54.000000
 30
0.0
 10
109.027000
 20
54.000000
 30
0.0
 10
108.170998
 20
54.000000
 30
0.0
 10
107.883003
 20
54.000000
 30
0.0
 10
107.302002
 20
54.000000
 30
0.0
 10
106.644997
 20
54.000000
 30
0.0
 10
105.501999
 20
54.000000
 30
0.0
 10
104.919998
 20
54.000000
 30
0.0
 10
104.001999
 20
54.000000
 30
0.0
 10
102.277000
 20
54.000000
 30
0.0
 10
101.620003
 20
54.000000
 30
0.0
 10
101.452003
 20
54.000000
 30
0.0
 10
101.027000
 20
54.000000
 30
0.0
 10
99.894997
 20
54.000000
 30
0.0
 10
95.976997
 20
54.000000
 30
0.0
 10
93.883003
 20
54.000000
 30
0.0
 10
91.500999
 20
54.000000
 30
0.0
 10
91.213997
 20
54.000000
 30
0.0
 10
86.450996
 20
54.000000
 30
0.0
 10
81.975998
 20
54.000000
 30
0.0
 10
76.926003
 20
54.000000
 30
0.0
 10
72.450996
 20
54.000000
 30
0.0
 10
72.164001
 20
54.000000
 30
0.0
 10
67.689003
 20
54.000000
 30
0.0
 10
67.401001
 20
54.000000
 30
0.0
 10
62.925999
 20
54.000000
 30
0.0
 10
57.875999
 20
54.000000
 30
0.0
 10
55.493999
 20
54.000000
 30
0.0
 10
53.401001
 20
54.000000
 30
0.0
 10
48.351002
 20
54.000000
 30
0.0
 10
43.875999
 20
54.000000
 30
0.0
 10
41.493999
 20
54.000000
 30
0.0
 10
38.826000
 20
54.000000
 30
0.0
 10
34.351002
 20
54.000000
 30
0.0
 10
31.263000
 20
54.000000
 30
0.0
 10
30.438000
 20
54.000000
 30
0.0
 10
29.299999
 20
54.000000
 30
0.0
 10
24.825001
 20
54.000000
 30
0.0
 10
23.688000
 20
54.000000
 30
0.0
 10
19.775000
 20
54.000000
 30
0.0
 10
15.300000
 20
54.000000
 30
0.0
 10
15.013000
 20
54.000000
 30
0.0
 10
10.250000
 20
54.000000
 30
0.0
 10
5.775000
 20
54.000000
 30
0.0
 10
1.012000
 20
54.000000
 30
0.0
 10
0.725000
 20
54.000000
 30
0.0
 10
-3.750000
 20
54.000000
 30
0.0
 10
-7.663000
 20
54.000000
 30
0.0
 10
-8.800000
 20
54.000000
 30
0.0
 10
-13.275000
 20
54.000000
 30
0.0
 10
-14.413000
 20
54.000000
 30
0.0
 10
-15.238000
 20
54.000000
 30
0.0
 10
-18.325001
 20
54.000000
 30
0.0
 10
-21.440001
 20
54.000000
 30
0.0
 10
-22.799999
 20
54.000000
 30
0.0
 10
-23.087999
 20
54.000000
 30
0.0
 10
-25.888000
 20
54.000000
 30
0.0
 10
-26.712999
 20
54.000000
 30
0.0
 10
-27.851000
 20
54.000000
 30
0.0
 10
-32.326000
 20
54.000000
 30
0.0
 10
-33.463001
 20
54.000000
 30
0.0
 10
-37.375999
 20
54.000000
 30
0.0
 10
-41.851002
 20
54.000000
 30
0.0
 10
-42.138000
 20
54.000000
 30
0.0
 10
-46.901001
 20
54.000000
 30
0.0
 10
-51.375999
 20
54.000000
 30
0.0
 10
-56.138000
 20
54.000000
 30
0.0
 10
-56.425999
 20
54.000000
 30
0.0
 10
-59.540001
 20
54.000000
 30
0.0
 10
-60.901001
 20
54.000000
 30
0.0
 10
-64.814003
 20
54.000000
 30
0.0
 10
-65.950996
 20
54.000000
 30
0.0
 10
-70.426003
 20
54.000000
 30
0.0
 10
-71.564003
 20
54.000000
 30
0.0
 10
-72.389000
 20
54.000000
 30
0.0
 10
-75.475998
 20
54.000000
 30
0.0
 10
-79.950996
 20
54.000000
 30
0.0
 10
-82.620003
 20
54.000000
 30
0.0
 10
-85.000999
 20
54.000000
 30
0.0
 10
-89.476997
 20
54.000000
 30
0.0
 10
-94.527000
 20
54.000000
 30
0.0
 10
-96.621002
 20
54.000000
 30
0.0
 10
-99.001999
 20
54.000000
 30
0.0
 10
-104.052002
 20
54.000000
 30
0.0
 10
-106.432999
 20
54.000000
 30
0.0
 10
-108.527000
 20
54.000000
 30
0.0
 10
-111.621002
 20
54.000000
 30
0.0
 10
-112.445999
 20
54.000000
 30
0.0
 10
-113.577003
 20
54.000000
 30
0.0
 10
-114.170998
 20
54.000000
 30
0.0
 10
-117.471001
 20
54.000000
 30
0.0
 10
-118.052002
 20
54.000000
 30
0.0
 10
-119.195999
 20
54.000000
 30
0.0
 10
-120.433998
 20
54.000000
 30
0.0
 10
-120.721001
 20
54.000000
 30
0.0
 10
-126.214996
 20
54.000000
 30
0.0
 10
-127.577003
 20
54.000000
 30
0.0
 10
-127.864998
 20
54.000000
 30
0.0
 10
-130.246002
 20
54.000000
 30
0.0
 10
-130.977005
 20
54.000000
 30
0.0
 10
-132.626999
 20
54.000000
 30
0.0
 10
-134.720993
 20
54.000000
 30
0.0
 10
-136.246002
 20
54.000000
 30
0.0
 10
-137.970993
 20
54.000000
 30
0.0
 10
-141.270996
 20
54.000000
 30
0.0
 10
-141.865005
 20
54.000000
 30
0.0
 10
-142.996002
 20
54.000000
 30
0.0
 10
-143.820999
 20
54.000000
 30
0.0
 10
-144.246002
 20
54.000000
 30
0.0
 10
-146.626999
 20
54.000000
 30
0.0
 10
-146.748001
 20
54.000000
 30
0.0
 10
-146.779007
 20
54.000000
 30
0.0
 10
-147.367996
 20
54.095001
 30
0.0
 10
-147.927002
 20
54.382999
 30
0.0
 10
-148.371994
 20
54.831001
 30
0.0
 10
-148.656998
 20
55.396000
 30
0.0
 10
-148.750000
 20
55.990063
 30
0.0
 10
-148.750000
 20
56.021999
 30
0.0
 10
-148.750000
 20
146.998001
 30
0.0
 10
-148.750000
 20
147.029633
 30
0.0
 10
-148.656998
 20
147.618000
 30
0.0
 10
-148.371994
 20
148.178001
 30
0.0
 10
-147.927002
 20
148.622002
 30
0.0
 10
-147.367996
 20
148.907001
 30
0.0
 10
-146.785568
 20
149.000000
 30
0.0
 10
-146.748001
 20
149.000000
 30
0.0
 10
-146.626999
 20
149.000000
 30
0.0
 10
-132.626999
 20
149.000000
 30
0.0
 10
-130.977005
 20
149.000000
 30
0.0
 10
-129.223007
 20
149.000000
 30
0.0
 10
-127.577003
 20
149.000000
 30
0.0
 10
-113.577003
 20
149.000000
 30
0.0
 10
-108.527000
 20
149.000000
 30
0.0
 10
-94.527000
 20
149.000000
 30
0.0
 10
-89.476997
 20
149.000000
 30
0.0
 10
-75.475998
 20
149.000000
 30
0.0
 10
-70.426003
 20
149.000000
 30
0.0
 10
-59.540001
 20
149.000000
 30
0.0
 10
-57.785000
 20
149.000000
 30
0.0
 10
-56.425999
 20
149.000000
 30
0.0
 10
-51.375999
 20
149.000000
 30
0.0
 10
-37.375999
 20
149.000000
 30
0.0
 10
-35.728001
 20
149.000000
 30
0.0
 10
-33.973000
 20
149.000000
 30
0.0
 10
-32.326000
 20
149.000000
 30
0.0
 10
-18.325001
 20
149.000000
 30
0.0
 10
-13.275000
 20
149.000000
 30
0.0
 10
0.725000
 20
149.000000
 30
0.0
 10
5.775000
 20
149.000000
 30
0.0
 10
19.775000
 20
149.000000
 30
0.0
 10
24.825001
 20
149.000000
 30
0.0
 10
38.826000
 20
149.000000
 30
0.0
 10
43.875999
 20
149.000000
 30
0.0
 10
57.875999
 20
149.000000
 30
0.0
 10
59.522999
 20
149.000000
 30
0.0
 10
61.278000
 20
149.000000
 30
0.0
 10
62.925999
 20
149.000000
 30
0.0
 10
76.926003
 20
149.000000
 30
0.0
 10
81.975998
 20
149.000000
 30
0.0
 10
95.976997
 20
149.000000
 30
0.0
 10
101.452003
 20
149.000000
 30
0.0
 10
102.277000
 20
149.000000
 30
0.0
 10
109.027000
 20
149.000000
 30
0.0
 10
110.552002
 20
149.000000
 30
0.0
 10
124.552002
 20
149.000000
 30
0.0
 10
126.077003
 20
149.000000
 30
0.0
 10
132.826996
 20
149.000000
 30
0.0
 10
133.651993
 20
149.000000
 30
0.0
 10
135.723007
 20
149.000000
 30
0.0
 10
137.477997
 20
149.000000
 30
0.0
 10
139.126999
 20
149.000000
 30
0.0
 10
153.128006
 20
149.000000
 30
0.0
 10
153.248001
 20
149.000000
 30
0.0
 10
153.285568
 20
149.000000
 30
0.0
 10
153.867996
 20
148.907001
 30
0.0
 10
154.427002
 20
148.622002
 30
0.0
 10
154.871994
 20
148.178001
 30
0.0
  0
LWPOLYLINE
  5
101
100
AcDbEntity
  8
0
 62
7
100
AcDbPolyline
 90
45
 70
1
 10
126.077003
 20
141.902000
 30
0.0
 10
124.552002
 20
141.902000
 30
0.0
 10
124.552002
 20
146.602001
 30
0.0
 10
110.552002
 20
146.602001
 30
0.0
 10
110.552002
 20
141.902000
 30
0.0
 10
109.027000
 20
141.902000
 30
0.0
 10
109.027000
 20
145.132000
 30
0.0
 10
102.277000
 20
145.132000
 30
0.0
 10
102.277000
 20
141.902000
 30
0.0
 10
101.452003
 20
141.902000
 30
0.0
 10
101.452003
 20
139.117001
 30
0.0
 10
102.277000
 20
139.117001
 30
0.0
 10
102.277000
 20
138.723000
 30
0.0
 10
102.277000
 20
132.832001
 30
0.0
 10
104.001999
 20
132.832001
 30
0.0
 10
104.001999
 20
131.632000
 30
0.0
 10
105.501999
 20
131.632000
 30
0.0
 10
106.644997
 20
131.632000
 30
0.0
 10
107.302002
 20
131.632000
 30
0.0
 10
107.302002
 20
132.832001
 30
0.0
 10
108.170998
 20
132.832001
 30
0.0
 10
109.027000
 20
132.832001
 30
0.0
 10
109.027000
 20
137.301998
 30
0.0
 10
110.552002
 20
137.301998
 30
0.0
 10
110.552002
 20
132.602001
 30
0.0
 10
115.315002
 20
132.602001
 30
0.0
 10
124.552002
 20
132.602001
 30
0.0
 10
124.552002
 20
137.301998
 30
0.0
 10
126.077003
 20
137.301998
 30
0.0
 10
126.077003
 20
132.832001
 30
0.0
 10
127.802002
 20
132.832001
 30
0.0
 10
127.802002
 20
131.632000
 30
0.0
 10
129.313995
 20
131.632000
 30
0.0
 10
130.445999
 20
131.632000
 30
0.0
 10
131.102005
 20
131.632000
 30
0.0
 10
131.102005
 20
132.832001
 30
0.0
 10
131.270996
 20
132.832001
 30
0.0
 10
132.826996
 20
132.832001
 30
0.0
 10
132.826996
 20
138.723000
 30
0.0
 10
132.826996
 20
139.117001
 30
0.0
 10
133.651993
 20
139.117001
 30
0.0
 10
133.651993
 20
141.902000
 30
0.0
 10
132.826996
 20
141.902000
 30
0.0
 10
132.826996
 20
145.132000
 30
0.0
 10
126.077003
 20
145.132000
 30
0.0
  0
LWPOLYLINE
  5
102
100
AcDbEntity
  8
0
 62
7
100
AcDbPolyline
 90
67
 70
1
 10
123.695999
 20
103.800000
 30
0.0
 10
122.170998
 20
103.800000
 30
0.0
 10
122.170998
 20
108.500000
 30
0.0
 10
115.315002
 20
108.500000
 30
0.0
 10
110.552002
 20
108.500000
 30
0.0
 10
109.027000
 20
108.500000
 30
0.0
 10
108.170998
 20
108.500000
 30
0.0
 10
108.170998
 20
103.800000
 30
0.0
 10
107.302002
 20
103.800000
 30
0.0
 10
106.644997
 20
103.800000
 30
0.0
 10
106.644997
 20
107.030000
 30
0.0
 10
105.501999
 20
107.030000
 30
0.0
 10
104.001999
 20
107.030000
 30
0.0
 10
102.277000
 20
107.030000
 30
0.0
 10
101.452003
 20
107.030000
 30
0.0
 10
99.894997
 20
107.030000
 30
0.0
 10
99.894997
 20
103.800000
 30
0.0
 10
99.070000
 20
103.800000
 30
0.0
 10
99.070000
 20
101.015000
 30
0.0
 10
99.894997
 20
101.015000
 30
0.0
 10
99.894997
 20
100.623000
 30
0.0
 10
99.894997
 20
94.730000
 30
0.0
 10
101.452003
 20
94.730000
 30
0.0
 10
101.620003
 20
94.730000
 30
0.0
 10
101.620003
 20
93.530000
 30
0.0
 10
102.277000
 20
93.530000
 30
0.0
 10
104.001999
 20
93.530000
 30
0.0
 10
104.919998
 20
93.530000
 30
0.0
 10
104.919998
 20
94.730000
 30
0.0
 10
105.501999
 20
94.730000
 30
0.0
 10
106.644997
 20
94.730000
 30
0.0
 10
106.644997
 20
99.200000
 30
0.0
 10
107.302002
 20
99.200000
 30
0.0
 10
107.883003
 20
99.200000
 30
0.0
 10
108.170998
 20
99.200000
 30
0.0
 10
108.170998
 20
94.500000
 30
0.0
 10
109.027000
 20
94.500000
 30
0.0
 10
110.552002
 20
94.500000
 30
0.0
 10
115.027000
 20
94.500000
 30
0.0
 10
115.315002
 20
94.500000
 30
0.0
 10
120.077003
 20
94.500000
 30
0.0
 10
122.170998
 20
94.500000
 30
0.0
 10
122.170998
 20
99.200000
 30
0.0
 10
123.695999
 20
99.200000
 30
0.0
 10
123.695999
 20
94.730000
 30
0.0
 10
124.552002
 20
94.730000
 30
0.0
 10
125.420998
 20
94.730000
 30
0.0
 10
125.420998
 20
93.530000
 30
0.0
 10
126.077003
 20
93.530000
 30
0.0
 10
127.802002
 20
93.530000
 30
0.0
 10
128.720993
 20
93.530000
 30
0.0
 10
128.720993
 20
94.730000
 30
0.0
 10
129.313995
 20
94.730000
 30
0.0
 10
130.445999
 20
94.730000
 30
0.0
 10
130.445999
 20
100.623000
 30
0.0
 10
130.445999
 20
101.015000
 30
0.0
 10
131.102005
 20
101.015000
 30
0.0
 10
131.270996
 20
101.015000
 30
0.0
 10
131.270996
 20
103.800000
 30
0.0
 10
131.102005
 20
103.800000
 30
0.0
 10
130.445999
 20
103.800000
 30
0.0
 10
130.445999
 20
107.030000
 30
0.0
 10
129.313995
 20
107.030000
 30
0.0
 10
127.802002
 20
107.030000
 30
0.0
 10
126.077003
 20
107.030000
 30
0.0
 10
124.552002
 20
107.030000
 30
0.0
 10
123.695999
 20
107.030000
 30
0.0
  0
LWPOLYLINE
  5
103
100
AcDbEntity
  8
0
 62
7
100
AcDbPolyline
 90
66
 70
1
 10
-12.688000
 20
70.167999
 30
0.0
 10
-13.275000
 20
70.167999
 30
0.0
 10
-13.563000
 20
70.167999
 30
0.0
 10
-14.413000
 20
70.167999
 30
0.0
 10
-14.413000
 20
63.882999
 30
0.0
 10
-15.238000
 20
63.882999
 30
0.0
 10
-15.238000
 20
62.521999
 30
0.0
 10
-15.238000
 20
61.098000
 30
0.0
 10
-14.413000
 20
61.098000
 30
0.0
 10
-14.413000
 20
57.868000
 30
0.0
 10
-13.275000
 20
57.868000
 30
0.0
 10
-8.800000
 20
57.868000
 30
0.0
 10
-7.663000
 20
57.868000
 30
0.0
 10
-7.663000
 20
61.098000
 30
0.0
 10
-3.750000
 20
61.098000
 30
0.0
 10
0.725000
 20
61.098000
 30
0.0
 10
1.012000
 20
61.098000
 30
0.0
 10
1.012000
 20
56.396999
 30
0.0
 10
5.775000
 20
56.396999
 30
0.0
 10
10.250000
 20
56.396999
 30
0.0
 10
15.013000
 20
56.396999
 30
0.0
 10
15.013000
 20
61.098000
 30
0.0
 10
15.300000
 20
61.098000
 30
0.0
 10
19.775000
 20
61.098000
 30
0.0
 10
23.688000
 20
61.098000
 30
0.0
 10
23.688000
 20
57.868000
 30
0.0
 10
24.825001
 20
57.868000
 30
0.0
 10
29.299999
 20
57.868000
 30
0.0
 10
30.438000
 20
57.868000
 30
0.0
 10
30.438000
 20
61.098000
 30
0.0
 10
31.263000
 20
61.098000
 30
0.0
 10
31.263000
 20
62.521999
 30
0.0
 10
31.263000
 20
63.882999
 30
0.0
 10
30.438000
 20
63.882999
 30
0.0
 10
30.438000
 20
70.167999
 30
0.0
 10
29.587999
 20
70.167999
 30
0.0
 10
29.299999
 20
70.167999
 30
0.0
 10
28.712999
 20
70.167999
 30
0.0
 10
28.712999
 20
71.368000
 30
0.0
 10
25.413000
 20
71.368000
 30
0.0
 10
25.413000
 20
70.167999
 30
0.0
 10
24.825001
 20
70.167999
 30
0.0
 10
24.538000
 20
70.167999
 30
0.0
 10
23.688000
 20
70.167999
 30
0.0
 10
23.688000
 20
65.698000
 30
0.0
 10
20.063000
 20
65.698000
 30
0.0
 10
19.775000
 20
65.698000
 30
0.0
 10
15.300000
 20
65.698000
 30
0.0
 10
15.013000
 20
65.698000
 30
0.0
 10
15.013000
 20
70.398001
 30
0.0
 10
10.538000
 20
70.398001
 30
0.0
 10
10.250000
 20
70.398001
 30
0.0
 10
5.775000
 20
70.398001
 30
0.0
 10
5.488000
 20
70.398001
 30
0.0
 10
1.012000
 20
70.398001
 30
0.0
 10
1.012000
 20
65.698000
 30
0.0
 10
0.725000
 20
65.698000
 30
0.0
 10
-3.750000
 20
65.698000
 30
0.0
 10
-4.038000
 20
65.698000
 30
0.0
 10
-7.663000
 20
65.698000
 30
0.0
 10
-7.663000
 20
70.167999
 30
0.0
 10
-8.513000
 20
70.167999
 30
0.0
 10
-8.800000
 20
70.167999
 30
0.0
 10
-9.388000
 20
70.167999
 30
0.0
 10
-9.388000
 20
71.368000
 30
0.0
 10
-12.688000
 20
71.368000
 30
0.0
  0
LWPOLYLINE
  5
104
100
AcDbEntity
  8
0
 62
7
100
AcDbPolyline
 90
67
 70
1
 10
-56.138000
 20
65.698000
 30
0.0
 10
-56.425999
 20
65.698000
 30
0.0
 10
-59.540001
 20
65.698000
 30
0.0
 10
-60.901001
 20
65.698000
 30
0.0
 10
-61.188999
 20
65.698000
 30
0.0
 10
-64.814003
 20
65.698000
 30
0.0
 10
-64.814003
 20
70.167999
 30
0.0
 10
-65.664001
 20
70.167999
 30
0.0
 10
-65.950996
 20
70.167999
 30
0.0
 10
-66.539001
 20
70.167999
 30
0.0
 10
-66.539001
 20
71.368000
 30
0.0
 10
-69.838997
 20
71.368000
 30
0.0
 10
-69.838997
 20
70.167999
 30
0.0
 10
-70.426003
 20
70.167999
 30
0.0
 10
-70.713997
 20
70.167999
 30
0.0
 10
-71.564003
 20
70.167999
 30
0.0
 10
-71.564003
 20
63.882999
 30
0.0
 10
-72.389000
 20
63.882999
 30
0.0
 10
-72.389000
 20
62.521999
 30
0.0
 10
-72.389000
 20
61.098000
 30
0.0
 10
-71.564003
 20
61.098000
 30
0.0
 10
-71.564003
 20
57.868000
 30
0.0
 10
-70.426003
 20
57.868000
 30
0.0
 10
-65.950996
 20
57.868000
 30
0.0
 10
-64.814003
 20
57.868000
 30
0.0
 10
-64.814003
 20
61.098000
 30
0.0
 10
-60.901001
 20
61.098000
 30
0.0
 10
-59.540001
 20
61.098000
 30
0.0
 10
-56.425999
 20
61.098000
 30
0.0
 10
-56.138000
 20
61.098000
 30
0.0
 10
-56.138000
 20
56.396999
 30
0.0
 10
-51.375999
 20
56.396999
 30
0.0
 10
-46.901001
 20
56.396999
 30
0.0
 10
-42.138000
 20
56.396999
 30
0.0
 10
-42.138000
 20
61.098000
 30
0.0
 10
-41.851002
 20
61.098000
 30
0.0
 10
-37.375999
 20
61.098000
 30
0.0
 10
-33.463001
 20
61.098000
 30
0.0
 10
-33.463001
 20
57.868000
 30
0.0
 10
-32.326000
 20
57.868000
 30
0.0
 10
-27.851000
 20
57.868000
 30
0.0
 10
-26.712999
 20
57.868000
 30
0.0
 10
-26.712999
 20
61.098000
 30
0.0
 10
-25.888000
 20
61.098000
 30
0.0
 10
-25.888000
 20
63.882999
 30
0.0
 10
-26.712999
 20
63.882999
 30
0.0
 10
-26.712999
 20
70.167999
 30
0.0
 10
-27.563000
 20
70.167999
 30
0.0
 10
-27.851000
 20
70.167999
 30
0.0
 10
-28.438000
 20
70.167999
 30
0.0
 10
-28.438000
 20
71.368000
 30
0.0
 10
-31.738001
 20
71.368000
 30
0.0
 10
-31.738001
 20
70.167999
 30
0.0
 10
-32.326000
 20
70.167999
 30
0.0
 10
-32.612999
 20
70.167999
 30
0.0
 10
-33.463001
 20
70.167999
 30
0.0
 10
-33.463001
 20
65.698000
 30
0.0
 10
-37.088001
 20
65.698000
 30
0.0
 10
-37.375999
 20
65.698000
 30
0.0
 10
-41.851002
 20
65.698000
 30
0.0
 10
-42.138000
 20
65.698000
 30
0.0
 10
-42.138000
 20
70.398001
 30
0.0
 10
-46.612999
 20
70.398001
 30
0.0
 10
-46.901001
 20
70.398001
 30
0.0
 10
-51.375999
 20
70.398001
 30
0.0
 10
-51.662998
 20
70.398001
 30
0.0
 10
-56.138000
 20
70.398001
 30
0.0
  0
LWPOLYLINE
  5
105
100
AcDbEntity
  8
0
 62
7
100
AcDbPolyline
 90
61
 70
1
 10
-119.195999
 20
84.749000
 30
0.0
 10
-120.262001
 20
84.749000
 30
0.0
 10
-120.721001
 20
84.749000
 30
0.0
 10
-120.721001
 20
89.449000
 30
0.0
 10
-124.459999
 20
89.449000
 30
0.0
 10
-125.483002
 20
89.449000
 30
0.0
 10
-126.214996
 20
89.449000
 30
0.0
 10
-127.577003
 20
89.449000
 30
0.0
 10
-127.864998
 20
89.449000
 30
0.0
 10
-130.977005
 20
89.449000
 30
0.0
 10
-132.626999
 20
89.449000
 30
0.0
 10
-134.720993
 20
89.449000
 30
0.0
 10
-134.720993
 20
84.749000
 30
0.0
 10
-136.246002
 20
84.749000
 30
0.0
 10
-136.246002
 20
87.979000
 30
0.0
 10
-139.483002
 20
87.979000
 30
0.0
 10
-141.865005
 20
87.979000
 30
0.0
 10
-142.996002
 20
87.979000
 30
0.0
 10
-142.996002
 20
84.749000
 30
0.0
 10
-143.820999
 20
84.749000
 30
0.0
 10
-143.820999
 20
81.964000
 30
0.0
 10
-142.996002
 20
81.964000
 30
0.0
 10
-142.996002
 20
75.679001
 30
0.0
 10
-141.865005
 20
75.679001
 30
0.0
 10
-141.270996
 20
75.679001
 30
0.0
 10
-141.270996
 20
74.478001
 30
0.0
 10
-137.970993
 20
74.478001
 30
0.0
 10
-137.970993
 20
75.679001
 30
0.0
 10
-136.246002
 20
75.679001
 30
0.0
 10
-136.246002
 20
80.149000
 30
0.0
 10
-134.720993
 20
80.149000
 30
0.0
 10
-134.720993
 20
75.448999
 30
0.0
 10
-132.626999
 20
75.448999
 30
0.0
 10
-130.977005
 20
75.448999
 30
0.0
 10
-130.246002
 20
75.448999
 30
0.0
 10
-127.864998
 20
75.448999
 30
0.0
 10
-127.577003
 20
75.448999
 30
0.0
 10
-126.214996
 20
75.448999
 30
0.0
 10
-124.459999
 20
75.448999
 30
0.0
 10
-120.721001
 20
75.448999
 30
0.0
 10
-120.721001
 20
80.149000
 30
0.0
 10
-120.433998
 20
80.149000
 30
0.0
 10
-120.262001
 20
80.149000
 30
0.0
 10
-119.195999
 20
80.149000
 30
0.0
 10
-119.195999
 20
75.679001
 30
0.0
 10
-118.052002
 20
75.679001
 30
0.0
 10
-117.471001
 20
75.679001
 30
0.0
 10
-117.471001
 20
74.478001
 30
0.0
 10
-114.170998
 20
74.478001
 30
0.0
 10
-114.170998
 20
75.679001
 30
0.0
 10
-113.577003
 20
75.679001
 30
0.0
 10
-112.445999
 20
75.679001
 30
0.0
 10
-112.445999
 20
81.964000
 30
0.0
 10
-111.621002
 20
81.964000
 30
0.0
 10
-111.621002
 20
84.749000
 30
0.0
 10
-112.445999
 20
84.749000
 30
0.0
 10
-112.445999
 20
87.979000
 30
0.0
 10
-113.289001
 20
87.979000
 30
0.0
 10
-113.577003
 20
87.979000
 30
0.0
 10
-118.052002
 20
87.979000
 30
0.0
 10
-119.195999
 20
87.979000
 30
0.0
  0
LWPOLYLINE
  5
106
100
AcDbEntity
  8
0
 62
7
100
AcDbPolyline
 90
22
 70
1
 10
-58.932999
 20
100.665000
 30
0.0
 10
-58.661999
 20
100.623000
 30
0.0
 10
-58.390999
 20
100.665000
 30
0.0
 10
-58.146000
 20
100.790000
 30
0.0
 10
-57.952000
 20
100.984000
 30
0.0
 10
-57.894855
 20
101.096000
 30
0.0
 10
-57.827000
 20
101.229000
 30
0.0
 10
-57.785000
 20
101.500000
 30
0.0
 10
-57.827000
 20
101.771000
 30
0.0
 10
-57.952000
 20
102.016000
 30
0.0
 10
-58.146000
 20
102.210000
 30
0.0
 10
-58.390999
 20
102.335000
 30
0.0
 10
-58.661999
 20
102.378000
 30
0.0
 10
-58.932999
 20
102.335000
 30
0.0
 10
-59.178001
 20
102.210000
 30
0.0
 10
-59.372002
 20
102.016000
 30
0.0
 10
-59.497002
 20
101.771000
 30
0.0
 10
-59.540001
 20
101.500000
 30
0.0
 10
-59.497002
 20
101.229000
 30
0.0
 10
-59.429142
 20
101.096000
 30
0.0
 10
-59.372002
 20
100.984000
 30
0.0
 10
-59.178001
 20
100.790000
 30
0.0
  0
LWPOLYLINE
  5
107
100
AcDbEntity
  8
0
 62
7
100
AcDbPolyline
 90
22
 70
1
 10
-35.120998
 20
138.764999
 30
0.0
 10
-34.849998
 20
138.723000
 30
0.0
 10
-34.578999
 20
138.764999
 30
0.0
 10
-34.334000
 20
138.889999
 30
0.0
 10
-34.139999
 20
139.084000
 30
0.0
 10
-34.014999
 20
139.328999
 30
0.0
 10
-33.973000
 20
139.599998
 30
0.0
 10
-34.014999
 20
139.870998
 30
0.0
 10
-34.084896
 20
140.007999
 30
0.0
 10
-34.139999
 20
140.116001
 30
0.0
 10
-34.334000
 20
140.310001
 30
0.0
 10
-34.578999
 20
140.435001
 30
0.0
 10
-34.849998
 20
140.478001
 30
0.0
 10
-35.120998
 20
140.435001
 30
0.0
 10
-35.366001
 20
140.310001
 30
0.0
 10
-35.560001
 20
140.116001
 30
0.0
 10
-35.615101
 20
140.007999
 30
0.0
 10
-35.685001
 20
139.870998
 30
0.0
 10
-35.728001
 20
139.599998
 30
0.0
 10
-35.685001
 20
139.328999
 30
0.0
 10
-35.560001
 20
139.084000
 30
0.0
 10
-35.366001
 20
138.889999
 30
0.0
  0
LWPOLYLINE
  5
108
100
AcDbEntity
  8
0
 62
7
100
AcDbPolyline
 90
22
 70
1
 10
136.328995
 20
138.764999
 30
0.0
 10
136.600006
 20
138.723000
 30
0.0
 10
136.871002
 20
138.764999
 30
0.0
 10
137.115997
 20
138.889999
 30
0.0
 10
137.309998
 20
139.084000
 30
0.0
 10
137.434998
 20
139.328999
 30
0.0
 10
137.477997
 20
139.599998
 30
0.0
 10
137.434998
 20
139.870998
 30
0.0
 10
137.365097
 20
140.007999
 30
0.0
 10
137.309998
 20
140.116001
 30
0.0
 10
137.115997
 20
140.310001
 30
0.0
 10
136.871002
 20
140.435001
 30
0.0
 10
136.600006
 20
140.478001
 30
0.0
 10
136.328995
 20
140.435001
 30
0.0
 10
136.084000
 20
140.310001
 30
0.0
 10
135.889999
 20
140.116001
 30
0.0
 10
135.834900
 20
140.007999
 30
0.0
 10
135.764999
 20
139.870998
 30
0.0
 10
135.723007
 20
139.599998
 30
0.0
 10
135.764999
 20
139.328999
 30
0.0
 10
135.889999
 20
139.084000
 30
0.0
 10
136.084000
 20
138.889999
 30
0.0
  0
LWPOLYLINE
  5
109
100
AcDbEntity
  8
0
 62
7
100
AcDbPolyline
 90
22
 70
1
 10
60.129002
 20
138.764999
 30
0.0
 10
60.400002
 20
138.723000
 30
0.0
 10
60.671001
 20
138.764999
 30
0.0
 10
60.916000
 20
138.889999
 30
0.0
 10
61.110001
 20
139.084000
 30
0.0
 10
61.235001
 20
139.328999
 30
0.0
 10
61.278000
 20
139.599998
 30
0.0
 10
61.235001
 20
139.870998
 30
0.0
 10
61.165104
 20
140.007999
 30
0.0
 10
61.110001
 20
140.116001
 30
0.0
 10
60.916000
 20
140.310001
 30
0.0
 10
60.671001
 20
140.435001
 30
0.0
 10
60.400002
 20
140.478001
 30
0.0
 10
60.129002
 20
140.435001
 30
0.0
 10
59.883999
 20
140.310001
 30
0.0
 10
59.689999
 20
140.116001
 30
0.0
 10
59.634899
 20
140.007999
 30
0.0
 10
59.564999
 20
139.870998
 30
0.0
 10
59.522999
 20
139.599998
 30
0.0
 10
59.564999
 20
139.328999
 30
0.0
 10
59.689999
 20
139.084000
 30
0.0
 10
59.883999
 20
138.889999
 30
0.0
  0
LWPOLYLINE
  5
10a
100
AcDbEntity
  8
0
 62
7
100
AcDbPolyline
 90
22
 70
1
 10
17.267000
 20
100.665000
 30
0.0
 10
17.538000
 20
100.623000
 30
0.0
 10
17.809000
 20
100.665000
 30
0.0
 10
18.054001
 20
100.790000
 30
0.0
 10
18.247999
 20
100.984000
 30
0.0
 10
18.305143
 20
101.096000
 30
0.0
 10
18.372999
 20
101.229000
 30
0.0
 10
18.416000
 20
101.500000
 30
0.0
 10
18.372999
 20
101.771000
 30
0.0
 10
18.247999
 20
102.016000
 30
0.0
 10
18.054001
 20
102.210000
 30
0.0
 10
17.809000
 20
102.335000
 30
0.0
 10
17.538000
 20
102.378000
 30
0.0
 10
17.267000
 20
102.335000
 30
0.0
 10
17.021999
 20
102.210000
 30
0.0
 10
16.827999
 20
102.016000
 30
0.0
 10
16.702999
 20
101.771000
 30
0.0
 10
16.660999
 20
101.500000
 30
0.0
 10
16.702999
 20
101.229000
 30
0.0
 10
16.770857
 20
101.096000
 30
0.0
 10
16.827999
 20
100.984000
 30
0.0
 10
17.021999
 20
100.790000
 30
0.0
  0
LWPOLYLINE
  5
10b
100
AcDbEntity
  8
0
 62
7
100
AcDbPolyline
 90
22
 70
1
 10
93.466003
 20
100.665000
 30
0.0
 10
93.737000
 20
100.623000
 30
0.0
 10
94.008003
 20
100.665000
 30
0.0
 10
94.252998
 20
100.790000
 30
0.0
 10
94.446999
 20
100.984000
 30
0.0
 10
94.504143
 20
101.096000
 30
0.0
 10
94.571999
 20
101.229000
 30
0.0
 10
94.614998
 20
101.500000
 30
0.0
 10
94.571999
 20
101.771000
 30
0.0
 10
94.446999
 20
102.016000
 30
0.0
 10
94.252998
 20
102.210000
 30
0.0
 10
94.008003
 20
102.335000
 30
0.0
 10
93.737000
 20
102.378000
 30
0.0
 10
93.466003
 20
102.335000
 30
0.0
 10
93.221001
 20
102.210000
 30
0.0
 10
93.027000
 20
102.016000
 30
0.0
 10
92.902000
 20
101.771000
 30
0.0
 10
92.860001
 20
101.500000
 30
0.0
 10
92.902000
 20
101.229000
 30
0.0
 10
92.969856
 20
101.096000
 30
0.0
 10
93.027000
 20
100.984000
 30
0.0
 10
93.221001
 20
100.790000
 30
0.0
  0
LWPOLYLINE
  5
10c
100
AcDbEntity
  8
0
 62
7
100
AcDbPolyline
 90
23
 70
1
 10
-20.833000
 20
62.564999
 30
0.0
 10
-20.562000
 20
62.521999
 30
0.0
 10
-20.480000
 20
62.535011
 30
0.0
 10
-20.291000
 20
62.564999
 30
0.0
 10
-20.046000
 20
62.689999
 30
0.0
 10
-19.851999
 20
62.883999
 30
0.0
 10
-19.726999
 20
63.129002
 30
0.0
 10
-19.684999
 20
63.400002
 30
0.0
 10
-19.726999
 20
63.671001
 30
0.0
 10
-19.851999
 20
63.916000
 30
0.0
 10
-20.046000
 20
64.110001
 30
0.0
 10
-20.285120
 20
64.231998
 30
0.0
 10
-20.291000
 20
64.235001
 30
0.0
 10
-20.562000
 20
64.277000
 30
0.0
 10
-20.833000
 20
64.235001
 30
0.0
 10
-20.838881
 20
64.231998
 30
0.0
 10
-21.077999
 20
64.110001
 30
0.0
 10
-21.271999
 20
63.916000
 30
0.0
 10
-21.396999
 20
63.671001
 30
0.0
 10
-21.440001
 20
63.400002
 30
0.0
 10
-21.396999
 20
63.129002
 30
0.0
 10
-21.271999
 20
62.883999
 30
0.0
 10
-21.077999
 20
62.689999
 30
0.0
  0
LWPOLYLINE
  5
10d
100
AcDbEntity
  8
0
 62
7
100
AcDbPolyline
 90
23
 70
1
 10
60.129002
 20
62.564999
 30
0.0
 10
60.400002
 20
62.521999
 30
0.0
 10
60.416000
 20
62.524540
 30
0.0
 10
60.671001
 20
62.564999
 30
0.0
 10
60.916000
 20
62.689999
 30
0.0
 10
61.110001
 20
62.883999
 30
0.0
 10
61.235001
 20
63.129002
 30
0.0
 10
61.278000
 20
63.400002
 30
0.0
 10
61.235001
 20
63.671001
 30
0.0
 10
61.110001
 20
63.916000
 30
0.0
 10
60.916000
 20
64.110001
 30
0.0
 10
60.676880
 20
64.231998
 30
0.0
 10
60.671001
 20
64.235001
 30
0.0
 10
60.400002
 20
64.277000
 30
0.0
 10
60.129002
 20
64.235001
 30
0.0
 10
60.123119
 20
64.231998
 30
0.0
 10
59.883999
 20
64.110001
 30
0.0
 10
59.689999
 20
63.916000
 30
0.0
 10
59.564999
 20
63.671001
 30
0.0
 10
59.522999
 20
63.400002
 30
0.0
 10
59.564999
 20
63.129002
 30
0.0
 10
59.689999
 20
62.883999
 30
0.0
 10
59.883999
 20
62.689999
 30
0.0
  0
LWPOLYLINE
  5
10e
100
AcDbEntity
  8
0
 62
7
100
AcDbPolyline
 90
24
 70
1
 10
136.328995
 20
62.564999
 30
0.0
 10
136.600006
 20
62.521999
 30
0.0
 10
136.871002
 20
62.564999
 30
0.0
 10
137.115997
 20
62.689999
 30
0.0
 10
137.216003
 20
62.790001
 30
0.0
 10
137.309998
 20
62.883999
 30
0.0
 10
137.434998
 20
63.129002
 30
0.0
 10
137.477997
 20
63.400002
 30
0.0
 10
137.434998
 20
63.671001
 30
0.0
 10
137.309998
 20
63.916000
 30
0.0
 10
137.216003
 20
64.009998
 30
0.0
 10
137.115997
 20
64.110001
 30
0.0
 10
136.876877
 20
64.231998
 30
0.0
 10
136.871002
 20
64.235001
 30
0.0
 10
136.600006
 20
64.277000
 30
0.0
 10
136.328995
 20
64.235001
 30
0.0
 10
136.323120
 20
64.231998
 30
0.0
 10
136.084000
 20
64.110001
 30
0.0
 10
135.889999
 20
63.916000
 30
0.0
 10
135.764999
 20
63.671001
 30
0.0
 10
135.723007
 20
63.400002
 30
0.0
 10
135.764999
 20
63.129002
 30
0.0
 10
135.889999
 20
62.883999
 30
0.0
 10
136.084000
 20
62.689999
 30
0.0
  0
LWPOLYLINE
  5
10f
100
AcDbEntity
  8
0
 62
7
100
AcDbPolyline
 90
22
 70
1
 10
-13.275000
 20
94.500000
 30
0.0
 10
-12.688000
 20
94.500000
 30
0.0
 10
-9.388000
 20
94.500000
 30
0.0
 10
-8.800000
 20
94.500000
 30
0.0
 10
-8.513000
 20
94.500000
 30
0.0
 10
-7.663000
 20
94.500000
 30
0.0
 10
-4.038000
 20
94.500000
 30
0.0
 10
-4.038000
 20
100.623000
 30
0.0
 10
-4.038000
 20
108.500000
 30
0.0
 10
-7.663000
 20
108.500000
 30
0.0
 10
-8.800000
 20
108.500000
 30
0.0
 10
-9.388000
 20
108.500000
 30
0.0
 10
-12.688000
 20
108.500000
 30
0.0
 10
-13.275000
 20
108.500000
 30
0.0
 10
-14.413000
 20
108.500000
 30
0.0
 10
-15.238000
 20
108.500000
 30
0.0
 10
-18.038000
 20
108.500000
 30
0.0
 10
-18.038000
 20
100.623000
 30
0.0
 10
-18.038000
 20
94.500000
 30
0.0
 10
-15.238000
 20
94.500000
 30
0.0
 10
-14.413000
 20
94.500000
 30
0.0
 10
-13.563000
 20
94.500000
 30
0.0
  0
LWPOLYLINE
  5
110
100
AcDbEntity
  8
0
 62
7
100
AcDbPolyline
 90
24
 70
1
 10
-13.563000
 20
89.449000
 30
0.0
 10
-14.413000
 20
89.449000
 30
0.0
 10
-15.238000
 20
89.449000
 30
0.0
 10
-18.038000
 20
89.449000
 30
0.0
 10
-18.325001
 20
89.449000
 30
0.0
 10
-19.684999
 20
89.449000
 30
0.0
 10
-21.440001
 20
89.449000
 30
0.0
 10
-22.799999
 20
89.449000
 30
0.0
 10
-23.087999
 20
89.449000
 30
0.0
 10
-25.888000
 20
89.449000
 30
0.0
 10
-26.712999
 20
89.449000
 30
0.0
 10
-27.563000
 20
89.449000
 30
0.0
 10
-27.563000
 20
75.448999
 30
0.0
 10
-26.712999
 20
75.448999
 30
0.0
 10
-25.888000
 20
75.448999
 30
0.0
 10
-23.087999
 20
75.448999
 30
0.0
 10
-22.799999
 20
75.448999
 30
0.0
 10
-21.440001
 20
75.448999
 30
0.0
 10
-19.684999
 20
75.448999
 30
0.0
 10
-18.325001
 20
75.448999
 30
0.0
 10
-18.038000
 20
75.448999
 30
0.0
 10
-15.238000
 20
75.448999
 30
0.0
 10
-14.413000
 20
75.448999
 30
0.0
 10
-13.563000
 20
75.448999
 30
0.0
  0
LWPOLYLINE
  5
111
100
AcDbEntity
  8
0
 62
7
100
AcDbPolyline
 90
12
 70
1
 10
5.775000
 20
94.500000
 30
0.0
 10
10.250000
 20
94.500000
 30
0.0
 10
10.538000
 20
94.500000
 30
0.0
 10
15.013000
 20
94.500000
 30
0.0
 10
15.013000
 20
100.623000
 30
0.0
 10
15.013000
 20
108.500000
 30
0.0
 10
10.250000
 20
108.500000
 30
0.0
 10
5.775000
 20
108.500000
 30
0.0
 10
1.012000
 20
108.500000
 30
0.0
 10
1.012000
 20
100.623000
 30
0.0
 10
1.012000
 20
94.500000
 30
0.0
 10
5.488000
 20
94.500000
 30
0.0
  0
LWPOLYLINE
  5
112
100
AcDbEntity
  8
0
 62
7
100
AcDbPolyline
 90
14
 70
1
 10
5.488000
 20
89.449000
 30
0.0
 10
1.012000
 20
89.449000
 30
0.0
 10
0.725000
 20
89.449000
 30
0.0
 10
-3.750000
 20
89.449000
 30
0.0
 10
-4.038000
 20
89.449000
 30
0.0
 10
-7.663000
 20
89.449000
 30
0.0
 10
-8.513000
 20
89.449000
 30
0.0
 10
-8.513000
 20
75.448999
 30
0.0
 10
-7.663000
 20
75.448999
 30
0.0
 10
-4.038000
 20
75.448999
 30
0.0
 10
-3.750000
 20
75.448999
 30
0.0
 10
0.725000
 20
75.448999
 30
0.0
 10
1.012000
 20
75.448999
 30
0.0
 10
5.488000
 20
75.448999
 30
0.0
  0
LWPOLYLINE
  5
113
100
AcDbEntity
  8
0
 62
7
100
AcDbPolyline
 90
22
 70
1
 10
24.825001
 20
94.500000
 30
0.0
 10
25.413000
 20
94.500000
 30
0.0
 10
28.712999
 20
94.500000
 30
0.0
 10
29.299999
 20
94.500000
 30
0.0
 10
29.587999
 20
94.500000
 30
0.0
 10
30.438000
 20
94.500000
 30
0.0
 10
31.263000
 20
94.500000
 30
0.0
 10
34.063000
 20
94.500000
 30
0.0
 10
34.063000
 20
100.623000
 30
0.0
 10
34.063000
 20
108.500000
 30
0.0
 10
31.263000
 20
108.500000
 30
0.0
 10
30.438000
 20
108.500000
 30
0.0
 10
29.299999
 20
108.500000
 30
0.0
 10
28.712999
 20
108.500000
 30
0.0
 10
25.413000
 20
108.500000
 30
0.0
 10
24.825001
 20
108.500000
 30
0.0
 10
23.688000
 20
108.500000
 30
0.0
 10
20.063000
 20
108.500000
 30
0.0
 10
20.063000
 20
100.623000
 30
0.0
 10
20.063000
 20
94.500000
 30
0.0
 10
23.688000
 20
94.500000
 30
0.0
 10
24.538000
 20
94.500000
 30
0.0
  0
LWPOLYLINE
  5
114
100
AcDbEntity
  8
0
 62
7
100
AcDbPolyline
 90
14
 70
1
 10
24.538000
 20
89.449000
 30
0.0
 10
23.688000
 20
89.449000
 30
0.0
 10
20.063000
 20
89.449000
 30
0.0
 10
19.775000
 20
89.449000
 30
0.0
 10
15.300000
 20
89.449000
 30
0.0
 10
15.013000
 20
89.449000
 30
0.0
 10
10.538000
 20
89.449000
 30
0.0
 10
10.538000
 20
75.448999
 30
0.0
 10
15.013000
 20
75.448999
 30
0.0
 10
15.300000
 20
75.448999
 30
0.0
 10
19.775000
 20
75.448999
 30
0.0
 10
20.063000
 20
75.448999
 30
0.0
 10
23.688000
 20
75.448999
 30
0.0
 10
24.538000
 20
75.448999
 30
0.0
  0
LWPOLYLINE
  5
115
100
AcDbEntity
  8
0
 62
7
100
AcDbPolyline
 90
14
 70
1
 10
43.875999
 20
94.500000
 30
0.0
 10
48.351002
 20
94.500000
 30
0.0
 10
48.638000
 20
94.500000
 30
0.0
 10
53.112999
 20
94.500000
 30
0.0
 10
53.112999
 20
100.623000
 30
0.0
 10
53.112999
 20
108.500000
 30
0.0
 10
48.351002
 20
108.500000
 30
0.0
 10
43.875999
 20
108.500000
 30
0.0
 10
41.493999
 20
108.500000
 30
0.0
 10
39.112999
 20
108.500000
 30
0.0
 10
39.112999
 20
100.623000
 30
0.0
 10
39.112999
 20
94.500000
 30
0.0
 10
41.493999
 20
94.500000
 30
0.0
 10
43.588001
 20
94.500000
 30
0.0
  0
LWPOLYLINE
  5
116
100
AcDbEntity
  8
0
 62
7
100
AcDbPolyline
 90
18
 70
1
 10
43.588001
 20
89.449000
 30
0.0
 10
41.493999
 20
89.449000
 30
0.0
 10
39.112999
 20
89.449000
 30
0.0
 10
38.826000
 20
89.449000
 30
0.0
 10
34.351002
 20
89.449000
 30
0.0
 10
34.063000
 20
89.449000
 30
0.0
 10
31.263000
 20
89.449000
 30
0.0
 10
30.438000
 20
89.449000
 30
0.0
 10
29.587999
 20
89.449000
 30
0.0
 10
29.587999
 20
75.448999
 30
0.0
 10
30.438000
 20
75.448999
 30
0.0
 10
31.263000
 20
75.448999
 30
0.0
 10
34.063000
 20
75.448999
 30
0.0
 10
34.351002
 20
75.448999
 30
0.0
 10
38.826000
 20
75.448999
 30
0.0
 10
39.112999
 20
75.448999
 30
0.0
 10
41.493999
 20
75.448999
 30
0.0
 10
43.588001
 20
75.448999
 30
0.0
  0
LWPOLYLINE
  5
117
100
AcDbEntity
  8
0
 62
7
100
AcDbPolyline
 90
12
 70
1
 10
-51.375999
 20
94.500000
 30
0.0
 10
-46.901001
 20
94.500000
 30
0.0
 10
-46.612999
 20
94.500000
 30
0.0
 10
-42.138000
 20
94.500000
 30
0.0
 10
-42.138000
 20
100.623000
 30
0.0
 10
-42.138000
 20
108.500000
 30
0.0
 10
-46.901001
 20
108.500000
 30
0.0
 10
-51.375999
 20
108.500000
 30
0.0
 10
-56.138000
 20
108.500000
 30
0.0
 10
-56.138000
 20
100.623000
 30
0.0
 10
-56.138000
 20
94.500000
 30
0.0
 10
-51.662998
 20
94.500000
 30
0.0
  0
LWPOLYLINE
  5
118
100
AcDbEntity
  8
0
 62
7
100
AcDbPolyline
 90
16
 70
1
 10
-51.662998
 20
89.449000
 30
0.0
 10
-56.138000
 20
89.449000
 30
0.0
 10
-56.425999
 20
89.449000
 30
0.0
 10
-59.540001
 20
89.449000
 30
0.0
 10
-60.901001
 20
89.449000
 30
0.0
 10
-61.188999
 20
89.449000
 30
0.0
 10
-64.814003
 20
89.449000
 30
0.0
 10
-65.664001
 20
89.449000
 30
0.0
 10
-65.664001
 20
75.448999
 30
0.0
 10
-64.814003
 20
75.448999
 30
0.0
 10
-61.188999
 20
75.448999
 30
0.0
 10
-60.901001
 20
75.448999
 30
0.0
 10
-59.540001
 20
75.448999
 30
0.0
 10
-56.425999
 20
75.448999
 30
0.0
 10
-56.138000
 20
75.448999
 30
0.0
 10
-51.662998
 20
75.448999
 30
0.0
  0
LWPOLYLINE
  5
119
100
AcDbEntity
  8
0
 62
7
100
AcDbPolyline
 90
23
 70
1
 10
-32.326000
 20
94.500000
 30
0.0
 10
-31.738001
 20
94.500000
 30
0.0
 10
-28.438000
 20
94.500000
 30
0.0
 10
-27.851000
 20
94.500000
 30
0.0
 10
-27.563000
 20
94.500000
 30
0.0
 10
-26.712999
 20
94.500000
 30
0.0
 10
-25.888000
 20
94.500000
 30
0.0
 10
-23.087999
 20
94.500000
 30
0.0
 10
-23.087999
 20
100.623000
 30
0.0
 10
-23.087999
 20
108.500000
 30
0.0
 10
-25.888000
 20
108.500000
 30
0.0
 10
-26.712999
 20
108.500000
 30
0.0
 10
-27.851000
 20
108.500000
 30
0.0
 10
-28.438000
 20
108.500000
 30
0.0
 10
-31.738001
 20
108.500000
 30
0.0
 10
-32.326000
 20
108.500000
 30
0.0
 10
-33.463001
 20
108.500000
 30
0.0
 10
-35.728001
 20
108.500000
 30
0.0
 10
-37.088001
 20
108.500000
 30
0.0
 10
-37.088001
 20
100.623000
 30
0.0
 10
-37.088001
 20
94.500000
 30
0.0
 10
-33.463001
 20
94.500000
 30
0.0
 10
-32.612999
 20
94.500000
 30
0.0
  0
LWPOLYLINE
  5
11a
100
AcDbEntity
  8
0
 62
7
100
AcDbPolyline
 90
14
 70
1
 10
-32.612999
 20
89.449000
 30
0.0
 10
-33.463001
 20
89.449000
 30
0.0
 10
-37.088001
 20
89.449000
 30
0.0
 10
-37.375999
 20
89.449000
 30
0.0
 10
-41.851002
 20
89.449000
 30
0.0
 10
-42.138000
 20
89.449000
 30
0.0
 10
-46.612999
 20
89.449000
 30
0.0
 10
-46.612999
 20
75.448999
 30
0.0
 10
-42.138000
 20
75.448999
 30
0.0
 10
-41.851002
 20
75.448999
 30
0.0
 10
-37.375999
 20
75.448999
 30
0.0
 10
-37.088001
 20
75.448999
 30
0.0
 10
-33.463001
 20
75.448999
 30
0.0
 10
-32.612999
 20
75.448999
 30
0.0
  0
LWPOLYLINE
  5
11b
100
AcDbEntity
  8
0
 62
7
100
AcDbPolyline
 90
22
 70
1
 10
-130.371002
 20
138.764999
 30
0.0
 10
-130.100006
 20
138.723000
 30
0.0
 10
-129.828995
 20
138.764999
 30
0.0
 10
-129.584000
 20
138.889999
 30
0.0
 10
-129.389999
 20
139.084000
 30
0.0
 10
-129.264999
 20
139.328999
 30
0.0
 10
-129.223007
 20
139.599998
 30
0.0
 10
-129.264999
 20
139.870998
 30
0.0
 10
-129.334900
 20
140.007999
 30
0.0
 10
-129.389999
 20
140.116001
 30
0.0
 10
-129.584000
 20
140.310001
 30
0.0
 10
-129.828995
 20
140.435001
 30
0.0
 10
-130.100006
 20
140.478001
 30
0.0
 10
-130.371002
 20
140.435001
 30
0.0
 10
-130.615997
 20
140.310001
 30
0.0
 10
-130.809998
 20
140.116001
 30
0.0
 10
-130.865097
 20
140.007999
 30
0.0
 10
-130.934998
 20
139.870998
 30
0.0
 10
-130.977005
 20
139.599998
 30
0.0
 10
-130.934998
 20
139.328999
 30
0.0
 10
-130.809998
 20
139.084000
 30
0.0
 10
-130.615997
 20
138.889999
 30
0.0
  0
LWPOLYLINE
  5
11c
100
AcDbEntity
  8
0
 62
7
100
AcDbPolyline
 90
24
 70
1
 10
-125.608002
 20
62.564999
 30
0.0
 10
-125.336998
 20
62.521999
 30
0.0
 10
-125.066002
 20
62.564999
 30
0.0
 10
-124.928001
 20
62.635406
 30
0.0
 10
-124.820999
 20
62.689999
 30
0.0
 10
-124.626999
 20
62.883999
 30
0.0
 10
-124.501999
 20
63.129002
 30
0.0
 10
-124.459999
 20
63.400002
 30
0.0
 10
-124.501999
 20
63.671001
 30
0.0
 10
-124.626999
 20
63.916000
 30
0.0
 10
-124.820999
 20
64.110001
 30
0.0
 10
-124.928001
 20
64.164593
 30
0.0
 10
-125.060120
 20
64.231998
 30
0.0
 10
-125.066002
 20
64.235001
 30
0.0
 10
-125.336998
 20
64.277000
 30
0.0
 10
-125.608002
 20
64.235001
 30
0.0
 10
-125.613876
 20
64.231998
 30
0.0
 10
-125.852997
 20
64.110001
 30
0.0
 10
-126.046997
 20
63.916000
 30
0.0
 10
-126.171997
 20
63.671001
 30
0.0
 10
-126.214996
 20
63.400002
 30
0.0
 10
-126.171997
 20
63.129002
 30
0.0
 10
-126.046997
 20
62.883999
 30
0.0
 10
-125.852997
 20
62.689999
 30
0.0
  0
LWPOLYLINE
  5
11d
100
AcDbEntity
  8
0
 62
7
100
AcDbPolyline
 90
18
 70
1
 10
-125.483002
 20
108.500000
 30
0.0
 10
-126.214996
 20
108.500000
 30
0.0
 10
-127.577003
 20
108.500000
 30
0.0
 10
-127.864998
 20
108.500000
 30
0.0
 10
-130.977005
 20
108.500000
 30
0.0
 10
-132.626999
 20
108.500000
 30
0.0
 10
-134.720993
 20
108.500000
 30
0.0
 10
-136.246002
 20
108.500000
 30
0.0
 10
-139.483002
 20
108.500000
 30
0.0
 10
-139.483002
 20
94.500000
 30
0.0
 10
-136.246002
 20
94.500000
 30
0.0
 10
-134.720993
 20
94.500000
 30
0.0
 10
-132.626999
 20
94.500000
 30
0.0
 10
-130.977005
 20
94.500000
 30
0.0
 10
-127.864998
 20
94.500000
 30
0.0
 10
-127.577003
 20
94.500000
 30
0.0
 10
-126.214996
 20
94.500000
 30
0.0
 10
-125.483002
 20
94.500000
 30
0.0
  0
LWPOLYLINE
  5
11e
100
AcDbEntity
  8
0
 62
7
100
AcDbPolyline
 90
13
 70
1
 10
-124.459999
 20
132.602001
 30
0.0
 10
-120.721001
 20
132.602001
 30
0.0
 10
-120.262001
 20
132.602001
 30
0.0
 10
-118.507004
 20
132.602001
 30
0.0
 10
-118.052002
 20
132.602001
 30
0.0
 10
-113.577003
 20
132.602001
 30
0.0
 10
-113.577003
 20
138.723000
 30
0.0
 10
-113.577003
 20
146.602001
 30
0.0
 10
-127.577003
 20
146.602001
 30
0.0
 10
-127.577003
 20
138.723000
 30
0.0
 10
-127.577003
 20
132.602001
 30
0.0
 10
-126.214996
 20
132.602001
 30
0.0
 10
-125.483002
 20
132.602001
 30
0.0
  0
LWPOLYLINE
  5
11f
100
AcDbEntity
  8
0
 62
7
100
AcDbPolyline
 90
22
 70
1
 10
-119.654999
 20
100.665000
 30
0.0
 10
-119.384003
 20
100.623000
 30
0.0
 10
-119.112999
 20
100.665000
 30
0.0
 10
-118.867996
 20
100.790000
 30
0.0
 10
-118.674004
 20
100.984000
 30
0.0
 10
-118.616859
 20
101.096000
 30
0.0
 10
-118.549004
 20
101.229000
 30
0.0
 10
-118.507004
 20
101.500000
 30
0.0
 10
-118.549004
 20
101.771000
 30
0.0
 10
-118.674004
 20
102.016000
 30
0.0
 10
-118.867996
 20
102.210000
 30
0.0
 10
-119.112999
 20
102.335000
 30
0.0
 10
-119.384003
 20
102.378000
 30
0.0
 10
-119.654999
 20
102.335000
 30
0.0
 10
-119.900002
 20
102.210000
 30
0.0
 10
-120.094002
 20
102.016000
 30
0.0
 10
-120.219002
 20
101.771000
 30
0.0
 10
-120.262001
 20
101.500000
 30
0.0
 10
-120.219002
 20
101.229000
 30
0.0
 10
-120.151146
 20
101.096000
 30
0.0
 10
-120.094002
 20
100.984000
 30
0.0
 10
-119.900002
 20
100.790000
 30
0.0
  0
LWPOLYLINE
  5
120
100
AcDbEntity
  8
0
 62
7
100
AcDbPolyline
 90
12
 70
1
 10
-118.052002
 20
113.551001
 30
0.0
 10
-113.577003
 20
113.551001
 30
0.0
 10
-113.289001
 20
113.551001
 30
0.0
 10
-112.445999
 20
113.551001
 30
0.0
 10
-111.621002
 20
113.551001
 30
0.0
 10
-108.527000
 20
113.551001
 30
0.0
 10
-106.432999
 20
113.551001
 30
0.0
 10
-104.052002
 20
113.551001
 30
0.0
 10
-104.052002
 20
127.551001
 30
0.0
 10
-108.527000
 20
127.551001
 30
0.0
 10
-113.577003
 20
127.551001
 30
0.0
 10
-118.052002
 20
127.551001
 30
0.0
  0
LWPOLYLINE
  5
121
100
AcDbEntity
  8
0
 62
7
100
AcDbPolyline
 90
9
 70
1
 10
-99.001999
 20
113.551001
 30
0.0
 10
-94.527000
 20
113.551001
 30
0.0
 10
-94.238998
 20
113.551001
 30
0.0
 10
-89.476997
 20
113.551001
 30
0.0
 10
-85.000999
 20
113.551001
 30
0.0
 10
-85.000999
 20
127.551001
 30
0.0
 10
-89.476997
 20
127.551001
 30
0.0
 10
-94.527000
 20
127.551001
 30
0.0
 10
-99.001999
 20
127.551001
 30
0.0
  0
LWPOLYLINE
  5
122
100
AcDbEntity
  8
0
 62
7
100
AcDbPolyline
 90
13
 70
1
 10
-79.950996
 20
113.551001
 30
0.0
 10
-75.475998
 20
113.551001
 30
0.0
 10
-75.189003
 20
113.551001
 30
0.0
 10
-72.389000
 20
113.551001
 30
0.0
 10
-71.564003
 20
113.551001
 30
0.0
 10
-70.426003
 20
113.551001
 30
0.0
 10
-69.838997
 20
113.551001
 30
0.0
 10
-66.539001
 20
113.551001
 30
0.0
 10
-65.950996
 20
113.551001
 30
0.0
 10
-65.950996
 20
127.551001
 30
0.0
 10
-70.426003
 20
127.551001
 30
0.0
 10
-75.475998
 20
127.551001
 30
0.0
 10
-79.950996
 20
127.551001
 30
0.0
  0
LWPOLYLINE
  5
123
100
AcDbEntity
  8
0
 62
7
100
AcDbPolyline
 90
13
 70
1
 10
-60.901001
 20
113.551001
 30
0.0
 10
-59.540001
 20
113.551001
 30
0.0
 10
-57.785000
 20
113.551001
 30
0.0
 10
-56.425999
 20
113.551001
 30
0.0
 10
-56.138000
 20
113.551001
 30
0.0
 10
-51.375999
 20
113.551001
 30
0.0
 10
-46.901001
 20
113.551001
 30
0.0
 10
-46.901001
 20
127.551001
 30
0.0
 10
-51.375999
 20
127.551001
 30
0.0
 10
-56.425999
 20
127.551001
 30
0.0
 10
-57.785000
 20
127.551001
 30
0.0
 10
-59.540001
 20
127.551001
 30
0.0
 10
-60.901001
 20
127.551001
 30
0.0
  0
LWPOLYLINE
  5
124
100
AcDbEntity
  8
0
 62
7
100
AcDbPolyline
 90
14
 70
1
 10
-82.620003
 20
94.500000
 30
0.0
 10
-80.238998
 20
94.500000
 30
0.0
 10
-80.238998
 20
100.623000
 30
0.0
 10
-80.238998
 20
108.500000
 30
0.0
 10
-82.620003
 20
108.500000
 30
0.0
 10
-85.000999
 20
108.500000
 30
0.0
 10
-89.476997
 20
108.500000
 30
0.0
 10
-94.238998
 20
108.500000
 30
0.0
 10
-94.238998
 20
100.623000
 30
0.0
 10
-94.238998
 20
94.500000
 30
0.0
 10
-89.764000
 20
94.500000
 30
0.0
 10
-89.476997
 20
94.500000
 30
0.0
 10
-85.000999
 20
94.500000
 30
0.0
 10
-84.713997
 20
94.500000
 30
0.0
  0
LWPOLYLINE
  5
125
100
AcDbEntity
  8
0
 62
7
100
AcDbPolyline
 90
15
 70
1
 10
-94.238998
 20
70.398001
 30
0.0
 10
-94.527000
 20
70.398001
 30
0.0
 10
-96.621002
 20
70.398001
 30
0.0
 10
-96.621002
 20
62.521999
 30
0.0
 10
-96.621002
 20
56.396999
 30
0.0
 10
-94.527000
 20
56.396999
 30
0.0
 10
-89.476997
 20
56.396999
 30
0.0
 10
-85.000999
 20
56.396999
 30
0.0
 10
-82.620003
 20
56.396999
 30
0.0
 10
-82.620003
 20
62.521999
 30
0.0
 10
-82.620003
 20
70.398001
 30
0.0
 10
-84.713997
 20
70.398001
 30
0.0
 10
-85.000999
 20
70.398001
 30
0.0
 10
-89.476997
 20
70.398001
 30
0.0
 10
-89.764000
 20
70.398001
 30
0.0
  0
LWPOLYLINE
  5
126
100
AcDbEntity
  8
0
 62
7
100
AcDbPolyline
 90
22
 70
1
 10
-70.426003
 20
94.500000
 30
0.0
 10
-69.838997
 20
94.500000
 30
0.0
 10
-66.539001
 20
94.500000
 30
0.0
 10
-65.950996
 20
94.500000
 30
0.0
 10
-65.664001
 20
94.500000
 30
0.0
 10
-64.814003
 20
94.500000
 30
0.0
 10
-61.188999
 20
94.500000
 30
0.0
 10
-61.188999
 20
100.623000
 30
0.0
 10
-61.188999
 20
108.500000
 30
0.0
 10
-64.814003
 20
108.500000
 30
0.0
 10
-65.950996
 20
108.500000
 30
0.0
 10
-66.539001
 20
108.500000
 30
0.0
 10
-69.838997
 20
108.500000
 30
0.0
 10
-70.426003
 20
108.500000
 30
0.0
 10
-71.564003
 20
108.500000
 30
0.0
 10
-72.389000
 20
108.500000
 30
0.0
 10
-75.189003
 20
108.500000
 30
0.0
 10
-75.189003
 20
100.623000
 30
0.0
 10
-75.189003
 20
94.500000
 30
0.0
 10
-72.389000
 20
94.500000
 30
0.0
 10
-71.564003
 20
94.500000
 30
0.0
 10
-70.713997
 20
94.500000
 30
0.0
  0
LWPOLYLINE
  5
127
100
AcDbEntity
  8
0
 62
7
100
AcDbPolyline
 90
18
 70
1
 10
-70.713997
 20
89.449000
 30
0.0
 10
-71.564003
 20
89.449000
 30
0.0
 10
-72.389000
 20
89.449000
 30
0.0
 10
-75.189003
 20
89.449000
 30
0.0
 10
-75.475998
 20
89.449000
 30
0.0
 10
-79.950996
 20
89.449000
 30
0.0
 10
-80.238998
 20
89.449000
 30
0.0
 10
-82.620003
 20
89.449000
 30
0.0
 10
-84.713997
 20
89.449000
 30
0.0
 10
-84.713997
 20
75.448999
 30
0.0
 10
-82.620003
 20
75.448999
 30
0.0
 10
-80.238998
 20
75.448999
 30
0.0
 10
-79.950996
 20
75.448999
 30
0.0
 10
-75.475998
 20
75.448999
 30
0.0
 10
-75.189003
 20
75.448999
 30
0.0
 10
-72.389000
 20
75.448999
 30
0.0
 10
-71.564003
 20
75.448999
 30
0.0
 10
-70.713997
 20
75.448999
 30
0.0
  0
LWPOLYLINE
  5
128
100
AcDbEntity
  8
0
 62
7
100
AcDbPolyline
 90
11
 70
1
 10
-136.246002
 20
113.551001
 30
0.0
 10
-134.720993
 20
113.551001
 30
0.0
 10
-132.626999
 20
113.551001
 30
0.0
 10
-130.977005
 20
113.551001
 30
0.0
 10
-127.864998
 20
113.551001
 30
0.0
 10
-127.864998
 20
127.551001
 30
0.0
 10
-130.977005
 20
127.551001
 30
0.0
 10
-132.626999
 20
127.551001
 30
0.0
 10
-141.865005
 20
127.551001
 30
0.0
 10
-141.865005
 20
113.551001
 30
0.0
 10
-139.483002
 20
113.551001
 30
0.0
  0
LWPOLYLINE
  5
129
100
AcDbEntity
  8
0
 62
7
100
AcDbPolyline
 90
13
 70
1
 10
-57.785000
 20
146.602001
 30
0.0
 10
-59.540001
 20
146.602001
 30
0.0
 10
-70.426003
 20
146.602001
 30
0.0
 10
-70.426003
 20
138.723000
 30
0.0
 10
-70.426003
 20
132.602001
 30
0.0
 10
-65.950996
 20
132.602001
 30
0.0
 10
-64.814003
 20
132.602001
 30
0.0
 10
-61.188999
 20
132.602001
 30
0.0
 10
-60.901001
 20
132.602001
 30
0.0
 10
-59.540001
 20
132.602001
 30
0.0
 10
-57.785000
 20
132.602001
 30
0.0
 10
-56.425999
 20
132.602001
 30
0.0
 10
-56.425999
 20
146.602001
 30
0.0
  0
LWPOLYLINE
  5
12a
100
AcDbEntity
  8
0
 62
7
100
AcDbPolyline
 90
6
 70
1
 10
139.126999
 20
146.602001
 30
0.0
 10
139.126999
 20
138.723000
 30
0.0
 10
139.126999
 20
132.602001
 30
0.0
 10
153.128006
 20
132.602001
 30
0.0
 10
153.128006
 20
138.723000
 30
0.0
 10
153.128006
 20
146.602001
 30
0.0
  0
LWPOLYLINE
  5
12b
100
AcDbEntity
  8
0
 62
7
100
AcDbPolyline
 90
9
 70
1
 10
62.925999
 20
146.602001
 30
0.0
 10
62.925999
 20
138.723000
 30
0.0
 10
62.925999
 20
132.602001
 30
0.0
 10
67.401001
 20
132.602001
 30
0.0
 10
72.164001
 20
132.602001
 30
0.0
 10
72.450996
 20
132.602001
 30
0.0
 10
76.926003
 20
132.602001
 30
0.0
 10
76.926003
 20
138.723000
 30
0.0
 10
76.926003
 20
146.602001
 30
0.0
  0
LWPOLYLINE
  5
12c
100
AcDbEntity
  8
0
 62
7
100
AcDbPolyline
 90
11
 70
1
 10
81.975998
 20
146.602001
 30
0.0
 10
81.975998
 20
138.723000
 30
0.0
 10
81.975998
 20
132.602001
 30
0.0
 10
86.450996
 20
132.602001
 30
0.0
 10
91.213997
 20
132.602001
 30
0.0
 10
91.500999
 20
132.602001
 30
0.0
 10
92.860001
 20
132.602001
 30
0.0
 10
94.614998
 20
132.602001
 30
0.0
 10
95.976997
 20
132.602001
 30
0.0
 10
95.976997
 20
138.723000
 30
0.0
 10
95.976997
 20
146.602001
 30
0.0
  0
LWPOLYLINE
  5
12d
100
AcDbEntity
  8
0
 62
7
100
AcDbPolyline
 90
11
 70
1
 10
-32.326000
 20
146.602001
 30
0.0
 10
-32.326000
 20
138.723000
 30
0.0
 10
-32.326000
 20
132.602001
 30
0.0
 10
-27.851000
 20
132.602001
 30
0.0
 10
-26.712999
 20
132.602001
 30
0.0
 10
-25.888000
 20
132.602001
 30
0.0
 10
-23.087999
 20
132.602001
 30
0.0
 10
-22.799999
 20
132.602001
 30
0.0
 10
-18.325001
 20
132.602001
 30
0.0
 10
-18.325001
 20
138.723000
 30
0.0
 10
-18.325001
 20
146.602001
 30
0.0
  0
LWPOLYLINE
  5
12e
100
AcDbEntity
  8
0
 62
7
100
AcDbPolyline
 90
10
 70
1
 10
-13.275000
 20
146.602001
 30
0.0
 10
-13.275000
 20
138.723000
 30
0.0
 10
-13.275000
 20
132.602001
 30
0.0
 10
-8.800000
 20
132.602001
 30
0.0
 10
-7.663000
 20
132.602001
 30
0.0
 10
-4.038000
 20
132.602001
 30
0.0
 10
-3.750000
 20
132.602001
 30
0.0
 10
0.725000
 20
132.602001
 30
0.0
 10
0.725000
 20
138.723000
 30
0.0
 10
0.725000
 20
146.602001
 30
0.0
  0
LWPOLYLINE
  5
12f
100
AcDbEntity
  8
0
 62
7
100
AcDbPolyline
 90
11
 70
1
 10
5.775000
 20
146.602001
 30
0.0
 10
5.775000
 20
138.723000
 30
0.0
 10
5.775000
 20
132.602001
 30
0.0
 10
10.250000
 20
132.602001
 30
0.0
 10
15.013000
 20
132.602001
 30
0.0
 10
15.300000
 20
132.602001
 30
0.0
 10
16.660999
 20
132.602001
 30
0.0
 10
18.416000
 20
132.602001
 30
0.0
 10
19.775000
 20
132.602001
 30
0.0
 10
19.775000
 20
138.723000
 30
0.0
 10
19.775000
 20
146.602001
 30
0.0
  0
LWPOLYLINE
  5
130
100
AcDbEntity
  8
0
 62
7
100
AcDbPolyline
 90
11
 70
1
 10
24.825001
 20
146.602001
 30
0.0
 10
24.825001
 20
138.723000
 30
0.0
 10
24.825001
 20
132.602001
 30
0.0
 10
29.299999
 20
132.602001
 30
0.0
 10
30.438000
 20
132.602001
 30
0.0
 10
31.263000
 20
132.602001
 30
0.0
 10
34.063000
 20
132.602001
 30
0.0
 10
34.351002
 20
132.602001
 30
0.0
 10
38.826000
 20
132.602001
 30
0.0
 10
38.826000
 20
138.723000
 30
0.0
 10
38.826000
 20
146.602001
 30
0.0
  0
LWPOLYLINE
  5
131
100
AcDbEntity
  8
0
 62
7
100
AcDbPolyline
 90
9
 70
1
 10
43.875999
 20
146.602001
 30
0.0
 10
43.875999
 20
138.723000
 30
0.0
 10
43.875999
 20
132.602001
 30
0.0
 10
48.351002
 20
132.602001
 30
0.0
 10
53.112999
 20
132.602001
 30
0.0
 10
53.401001
 20
132.602001
 30
0.0
 10
57.875999
 20
132.602001
 30
0.0
 10
57.875999
 20
138.723000
 30
0.0
 10
57.875999
 20
146.602001
 30
0.0
  0
LWPOLYLINE
  5
132
100
AcDbEntity
  8
0
 62
7
100
AcDbPolyline
 90
16
 70
1
 10
16.660999
 20
127.551001
 30
0.0
 10
15.300000
 20
127.551001
 30
0.0
 10
15.300000
 20
113.551001
 30
0.0
 10
16.660999
 20
113.551001
 30
0.0
 10
18.416000
 20
113.551001
 30
0.0
 10
19.775000
 20
113.551001
 30
0.0
 10
20.063000
 20
113.551001
 30
0.0
 10
23.688000
 20
113.551001
 30
0.0
 10
24.825001
 20
113.551001
 30
0.0
 10
25.413000
 20
113.551001
 30
0.0
 10
28.712999
 20
113.551001
 30
0.0
 10
29.299999
 20
113.551001
 30
0.0
 10
29.299999
 20
127.551001
 30
0.0
 10
24.825001
 20
127.551001
 30
0.0
 10
19.775000
 20
127.551001
 30
0.0
 10
18.416000
 20
127.551001
 30
0.0
  0
LWPOLYLINE
  5
133
100
AcDbEntity
  8
0
 62
7
100
AcDbPolyline
 90
18
 70
1
 10
92.860001
 20
127.551001
 30
0.0
 10
91.500999
 20
127.551001
 30
0.0
 10
91.500999
 20
113.551001
 30
0.0
 10
92.860001
 20
113.551001
 30
0.0
 10
94.614998
 20
113.551001
 30
0.0
 10
95.976997
 20
113.551001
 30
0.0
 10
99.070000
 20
113.551001
 30
0.0
 10
99.894997
 20
113.551001
 30
0.0
 10
101.452003
 20
113.551001
 30
0.0
 10
102.277000
 20
113.551001
 30
0.0
 10
104.001999
 20
113.551001
 30
0.0
 10
105.501999
 20
113.551001
 30
0.0
 10
105.501999
 20
127.551001
 30
0.0
 10
104.001999
 20
127.551001
 30
0.0
 10
102.277000
 20
127.551001
 30
0.0
 10
101.452003
 20
127.551001
 30
0.0
 10
95.976997
 20
127.551001
 30
0.0
 10
94.614998
 20
127.551001
 30
0.0
  0
LWPOLYLINE
  5
134
100
AcDbEntity
  8
0
 62
7
100
AcDbPolyline
 90
4
 70
1
 10
153.128006
 20
127.551001
 30
0.0
 10
139.126999
 20
127.551001
 30
0.0
 10
139.126999
 20
113.551001
 30
0.0
 10
153.128006
 20
113.551001
 30
0.0
  0
LWPOLYLINE
  5
135
100
AcDbEntity
  8
0
 62
7
100
AcDbPolyline
 90
6
 70
1
 10
139.126999
 20
108.500000
 30
0.0
 10
139.126999
 20
100.623000
 30
0.0
 10
139.126999
 20
94.500000
 30
0.0
 10
153.128006
 20
94.500000
 30
0.0
 10
153.128006
 20
100.623000
 30
0.0
 10
153.128006
 20
108.500000
 30
0.0
  0
LWPOLYLINE
  5
136
100
AcDbEntity
  8
0
 62
7
100
AcDbPolyline
 90
12
 70
1
 10
127.802002
 20
127.551001
 30
0.0
 10
126.077003
 20
127.551001
 30
0.0
 10
124.552002
 20
127.551001
 30
0.0
 10
115.315002
 20
127.551001
 30
0.0
 10
115.315002
 20
113.551001
 30
0.0
 10
122.170998
 20
113.551001
 30
0.0
 10
123.695999
 20
113.551001
 30
0.0
 10
124.552002
 20
113.551001
 30
0.0
 10
126.077003
 20
113.551001
 30
0.0
 10
127.802002
 20
113.551001
 30
0.0
 10
129.313995
 20
113.551001
 30
0.0
 10
129.313995
 20
127.551001
 30
0.0
  0
LWPOLYLINE
  5
137
100
AcDbEntity
  8
0
 62
7
100
AcDbPolyline
 90
10
 70
1
 10
38.826000
 20
113.551001
 30
0.0
 10
39.112999
 20
113.551001
 30
0.0
 10
41.493999
 20
113.551001
 30
0.0
 10
43.875999
 20
113.551001
 30
0.0
 10
48.351002
 20
113.551001
 30
0.0
 10
48.351002
 20
127.551001
 30
0.0
 10
43.875999
 20
127.551001
 30
0.0
 10
38.826000
 20
127.551001
 30
0.0
 10
34.351002
 20
127.551001
 30
0.0
 10
34.351002
 20
113.551001
 30
0.0
  0
LWPOLYLINE
  5
138
100
AcDbEntity
  8
0
 62
7
100
AcDbPolyline
 90
9
 70
1
 10
57.875999
 20
113.551001
 30
0.0
 10
58.162998
 20
113.551001
 30
0.0
 10
62.925999
 20
113.551001
 30
0.0
 10
67.401001
 20
113.551001
 30
0.0
 10
67.401001
 20
127.551001
 30
0.0
 10
62.925999
 20
127.551001
 30
0.0
 10
57.875999
 20
127.551001
 30
0.0
 10
53.401001
 20
127.551001
 30
0.0
 10
53.401001
 20
113.551001
 30
0.0
  0
LWPOLYLINE
  5
139
100
AcDbEntity
  8
0
 62
7
100
AcDbPolyline
 90
14
 70
1
 10
62.925999
 20
108.500000
 30
0.0
 10
58.162998
 20
108.500000
 30
0.0
 10
58.162998
 20
100.623000
 30
0.0
 10
58.162998
 20
94.500000
 30
0.0
 10
59.522999
 20
94.500000
 30
0.0
 10
61.278000
 20
94.500000
 30
0.0
 10
62.638000
 20
94.500000
 30
0.0
 10
62.925999
 20
94.500000
 30
0.0
 10
67.401001
 20
94.500000
 30
0.0
 10
67.689003
 20
94.500000
 30
0.0
 10
72.164001
 20
94.500000
 30
0.0
 10
72.164001
 20
100.623000
 30
0.0
 10
72.164001
 20
108.500000
 30
0.0
 10
67.401001
 20
108.500000
 30
0.0
  0
LWPOLYLINE
  5
13a
100
AcDbEntity
  8
0
 62
7
100
AcDbPolyline
 90
9
 70
1
 10
76.926003
 20
113.551001
 30
0.0
 10
77.213997
 20
113.551001
 30
0.0
 10
81.975998
 20
113.551001
 30
0.0
 10
86.450996
 20
113.551001
 30
0.0
 10
86.450996
 20
127.551001
 30
0.0
 10
81.975998
 20
127.551001
 30
0.0
 10
76.926003
 20
127.551001
 30
0.0
 10
72.450996
 20
127.551001
 30
0.0
 10
72.450996
 20
113.551001
 30
0.0
  0
LWPOLYLINE
  5
13b
100
AcDbEntity
  8
0
 62
7
100
AcDbPolyline
 90
11
 70
1
 10
81.975998
 20
108.500000
 30
0.0
 10
77.213997
 20
108.500000
 30
0.0
 10
77.213997
 20
100.623000
 30
0.0
 10
77.213997
 20
94.500000
 30
0.0
 10
81.689003
 20
94.500000
 30
0.0
 10
81.975998
 20
94.500000
 30
0.0
 10
86.450996
 20
94.500000
 30
0.0
 10
91.213997
 20
94.500000
 30
0.0
 10
91.213997
 20
100.623000
 30
0.0
 10
91.213997
 20
108.500000
 30
0.0
 10
86.450996
 20
108.500000
 30
0.0
  0
LWPOLYLINE
  5
13c
100
AcDbEntity
  8
0
 62
7
100
AcDbPolyline
 90
14
 70
1
 10
-32.326000
 20
127.551001
 30
0.0
 10
-35.728001
 20
127.551001
 30
0.0
 10
-37.375999
 20
127.551001
 30
0.0
 10
-41.851002
 20
127.551001
 30
0.0
 10
-41.851002
 20
113.551001
 30
0.0
 10
-37.375999
 20
113.551001
 30
0.0
 10
-37.088001
 20
113.551001
 30
0.0
 10
-35.728001
 20
113.551001
 30
0.0
 10
-33.463001
 20
113.551001
 30
0.0
 10
-32.326000
 20
113.551001
 30
0.0
 10
-31.738001
 20
113.551001
 30
0.0
 10
-28.438000
 20
113.551001
 30
0.0
 10
-27.851000
 20
113.551001
 30
0.0
 10
-27.851000
 20
127.551001
 30
0.0
  0
LWPOLYLINE
  5
13d
100
AcDbEntity
  8
0
 62
7
100
AcDbPolyline
 90
13
 70
1
 10
-18.325001
 20
113.551001
 30
0.0
 10
-18.038000
 20
113.551001
 30
0.0
 10
-15.238000
 20
113.551001
 30
0.0
 10
-14.413000
 20
113.551001
 30
0.0
 10
-13.275000
 20
113.551001
 30
0.0
 10
-12.688000
 20
113.551001
 30
0.0
 10
-9.388000
 20
113.551001
 30
0.0
 10
-8.800000
 20
113.551001
 30
0.0
 10
-8.800000
 20
127.551001
 30
0.0
 10
-13.275000
 20
127.551001
 30
0.0
 10
-18.325001
 20
127.551001
 30
0.0
 10
-22.799999
 20
127.551001
 30
0.0
 10
-22.799999
 20
113.551001
 30
0.0
  0
LWPOLYLINE
  5
13e
100
AcDbEntity
  8
0
 62
7
100
AcDbPolyline
 90
9
 70
1
 10
0.725000
 20
113.551001
 30
0.0
 10
1.012000
 20
113.551001
 30
0.0
 10
5.775000
 20
113.551001
 30
0.0
 10
10.250000
 20
113.551001
 30
0.0
 10
10.250000
 20
127.551001
 30
0.0
 10
5.775000
 20
127.551001
 30
0.0
 10
0.725000
 20
127.551001
 30
0.0
 10
-3.750000
 20
127.551001
 30
0.0
 10
-3.750000
 20
113.551001
 30
0.0
  0
LWPOLYLINE
  5
13f
100
AcDbEntity
  8
0
 62
7
100
AcDbPolyline
 90
7
 70
1
 10
-37.375999
 20
146.602001
 30
0.0
 10
-51.375999
 20
146.602001
 30
0.0
 10
-51.375999
 20
132.602001
 30
0.0
 10
-46.901001
 20
132.602001
 30
0.0
 10
-42.138000
 20
132.602001
 30
0.0
 10
-41.851002
 20
132.602001
 30
0.0
 10
-37.375999
 20
132.602001
 30
0.0
  0
LWPOLYLINE
  5
140
100
AcDbEntity
  8
0
 62
7
100
AcDbPolyline
 90
18
 70
1
 10
59.522999
 20
89.449000
 30
0.0
 10
58.162998
 20
89.449000
 30
0.0
 10
57.875999
 20
89.449000
 30
0.0
 10
55.493999
 20
89.449000
 30
0.0
 10
53.401001
 20
89.449000
 30
0.0
 10
53.112999
 20
89.449000
 30
0.0
 10
48.638000
 20
89.449000
 30
0.0
 10
48.638000
 20
75.448999
 30
0.0
 10
53.112999
 20
75.448999
 30
0.0
 10
53.401001
 20
75.448999
 30
0.0
 10
55.493999
 20
75.448999
 30
0.0
 10
57.875999
 20
75.448999
 30
0.0
 10
58.162998
 20
75.448999
 30
0.0
 10
59.522999
 20
75.448999
 30
0.0
 10
61.278000
 20
75.448999
 30
0.0
 10
62.638000
 20
75.448999
 30
0.0
 10
62.638000
 20
89.449000
 30
0.0
 10
61.278000
 20
89.449000
 30
0.0
  0
LWPOLYLINE
  5
141
100
AcDbEntity
  8
0
 62
7
100
AcDbPolyline
 90
4
 70
1
 10
153.128006
 20
89.449000
 30
0.0
 10
139.126999
 20
89.449000
 30
0.0
 10
139.126999
 20
75.448999
 30
0.0
 10
153.128006
 20
75.448999
 30
0.0
  0
LWPOLYLINE
  5
142
100
AcDbEntity
  8
0
 62
7
100
AcDbPolyline
 90
6
 70
1
 10
139.126999
 20
70.398001
 30
0.0
 10
139.126999
 20
62.521999
 30
0.0
 10
139.126999
 20
56.396999
 30
0.0
 10
153.128006
 20
56.396999
 30
0.0
 10
153.128006
 20
62.521999
 30
0.0
 10
153.128006
 20
70.398001
 30
0.0
  0
LWPOLYLINE
  5
143
100
AcDbEntity
  8
0
 62
7
100
AcDbPolyline
 90
14
 70
1
 10
62.925999
 20
70.398001
 30
0.0
 10
62.925999
 20
62.521999
 30
0.0
 10
62.925999
 20
56.396999
 30
0.0
 10
67.401001
 20
56.396999
 30
0.0
 10
67.689003
 20
56.396999
 30
0.0
 10
72.164001
 20
56.396999
 30
0.0
 10
72.450996
 20
56.396999
 30
0.0
 10
76.926003
 20
56.396999
 30
0.0
 10
76.926003
 20
62.521999
 30
0.0
 10
76.926003
 20
70.398001
 30
0.0
 10
72.450996
 20
70.398001
 30
0.0
 10
72.164001
 20
70.398001
 30
0.0
 10
67.689003
 20
70.398001
 30
0.0
 10
67.401001
 20
70.398001
 30
0.0
  0
LWPOLYLINE
  5
144
100
AcDbEntity
  8
0
 62
7
100
AcDbPolyline
 90
12
 70
1
 10
72.450996
 20
89.449000
 30
0.0
 10
72.164001
 20
89.449000
 30
0.0
 10
67.689003
 20
89.449000
 30
0.0
 10
67.689003
 20
75.448999
 30
0.0
 10
72.164001
 20
75.448999
 30
0.0
 10
72.450996
 20
75.448999
 30
0.0
 10
76.926003
 20
75.448999
 30
0.0
 10
77.213997
 20
75.448999
 30
0.0
 10
81.689003
 20
75.448999
 30
0.0
 10
81.689003
 20
89.449000
 30
0.0
 10
77.213997
 20
89.449000
 30
0.0
 10
76.926003
 20
89.449000
 30
0.0
  0
LWPOLYLINE
  5
145
100
AcDbEntity
  8
0
 62
7
100
AcDbPolyline
 90
14
 70
1
 10
81.975998
 20
70.398001
 30
0.0
 10
81.975998
 20
62.521999
 30
0.0
 10
81.975998
 20
56.396999
 30
0.0
 10
86.450996
 20
56.396999
 30
0.0
 10
91.213997
 20
56.396999
 30
0.0
 10
91.500999
 20
56.396999
 30
0.0
 10
93.883003
 20
56.396999
 30
0.0
 10
95.976997
 20
56.396999
 30
0.0
 10
95.976997
 20
62.521999
 30
0.0
 10
95.976997
 20
70.398001
 30
0.0
 10
93.883003
 20
70.398001
 30
0.0
 10
91.500999
 20
70.398001
 30
0.0
 10
91.213997
 20
70.398001
 30
0.0
 10
86.450996
 20
70.398001
 30
0.0
  0
LWPOLYLINE
  5
146
100
AcDbEntity
  8
0
 62
7
100
AcDbPolyline
 90
27
 70
1
 10
95.976997
 20
89.449000
 30
0.0
 10
93.883003
 20
89.449000
 30
0.0
 10
93.883003
 20
75.448999
 30
0.0
 10
95.976997
 20
75.448999
 30
0.0
 10
99.070000
 20
75.448999
 30
0.0
 10
99.894997
 20
75.448999
 30
0.0
 10
101.027000
 20
75.448999
 30
0.0
 10
101.452003
 20
75.448999
 30
0.0
 10
101.620003
 20
75.448999
 30
0.0
 10
102.277000
 20
75.448999
 30
0.0
 10
104.001999
 20
75.448999
 30
0.0
 10
104.919998
 20
75.448999
 30
0.0
 10
105.501999
 20
75.448999
 30
0.0
 10
106.644997
 20
75.448999
 30
0.0
 10
107.302002
 20
75.448999
 30
0.0
 10
107.883003
 20
75.448999
 30
0.0
 10
107.883003
 20
89.449000
 30
0.0
 10
107.302002
 20
89.449000
 30
0.0
 10
106.644997
 20
89.449000
 30
0.0
 10
105.501999
 20
89.449000
 30
0.0
 10
104.919998
 20
89.449000
 30
0.0
 10
104.001999
 20
89.449000
 30
0.0
 10
102.277000
 20
89.449000
 30
0.0
 10
101.620003
 20
89.449000
 30
0.0
 10
101.452003
 20
89.449000
 30
0.0
 10
99.894997
 20
89.449000
 30
0.0
 10
99.070000
 20
89.449000
 30
0.0
  0
LWPOLYLINE
  5
147
100
AcDbEntity
  8
0
 62
7
100
AcDbPolyline
 90
30
 70
1
 10
132.826996
 20
89.449000
 30
0.0
 10
131.270996
 20
89.449000
 30
0.0
 10
131.102005
 20
89.449000
 30
0.0
 10
130.445999
 20
89.449000
 30
0.0
 10
129.313995
 20
89.449000
 30
0.0
 10
128.720993
 20
89.449000
 30
0.0
 10
127.802002
 20
89.449000
 30
0.0
 10
126.077003
 20
89.449000
 30
0.0
 10
125.420998
 20
89.449000
 30
0.0
 10
124.552002
 20
89.449000
 30
0.0
 10
123.695999
 20
89.449000
 30
0.0
 10
122.170998
 20
89.449000
 30
0.0
 10
120.077003
 20
89.449000
 30
0.0
 10
120.077003
 20
75.448999
 30
0.0
 10
122.170998
 20
75.448999
 30
0.0
 10
123.695999
 20
75.448999
 30
0.0
 10
124.552002
 20
75.448999
 30
0.0
 10
125.420998
 20
75.448999
 30
0.0
 10
126.077003
 20
75.448999
 30
0.0
 10
127.802002
 20
75.448999
 30
0.0
 10
128.720993
 20
75.448999
 30
0.0
 10
129.313995
 20
75.448999
 30
0.0
 10
130.445999
 20
75.448999
 30
0.0
 10
131.102005
 20
75.448999
 30
0.0
 10
131.270996
 20
75.448999
 30
0.0
 10
132.826996
 20
75.448999
 30
0.0
 10
133.651993
 20
75.448999
 30
0.0
 10
134.076996
 20
75.448999
 30
0.0
 10
134.076996
 20
89.449000
 30
0.0
 10
133.651993
 20
89.449000
 30
0.0
  0
LWPOLYLINE
  5
148
100
AcDbEntity
  8
0
 62
7
100
AcDbPolyline
 90
32
 70
1
 10
132.826996
 20
70.398001
 30
0.0
 10
131.270996
 20
70.398001
 30
0.0
 10
131.102005
 20
70.398001
 30
0.0
 10
130.445999
 20
70.398001
 30
0.0
 10
129.313995
 20
70.398001
 30
0.0
 10
128.720993
 20
70.398001
 30
0.0
 10
127.802002
 20
70.398001
 30
0.0
 10
126.077003
 20
70.398001
 30
0.0
 10
125.420998
 20
70.398001
 30
0.0
 10
124.552002
 20
70.398001
 30
0.0
 10
123.695999
 20
70.398001
 30
0.0
 10
122.170998
 20
70.398001
 30
0.0
 10
120.077003
 20
70.398001
 30
0.0
 10
120.077003
 20
62.521999
 30
0.0
 10
120.077003
 20
56.396999
 30
0.0
 10
122.170998
 20
56.396999
 30
0.0
 10
123.695999
 20
56.396999
 30
0.0
 10
124.552002
 20
56.396999
 30
0.0
 10
125.420998
 20
56.396999
 30
0.0
 10
126.077003
 20
56.396999
 30
0.0
 10
127.802002
 20
56.396999
 30
0.0
 10
128.720993
 20
56.396999
 30
0.0
 10
129.313995
 20
56.396999
 30
0.0
 10
130.445999
 20
56.396999
 30
0.0
 10
131.102005
 20
56.396999
 30
0.0
 10
131.270996
 20
56.396999
 30
0.0
 10
132.826996
 20
56.396999
 30
0.0
 10
133.651993
 20
56.396999
 30
0.0
 10
134.076996
 20
56.396999
 30
0.0
 10
134.076996
 20
62.521999
 30
0.0
 10
134.076996
 20
70.398001
 30
0.0
 10
133.651993
 20
70.398001
 30
0.0
  0
LWPOLYLINE
  5
149
100
AcDbEntity
  8
0
 62
7
100
AcDbPolyline
 90
30
 70
1
 10
110.552002
 20
70.398001
 30
0.0
 10
109.027000
 20
70.398001
 30
0.0
 10
108.170998
 20
70.398001
 30
0.0
 10
107.883003
 20
70.398001
 30
0.0
 10
107.302002
 20
70.398001
 30
0.0
 10
106.644997
 20
70.398001
 30
0.0
 10
105.501999
 20
70.398001
 30
0.0
 10
104.919998
 20
70.398001
 30
0.0
 10
104.001999
 20
70.398001
 30
0.0
 10
102.277000
 20
70.398001
 30
0.0
 10
101.620003
 20
70.398001
 30
0.0
 10
101.452003
 20
70.398001
 30
0.0
 10
101.027000
 20
70.398001
 30
0.0
 10
101.027000
 20
62.521999
 30
0.0
 10
101.027000
 20
56.396999
 30
0.0
 10
101.452003
 20
56.396999
 30
0.0
 10
101.620003
 20
56.396999
 30
0.0
 10
102.277000
 20
56.396999
 30
0.0
 10
104.001999
 20
56.396999
 30
0.0
 10
104.919998
 20
56.396999
 30
0.0
 10
105.501999
 20
56.396999
 30
0.0
 10
106.644997
 20
56.396999
 30
0.0
 10
107.302002
 20
56.396999
 30
0.0
 10
107.883003
 20
56.396999
 30
0.0
 10
108.170998
 20
56.396999
 30
0.0
 10
109.027000
 20
56.396999
 30
0.0
 10
110.552002
 20
56.396999
 30
0.0
 10
115.027000
 20
56.396999
 30
0.0
 10
115.027000
 20
62.521999
 30
0.0
 10
115.027000
 20
70.398001
 30
0.0
  0
LWPOLYLINE
  5
14a
100
AcDbEntity
  8
0
 62
7
100
AcDbPolyline
 90
15
 70
1
 10
53.401001
 20
70.398001
 30
0.0
 10
53.112999
 20
70.398001
 30
0.0
 10
48.638000
 20
70.398001
 30
0.0
 10
48.351002
 20
70.398001
 30
0.0
 10
43.875999
 20
70.398001
 30
0.0
 10
43.588001
 20
70.398001
 30
0.0
 10
41.493999
 20
70.398001
 30
0.0
 10
41.493999
 20
62.521999
 30
0.0
 10
41.493999
 20
56.396999
 30
0.0
 10
43.875999
 20
56.396999
 30
0.0
 10
48.351002
 20
56.396999
 30
0.0
 10
53.401001
 20
56.396999
 30
0.0
 10
55.493999
 20
56.396999
 30
0.0
 10
55.493999
 20
62.521999
 30
0.0
 10
55.493999
 20
70.398001
 30
0.0
  0
LWPOLYLINE
  5
14b
100
AcDbEntity
  8
0
 62
7
100
AcDbPolyline
 90
9
 70
1
 10
-108.527000
 20
146.602001
 30
0.0
 10
-108.527000
 20
138.723000
 30
0.0
 10
-108.527000
 20
132.602001
 30
0.0
 10
-104.052002
 20
132.602001
 30
0.0
 10
-99.289001
 20
132.602001
 30
0.0
 10
-99.001999
 20
132.602001
 30
0.0
 10
-94.527000
 20
132.602001
 30
0.0
 10
-94.527000
 20
138.723000
 30
0.0
 10
-94.527000
 20
146.602001
 30
0.0
  0
LWPOLYLINE
  5
14c
100
AcDbEntity
  8
0
 62
7
100
AcDbPolyline
 90
10
 70
1
 10
-89.476997
 20
146.602001
 30
0.0
 10
-89.476997
 20
138.723000
 30
0.0
 10
-89.476997
 20
132.602001
 30
0.0
 10
-85.000999
 20
132.602001
 30
0.0
 10
-82.620003
 20
132.602001
 30
0.0
 10
-80.238998
 20
132.602001
 30
0.0
 10
-79.950996
 20
132.602001
 30
0.0
 10
-75.475998
 20
132.602001
 30
0.0
 10
-75.475998
 20
138.723000
 30
0.0
 10
-75.475998
 20
146.602001
 30
0.0
  0
LWPOLYLINE
  5
14d
100
AcDbEntity
  8
0
 62
7
100
AcDbPolyline
 90
17
 70
1
 10
-108.527000
 20
108.500000
 30
0.0
 10
-111.621002
 20
108.500000
 30
0.0
 10
-112.445999
 20
108.500000
 30
0.0
 10
-113.289001
 20
108.500000
 30
0.0
 10
-113.289001
 20
100.623000
 30
0.0
 10
-113.289001
 20
94.500000
 30
0.0
 10
-112.445999
 20
94.500000
 30
0.0
 10
-111.621002
 20
94.500000
 30
0.0
 10
-108.527000
 20
94.500000
 30
0.0
 10
-106.432999
 20
94.500000
 30
0.0
 10
-104.052002
 20
94.500000
 30
0.0
 10
-103.764000
 20
94.500000
 30
0.0
 10
-99.289001
 20
94.500000
 30
0.0
 10
-99.289001
 20
100.623000
 30
0.0
 10
-99.289001
 20
108.500000
 30
0.0
 10
-104.052002
 20
108.500000
 30
0.0
 10
-106.432999
 20
108.500000
 30
0.0
  0
LWPOLYLINE
  5
14e
100
AcDbEntity
  8
0
 62
7
100
AcDbPolyline
 90
23
 70
1
 10
-117.471001
 20
70.398001
 30
0.0
 10
-118.052002
 20
70.398001
 30
0.0
 10
-119.195999
 20
70.398001
 30
0.0
 10
-120.262001
 20
70.398001
 30
0.0
 10
-120.433998
 20
70.398001
 30
0.0
 10
-120.433998
 20
62.521999
 30
0.0
 10
-120.433998
 20
56.396999
 30
0.0
 10
-119.195999
 20
56.396999
 30
0.0
 10
-118.052002
 20
56.396999
 30
0.0
 10
-117.471001
 20
56.396999
 30
0.0
 10
-114.170998
 20
56.396999
 30
0.0
 10
-113.577003
 20
56.396999
 30
0.0
 10
-112.445999
 20
56.396999
 30
0.0
 10
-111.621002
 20
56.396999
 30
0.0
 10
-108.527000
 20
56.396999
 30
0.0
 10
-106.432999
 20
56.396999
 30
0.0
 10
-106.432999
 20
62.521999
 30
0.0
 10
-106.432999
 20
70.398001
 30
0.0
 10
-108.527000
 20
70.398001
 30
0.0
 10
-111.621002
 20
70.398001
 30
0.0
 10
-112.445999
 20
70.398001
 30
0.0
 10
-113.577003
 20
70.398001
 30
0.0
 10
-114.170998
 20
70.398001
 30
0.0
  0
LWPOLYLINE
  5
14f
100
AcDbEntity
  8
0
 62
7
100
AcDbPolyline
 90
14
 70
1
 10
-96.621002
 20
89.449000
 30
0.0
 10
-99.001999
 20
89.449000
 30
0.0
 10
-99.289001
 20
89.449000
 30
0.0
 10
-103.764000
 20
89.449000
 30
0.0
 10
-103.764000
 20
75.448999
 30
0.0
 10
-99.289001
 20
75.448999
 30
0.0
 10
-99.001999
 20
75.448999
 30
0.0
 10
-96.621002
 20
75.448999
 30
0.0
 10
-94.527000
 20
75.448999
 30
0.0
 10
-94.238998
 20
75.448999
 30
0.0
 10
-89.764000
 20
75.448999
 30
0.0
 10
-89.764000
 20
89.449000
 30
0.0
 10
-94.238998
 20
89.449000
 30
0.0
 10
-94.527000
 20
89.449000
 30
0.0
  0
LWPOLYLINE
  5
150
100
AcDbEntity
  8
0
 62
7
100
AcDbPolyline
 90
22
 70
1
 10
-130.977005
 20
70.398001
 30
0.0
 10
-132.626999
 20
70.398001
 30
0.0
 10
-134.720993
 20
70.398001
 30
0.0
 10
-136.246002
 20
70.398001
 30
0.0
 10
-137.970993
 20
70.398001
 30
0.0
 10
-141.270996
 20
70.398001
 30
0.0
 10
-141.865005
 20
70.398001
 30
0.0
 10
-142.996002
 20
70.398001
 30
0.0
 10
-143.820999
 20
70.398001
 30
0.0
 10
-144.246002
 20
70.398001
 30
0.0
 10
-144.246002
 20
56.396999
 30
0.0
 10
-143.820999
 20
56.396999
 30
0.0
 10
-142.996002
 20
56.396999
 30
0.0
 10
-141.865005
 20
56.396999
 30
0.0
 10
-141.270996
 20
56.396999
 30
0.0
 10
-137.970993
 20
56.396999
 30
0.0
 10
-136.246002
 20
56.396999
 30
0.0
 10
-134.720993
 20
56.396999
 30
0.0
 10
-132.626999
 20
56.396999
 30
0.0
 10
-130.977005
 20
56.396999
 30
0.0
 10
-130.246002
 20
56.396999
 30
0.0
 10
-130.246002
 20
70.398001
 30
0.0
  0
LWPOLYLINE
  5
151
100
AcDbEntity
  8
0
 62
7
100
AcDbPolyline
 90
9
 70
1
 10
-132.626999
 20
146.602001
 30
0.0
 10
-146.626999
 20
146.602001
 30
0.0
 10
-146.626999
 20
132.602001
 30
0.0
 10
-144.246002
 20
132.602001
 30
0.0
 10
-143.820999
 20
132.602001
 30
0.0
 10
-142.996002
 20
132.602001
 30
0.0
 10
-141.865005
 20
132.602001
 30
0.0
 10
-132.626999
 20
132.602001
 30
0.0
 10
-132.626999
 20
146.602001
 30
0.0
  0
ENDSEC
  0
SECTION
  2
OBJECTS
  0
DICTIONARY
  5
C
330
0
100
AcDbDictionary
  3
ACAD_GROUP
350
D
  3
ACAD_MLINESTYLE
350
17
  0
DICTIONARY
  5
D
330
C
100
AcDbDictionary
  0
DICTIONARY
  5
1A
330
C
100
AcDbDictionary
  0
DICTIONARY
  5
17
330
C
100
AcDbDictionary
  3
STANDARD
350
18
  0
DICTIONARY
  5
19
330
C
100
AcDbDictionary
  0
ENDSEC
  0
EOF
