  0
SECTION
  2
HEADER
  9
$ACADVER
  1
AC1014
  9
$HANDSEED
  5
FFFF
  9
$MEASUREMENT
 70
     1
  0
ENDSEC
  0
SECTION
  2
TABLES
  0
TABLE
  2
VPORT
  5
8
330
0
100
AcDbSymbolTable
 70
     4
  0
VPORT
  5
2E
330
8
100
AcDbSymbolTableRecord
100
AcDbViewportTableRecord
  2
*ACTIVE
 70
     0
 10
0.0
 20
0.0
 11
1.0
 21
1.0
 12
210.0
 22
148.5
 13
0.0
 23
0.0
 14
10.0
 24
10.0
 15
10.0
 25
10.0
 16
0.0
 26
0.0
 36
1.0
 17
0.0
 27
0.0
 37
0.0
 40
341.0
 41
1.24
 42
50.0
 43
0.0
 44
0.0
 50
0.0
 51
0.0
 71
     0
 72
   100
 73
     1
 74
     3
 75
     0
 76
     0
 77
     0
 78
     0
  0
ENDTAB
  0
TABLE
  2
LTYPE
  5
5
330
0
100
AcDbSymbolTable
 70
     1
  0
LTYPE
  5
14
330
5
100
AcDbSymbolTableRecord
100
AcDbLinetypeTableRecord
  2
BYBLOCK
 70
     0
  3

 72
    65
 73
     0
 40
0.0
  0
LTYPE
  5
15
330
5
100
AcDbSymbolTableRecord
100
AcDbLinetypeTableRecord
  2
BYLAYER
 70
     0
  3

 72
    65
 73
     0
 40
0.0
  0
LTYPE
  5
16
330
5
100
AcDbSymbolTableRecord
100
AcDbLinetypeTableRecord
  2
CONTINUOUS
 70
     0
  3
Solid line
 72
    65
 73
     0
 40
0.0
  0
ENDTAB
  0
TABLE
  2
LAYER
  5
2
100
AcDbSymbolTable
 70
1
  0
LAYER
  5
50
100
AcDbSymbolTableRecord
100
AcDbLayerTableRecord
  2
0
 70
0
  6
CONTINUOUS
  0
ENDTAB
  0
TABLE
  2
STYLE
  5
3
330
0
100
AcDbSymbolTable
 70
     1
  0
STYLE
  5
11
330
3
100
AcDbSymbolTableRecord
100
AcDbTextStyleTableRecord
  2
STANDARD
 70
     0
 40
0.0
 41
1.0
 50
0.0
 71
     0
 42
2.5
  3
txt
  4

  0
ENDTAB
  0
TABLE
  2
VIEW
  5
6
330
0
100
AcDbSymbolTable
 70
     0
  0
ENDTAB
  0
TABLE
  2
UCS
  5
7
330
0
100
AcDbSymbolTable
 70
     0
  0
ENDTAB
  0
TABLE
  2
APPID
  5
9
330
0
100
AcDbSymbolTable
 70
     2
  0
APPID
  5
12
330
9
100
AcDbSymbolTableRecord
100
AcDbRegAppTableRecord
  2
ACAD
 70
     0
  0
ENDTAB
  0
TABLE
  2
DIMSTYLE
  5
A
330
0
100
AcDbSymbolTable
 70
     1
  0
DIMSTYLE
105
27
330
A
100
AcDbSymbolTableRecord
100
AcDbDimStyleTableRecord
  2
ISO-25
 70
     0
  3

  4

  5

  6

  7

 40
1.0
 41
2.5
 42
0.625
 43
3.75
 44
1.25
 45
0.0
 46
0.0
 47
0.0
 48
0.0
140
2.5
141
2.5
142
0.0
143
0.03937007874016
144
1.0
145
0.0
146
1.0
147
0.625
 71
     0
 72
     0
 73
     0
 74
     0
 75
     0
 76
     0
 77
     1
 78
     8
170
     0
171
     3
172
     1
173
     0
174
     0
175
     0
176
     0
177
     0
178
     0
270
     2
271
     2
272
     2
273
     2
274
     3
340
11
275
     0
280
     0
281
     0
282
     0
283
     0
284
     8
285
     0
286
     0
287
     3
288
     0
  0
ENDTAB
  0
TABLE
  2
BLOCK_RECORD
  5
1
330
0
100
AcDbSymbolTable
 70
     1
  0
BLOCK_RECORD
  5
1F
330
1
100
AcDbSymbolTableRecord
100
AcDbBlockTableRecord
  2
*MODEL_SPACE
  0
BLOCK_RECORD
  5
1B
330
1
100
AcDbSymbolTableRecord
100
AcDbBlockTableRecord
  2
*PAPER_SPACE
  0
ENDTAB
  0
ENDSEC
  0
SECTION
  2
BLOCKS
  0
BLOCK
  5
20
330
1F
100
AcDbEntity
  8
0
100
AcDbBlockBegin
  2
*MODEL_SPACE
 70
     0
 10
0.0
 20
0.0
 30
0.0
  3
*MODEL_SPACE
  1

  0
ENDBLK
  5
21
330
1F
100
AcDbEntity
  8
0
100
AcDbBlockEnd
  0
BLOCK
  5
1C
330
1B
100
AcDbEntity
 67
     1
  8
0
100
AcDbBlockBegin
  2
*PAPER_SPACE
  1

  0
ENDBLK
  5
1D
330
1B
100
AcDbEntity
 67
     1
  8
0
100
AcDbBlockEnd
  0
ENDSEC
  0
SECTION
  2
ENTITIES
  0
SPLINE
  5
100
100
AcDbEntity
  8
0
 62
7
100
AcDbSpline
 70
8
 71
3
 72
8
 73
4
 74
0
 40
0
 40
0
 40
0
 40
0
 40
1
 40
1
 40
1
 40
1
 10
305.040000
 20
102.040000
 30
0.0
 10
305.570433
 20
102.040000
 30
0.0
 10
306.079141
 20
101.829286
 30
0.0
 10
306.454214
 20
101.454214
 30
0.0
  0
SPLINE
  5
101
100
AcDbEntity
  8
0
 62
7
100
AcDbSpline
 70
8
 71
3
 72
8
 73
4
 74
0
 40
0
 40
0
 40
0
 40
0
 40
1
 40
1
 40
1
 40
1
 10
306.454214
 20
101.454214
 30
0.0
 10
306.829286
 20
101.079141
 30
0.0
 10
307.040000
 20
100.570433
 30
0.0
 10
307.040000
 20
100.040000
 30
0.0
  0
SPLINE
  5
102
100
AcDbEntity
  8
0
 62
7
100
AcDbSpline
 70
8
 71
3
 72
8
 73
4
 74
0
 40
0
 40
0
 40
0
 40
0
 40
1
 40
1
 40
1
 40
1
 10
307.040000
 20
100.040000
 30
0.0
 10
307.040000
 20
100.570433
 30
0.0
 10
306.829286
 20
101.079141
 30
0.0
 10
306.454214
 20
101.454214
 30
0.0
  0
SPLINE
  5
103
100
AcDbEntity
  8
0
 62
7
100
AcDbSpline
 70
8
 71
3
 72
8
 73
4
 74
0
 40
0
 40
0
 40
0
 40
0
 40
1
 40
1
 40
1
 40
1
 10
306.454214
 20
101.454214
 30
0.0
 10
306.079141
 20
101.829286
 30
0.0
 10
305.570433
 20
102.040000
 30
0.0
 10
305.040000
 20
102.040000
 30
0.0
  0
LWPOLYLINE
  5
104
100
AcDbEntity
  8
0
 62
7
100
AcDbPolyline
 90
1
 70
1
 10
307.040000
 20
100.040000
 30
0.0
  0
LWPOLYLINE
  5
105
100
AcDbEntity
  8
0
 62
7
100
AcDbPolyline
 90
2
 70
1
 10
305.040000
 20
102.040000
 30
0.0
 10
305.040000
 20
102.040000
 30
0.0
  0
LWPOLYLINE
  5
106
100
AcDbEntity
  8
0
 62
7
100
AcDbPolyline
 90
5
 70
1
 10
307.040000
 20
100.040000
 30
0.0
 10
307.040000
 20
100.040000
 30
0.0
 10
307.040000
 20
9.040000
 30
0.0
 10
307.040000
 20
9.040000
 30
0.0
 10
307.040000
 20
100.040000
 30
0.0
  0
SPLINE
  5
107
100
AcDbEntity
  8
0
 62
7
100
AcDbSpline
 70
8
 71
3
 72
8
 73
4
 74
0
 40
0
 40
0
 40
0
 40
0
 40
1
 40
1
 40
1
 40
1
 10
288.390000
 20
15.565000
 30
0.0
 10
288.036096
 20
15.565000
 30
0.0
 10
287.717039
 20
15.778187
 30
0.0
 10
287.581605
 20
16.105152
 30
0.0
  0
SPLINE
  5
108
100
AcDbEntity
  8
0
 62
7
100
AcDbSpline
 70
8
 71
3
 72
8
 73
4
 74
0
 40
0
 40
0
 40
0
 40
0
 40
1
 40
1
 40
1
 40
1
 10
287.581605
 20
16.105152
 30
0.0
 10
287.446172
 20
16.432117
 30
0.0
 10
287.521033
 20
16.808470
 30
0.0
 10
287.771282
 20
17.058718
 30
0.0
  0
SPLINE
  5
109
100
AcDbEntity
  8
0
 62
7
100
AcDbSpline
 70
8
 71
3
 72
8
 73
4
 74
0
 40
0
 40
0
 40
0
 40
0
 40
1
 40
1
 40
1
 40
1
 10
287.771282
 20
17.058718
 30
0.0
 10
288.021530
 20
17.308967
 30
0.0
 10
288.397883
 20
17.383828
 30
0.0
 10
288.724848
 20
17.248395
 30
0.0
  0
SPLINE
  5
10a
100
AcDbEntity
  8
0
 62
7
100
AcDbSpline
 70
8
 71
3
 72
8
 73
4
 74
0
 40
0
 40
0
 40
0
 40
0
 40
1
 40
1
 40
1
 40
1
 10
288.724848
 20
17.248395
 30
0.0
 10
289.051813
 20
17.112961
 30
0.0
 10
289.265000
 20
16.793904
 30
0.0
 10
289.265000
 20
16.440000
 30
0.0
  0
SPLINE
  5
10b
100
AcDbEntity
  8
0
 62
7
100
AcDbSpline
 70
8
 71
3
 72
8
 73
4
 74
0
 40
0
 40
0
 40
0
 40
0
 40
1
 40
1
 40
1
 40
1
 10
289.265000
 20
16.440000
 30
0.0
 10
289.265000
 20
16.207936
 30
0.0
 10
289.172813
 20
15.985376
 30
0.0
 10
289.008718
 20
15.821282
 30
0.0
  0
SPLINE
  5
10c
100
AcDbEntity
  8
0
 62
7
100
AcDbSpline
 70
8
 71
3
 72
8
 73
4
 74
0
 40
0
 40
0
 40
0
 40
0
 40
1
 40
1
 40
1
 40
1
 10
289.008718
 20
15.821282
 30
0.0
 10
288.844624
 20
15.657187
 30
0.0
 10
288.622064
 20
15.565000
 30
0.0
 10
288.390000
 20
15.565000
 30
0.0
  0
LWPOLYLINE
  5
10d
100
AcDbEntity
  8
0
 62
7
100
AcDbPolyline
 90
5
 70
1
 10
300.290000
 20
102.040000
 30
0.0
 10
305.040000
 20
102.040000
 30
0.0
 10
305.040000
 20
102.040000
 30
0.0
 10
300.290000
 20
102.040000
 30
0.0
 10
300.290000
 20
102.040000
 30
0.0
  0
SPLINE
  5
10e
100
AcDbEntity
  8
0
 62
7
100
AcDbSpline
 70
8
 71
3
 72
8
 73
4
 74
0
 40
0
 40
0
 40
0
 40
0
 40
1
 40
1
 40
1
 40
1
 10
288.390000
 20
15.565000
 30
0.0
 10
288.036096
 20
15.565000
 30
0.0
 10
287.717039
 20
15.778187
 30
0.0
 10
287.581605
 20
16.105152
 30
0.0
  0
SPLINE
  5
10f
100
AcDbEntity
  8
0
 62
7
100
AcDbSpline
 70
8
 71
3
 72
8
 73
4
 74
0
 40
0
 40
0
 40
0
 40
0
 40
1
 40
1
 40
1
 40
1
 10
287.581605
 20
16.105152
 30
0.0
 10
287.446172
 20
16.432117
 30
0.0
 10
287.521033
 20
16.808470
 30
0.0
 10
287.771282
 20
17.058718
 30
0.0
  0
SPLINE
  5
110
100
AcDbEntity
  8
0
 62
7
100
AcDbSpline
 70
8
 71
3
 72
8
 73
4
 74
0
 40
0
 40
0
 40
0
 40
0
 40
1
 40
1
 40
1
 40
1
 10
287.771282
 20
17.058718
 30
0.0
 10
288.021530
 20
17.308967
 30
0.0
 10
288.397883
 20
17.383828
 30
0.0
 10
288.724848
 20
17.248395
 30
0.0
  0
SPLINE
  5
111
100
AcDbEntity
  8
0
 62
7
100
AcDbSpline
 70
8
 71
3
 72
8
 73
4
 74
0
 40
0
 40
0
 40
0
 40
0
 40
1
 40
1
 40
1
 40
1
 10
288.724848
 20
17.248395
 30
0.0
 10
289.051813
 20
17.112961
 30
0.0
 10
289.265000
 20
16.793904
 30
0.0
 10
289.265000
 20
16.440000
 30
0.0
  0
SPLINE
  5
112
100
AcDbEntity
  8
0
 62
7
100
AcDbSpline
 70
8
 71
3
 72
8
 73
4
 74
0
 40
0
 40
0
 40
0
 40
0
 40
1
 40
1
 40
1
 40
1
 10
289.265000
 20
16.440000
 30
0.0
 10
289.265000
 20
16.207936
 30
0.0
 10
289.172813
 20
15.985376
 30
0.0
 10
289.008718
 20
15.821282
 30
0.0
  0
SPLINE
  5
113
100
AcDbEntity
  8
0
 62
7
100
AcDbSpline
 70
8
 71
3
 72
8
 73
4
 74
0
 40
0
 40
0
 40
0
 40
0
 40
1
 40
1
 40
1
 40
1
 10
289.008718
 20
15.821282
 30
0.0
 10
288.844624
 20
15.657187
 30
0.0
 10
288.622064
 20
15.565000
 30
0.0
 10
288.390000
 20
15.565000
 30
0.0
  0
SPLINE
  5
114
100
AcDbEntity
  8
0
 62
7
100
AcDbSpline
 70
8
 71
3
 72
8
 73
4
 74
0
 40
0
 40
0
 40
0
 40
0
 40
1
 40
1
 40
1
 40
1
 10
307.040000
 20
9.040000
 30
0.0
 10
307.040000
 20
8.509567
 30
0.0
 10
306.829286
 20
8.000859
 30
0.0
 10
306.454214
 20
7.625786
 30
0.0
  0
SPLINE
  5
115
100
AcDbEntity
  8
0
 62
7
100
AcDbSpline
 70
8
 71
3
 72
8
 73
4
 74
0
 40
0
 40
0
 40
0
 40
0
 40
1
 40
1
 40
1
 40
1
 10
306.454214
 20
7.625786
 30
0.0
 10
306.079141
 20
7.250714
 30
0.0
 10
305.570433
 20
7.040000
 30
0.0
 10
305.040000
 20
7.040000
 30
0.0
  0
LWPOLYLINE
  5
116
100
AcDbEntity
  8
0
 62
7
100
AcDbPolyline
 90
2
 70
1
 10
288.390000
 20
15.565000
 30
0.0
 10
288.390000
 20
15.565000
 30
0.0
  0
SPLINE
  5
117
100
AcDbEntity
  8
0
 62
7
100
AcDbSpline
 70
8
 71
3
 72
8
 73
4
 74
0
 40
0
 40
0
 40
0
 40
0
 40
1
 40
1
 40
1
 40
1
 10
305.040000
 20
7.040000
 30
0.0
 10
305.570433
 20
7.040000
 30
0.0
 10
306.079141
 20
7.250714
 30
0.0
 10
306.454214
 20
7.625786
 30
0.0
  0
SPLINE
  5
118
100
AcDbEntity
  8
0
 62
7
100
AcDbSpline
 70
8
 71
3
 72
8
 73
4
 74
0
 40
0
 40
0
 40
0
 40
0
 40
1
 40
1
 40
1
 40
1
 10
306.454214
 20
7.625786
 30
0.0
 10
306.829286
 20
8.000859
 30
0.0
 10
307.040000
 20
8.509567
 30
0.0
 10
307.040000
 20
9.040000
 30
0.0
  0
LWPOLYLINE
  5
119
100
AcDbEntity
  8
0
 62
7
100
AcDbPolyline
 90
1
 70
1
 10
305.040000
 20
7.040000
 30
0.0
  0
LWPOLYLINE
  5
11a
100
AcDbEntity
  8
0
 62
7
100
AcDbPolyline
 90
2
 70
1
 10
307.040000
 20
9.040000
 30
0.0
 10
307.040000
 20
9.040000
 30
0.0
  0
LWPOLYLINE
  5
11b
100
AcDbEntity
  8
0
 62
7
100
AcDbPolyline
 90
5
 70
1
 10
300.290000
 20
104.040000
 30
0.0
 10
300.290000
 20
104.040000
 30
0.0
 10
300.290000
 20
102.040000
 30
0.0
 10
300.290000
 20
102.040000
 30
0.0
 10
300.290000
 20
104.040000
 30
0.0
  0
SPLINE
  5
11c
100
AcDbEntity
  8
0
 62
7
100
AcDbSpline
 70
8
 71
3
 72
8
 73
4
 74
0
 40
0
 40
0
 40
0
 40
0
 40
1
 40
1
 40
1
 40
1
 10
298.290000
 20
106.040000
 30
0.0
 10
298.820433
 20
106.040000
 30
0.0
 10
299.329141
 20
105.829286
 30
0.0
 10
299.704214
 20
105.454214
 30
0.0
  0
SPLINE
  5
11d
100
AcDbEntity
  8
0
 62
7
100
AcDbSpline
 70
8
 71
3
 72
8
 73
4
 74
0
 40
0
 40
0
 40
0
 40
0
 40
1
 40
1
 40
1
 40
1
 10
299.704214
 20
105.454214
 30
0.0
 10
300.079286
 20
105.079141
 30
0.0
 10
300.290000
 20
104.570433
 30
0.0
 10
300.290000
 20
104.040000
 30
0.0
  0
LWPOLYLINE
  5
11e
100
AcDbEntity
  8
0
 62
7
100
AcDbPolyline
 90
5
 70
1
 10
305.040000
 20
7.040000
 30
0.0
 10
305.040000
 20
7.040000
 30
0.0
 10
300.290000
 20
7.040000
 30
0.0
 10
300.290000
 20
7.040000
 30
0.0
 10
305.040000
 20
7.040000
 30
0.0
  0
SPLINE
  5
11f
100
AcDbEntity
  8
0
 62
7
100
AcDbSpline
 70
8
 71
3
 72
8
 73
4
 74
0
 40
0
 40
0
 40
0
 40
0
 40
1
 40
1
 40
1
 40
1
 10
300.290000
 20
104.040000
 30
0.0
 10
300.290000
 20
104.570433
 30
0.0
 10
300.079286
 20
105.079141
 30
0.0
 10
299.704214
 20
105.454214
 30
0.0
  0
SPLINE
  5
120
100
AcDbEntity
  8
0
 62
7
100
AcDbSpline
 70
8
 71
3
 72
8
 73
4
 74
0
 40
0
 40
0
 40
0
 40
0
 40
1
 40
1
 40
1
 40
1
 10
299.704214
 20
105.454214
 30
0.0
 10
299.329141
 20
105.829286
 30
0.0
 10
298.820433
 20
106.040000
 30
0.0
 10
298.290000
 20
106.040000
 30
0.0
  0
LWPOLYLINE
  5
121
100
AcDbEntity
  8
0
 62
7
100
AcDbPolyline
 90
1
 70
1
 10
300.290000
 20
104.040000
 30
0.0
  0
LWPOLYLINE
  5
122
100
AcDbEntity
  8
0
 62
7
100
AcDbPolyline
 90
2
 70
1
 10
298.290000
 20
106.040000
 30
0.0
 10
298.290000
 20
106.040000
 30
0.0
  0
LWPOLYLINE
  5
123
100
AcDbEntity
  8
0
 62
7
100
AcDbPolyline
 90
5
 70
1
 10
300.290000
 20
7.040000
 30
0.0
 10
300.290000
 20
7.040000
 30
0.0
 10
300.290000
 20
5.040000
 30
0.0
 10
300.290000
 20
5.040000
 30
0.0
 10
300.290000
 20
7.040000
 30
0.0
  0
SPLINE
  5
124
100
AcDbEntity
  8
0
 62
7
100
AcDbSpline
 70
8
 71
3
 72
8
 73
4
 74
0
 40
0
 40
0
 40
0
 40
0
 40
1
 40
1
 40
1
 40
1
 10
300.290000
 20
5.040000
 30
0.0
 10
300.290000
 20
4.509567
 30
0.0
 10
300.079286
 20
4.000859
 30
0.0
 10
299.704214
 20
3.625786
 30
0.0
  0
SPLINE
  5
125
100
AcDbEntity
  8
0
 62
7
100
AcDbSpline
 70
8
 71
3
 72
8
 73
4
 74
0
 40
0
 40
0
 40
0
 40
0
 40
1
 40
1
 40
1
 40
1
 10
299.704214
 20
3.625786
 30
0.0
 10
299.329141
 20
3.250714
 30
0.0
 10
298.820433
 20
3.040000
 30
0.0
 10
298.290000
 20
3.040000
 30
0.0
  0
LWPOLYLINE
  5
126
100
AcDbEntity
  8
0
 62
7
100
AcDbPolyline
 90
5
 70
1
 10
238.290000
 20
106.040000
 30
0.0
 10
238.290000
 20
106.040000
 30
0.0
 10
298.290000
 20
106.040000
 30
0.0
 10
298.290000
 20
106.040000
 30
0.0
 10
238.290000
 20
106.040000
 30
0.0
  0
SPLINE
  5
127
100
AcDbEntity
  8
0
 62
7
100
AcDbSpline
 70
8
 71
3
 72
8
 73
4
 74
0
 40
0
 40
0
 40
0
 40
0
 40
1
 40
1
 40
1
 40
1
 10
298.290000
 20
3.040000
 30
0.0
 10
298.820433
 20
3.040000
 30
0.0
 10
299.329141
 20
3.250714
 30
0.0
 10
299.704214
 20
3.625786
 30
0.0
  0
SPLINE
  5
128
100
AcDbEntity
  8
0
 62
7
100
AcDbSpline
 70
8
 71
3
 72
8
 73
4
 74
0
 40
0
 40
0
 40
0
 40
0
 40
1
 40
1
 40
1
 40
1
 10
299.704214
 20
3.625786
 30
0.0
 10
300.079286
 20
4.000859
 30
0.0
 10
300.290000
 20
4.509567
 30
0.0
 10
300.290000
 20
5.040000
 30
0.0
  0
LWPOLYLINE
  5
129
100
AcDbEntity
  8
0
 62
7
100
AcDbPolyline
 90
1
 70
1
 10
298.290000
 20
3.040000
 30
0.0
  0
SPLINE
  5
12a
100
AcDbEntity
  8
0
 62
7
100
AcDbSpline
 70
8
 71
3
 72
8
 73
4
 74
0
 40
0
 40
0
 40
0
 40
0
 40
1
 40
1
 40
1
 40
1
 10
236.290000
 20
104.040000
 30
0.0
 10
236.290000
 20
104.570433
 30
0.0
 10
236.500714
 20
105.079141
 30
0.0
 10
236.875786
 20
105.454214
 30
0.0
  0
SPLINE
  5
12b
100
AcDbEntity
  8
0
 62
7
100
AcDbSpline
 70
8
 71
3
 72
8
 73
4
 74
0
 40
0
 40
0
 40
0
 40
0
 40
1
 40
1
 40
1
 40
1
 10
236.875786
 20
105.454214
 30
0.0
 10
237.250859
 20
105.829286
 30
0.0
 10
237.759567
 20
106.040000
 30
0.0
 10
238.290000
 20
106.040000
 30
0.0
  0
LWPOLYLINE
  5
12c
100
AcDbEntity
  8
0
 62
7
100
AcDbPolyline
 90
2
 70
1
 10
300.290000
 20
5.040000
 30
0.0
 10
300.290000
 20
5.040000
 30
0.0
  0
SPLINE
  5
12d
100
AcDbEntity
  8
0
 62
7
100
AcDbSpline
 70
8
 71
3
 72
8
 73
4
 74
0
 40
0
 40
0
 40
0
 40
0
 40
1
 40
1
 40
1
 40
1
 10
238.290000
 20
106.040000
 30
0.0
 10
237.759567
 20
106.040000
 30
0.0
 10
237.250859
 20
105.829286
 30
0.0
 10
236.875786
 20
105.454214
 30
0.0
  0
SPLINE
  5
12e
100
AcDbEntity
  8
0
 62
7
100
AcDbSpline
 70
8
 71
3
 72
8
 73
4
 74
0
 40
0
 40
0
 40
0
 40
0
 40
1
 40
1
 40
1
 40
1
 10
236.875786
 20
105.454214
 30
0.0
 10
236.500714
 20
105.079141
 30
0.0
 10
236.290000
 20
104.570433
 30
0.0
 10
236.290000
 20
104.040000
 30
0.0
  0
LWPOLYLINE
  5
12f
100
AcDbEntity
  8
0
 62
7
100
AcDbPolyline
 90
1
 70
1
 10
238.290000
 20
106.040000
 30
0.0
  0
LWPOLYLINE
  5
130
100
AcDbEntity
  8
0
 62
7
100
AcDbPolyline
 90
2
 70
1
 10
236.290000
 20
104.040000
 30
0.0
 10
236.290000
 20
104.040000
 30
0.0
  0
LWPOLYLINE
  5
131
100
AcDbEntity
  8
0
 62
7
100
AcDbPolyline
 90
5
 70
1
 10
298.290000
 20
3.040000
 30
0.0
 10
298.290000
 20
3.040000
 30
0.0
 10
238.290000
 20
3.040000
 30
0.0
 10
238.290000
 20
3.040000
 30
0.0
 10
298.290000
 20
3.040000
 30
0.0
  0
SPLINE
  5
132
100
AcDbEntity
  8
0
 62
7
100
AcDbSpline
 70
8
 71
3
 72
8
 73
4
 74
0
 40
0
 40
0
 40
0
 40
0
 40
1
 40
1
 40
1
 40
1
 10
238.290000
 20
3.040000
 30
0.0
 10
237.759567
 20
3.040000
 30
0.0
 10
237.250859
 20
3.250714
 30
0.0
 10
236.875786
 20
3.625786
 30
0.0
  0
SPLINE
  5
133
100
AcDbEntity
  8
0
 62
7
100
AcDbSpline
 70
8
 71
3
 72
8
 73
4
 74
0
 40
0
 40
0
 40
0
 40
0
 40
1
 40
1
 40
1
 40
1
 10
236.875786
 20
3.625786
 30
0.0
 10
236.500714
 20
4.000859
 30
0.0
 10
236.290000
 20
4.509567
 30
0.0
 10
236.290000
 20
5.040000
 30
0.0
  0
LWPOLYLINE
  5
134
100
AcDbEntity
  8
0
 62
7
100
AcDbPolyline
 90
5
 70
1
 10
236.290000
 20
102.040000
 30
0.0
 10
236.290000
 20
102.040000
 30
0.0
 10
236.290000
 20
104.040000
 30
0.0
 10
236.290000
 20
104.040000
 30
0.0
 10
236.290000
 20
102.040000
 30
0.0
  0
SPLINE
  5
135
100
AcDbEntity
  8
0
 62
7
100
AcDbSpline
 70
8
 71
3
 72
8
 73
4
 74
0
 40
0
 40
0
 40
0
 40
0
 40
1
 40
1
 40
1
 40
1
 10
236.290000
 20
5.040000
 30
0.0
 10
236.290000
 20
4.509567
 30
0.0
 10
236.500714
 20
4.000859
 30
0.0
 10
236.875786
 20
3.625786
 30
0.0
  0
SPLINE
  5
136
100
AcDbEntity
  8
0
 62
7
100
AcDbSpline
 70
8
 71
3
 72
8
 73
4
 74
0
 40
0
 40
0
 40
0
 40
0
 40
1
 40
1
 40
1
 40
1
 10
236.875786
 20
3.625786
 30
0.0
 10
237.250859
 20
3.250714
 30
0.0
 10
237.759567
 20
3.040000
 30
0.0
 10
238.290000
 20
3.040000
 30
0.0
  0
LWPOLYLINE
  5
137
100
AcDbEntity
  8
0
 62
7
100
AcDbPolyline
 90
1
 70
1
 10
236.290000
 20
5.040000
 30
0.0
  0
LWPOLYLINE
  5
138
100
AcDbEntity
  8
0
 62
7
100
AcDbPolyline
 90
2
 70
1
 10
238.290000
 20
3.040000
 30
0.0
 10
238.290000
 20
3.040000
 30
0.0
  0
LWPOLYLINE
  5
139
100
AcDbEntity
  8
0
 62
7
100
AcDbPolyline
 90
5
 70
1
 10
224.790000
 20
102.040000
 30
0.0
 10
236.290000
 20
102.040000
 30
0.0
 10
236.290000
 20
102.040000
 30
0.0
 10
224.790000
 20
102.040000
 30
0.0
 10
224.790000
 20
102.040000
 30
0.0
  0
LWPOLYLINE
  5
13a
100
AcDbEntity
  8
0
 62
7
100
AcDbPolyline
 90
5
 70
1
 10
236.290000
 20
5.040000
 30
0.0
 10
236.290000
 20
5.040000
 30
0.0
 10
236.290000
 20
7.040000
 30
0.0
 10
236.290000
 20
7.040000
 30
0.0
 10
236.290000
 20
5.040000
 30
0.0
  0
LWPOLYLINE
  5
13b
100
AcDbEntity
  8
0
 62
7
100
AcDbPolyline
 90
5
 70
1
 10
224.790000
 20
104.040000
 30
0.0
 10
224.790000
 20
104.040000
 30
0.0
 10
224.790000
 20
102.040000
 30
0.0
 10
224.790000
 20
102.040000
 30
0.0
 10
224.790000
 20
104.040000
 30
0.0
  0
SPLINE
  5
13c
100
AcDbEntity
  8
0
 62
7
100
AcDbSpline
 70
8
 71
3
 72
8
 73
4
 74
0
 40
0
 40
0
 40
0
 40
0
 40
1
 40
1
 40
1
 40
1
 10
222.790000
 20
106.040000
 30
0.0
 10
223.320433
 20
106.040000
 30
0.0
 10
223.829141
 20
105.829286
 30
0.0
 10
224.204214
 20
105.454214
 30
0.0
  0
SPLINE
  5
13d
100
AcDbEntity
  8
0
 62
7
100
AcDbSpline
 70
8
 71
3
 72
8
 73
4
 74
0
 40
0
 40
0
 40
0
 40
0
 40
1
 40
1
 40
1
 40
1
 10
224.204214
 20
105.454214
 30
0.0
 10
224.579286
 20
105.079141
 30
0.0
 10
224.790000
 20
104.570433
 30
0.0
 10
224.790000
 20
104.040000
 30
0.0
  0
LWPOLYLINE
  5
13e
100
AcDbEntity
  8
0
 62
7
100
AcDbPolyline
 90
5
 70
1
 10
236.290000
 20
7.040000
 30
0.0
 10
236.290000
 20
7.040000
 30
0.0
 10
224.790000
 20
7.040000
 30
0.0
 10
224.790000
 20
7.040000
 30
0.0
 10
236.290000
 20
7.040000
 30
0.0
  0
SPLINE
  5
13f
100
AcDbEntity
  8
0
 62
7
100
AcDbSpline
 70
8
 71
3
 72
8
 73
4
 74
0
 40
0
 40
0
 40
0
 40
0
 40
1
 40
1
 40
1
 40
1
 10
224.790000
 20
104.040000
 30
0.0
 10
224.790000
 20
104.570433
 30
0.0
 10
224.579286
 20
105.079141
 30
0.0
 10
224.204214
 20
105.454214
 30
0.0
  0
SPLINE
  5
140
100
AcDbEntity
  8
0
 62
7
100
AcDbSpline
 70
8
 71
3
 72
8
 73
4
 74
0
 40
0
 40
0
 40
0
 40
0
 40
1
 40
1
 40
1
 40
1
 10
224.204214
 20
105.454214
 30
0.0
 10
223.829141
 20
105.829286
 30
0.0
 10
223.320433
 20
106.040000
 30
0.0
 10
222.790000
 20
106.040000
 30
0.0
  0
LWPOLYLINE
  5
141
100
AcDbEntity
  8
0
 62
7
100
AcDbPolyline
 90
1
 70
1
 10
224.790000
 20
104.040000
 30
0.0
  0
LWPOLYLINE
  5
142
100
AcDbEntity
  8
0
 62
7
100
AcDbPolyline
 90
2
 70
1
 10
222.790000
 20
106.040000
 30
0.0
 10
222.790000
 20
106.040000
 30
0.0
  0
LWPOLYLINE
  5
143
100
AcDbEntity
  8
0
 62
7
100
AcDbPolyline
 90
5
 70
1
 10
224.790000
 20
7.040000
 30
0.0
 10
224.790000
 20
7.040000
 30
0.0
 10
224.790000
 20
5.040000
 30
0.0
 10
224.790000
 20
5.040000
 30
0.0
 10
224.790000
 20
7.040000
 30
0.0
  0
SPLINE
  5
144
100
AcDbEntity
  8
0
 62
7
100
AcDbSpline
 70
8
 71
3
 72
8
 73
4
 74
0
 40
0
 40
0
 40
0
 40
0
 40
1
 40
1
 40
1
 40
1
 10
224.790000
 20
5.040000
 30
0.0
 10
224.790000
 20
4.509567
 30
0.0
 10
224.579286
 20
4.000859
 30
0.0
 10
224.204214
 20
3.625786
 30
0.0
  0
SPLINE
  5
145
100
AcDbEntity
  8
0
 62
7
100
AcDbSpline
 70
8
 71
3
 72
8
 73
4
 74
0
 40
0
 40
0
 40
0
 40
0
 40
1
 40
1
 40
1
 40
1
 10
224.204214
 20
3.625786
 30
0.0
 10
223.829141
 20
3.250714
 30
0.0
 10
223.320433
 20
3.040000
 30
0.0
 10
222.790000
 20
3.040000
 30
0.0
  0
LWPOLYLINE
  5
146
100
AcDbEntity
  8
0
 62
7
100
AcDbPolyline
 90
5
 70
1
 10
162.790000
 20
106.040000
 30
0.0
 10
162.790000
 20
106.040000
 30
0.0
 10
222.790000
 20
106.040000
 30
0.0
 10
222.790000
 20
106.040000
 30
0.0
 10
162.790000
 20
106.040000
 30
0.0
  0
SPLINE
  5
147
100
AcDbEntity
  8
0
 62
7
100
AcDbSpline
 70
8
 71
3
 72
8
 73
4
 74
0
 40
0
 40
0
 40
0
 40
0
 40
1
 40
1
 40
1
 40
1
 10
222.790000
 20
3.040000
 30
0.0
 10
223.320433
 20
3.040000
 30
0.0
 10
223.829141
 20
3.250714
 30
0.0
 10
224.204214
 20
3.625786
 30
0.0
  0
SPLINE
  5
148
100
AcDbEntity
  8
0
 62
7
100
AcDbSpline
 70
8
 71
3
 72
8
 73
4
 74
0
 40
0
 40
0
 40
0
 40
0
 40
1
 40
1
 40
1
 40
1
 10
224.204214
 20
3.625786
 30
0.0
 10
224.579286
 20
4.000859
 30
0.0
 10
224.790000
 20
4.509567
 30
0.0
 10
224.790000
 20
5.040000
 30
0.0
  0
LWPOLYLINE
  5
149
100
AcDbEntity
  8
0
 62
7
100
AcDbPolyline
 90
1
 70
1
 10
222.790000
 20
3.040000
 30
0.0
  0
SPLINE
  5
14a
100
AcDbEntity
  8
0
 62
7
100
AcDbSpline
 70
8
 71
3
 72
8
 73
4
 74
0
 40
0
 40
0
 40
0
 40
0
 40
1
 40
1
 40
1
 40
1
 10
160.790000
 20
104.040000
 30
0.0
 10
160.790000
 20
104.570433
 30
0.0
 10
161.000714
 20
105.079141
 30
0.0
 10
161.375786
 20
105.454214
 30
0.0
  0
SPLINE
  5
14b
100
AcDbEntity
  8
0
 62
7
100
AcDbSpline
 70
8
 71
3
 72
8
 73
4
 74
0
 40
0
 40
0
 40
0
 40
0
 40
1
 40
1
 40
1
 40
1
 10
161.375786
 20
105.454214
 30
0.0
 10
161.750859
 20
105.829286
 30
0.0
 10
162.259567
 20
106.040000
 30
0.0
 10
162.790000
 20
106.040000
 30
0.0
  0
LWPOLYLINE
  5
14c
100
AcDbEntity
  8
0
 62
7
100
AcDbPolyline
 90
2
 70
1
 10
224.790000
 20
5.040000
 30
0.0
 10
224.790000
 20
5.040000
 30
0.0
  0
SPLINE
  5
14d
100
AcDbEntity
  8
0
 62
7
100
AcDbSpline
 70
8
 71
3
 72
8
 73
4
 74
0
 40
0
 40
0
 40
0
 40
0
 40
1
 40
1
 40
1
 40
1
 10
162.790000
 20
106.040000
 30
0.0
 10
162.259567
 20
106.040000
 30
0.0
 10
161.750859
 20
105.829286
 30
0.0
 10
161.375786
 20
105.454214
 30
0.0
  0
SPLINE
  5
14e
100
AcDbEntity
  8
0
 62
7
100
AcDbSpline
 70
8
 71
3
 72
8
 73
4
 74
0
 40
0
 40
0
 40
0
 40
0
 40
1
 40
1
 40
1
 40
1
 10
161.375786
 20
105.454214
 30
0.0
 10
161.000714
 20
105.079141
 30
0.0
 10
160.790000
 20
104.570433
 30
0.0
 10
160.790000
 20
104.040000
 30
0.0
  0
LWPOLYLINE
  5
14f
100
AcDbEntity
  8
0
 62
7
100
AcDbPolyline
 90
1
 70
1
 10
162.790000
 20
106.040000
 30
0.0
  0
LWPOLYLINE
  5
150
100
AcDbEntity
  8
0
 62
7
100
AcDbPolyline
 90
2
 70
1
 10
160.790000
 20
104.040000
 30
0.0
 10
160.790000
 20
104.040000
 30
0.0
  0
LWPOLYLINE
  5
151
100
AcDbEntity
  8
0
 62
7
100
AcDbPolyline
 90
5
 70
1
 10
222.790000
 20
3.040000
 30
0.0
 10
222.790000
 20
3.040000
 30
0.0
 10
162.790000
 20
3.040000
 30
0.0
 10
162.790000
 20
3.040000
 30
0.0
 10
222.790000
 20
3.040000
 30
0.0
  0
SPLINE
  5
152
100
AcDbEntity
  8
0
 62
7
100
AcDbSpline
 70
8
 71
3
 72
8
 73
4
 74
0
 40
0
 40
0
 40
0
 40
0
 40
1
 40
1
 40
1
 40
1
 10
162.790000
 20
3.040000
 30
0.0
 10
162.259567
 20
3.040000
 30
0.0
 10
161.750859
 20
3.250714
 30
0.0
 10
161.375786
 20
3.625786
 30
0.0
  0
SPLINE
  5
153
100
AcDbEntity
  8
0
 62
7
100
AcDbSpline
 70
8
 71
3
 72
8
 73
4
 74
0
 40
0
 40
0
 40
0
 40
0
 40
1
 40
1
 40
1
 40
1
 10
161.375786
 20
3.625786
 30
0.0
 10
161.000714
 20
4.000859
 30
0.0
 10
160.790000
 20
4.509567
 30
0.0
 10
160.790000
 20
5.040000
 30
0.0
  0
LWPOLYLINE
  5
154
100
AcDbEntity
  8
0
 62
7
100
AcDbPolyline
 90
5
 70
1
 10
160.790000
 20
102.040000
 30
0.0
 10
160.790000
 20
102.040000
 30
0.0
 10
160.790000
 20
104.040000
 30
0.0
 10
160.790000
 20
104.040000
 30
0.0
 10
160.790000
 20
102.040000
 30
0.0
  0
SPLINE
  5
155
100
AcDbEntity
  8
0
 62
7
100
AcDbSpline
 70
8
 71
3
 72
8
 73
4
 74
0
 40
0
 40
0
 40
0
 40
0
 40
1
 40
1
 40
1
 40
1
 10
160.790000
 20
5.040000
 30
0.0
 10
160.790000
 20
4.509567
 30
0.0
 10
161.000714
 20
4.000859
 30
0.0
 10
161.375786
 20
3.625786
 30
0.0
  0
SPLINE
  5
156
100
AcDbEntity
  8
0
 62
7
100
AcDbSpline
 70
8
 71
3
 72
8
 73
4
 74
0
 40
0
 40
0
 40
0
 40
0
 40
1
 40
1
 40
1
 40
1
 10
161.375786
 20
3.625786
 30
0.0
 10
161.750859
 20
3.250714
 30
0.0
 10
162.259567
 20
3.040000
 30
0.0
 10
162.790000
 20
3.040000
 30
0.0
  0
LWPOLYLINE
  5
157
100
AcDbEntity
  8
0
 62
7
100
AcDbPolyline
 90
1
 70
1
 10
160.790000
 20
5.040000
 30
0.0
  0
LWPOLYLINE
  5
158
100
AcDbEntity
  8
0
 62
7
100
AcDbPolyline
 90
2
 70
1
 10
162.790000
 20
3.040000
 30
0.0
 10
162.790000
 20
3.040000
 30
0.0
  0
LWPOLYLINE
  5
159
100
AcDbEntity
  8
0
 62
7
100
AcDbPolyline
 90
5
 70
1
 10
149.290000
 20
102.040000
 30
0.0
 10
160.790000
 20
102.040000
 30
0.0
 10
160.790000
 20
102.040000
 30
0.0
 10
149.290000
 20
102.040000
 30
0.0
 10
149.290000
 20
102.040000
 30
0.0
  0
LWPOLYLINE
  5
15a
100
AcDbEntity
  8
0
 62
7
100
AcDbPolyline
 90
5
 70
1
 10
160.790000
 20
5.040000
 30
0.0
 10
160.790000
 20
5.040000
 30
0.0
 10
160.790000
 20
7.040000
 30
0.0
 10
160.790000
 20
7.040000
 30
0.0
 10
160.790000
 20
5.040000
 30
0.0
  0
LWPOLYLINE
  5
15b
100
AcDbEntity
  8
0
 62
7
100
AcDbPolyline
 90
5
 70
1
 10
149.290000
 20
104.040000
 30
0.0
 10
149.290000
 20
104.040000
 30
0.0
 10
149.290000
 20
102.040000
 30
0.0
 10
149.290000
 20
102.040000
 30
0.0
 10
149.290000
 20
104.040000
 30
0.0
  0
SPLINE
  5
15c
100
AcDbEntity
  8
0
 62
7
100
AcDbSpline
 70
8
 71
3
 72
8
 73
4
 74
0
 40
0
 40
0
 40
0
 40
0
 40
1
 40
1
 40
1
 40
1
 10
147.290000
 20
106.040000
 30
0.0
 10
147.820433
 20
106.040000
 30
0.0
 10
148.329141
 20
105.829286
 30
0.0
 10
148.704214
 20
105.454214
 30
0.0
  0
SPLINE
  5
15d
100
AcDbEntity
  8
0
 62
7
100
AcDbSpline
 70
8
 71
3
 72
8
 73
4
 74
0
 40
0
 40
0
 40
0
 40
0
 40
1
 40
1
 40
1
 40
1
 10
148.704214
 20
105.454214
 30
0.0
 10
149.079286
 20
105.079141
 30
0.0
 10
149.290000
 20
104.570433
 30
0.0
 10
149.290000
 20
104.040000
 30
0.0
  0
LWPOLYLINE
  5
15e
100
AcDbEntity
  8
0
 62
7
100
AcDbPolyline
 90
5
 70
1
 10
160.790000
 20
7.040000
 30
0.0
 10
160.790000
 20
7.040000
 30
0.0
 10
149.290000
 20
7.040000
 30
0.0
 10
149.290000
 20
7.040000
 30
0.0
 10
160.790000
 20
7.040000
 30
0.0
  0
SPLINE
  5
15f
100
AcDbEntity
  8
0
 62
7
100
AcDbSpline
 70
8
 71
3
 72
8
 73
4
 74
0
 40
0
 40
0
 40
0
 40
0
 40
1
 40
1
 40
1
 40
1
 10
149.290000
 20
104.040000
 30
0.0
 10
149.290000
 20
104.570433
 30
0.0
 10
149.079286
 20
105.079141
 30
0.0
 10
148.704214
 20
105.454214
 30
0.0
  0
SPLINE
  5
160
100
AcDbEntity
  8
0
 62
7
100
AcDbSpline
 70
8
 71
3
 72
8
 73
4
 74
0
 40
0
 40
0
 40
0
 40
0
 40
1
 40
1
 40
1
 40
1
 10
148.704214
 20
105.454214
 30
0.0
 10
148.329141
 20
105.829286
 30
0.0
 10
147.820433
 20
106.040000
 30
0.0
 10
147.290000
 20
106.040000
 30
0.0
  0
LWPOLYLINE
  5
161
100
AcDbEntity
  8
0
 62
7
100
AcDbPolyline
 90
1
 70
1
 10
149.290000
 20
104.040000
 30
0.0
  0
LWPOLYLINE
  5
162
100
AcDbEntity
  8
0
 62
7
100
AcDbPolyline
 90
2
 70
1
 10
147.290000
 20
106.040000
 30
0.0
 10
147.290000
 20
106.040000
 30
0.0
  0
LWPOLYLINE
  5
163
100
AcDbEntity
  8
0
 62
7
100
AcDbPolyline
 90
5
 70
1
 10
149.290000
 20
7.040000
 30
0.0
 10
149.290000
 20
7.040000
 30
0.0
 10
149.290000
 20
5.040000
 30
0.0
 10
149.290000
 20
5.040000
 30
0.0
 10
149.290000
 20
7.040000
 30
0.0
  0
SPLINE
  5
164
100
AcDbEntity
  8
0
 62
7
100
AcDbSpline
 70
8
 71
3
 72
8
 73
4
 74
0
 40
0
 40
0
 40
0
 40
0
 40
1
 40
1
 40
1
 40
1
 10
149.290000
 20
5.040000
 30
0.0
 10
149.290000
 20
4.509567
 30
0.0
 10
149.079286
 20
4.000859
 30
0.0
 10
148.704214
 20
3.625786
 30
0.0
  0
SPLINE
  5
165
100
AcDbEntity
  8
0
 62
7
100
AcDbSpline
 70
8
 71
3
 72
8
 73
4
 74
0
 40
0
 40
0
 40
0
 40
0
 40
1
 40
1
 40
1
 40
1
 10
148.704214
 20
3.625786
 30
0.0
 10
148.329141
 20
3.250714
 30
0.0
 10
147.820433
 20
3.040000
 30
0.0
 10
147.290000
 20
3.040000
 30
0.0
  0
LWPOLYLINE
  5
166
100
AcDbEntity
  8
0
 62
7
100
AcDbPolyline
 90
5
 70
1
 10
87.290000
 20
106.040000
 30
0.0
 10
87.290000
 20
106.040000
 30
0.0
 10
147.290000
 20
106.040000
 30
0.0
 10
147.290000
 20
106.040000
 30
0.0
 10
87.290000
 20
106.040000
 30
0.0
  0
SPLINE
  5
167
100
AcDbEntity
  8
0
 62
7
100
AcDbSpline
 70
8
 71
3
 72
8
 73
4
 74
0
 40
0
 40
0
 40
0
 40
0
 40
1
 40
1
 40
1
 40
1
 10
147.290000
 20
3.040000
 30
0.0
 10
147.820433
 20
3.040000
 30
0.0
 10
148.329141
 20
3.250714
 30
0.0
 10
148.704214
 20
3.625786
 30
0.0
  0
SPLINE
  5
168
100
AcDbEntity
  8
0
 62
7
100
AcDbSpline
 70
8
 71
3
 72
8
 73
4
 74
0
 40
0
 40
0
 40
0
 40
0
 40
1
 40
1
 40
1
 40
1
 10
148.704214
 20
3.625786
 30
0.0
 10
149.079286
 20
4.000859
 30
0.0
 10
149.290000
 20
4.509567
 30
0.0
 10
149.290000
 20
5.040000
 30
0.0
  0
LWPOLYLINE
  5
169
100
AcDbEntity
  8
0
 62
7
100
AcDbPolyline
 90
1
 70
1
 10
147.290000
 20
3.040000
 30
0.0
  0
SPLINE
  5
16a
100
AcDbEntity
  8
0
 62
7
100
AcDbSpline
 70
8
 71
3
 72
8
 73
4
 74
0
 40
0
 40
0
 40
0
 40
0
 40
1
 40
1
 40
1
 40
1
 10
85.290000
 20
104.040000
 30
0.0
 10
85.290000
 20
104.570433
 30
0.0
 10
85.500714
 20
105.079141
 30
0.0
 10
85.875786
 20
105.454214
 30
0.0
  0
SPLINE
  5
16b
100
AcDbEntity
  8
0
 62
7
100
AcDbSpline
 70
8
 71
3
 72
8
 73
4
 74
0
 40
0
 40
0
 40
0
 40
0
 40
1
 40
1
 40
1
 40
1
 10
85.875786
 20
105.454214
 30
0.0
 10
86.250859
 20
105.829286
 30
0.0
 10
86.759567
 20
106.040000
 30
0.0
 10
87.290000
 20
106.040000
 30
0.0
  0
LWPOLYLINE
  5
16c
100
AcDbEntity
  8
0
 62
7
100
AcDbPolyline
 90
2
 70
1
 10
149.290000
 20
5.040000
 30
0.0
 10
149.290000
 20
5.040000
 30
0.0
  0
SPLINE
  5
16d
100
AcDbEntity
  8
0
 62
7
100
AcDbSpline
 70
8
 71
3
 72
8
 73
4
 74
0
 40
0
 40
0
 40
0
 40
0
 40
1
 40
1
 40
1
 40
1
 10
87.290000
 20
106.040000
 30
0.0
 10
86.759567
 20
106.040000
 30
0.0
 10
86.250859
 20
105.829286
 30
0.0
 10
85.875786
 20
105.454214
 30
0.0
  0
SPLINE
  5
16e
100
AcDbEntity
  8
0
 62
7
100
AcDbSpline
 70
8
 71
3
 72
8
 73
4
 74
0
 40
0
 40
0
 40
0
 40
0
 40
1
 40
1
 40
1
 40
1
 10
85.875786
 20
105.454214
 30
0.0
 10
85.500714
 20
105.079141
 30
0.0
 10
85.290000
 20
104.570433
 30
0.0
 10
85.290000
 20
104.040000
 30
0.0
  0
LWPOLYLINE
  5
16f
100
AcDbEntity
  8
0
 62
7
100
AcDbPolyline
 90
1
 70
1
 10
87.290000
 20
106.040000
 30
0.0
  0
LWPOLYLINE
  5
170
100
AcDbEntity
  8
0
 62
7
100
AcDbPolyline
 90
2
 70
1
 10
85.290000
 20
104.040000
 30
0.0
 10
85.290000
 20
104.040000
 30
0.0
  0
LWPOLYLINE
  5
171
100
AcDbEntity
  8
0
 62
7
100
AcDbPolyline
 90
5
 70
1
 10
147.290000
 20
3.040000
 30
0.0
 10
147.290000
 20
3.040000
 30
0.0
 10
87.290000
 20
3.040000
 30
0.0
 10
87.290000
 20
3.040000
 30
0.0
 10
147.290000
 20
3.040000
 30
0.0
  0
SPLINE
  5
172
100
AcDbEntity
  8
0
 62
7
100
AcDbSpline
 70
8
 71
3
 72
8
 73
4
 74
0
 40
0
 40
0
 40
0
 40
0
 40
1
 40
1
 40
1
 40
1
 10
87.290000
 20
3.040000
 30
0.0
 10
86.759567
 20
3.040000
 30
0.0
 10
86.250859
 20
3.250714
 30
0.0
 10
85.875786
 20
3.625786
 30
0.0
  0
SPLINE
  5
173
100
AcDbEntity
  8
0
 62
7
100
AcDbSpline
 70
8
 71
3
 72
8
 73
4
 74
0
 40
0
 40
0
 40
0
 40
0
 40
1
 40
1
 40
1
 40
1
 10
85.875786
 20
3.625786
 30
0.0
 10
85.500714
 20
4.000859
 30
0.0
 10
85.290000
 20
4.509567
 30
0.0
 10
85.290000
 20
5.040000
 30
0.0
  0
LWPOLYLINE
  5
174
100
AcDbEntity
  8
0
 62
7
100
AcDbPolyline
 90
5
 70
1
 10
85.290000
 20
102.040000
 30
0.0
 10
85.290000
 20
102.040000
 30
0.0
 10
85.290000
 20
104.040000
 30
0.0
 10
85.290000
 20
104.040000
 30
0.0
 10
85.290000
 20
102.040000
 30
0.0
  0
SPLINE
  5
175
100
AcDbEntity
  8
0
 62
7
100
AcDbSpline
 70
8
 71
3
 72
8
 73
4
 74
0
 40
0
 40
0
 40
0
 40
0
 40
1
 40
1
 40
1
 40
1
 10
85.290000
 20
5.040000
 30
0.0
 10
85.290000
 20
4.509567
 30
0.0
 10
85.500714
 20
4.000859
 30
0.0
 10
85.875786
 20
3.625786
 30
0.0
  0
SPLINE
  5
176
100
AcDbEntity
  8
0
 62
7
100
AcDbSpline
 70
8
 71
3
 72
8
 73
4
 74
0
 40
0
 40
0
 40
0
 40
0
 40
1
 40
1
 40
1
 40
1
 10
85.875786
 20
3.625786
 30
0.0
 10
86.250859
 20
3.250714
 30
0.0
 10
86.759567
 20
3.040000
 30
0.0
 10
87.290000
 20
3.040000
 30
0.0
  0
LWPOLYLINE
  5
177
100
AcDbEntity
  8
0
 62
7
100
AcDbPolyline
 90
1
 70
1
 10
85.290000
 20
5.040000
 30
0.0
  0
LWPOLYLINE
  5
178
100
AcDbEntity
  8
0
 62
7
100
AcDbPolyline
 90
2
 70
1
 10
87.290000
 20
3.040000
 30
0.0
 10
87.290000
 20
3.040000
 30
0.0
  0
LWPOLYLINE
  5
179
100
AcDbEntity
  8
0
 62
7
100
AcDbPolyline
 90
5
 70
1
 10
73.790000
 20
102.040000
 30
0.0
 10
85.290000
 20
102.040000
 30
0.0
 10
85.290000
 20
102.040000
 30
0.0
 10
73.790000
 20
102.040000
 30
0.0
 10
73.790000
 20
102.040000
 30
0.0
  0
LWPOLYLINE
  5
17a
100
AcDbEntity
  8
0
 62
7
100
AcDbPolyline
 90
5
 70
1
 10
85.290000
 20
5.040000
 30
0.0
 10
85.290000
 20
5.040000
 30
0.0
 10
85.290000
 20
7.040000
 30
0.0
 10
85.290000
 20
7.040000
 30
0.0
 10
85.290000
 20
5.040000
 30
0.0
  0
LWPOLYLINE
  5
17b
100
AcDbEntity
  8
0
 62
7
100
AcDbPolyline
 90
5
 70
1
 10
73.790000
 20
104.040000
 30
0.0
 10
73.790000
 20
104.040000
 30
0.0
 10
73.790000
 20
102.040000
 30
0.0
 10
73.790000
 20
102.040000
 30
0.0
 10
73.790000
 20
104.040000
 30
0.0
  0
SPLINE
  5
17c
100
AcDbEntity
  8
0
 62
7
100
AcDbSpline
 70
8
 71
3
 72
8
 73
4
 74
0
 40
0
 40
0
 40
0
 40
0
 40
1
 40
1
 40
1
 40
1
 10
71.790000
 20
106.040000
 30
0.0
 10
72.320433
 20
106.040000
 30
0.0
 10
72.829141
 20
105.829286
 30
0.0
 10
73.204214
 20
105.454214
 30
0.0
  0
SPLINE
  5
17d
100
AcDbEntity
  8
0
 62
7
100
AcDbSpline
 70
8
 71
3
 72
8
 73
4
 74
0
 40
0
 40
0
 40
0
 40
0
 40
1
 40
1
 40
1
 40
1
 10
73.204214
 20
105.454214
 30
0.0
 10
73.579286
 20
105.079141
 30
0.0
 10
73.790000
 20
104.570433
 30
0.0
 10
73.790000
 20
104.040000
 30
0.0
  0
LWPOLYLINE
  5
17e
100
AcDbEntity
  8
0
 62
7
100
AcDbPolyline
 90
5
 70
1
 10
85.290000
 20
7.040000
 30
0.0
 10
85.290000
 20
7.040000
 30
0.0
 10
73.790000
 20
7.040000
 30
0.0
 10
73.790000
 20
7.040000
 30
0.0
 10
85.290000
 20
7.040000
 30
0.0
  0
SPLINE
  5
17f
100
AcDbEntity
  8
0
 62
7
100
AcDbSpline
 70
8
 71
3
 72
8
 73
4
 74
0
 40
0
 40
0
 40
0
 40
0
 40
1
 40
1
 40
1
 40
1
 10
73.790000
 20
104.040000
 30
0.0
 10
73.790000
 20
104.570433
 30
0.0
 10
73.579286
 20
105.079141
 30
0.0
 10
73.204214
 20
105.454214
 30
0.0
  0
SPLINE
  5
180
100
AcDbEntity
  8
0
 62
7
100
AcDbSpline
 70
8
 71
3
 72
8
 73
4
 74
0
 40
0
 40
0
 40
0
 40
0
 40
1
 40
1
 40
1
 40
1
 10
73.204214
 20
105.454214
 30
0.0
 10
72.829141
 20
105.829286
 30
0.0
 10
72.320433
 20
106.040000
 30
0.0
 10
71.790000
 20
106.040000
 30
0.0
  0
LWPOLYLINE
  5
181
100
AcDbEntity
  8
0
 62
7
100
AcDbPolyline
 90
1
 70
1
 10
73.790000
 20
104.040000
 30
0.0
  0
LWPOLYLINE
  5
182
100
AcDbEntity
  8
0
 62
7
100
AcDbPolyline
 90
2
 70
1
 10
71.790000
 20
106.040000
 30
0.0
 10
71.790000
 20
106.040000
 30
0.0
  0
LWPOLYLINE
  5
183
100
AcDbEntity
  8
0
 62
7
100
AcDbPolyline
 90
5
 70
1
 10
73.790000
 20
7.040000
 30
0.0
 10
73.790000
 20
7.040000
 30
0.0
 10
73.790000
 20
5.040000
 30
0.0
 10
73.790000
 20
5.040000
 30
0.0
 10
73.790000
 20
7.040000
 30
0.0
  0
SPLINE
  5
184
100
AcDbEntity
  8
0
 62
7
100
AcDbSpline
 70
8
 71
3
 72
8
 73
4
 74
0
 40
0
 40
0
 40
0
 40
0
 40
1
 40
1
 40
1
 40
1
 10
73.790000
 20
5.040000
 30
0.0
 10
73.790000
 20
4.509567
 30
0.0
 10
73.579286
 20
4.000859
 30
0.0
 10
73.204214
 20
3.625786
 30
0.0
  0
SPLINE
  5
185
100
AcDbEntity
  8
0
 62
7
100
AcDbSpline
 70
8
 71
3
 72
8
 73
4
 74
0
 40
0
 40
0
 40
0
 40
0
 40
1
 40
1
 40
1
 40
1
 10
73.204214
 20
3.625786
 30
0.0
 10
72.829141
 20
3.250714
 30
0.0
 10
72.320433
 20
3.040000
 30
0.0
 10
71.790000
 20
3.040000
 30
0.0
  0
LWPOLYLINE
  5
186
100
AcDbEntity
  8
0
 62
7
100
AcDbPolyline
 90
5
 70
1
 10
11.790000
 20
106.040000
 30
0.0
 10
11.790000
 20
106.040000
 30
0.0
 10
71.790000
 20
106.040000
 30
0.0
 10
71.790000
 20
106.040000
 30
0.0
 10
11.790000
 20
106.040000
 30
0.0
  0
SPLINE
  5
187
100
AcDbEntity
  8
0
 62
7
100
AcDbSpline
 70
8
 71
3
 72
8
 73
4
 74
0
 40
0
 40
0
 40
0
 40
0
 40
1
 40
1
 40
1
 40
1
 10
71.790000
 20
3.040000
 30
0.0
 10
72.320433
 20
3.040000
 30
0.0
 10
72.829141
 20
3.250714
 30
0.0
 10
73.204214
 20
3.625786
 30
0.0
  0
SPLINE
  5
188
100
AcDbEntity
  8
0
 62
7
100
AcDbSpline
 70
8
 71
3
 72
8
 73
4
 74
0
 40
0
 40
0
 40
0
 40
0
 40
1
 40
1
 40
1
 40
1
 10
73.204214
 20
3.625786
 30
0.0
 10
73.579286
 20
4.000859
 30
0.0
 10
73.790000
 20
4.509567
 30
0.0
 10
73.790000
 20
5.040000
 30
0.0
  0
LWPOLYLINE
  5
189
100
AcDbEntity
  8
0
 62
7
100
AcDbPolyline
 90
1
 70
1
 10
71.790000
 20
3.040000
 30
0.0
  0
SPLINE
  5
18a
100
AcDbEntity
  8
0
 62
7
100
AcDbSpline
 70
8
 71
3
 72
8
 73
4
 74
0
 40
0
 40
0
 40
0
 40
0
 40
1
 40
1
 40
1
 40
1
 10
9.790000
 20
104.040000
 30
0.0
 10
9.790000
 20
104.570433
 30
0.0
 10
10.000714
 20
105.079141
 30
0.0
 10
10.375786
 20
105.454214
 30
0.0
  0
SPLINE
  5
18b
100
AcDbEntity
  8
0
 62
7
100
AcDbSpline
 70
8
 71
3
 72
8
 73
4
 74
0
 40
0
 40
0
 40
0
 40
0
 40
1
 40
1
 40
1
 40
1
 10
10.375786
 20
105.454214
 30
0.0
 10
10.750859
 20
105.829286
 30
0.0
 10
11.259567
 20
106.040000
 30
0.0
 10
11.790000
 20
106.040000
 30
0.0
  0
LWPOLYLINE
  5
18c
100
AcDbEntity
  8
0
 62
7
100
AcDbPolyline
 90
2
 70
1
 10
73.790000
 20
5.040000
 30
0.0
 10
73.790000
 20
5.040000
 30
0.0
  0
SPLINE
  5
18d
100
AcDbEntity
  8
0
 62
7
100
AcDbSpline
 70
8
 71
3
 72
8
 73
4
 74
0
 40
0
 40
0
 40
0
 40
0
 40
1
 40
1
 40
1
 40
1
 10
11.790000
 20
106.040000
 30
0.0
 10
11.259567
 20
106.040000
 30
0.0
 10
10.750859
 20
105.829286
 30
0.0
 10
10.375786
 20
105.454214
 30
0.0
  0
SPLINE
  5
18e
100
AcDbEntity
  8
0
 62
7
100
AcDbSpline
 70
8
 71
3
 72
8
 73
4
 74
0
 40
0
 40
0
 40
0
 40
0
 40
1
 40
1
 40
1
 40
1
 10
10.375786
 20
105.454214
 30
0.0
 10
10.000714
 20
105.079141
 30
0.0
 10
9.790000
 20
104.570433
 30
0.0
 10
9.790000
 20
104.040000
 30
0.0
  0
LWPOLYLINE
  5
18f
100
AcDbEntity
  8
0
 62
7
100
AcDbPolyline
 90
1
 70
1
 10
11.790000
 20
106.040000
 30
0.0
  0
LWPOLYLINE
  5
190
100
AcDbEntity
  8
0
 62
7
100
AcDbPolyline
 90
2
 70
1
 10
9.790000
 20
104.040000
 30
0.0
 10
9.790000
 20
104.040000
 30
0.0
  0
LWPOLYLINE
  5
191
100
AcDbEntity
  8
0
 62
7
100
AcDbPolyline
 90
5
 70
1
 10
71.790000
 20
3.040000
 30
0.0
 10
71.790000
 20
3.040000
 30
0.0
 10
11.790000
 20
3.040000
 30
0.0
 10
11.790000
 20
3.040000
 30
0.0
 10
71.790000
 20
3.040000
 30
0.0
  0
SPLINE
  5
192
100
AcDbEntity
  8
0
 62
7
100
AcDbSpline
 70
8
 71
3
 72
8
 73
4
 74
0
 40
0
 40
0
 40
0
 40
0
 40
1
 40
1
 40
1
 40
1
 10
11.790000
 20
3.040000
 30
0.0
 10
11.259567
 20
3.040000
 30
0.0
 10
10.750859
 20
3.250714
 30
0.0
 10
10.375786
 20
3.625786
 30
0.0
  0
SPLINE
  5
193
100
AcDbEntity
  8
0
 62
7
100
AcDbSpline
 70
8
 71
3
 72
8
 73
4
 74
0
 40
0
 40
0
 40
0
 40
0
 40
1
 40
1
 40
1
 40
1
 10
10.375786
 20
3.625786
 30
0.0
 10
10.000714
 20
4.000859
 30
0.0
 10
9.790000
 20
4.509567
 30
0.0
 10
9.790000
 20
5.040000
 30
0.0
  0
LWPOLYLINE
  5
194
100
AcDbEntity
  8
0
 62
7
100
AcDbPolyline
 90
5
 70
1
 10
9.790000
 20
102.040000
 30
0.0
 10
9.790000
 20
102.040000
 30
0.0
 10
9.790000
 20
104.040000
 30
0.0
 10
9.790000
 20
104.040000
 30
0.0
 10
9.790000
 20
102.040000
 30
0.0
  0
SPLINE
  5
195
100
AcDbEntity
  8
0
 62
7
100
AcDbSpline
 70
8
 71
3
 72
8
 73
4
 74
0
 40
0
 40
0
 40
0
 40
0
 40
1
 40
1
 40
1
 40
1
 10
9.790000
 20
5.040000
 30
0.0
 10
9.790000
 20
4.509567
 30
0.0
 10
10.000714
 20
4.000859
 30
0.0
 10
10.375786
 20
3.625786
 30
0.0
  0
SPLINE
  5
196
100
AcDbEntity
  8
0
 62
7
100
AcDbSpline
 70
8
 71
3
 72
8
 73
4
 74
0
 40
0
 40
0
 40
0
 40
0
 40
1
 40
1
 40
1
 40
1
 10
10.375786
 20
3.625786
 30
0.0
 10
10.750859
 20
3.250714
 30
0.0
 10
11.259567
 20
3.040000
 30
0.0
 10
11.790000
 20
3.040000
 30
0.0
  0
LWPOLYLINE
  5
197
100
AcDbEntity
  8
0
 62
7
100
AcDbPolyline
 90
1
 70
1
 10
9.790000
 20
5.040000
 30
0.0
  0
LWPOLYLINE
  5
198
100
AcDbEntity
  8
0
 62
7
100
AcDbPolyline
 90
2
 70
1
 10
11.790000
 20
3.040000
 30
0.0
 10
11.790000
 20
3.040000
 30
0.0
  0
LWPOLYLINE
  5
199
100
AcDbEntity
  8
0
 62
7
100
AcDbPolyline
 90
5
 70
1
 10
5.040000
 20
102.040000
 30
0.0
 10
9.790000
 20
102.040000
 30
0.0
 10
9.790000
 20
102.040000
 30
0.0
 10
5.040000
 20
102.040000
 30
0.0
 10
5.040000
 20
102.040000
 30
0.0
  0
SPLINE
  5
19a
100
AcDbEntity
  8
0
 62
7
100
AcDbSpline
 70
8
 71
3
 72
8
 73
4
 74
0
 40
0
 40
0
 40
0
 40
0
 40
1
 40
1
 40
1
 40
1
 10
3.040000
 20
100.040000
 30
0.0
 10
3.040000
 20
100.570433
 30
0.0
 10
3.250714
 20
101.079141
 30
0.0
 10
3.625786
 20
101.454214
 30
0.0
  0
SPLINE
  5
19b
100
AcDbEntity
  8
0
 62
7
100
AcDbSpline
 70
8
 71
3
 72
8
 73
4
 74
0
 40
0
 40
0
 40
0
 40
0
 40
1
 40
1
 40
1
 40
1
 10
3.625786
 20
101.454214
 30
0.0
 10
4.000859
 20
101.829286
 30
0.0
 10
4.509567
 20
102.040000
 30
0.0
 10
5.040000
 20
102.040000
 30
0.0
  0
LWPOLYLINE
  5
19c
100
AcDbEntity
  8
0
 62
7
100
AcDbPolyline
 90
5
 70
1
 10
9.790000
 20
5.040000
 30
0.0
 10
9.790000
 20
5.040000
 30
0.0
 10
9.790000
 20
7.040000
 30
0.0
 10
9.790000
 20
7.040000
 30
0.0
 10
9.790000
 20
5.040000
 30
0.0
  0
SPLINE
  5
19d
100
AcDbEntity
  8
0
 62
7
100
AcDbSpline
 70
8
 71
3
 72
8
 73
4
 74
0
 40
0
 40
0
 40
0
 40
0
 40
1
 40
1
 40
1
 40
1
 10
5.040000
 20
102.040000
 30
0.0
 10
4.509567
 20
102.040000
 30
0.0
 10
4.000859
 20
101.829286
 30
0.0
 10
3.625786
 20
101.454214
 30
0.0
  0
SPLINE
  5
19e
100
AcDbEntity
  8
0
 62
7
100
AcDbSpline
 70
8
 71
3
 72
8
 73
4
 74
0
 40
0
 40
0
 40
0
 40
0
 40
1
 40
1
 40
1
 40
1
 10
3.625786
 20
101.454214
 30
0.0
 10
3.250714
 20
101.079141
 30
0.0
 10
3.040000
 20
100.570433
 30
0.0
 10
3.040000
 20
100.040000
 30
0.0
  0
LWPOLYLINE
  5
19f
100
AcDbEntity
  8
0
 62
7
100
AcDbPolyline
 90
1
 70
1
 10
5.040000
 20
102.040000
 30
0.0
  0
LWPOLYLINE
  5
1a0
100
AcDbEntity
  8
0
 62
7
100
AcDbPolyline
 90
2
 70
1
 10
3.040000
 20
100.040000
 30
0.0
 10
3.040000
 20
100.040000
 30
0.0
  0
LWPOLYLINE
  5
1a1
100
AcDbEntity
  8
0
 62
7
100
AcDbPolyline
 90
5
 70
1
 10
9.790000
 20
7.040000
 30
0.0
 10
9.790000
 20
7.040000
 30
0.0
 10
5.040000
 20
7.040000
 30
0.0
 10
5.040000
 20
7.040000
 30
0.0
 10
9.790000
 20
7.040000
 30
0.0
  0
SPLINE
  5
1a2
100
AcDbEntity
  8
0
 62
7
100
AcDbSpline
 70
8
 71
3
 72
8
 73
4
 74
0
 40
0
 40
0
 40
0
 40
0
 40
1
 40
1
 40
1
 40
1
 10
5.040000
 20
7.040000
 30
0.0
 10
4.509567
 20
7.040000
 30
0.0
 10
4.000859
 20
7.250714
 30
0.0
 10
3.625786
 20
7.625786
 30
0.0
  0
SPLINE
  5
1a3
100
AcDbEntity
  8
0
 62
7
100
AcDbSpline
 70
8
 71
3
 72
8
 73
4
 74
0
 40
0
 40
0
 40
0
 40
0
 40
1
 40
1
 40
1
 40
1
 10
3.625786
 20
7.625786
 30
0.0
 10
3.250714
 20
8.000859
 30
0.0
 10
3.040000
 20
8.509567
 30
0.0
 10
3.040000
 20
9.040000
 30
0.0
  0
SPLINE
  5
1a4
100
AcDbEntity
  8
0
 62
7
100
AcDbSpline
 70
8
 71
3
 72
8
 73
4
 74
0
 40
0
 40
0
 40
0
 40
0
 40
1
 40
1
 40
1
 40
1
 10
3.040000
 20
9.040000
 30
0.0
 10
3.040000
 20
8.509567
 30
0.0
 10
3.250714
 20
8.000859
 30
0.0
 10
3.625786
 20
7.625786
 30
0.0
  0
SPLINE
  5
1a5
100
AcDbEntity
  8
0
 62
7
100
AcDbSpline
 70
8
 71
3
 72
8
 73
4
 74
0
 40
0
 40
0
 40
0
 40
0
 40
1
 40
1
 40
1
 40
1
 10
3.625786
 20
7.625786
 30
0.0
 10
4.000859
 20
7.250714
 30
0.0
 10
4.509567
 20
7.040000
 30
0.0
 10
5.040000
 20
7.040000
 30
0.0
  0
LWPOLYLINE
  5
1a6
100
AcDbEntity
  8
0
 62
7
100
AcDbPolyline
 90
6
 70
1
 10
3.040000
 20
9.040000
 30
0.0
 10
3.040000
 20
9.040000
 30
0.0
 10
3.040000
 20
100.040000
 30
0.0
 10
3.040000
 20
100.040000
 30
0.0
 10
3.040000
 20
9.040000
 30
0.0
 10
3.040000
 20
9.040000
 30
0.0
  0
LWPOLYLINE
  5
1a7
100
AcDbEntity
  8
0
 62
7
100
AcDbPolyline
 90
2
 70
1
 10
5.040000
 20
7.040000
 30
0.0
 10
5.040000
 20
7.040000
 30
0.0
  0
LWPOLYLINE
  5
1a8
100
AcDbEntity
  8
0
 62
7
100
AcDbPolyline
 90
5
 70
1
 10
304.915000
 20
23.440000
 30
0.0
 10
304.915000
 20
23.440000
 30
0.0
 10
290.915000
 20
23.440000
 30
0.0
 10
290.915000
 20
23.440000
 30
0.0
 10
304.915000
 20
23.440000
 30
0.0
  0
LWPOLYLINE
  5
1a9
100
AcDbEntity
  8
0
 62
7
100
AcDbPolyline
 90
5
 70
1
 10
290.915000
 20
23.440000
 30
0.0
 10
290.915000
 20
23.440000
 30
0.0
 10
290.915000
 20
9.440000
 30
0.0
 10
290.915000
 20
9.440000
 30
0.0
 10
290.915000
 20
23.440000
 30
0.0
  0
LWPOLYLINE
  5
1aa
100
AcDbEntity
  8
0
 62
7
100
AcDbPolyline
 90
5
 70
1
 10
304.915000
 20
9.440000
 30
0.0
 10
304.915000
 20
9.440000
 30
0.0
 10
304.915000
 20
23.440000
 30
0.0
 10
304.915000
 20
23.440000
 30
0.0
 10
304.915000
 20
9.440000
 30
0.0
  0
SPLINE
  5
1ab
100
AcDbEntity
  8
0
 62
7
100
AcDbSpline
 70
8
 71
3
 72
8
 73
4
 74
0
 40
0
 40
0
 40
0
 40
0
 40
1
 40
1
 40
1
 40
1
 10
288.390000
 20
15.565000
 30
0.0
 10
288.036096
 20
15.565000
 30
0.0
 10
287.717039
 20
15.778187
 30
0.0
 10
287.581605
 20
16.105152
 30
0.0
  0
SPLINE
  5
1ac
100
AcDbEntity
  8
0
 62
7
100
AcDbSpline
 70
8
 71
3
 72
8
 73
4
 74
0
 40
0
 40
0
 40
0
 40
0
 40
1
 40
1
 40
1
 40
1
 10
287.581605
 20
16.105152
 30
0.0
 10
287.446172
 20
16.432117
 30
0.0
 10
287.521033
 20
16.808470
 30
0.0
 10
287.771282
 20
17.058718
 30
0.0
  0
SPLINE
  5
1ad
100
AcDbEntity
  8
0
 62
7
100
AcDbSpline
 70
8
 71
3
 72
8
 73
4
 74
0
 40
0
 40
0
 40
0
 40
0
 40
1
 40
1
 40
1
 40
1
 10
287.771282
 20
17.058718
 30
0.0
 10
288.021530
 20
17.308967
 30
0.0
 10
288.397883
 20
17.383828
 30
0.0
 10
288.724848
 20
17.248395
 30
0.0
  0
SPLINE
  5
1ae
100
AcDbEntity
  8
0
 62
7
100
AcDbSpline
 70
8
 71
3
 72
8
 73
4
 74
0
 40
0
 40
0
 40
0
 40
0
 40
1
 40
1
 40
1
 40
1
 10
288.724848
 20
17.248395
 30
0.0
 10
289.051813
 20
17.112961
 30
0.0
 10
289.265000
 20
16.793904
 30
0.0
 10
289.265000
 20
16.440000
 30
0.0
  0
SPLINE
  5
1af
100
AcDbEntity
  8
0
 62
7
100
AcDbSpline
 70
8
 71
3
 72
8
 73
4
 74
0
 40
0
 40
0
 40
0
 40
0
 40
1
 40
1
 40
1
 40
1
 10
289.265000
 20
16.440000
 30
0.0
 10
289.265000
 20
16.207936
 30
0.0
 10
289.172813
 20
15.985376
 30
0.0
 10
289.008718
 20
15.821282
 30
0.0
  0
SPLINE
  5
1b0
100
AcDbEntity
  8
0
 62
7
100
AcDbSpline
 70
8
 71
3
 72
8
 73
4
 74
0
 40
0
 40
0
 40
0
 40
0
 40
1
 40
1
 40
1
 40
1
 10
289.008718
 20
15.821282
 30
0.0
 10
288.844624
 20
15.657187
 30
0.0
 10
288.622064
 20
15.565000
 30
0.0
 10
288.390000
 20
15.565000
 30
0.0
  0
LWPOLYLINE
  5
1b1
100
AcDbEntity
  8
0
 62
7
100
AcDbPolyline
 90
5
 70
1
 10
290.915000
 20
9.440000
 30
0.0
 10
290.915000
 20
9.440000
 30
0.0
 10
304.915000
 20
9.440000
 30
0.0
 10
304.915000
 20
9.440000
 30
0.0
 10
290.915000
 20
9.440000
 30
0.0
  0
LWPOLYLINE
  5
1b2
100
AcDbEntity
  8
0
 62
7
100
AcDbPolyline
 90
1
 70
1
 10
288.390000
 20
15.565000
 30
0.0
  0
LWPOLYLINE
  5
1b3
100
AcDbEntity
  8
0
 62
7
100
AcDbPolyline
 90
5
 70
1
 10
285.865000
 20
23.440000
 30
0.0
 10
285.865000
 20
23.440000
 30
0.0
 10
271.865000
 20
23.440000
 30
0.0
 10
271.865000
 20
23.440000
 30
0.0
 10
285.865000
 20
23.440000
 30
0.0
  0
LWPOLYLINE
  5
1b4
100
AcDbEntity
  8
0
 62
7
100
AcDbPolyline
 90
5
 70
1
 10
271.865000
 20
23.440000
 30
0.0
 10
271.865000
 20
23.440000
 30
0.0
 10
271.865000
 20
9.440000
 30
0.0
 10
271.865000
 20
9.440000
 30
0.0
 10
271.865000
 20
23.440000
 30
0.0
  0
LWPOLYLINE
  5
1b5
100
AcDbEntity
  8
0
 62
7
100
AcDbPolyline
 90
5
 70
1
 10
285.865000
 20
9.440000
 30
0.0
 10
285.865000
 20
9.440000
 30
0.0
 10
285.865000
 20
23.440000
 30
0.0
 10
285.865000
 20
23.440000
 30
0.0
 10
285.865000
 20
9.440000
 30
0.0
  0
LWPOLYLINE
  5
1b6
100
AcDbEntity
  8
0
 62
7
100
AcDbPolyline
 90
5
 70
1
 10
271.865000
 20
9.440000
 30
0.0
 10
271.865000
 20
9.440000
 30
0.0
 10
285.865000
 20
9.440000
 30
0.0
 10
285.865000
 20
9.440000
 30
0.0
 10
271.865000
 20
9.440000
 30
0.0
  0
LWPOLYLINE
  5
1b7
100
AcDbEntity
  8
0
 62
7
100
AcDbPolyline
 90
5
 70
1
 10
266.815000
 20
23.440000
 30
0.0
 10
266.815000
 20
23.440000
 30
0.0
 10
252.815000
 20
23.440000
 30
0.0
 10
252.815000
 20
23.440000
 30
0.0
 10
266.815000
 20
23.440000
 30
0.0
  0
LWPOLYLINE
  5
1b8
100
AcDbEntity
  8
0
 62
7
100
AcDbPolyline
 90
5
 70
1
 10
252.815000
 20
23.440000
 30
0.0
 10
252.815000
 20
23.440000
 30
0.0
 10
252.815000
 20
9.440000
 30
0.0
 10
252.815000
 20
9.440000
 30
0.0
 10
252.815000
 20
23.440000
 30
0.0
  0
LWPOLYLINE
  5
1b9
100
AcDbEntity
  8
0
 62
7
100
AcDbPolyline
 90
5
 70
1
 10
266.815000
 20
9.440000
 30
0.0
 10
266.815000
 20
9.440000
 30
0.0
 10
266.815000
 20
23.440000
 30
0.0
 10
266.815000
 20
23.440000
 30
0.0
 10
266.815000
 20
9.440000
 30
0.0
  0
LWPOLYLINE
  5
1ba
100
AcDbEntity
  8
0
 62
7
100
AcDbPolyline
 90
5
 70
1
 10
252.815000
 20
9.440000
 30
0.0
 10
252.815000
 20
9.440000
 30
0.0
 10
266.815000
 20
9.440000
 30
0.0
 10
266.815000
 20
9.440000
 30
0.0
 10
252.815000
 20
9.440000
 30
0.0
  0
LWPOLYLINE
  5
1bb
100
AcDbEntity
  8
0
 62
7
100
AcDbPolyline
 90
5
 70
1
 10
247.765000
 20
23.440000
 30
0.0
 10
247.765000
 20
23.440000
 30
0.0
 10
233.765000
 20
23.440000
 30
0.0
 10
233.765000
 20
23.440000
 30
0.0
 10
247.765000
 20
23.440000
 30
0.0
  0
LWPOLYLINE
  5
1bc
100
AcDbEntity
  8
0
 62
7
100
AcDbPolyline
 90
5
 70
1
 10
233.765000
 20
23.440000
 30
0.0
 10
233.765000
 20
23.440000
 30
0.0
 10
233.765000
 20
9.440000
 30
0.0
 10
233.765000
 20
9.440000
 30
0.0
 10
233.765000
 20
23.440000
 30
0.0
  0
LWPOLYLINE
  5
1bd
100
AcDbEntity
  8
0
 62
7
100
AcDbPolyline
 90
5
 70
1
 10
247.765000
 20
9.440000
 30
0.0
 10
247.765000
 20
9.440000
 30
0.0
 10
247.765000
 20
23.440000
 30
0.0
 10
247.765000
 20
23.440000
 30
0.0
 10
247.765000
 20
9.440000
 30
0.0
  0
LWPOLYLINE
  5
1be
100
AcDbEntity
  8
0
 62
7
100
AcDbPolyline
 90
5
 70
1
 10
233.765000
 20
9.440000
 30
0.0
 10
233.765000
 20
9.440000
 30
0.0
 10
247.765000
 20
9.440000
 30
0.0
 10
247.765000
 20
9.440000
 30
0.0
 10
233.765000
 20
9.440000
 30
0.0
  0
LWPOLYLINE
  5
1bf
100
AcDbEntity
  8
0
 62
7
100
AcDbPolyline
 90
5
 70
1
 10
226.333750
 20
23.440000
 30
0.0
 10
226.333750
 20
23.440000
 30
0.0
 10
212.333750
 20
23.440000
 30
0.0
 10
212.333750
 20
23.440000
 30
0.0
 10
226.333750
 20
23.440000
 30
0.0
  0
LWPOLYLINE
  5
1c0
100
AcDbEntity
  8
0
 62
7
100
AcDbPolyline
 90
5
 70
1
 10
212.333750
 20
23.440000
 30
0.0
 10
212.333750
 20
23.440000
 30
0.0
 10
212.333750
 20
9.440000
 30
0.0
 10
212.333750
 20
9.440000
 30
0.0
 10
212.333750
 20
23.440000
 30
0.0
  0
LWPOLYLINE
  5
1c1
100
AcDbEntity
  8
0
 62
7
100
AcDbPolyline
 90
5
 70
1
 10
226.333750
 20
9.440000
 30
0.0
 10
226.333750
 20
9.440000
 30
0.0
 10
226.333750
 20
23.440000
 30
0.0
 10
226.333750
 20
23.440000
 30
0.0
 10
226.333750
 20
9.440000
 30
0.0
  0
SPLINE
  5
1c2
100
AcDbEntity
  8
0
 62
7
100
AcDbSpline
 70
8
 71
3
 72
8
 73
4
 74
0
 40
0
 40
0
 40
0
 40
0
 40
1
 40
1
 40
1
 40
1
 10
207.451300
 20
15.565000
 30
0.0
 10
207.097396
 20
15.565000
 30
0.0
 10
206.778339
 20
15.778187
 30
0.0
 10
206.642905
 20
16.105152
 30
0.0
  0
SPLINE
  5
1c3
100
AcDbEntity
  8
0
 62
7
100
AcDbSpline
 70
8
 71
3
 72
8
 73
4
 74
0
 40
0
 40
0
 40
0
 40
0
 40
1
 40
1
 40
1
 40
1
 10
206.642905
 20
16.105152
 30
0.0
 10
206.507472
 20
16.432117
 30
0.0
 10
206.582333
 20
16.808470
 30
0.0
 10
206.832582
 20
17.058718
 30
0.0
  0
SPLINE
  5
1c4
100
AcDbEntity
  8
0
 62
7
100
AcDbSpline
 70
8
 71
3
 72
8
 73
4
 74
0
 40
0
 40
0
 40
0
 40
0
 40
1
 40
1
 40
1
 40
1
 10
206.832582
 20
17.058718
 30
0.0
 10
207.082830
 20
17.308967
 30
0.0
 10
207.459183
 20
17.383828
 30
0.0
 10
207.786148
 20
17.248395
 30
0.0
  0
SPLINE
  5
1c5
100
AcDbEntity
  8
0
 62
7
100
AcDbSpline
 70
8
 71
3
 72
8
 73
4
 74
0
 40
0
 40
0
 40
0
 40
0
 40
1
 40
1
 40
1
 40
1
 10
207.786148
 20
17.248395
 30
0.0
 10
208.113113
 20
17.112961
 30
0.0
 10
208.326300
 20
16.793904
 30
0.0
 10
208.326300
 20
16.440000
 30
0.0
  0
SPLINE
  5
1c6
100
AcDbEntity
  8
0
 62
7
100
AcDbSpline
 70
8
 71
3
 72
8
 73
4
 74
0
 40
0
 40
0
 40
0
 40
0
 40
1
 40
1
 40
1
 40
1
 10
208.326300
 20
16.440000
 30
0.0
 10
208.326300
 20
16.207936
 30
0.0
 10
208.234113
 20
15.985376
 30
0.0
 10
208.070018
 20
15.821282
 30
0.0
  0
SPLINE
  5
1c7
100
AcDbEntity
  8
0
 62
7
100
AcDbSpline
 70
8
 71
3
 72
8
 73
4
 74
0
 40
0
 40
0
 40
0
 40
0
 40
1
 40
1
 40
1
 40
1
 10
208.070018
 20
15.821282
 30
0.0
 10
207.905924
 20
15.657187
 30
0.0
 10
207.683364
 20
15.565000
 30
0.0
 10
207.451300
 20
15.565000
 30
0.0
  0
LWPOLYLINE
  5
1c8
100
AcDbEntity
  8
0
 62
7
100
AcDbPolyline
 90
5
 70
1
 10
212.333750
 20
9.440000
 30
0.0
 10
212.333750
 20
9.440000
 30
0.0
 10
226.333750
 20
9.440000
 30
0.0
 10
226.333750
 20
9.440000
 30
0.0
 10
212.333750
 20
9.440000
 30
0.0
  0
LWPOLYLINE
  5
1c9
100
AcDbEntity
  8
0
 62
7
100
AcDbPolyline
 90
1
 70
1
 10
207.451300
 20
15.565000
 30
0.0
  0
LWPOLYLINE
  5
1ca
100
AcDbEntity
  8
0
 62
7
100
AcDbPolyline
 90
5
 70
1
 10
202.521250
 20
23.440000
 30
0.0
 10
202.521250
 20
23.440000
 30
0.0
 10
188.521250
 20
23.440000
 30
0.0
 10
188.521250
 20
23.440000
 30
0.0
 10
202.521250
 20
23.440000
 30
0.0
  0
LWPOLYLINE
  5
1cb
100
AcDbEntity
  8
0
 62
7
100
AcDbPolyline
 90
5
 70
1
 10
188.521250
 20
23.440000
 30
0.0
 10
188.521250
 20
23.440000
 30
0.0
 10
188.521250
 20
9.440000
 30
0.0
 10
188.521250
 20
9.440000
 30
0.0
 10
188.521250
 20
23.440000
 30
0.0
  0
LWPOLYLINE
  5
1cc
100
AcDbEntity
  8
0
 62
7
100
AcDbPolyline
 90
5
 70
1
 10
202.521250
 20
9.440000
 30
0.0
 10
202.521250
 20
9.440000
 30
0.0
 10
202.521250
 20
23.440000
 30
0.0
 10
202.521250
 20
23.440000
 30
0.0
 10
202.521250
 20
9.440000
 30
0.0
  0
LWPOLYLINE
  5
1cd
100
AcDbEntity
  8
0
 62
7
100
AcDbPolyline
 90
5
 70
1
 10
188.521250
 20
9.440000
 30
0.0
 10
188.521250
 20
9.440000
 30
0.0
 10
202.521250
 20
9.440000
 30
0.0
 10
202.521250
 20
9.440000
 30
0.0
 10
188.521250
 20
9.440000
 30
0.0
  0
LWPOLYLINE
  5
1ce
100
AcDbEntity
  8
0
 62
7
100
AcDbPolyline
 90
5
 70
1
 10
141.848500
 20
16.980625
 30
0.0
 10
141.848500
 20
23.251250
 30
0.0
 10
141.848500
 20
23.251250
 30
0.0
 10
141.848500
 20
16.980625
 30
0.0
 10
141.848500
 20
16.980625
 30
0.0
  0
LWPOLYLINE
  5
1cf
100
AcDbEntity
  8
0
 62
7
100
AcDbPolyline
 90
5
 70
1
 10
141.848500
 20
23.251250
 30
0.0
 10
143.753500
 20
23.251250
 30
0.0
 10
143.753500
 20
23.251250
 30
0.0
 10
141.848500
 20
23.251250
 30
0.0
 10
141.848500
 20
23.251250
 30
0.0
  0
LWPOLYLINE
  5
1d0
100
AcDbEntity
  8
0
 62
7
100
AcDbPolyline
 90
5
 70
1
 10
141.054750
 20
16.980625
 30
0.0
 10
141.848500
 20
16.980625
 30
0.0
 10
141.848500
 20
16.980625
 30
0.0
 10
141.054750
 20
16.980625
 30
0.0
 10
141.054750
 20
16.980625
 30
0.0
  0
LWPOLYLINE
  5
1d1
100
AcDbEntity
  8
0
 62
7
100
AcDbPolyline
 90
5
 70
1
 10
143.753500
 20
23.251250
 30
0.0
 10
143.753500
 20
24.521250
 30
0.0
 10
143.753500
 20
24.521250
 30
0.0
 10
143.753500
 20
23.251250
 30
0.0
 10
143.753500
 20
23.251250
 30
0.0
  0
LWPOLYLINE
  5
1d2
100
AcDbEntity
  8
0
 62
7
100
AcDbPolyline
 90
5
 70
1
 10
141.054750
 20
14.123125
 30
0.0
 10
141.054750
 20
16.980625
 30
0.0
 10
141.054750
 20
16.980625
 30
0.0
 10
141.054750
 20
14.123125
 30
0.0
 10
141.054750
 20
14.123125
 30
0.0
  0
LWPOLYLINE
  5
1d3
100
AcDbEntity
  8
0
 62
7
100
AcDbPolyline
 90
5
 70
1
 10
143.753500
 20
24.521250
 30
0.0
 10
147.246000
 20
24.521250
 30
0.0
 10
147.246000
 20
24.521250
 30
0.0
 10
143.753500
 20
24.521250
 30
0.0
 10
143.753500
 20
24.521250
 30
0.0
  0
LWPOLYLINE
  5
1d4
100
AcDbEntity
  8
0
 62
7
100
AcDbPolyline
 90
5
 70
1
 10
141.848500
 20
14.123125
 30
0.0
 10
141.054750
 20
14.123125
 30
0.0
 10
141.054750
 20
14.123125
 30
0.0
 10
141.848500
 20
14.123125
 30
0.0
 10
141.848500
 20
14.123125
 30
0.0
  0
LWPOLYLINE
  5
1d5
100
AcDbEntity
  8
0
 62
7
100
AcDbPolyline
 90
5
 70
1
 10
147.246000
 20
24.521250
 30
0.0
 10
147.246000
 20
23.251250
 30
0.0
 10
147.246000
 20
23.251250
 30
0.0
 10
147.246000
 20
24.521250
 30
0.0
 10
147.246000
 20
24.521250
 30
0.0
  0
LWPOLYLINE
  5
1d6
100
AcDbEntity
  8
0
 62
7
100
AcDbPolyline
 90
5
 70
1
 10
141.848500
 20
10.868750
 30
0.0
 10
141.848500
 20
14.123125
 30
0.0
 10
141.848500
 20
14.123125
 30
0.0
 10
141.848500
 20
10.868750
 30
0.0
 10
141.848500
 20
10.868750
 30
0.0
  0
LWPOLYLINE
  5
1d7
100
AcDbEntity
  8
0
 62
7
100
AcDbPolyline
 90
5
 70
1
 10
147.246000
 20
23.251250
 30
0.0
 10
149.151000
 20
23.251250
 30
0.0
 10
149.151000
 20
23.251250
 30
0.0
 10
147.246000
 20
23.251250
 30
0.0
 10
147.246000
 20
23.251250
 30
0.0
  0
LWPOLYLINE
  5
1d8
100
AcDbEntity
  8
0
 62
7
100
AcDbPolyline
 90
5
 70
1
 10
149.151000
 20
10.868750
 30
0.0
 10
141.848500
 20
10.868750
 30
0.0
 10
141.848500
 20
10.868750
 30
0.0
 10
149.151000
 20
10.868750
 30
0.0
 10
149.151000
 20
10.868750
 30
0.0
  0
LWPOLYLINE
  5
1d9
100
AcDbEntity
  8
0
 62
7
100
AcDbPolyline
 90
5
 70
1
 10
149.151000
 20
23.251250
 30
0.0
 10
149.151000
 20
18.806250
 30
0.0
 10
149.151000
 20
18.806250
 30
0.0
 10
149.151000
 20
23.251250
 30
0.0
 10
149.151000
 20
23.251250
 30
0.0
  0
LWPOLYLINE
  5
1da
100
AcDbEntity
  8
0
 62
7
100
AcDbPolyline
 90
5
 70
1
 10
149.151000
 20
14.043750
 30
0.0
 10
149.151000
 20
10.868750
 30
0.0
 10
149.151000
 20
10.868750
 30
0.0
 10
149.151000
 20
14.043750
 30
0.0
 10
149.151000
 20
14.043750
 30
0.0
  0
LWPOLYLINE
  5
1db
100
AcDbEntity
  8
0
 62
7
100
AcDbPolyline
 90
5
 70
1
 10
149.151000
 20
18.806250
 30
0.0
 10
150.421000
 20
18.806250
 30
0.0
 10
150.421000
 20
18.806250
 30
0.0
 10
149.151000
 20
18.806250
 30
0.0
 10
149.151000
 20
18.806250
 30
0.0
  0
LWPOLYLINE
  5
1dc
100
AcDbEntity
  8
0
 62
7
100
AcDbPolyline
 90
5
 70
1
 10
150.421000
 20
14.043750
 30
0.0
 10
149.151000
 20
14.043750
 30
0.0
 10
149.151000
 20
14.043750
 30
0.0
 10
150.421000
 20
14.043750
 30
0.0
 10
150.421000
 20
14.043750
 30
0.0
  0
LWPOLYLINE
  5
1dd
100
AcDbEntity
  8
0
 62
7
100
AcDbPolyline
 90
5
 70
1
 10
150.421000
 20
18.806250
 30
0.0
 10
150.421000
 20
23.440000
 30
0.0
 10
150.421000
 20
23.440000
 30
0.0
 10
150.421000
 20
18.806250
 30
0.0
 10
150.421000
 20
18.806250
 30
0.0
  0
LWPOLYLINE
  5
1de
100
AcDbEntity
  8
0
 62
7
100
AcDbPolyline
 90
5
 70
1
 10
150.421000
 20
9.440000
 30
0.0
 10
150.421000
 20
14.043750
 30
0.0
 10
150.421000
 20
14.043750
 30
0.0
 10
150.421000
 20
9.440000
 30
0.0
 10
150.421000
 20
9.440000
 30
0.0
  0
LWPOLYLINE
  5
1df
100
AcDbEntity
  8
0
 62
7
100
AcDbPolyline
 90
5
 70
1
 10
150.421000
 20
23.440000
 30
0.0
 10
164.421000
 20
23.440000
 30
0.0
 10
164.421000
 20
23.440000
 30
0.0
 10
150.421000
 20
23.440000
 30
0.0
 10
150.421000
 20
23.440000
 30
0.0
  0
LWPOLYLINE
  5
1e0
100
AcDbEntity
  8
0
 62
7
100
AcDbPolyline
 90
5
 70
1
 10
164.421000
 20
9.440000
 30
0.0
 10
150.421000
 20
9.440000
 30
0.0
 10
150.421000
 20
9.440000
 30
0.0
 10
164.421000
 20
9.440000
 30
0.0
 10
164.421000
 20
9.440000
 30
0.0
  0
LWPOLYLINE
  5
1e1
100
AcDbEntity
  8
0
 62
7
100
AcDbPolyline
 90
5
 70
1
 10
164.421000
 20
23.440000
 30
0.0
 10
164.421000
 20
18.806250
 30
0.0
 10
164.421000
 20
18.806250
 30
0.0
 10
164.421000
 20
23.440000
 30
0.0
 10
164.421000
 20
23.440000
 30
0.0
  0
LWPOLYLINE
  5
1e2
100
AcDbEntity
  8
0
 62
7
100
AcDbPolyline
 90
5
 70
1
 10
164.421000
 20
14.043750
 30
0.0
 10
164.421000
 20
9.440000
 30
0.0
 10
164.421000
 20
9.440000
 30
0.0
 10
164.421000
 20
14.043750
 30
0.0
 10
164.421000
 20
14.043750
 30
0.0
  0
LWPOLYLINE
  5
1e3
100
AcDbEntity
  8
0
 62
7
100
AcDbPolyline
 90
5
 70
1
 10
164.421000
 20
18.806250
 30
0.0
 10
165.691000
 20
18.806250
 30
0.0
 10
165.691000
 20
18.806250
 30
0.0
 10
164.421000
 20
18.806250
 30
0.0
 10
164.421000
 20
18.806250
 30
0.0
  0
LWPOLYLINE
  5
1e4
100
AcDbEntity
  8
0
 62
7
100
AcDbPolyline
 90
5
 70
1
 10
165.691000
 20
14.043750
 30
0.0
 10
164.421000
 20
14.043750
 30
0.0
 10
164.421000
 20
14.043750
 30
0.0
 10
165.691000
 20
14.043750
 30
0.0
 10
165.691000
 20
14.043750
 30
0.0
  0
LWPOLYLINE
  5
1e5
100
AcDbEntity
  8
0
 62
7
100
AcDbPolyline
 90
5
 70
1
 10
165.691000
 20
18.806250
 30
0.0
 10
165.691000
 20
23.251250
 30
0.0
 10
165.691000
 20
23.251250
 30
0.0
 10
165.691000
 20
18.806250
 30
0.0
 10
165.691000
 20
18.806250
 30
0.0
  0
LWPOLYLINE
  5
1e6
100
AcDbEntity
  8
0
 62
7
100
AcDbPolyline
 90
5
 70
1
 10
165.691000
 20
10.868750
 30
0.0
 10
165.691000
 20
14.043750
 30
0.0
 10
165.691000
 20
14.043750
 30
0.0
 10
165.691000
 20
10.868750
 30
0.0
 10
165.691000
 20
10.868750
 30
0.0
  0
LWPOLYLINE
  5
1e7
100
AcDbEntity
  8
0
 62
7
100
AcDbPolyline
 90
5
 70
1
 10
165.691000
 20
23.251250
 30
0.0
 10
167.596000
 20
23.251250
 30
0.0
 10
167.596000
 20
23.251250
 30
0.0
 10
165.691000
 20
23.251250
 30
0.0
 10
165.691000
 20
23.251250
 30
0.0
  0
LWPOLYLINE
  5
1e8
100
AcDbEntity
  8
0
 62
7
100
AcDbPolyline
 90
5
 70
1
 10
172.993500
 20
10.868750
 30
0.0
 10
165.691000
 20
10.868750
 30
0.0
 10
165.691000
 20
10.868750
 30
0.0
 10
172.993500
 20
10.868750
 30
0.0
 10
172.993500
 20
10.868750
 30
0.0
  0
LWPOLYLINE
  5
1e9
100
AcDbEntity
  8
0
 62
7
100
AcDbPolyline
 90
5
 70
1
 10
167.596000
 20
23.251250
 30
0.0
 10
167.596000
 20
24.521250
 30
0.0
 10
167.596000
 20
24.521250
 30
0.0
 10
167.596000
 20
23.251250
 30
0.0
 10
167.596000
 20
23.251250
 30
0.0
  0
LWPOLYLINE
  5
1ea
100
AcDbEntity
  8
0
 62
7
100
AcDbPolyline
 90
5
 70
1
 10
172.993500
 20
14.123125
 30
0.0
 10
172.993500
 20
10.868750
 30
0.0
 10
172.993500
 20
10.868750
 30
0.0
 10
172.993500
 20
14.123125
 30
0.0
 10
172.993500
 20
14.123125
 30
0.0
  0
LWPOLYLINE
  5
1eb
100
AcDbEntity
  8
0
 62
7
100
AcDbPolyline
 90
5
 70
1
 10
167.596000
 20
24.521250
 30
0.0
 10
171.088500
 20
24.521250
 30
0.0
 10
171.088500
 20
24.521250
 30
0.0
 10
167.596000
 20
24.521250
 30
0.0
 10
167.596000
 20
24.521250
 30
0.0
  0
LWPOLYLINE
  5
1ec
100
AcDbEntity
  8
0
 62
7
100
AcDbPolyline
 90
5
 70
1
 10
173.787250
 20
14.123125
 30
0.0
 10
172.993500
 20
14.123125
 30
0.0
 10
172.993500
 20
14.123125
 30
0.0
 10
173.787250
 20
14.123125
 30
0.0
 10
173.787250
 20
14.123125
 30
0.0
  0
LWPOLYLINE
  5
1ed
100
AcDbEntity
  8
0
 62
7
100
AcDbPolyline
 90
5
 70
1
 10
171.088500
 20
24.521250
 30
0.0
 10
171.088500
 20
23.251250
 30
0.0
 10
171.088500
 20
23.251250
 30
0.0
 10
171.088500
 20
24.521250
 30
0.0
 10
171.088500
 20
24.521250
 30
0.0
  0
LWPOLYLINE
  5
1ee
100
AcDbEntity
  8
0
 62
7
100
AcDbPolyline
 90
5
 70
1
 10
173.787250
 20
16.980625
 30
0.0
 10
173.787250
 20
14.123125
 30
0.0
 10
173.787250
 20
14.123125
 30
0.0
 10
173.787250
 20
16.980625
 30
0.0
 10
173.787250
 20
16.980625
 30
0.0
  0
LWPOLYLINE
  5
1ef
100
AcDbEntity
  8
0
 62
7
100
AcDbPolyline
 90
5
 70
1
 10
171.088500
 20
23.251250
 30
0.0
 10
172.993500
 20
23.251250
 30
0.0
 10
172.993500
 20
23.251250
 30
0.0
 10
171.088500
 20
23.251250
 30
0.0
 10
171.088500
 20
23.251250
 30
0.0
  0
LWPOLYLINE
  5
1f0
100
AcDbEntity
  8
0
 62
7
100
AcDbPolyline
 90
5
 70
1
 10
172.993500
 20
16.980625
 30
0.0
 10
173.787250
 20
16.980625
 30
0.0
 10
173.787250
 20
16.980625
 30
0.0
 10
172.993500
 20
16.980625
 30
0.0
 10
172.993500
 20
16.980625
 30
0.0
  0
LWPOLYLINE
  5
1f1
100
AcDbEntity
  8
0
 62
7
100
AcDbPolyline
 90
5
 70
1
 10
172.993500
 20
23.251250
 30
0.0
 10
172.993500
 20
16.980625
 30
0.0
 10
172.993500
 20
16.980625
 30
0.0
 10
172.993500
 20
23.251250
 30
0.0
 10
172.993500
 20
23.251250
 30
0.0
  0
LWPOLYLINE
  5
1f2
100
AcDbEntity
  8
0
 62
7
100
AcDbPolyline
 90
5
 70
1
 10
304.915000
 20
42.490000
 30
0.0
 10
304.915000
 20
42.490000
 30
0.0
 10
290.915000
 20
42.490000
 30
0.0
 10
290.915000
 20
42.490000
 30
0.0
 10
304.915000
 20
42.490000
 30
0.0
  0
LWPOLYLINE
  5
1f3
100
AcDbEntity
  8
0
 62
7
100
AcDbPolyline
 90
5
 70
1
 10
290.915000
 20
42.490000
 30
0.0
 10
290.915000
 20
42.490000
 30
0.0
 10
290.915000
 20
28.490000
 30
0.0
 10
290.915000
 20
28.490000
 30
0.0
 10
290.915000
 20
42.490000
 30
0.0
  0
LWPOLYLINE
  5
1f4
100
AcDbEntity
  8
0
 62
7
100
AcDbPolyline
 90
5
 70
1
 10
304.915000
 20
28.490000
 30
0.0
 10
304.915000
 20
28.490000
 30
0.0
 10
304.915000
 20
42.490000
 30
0.0
 10
304.915000
 20
42.490000
 30
0.0
 10
304.915000
 20
28.490000
 30
0.0
  0
LWPOLYLINE
  5
1f5
100
AcDbEntity
  8
0
 62
7
100
AcDbPolyline
 90
5
 70
1
 10
290.915000
 20
28.490000
 30
0.0
 10
290.915000
 20
28.490000
 30
0.0
 10
304.915000
 20
28.490000
 30
0.0
 10
304.915000
 20
28.490000
 30
0.0
 10
290.915000
 20
28.490000
 30
0.0
  0
LWPOLYLINE
  5
1f6
100
AcDbEntity
  8
0
 62
7
100
AcDbPolyline
 90
5
 70
1
 10
285.865000
 20
42.490000
 30
0.0
 10
285.865000
 20
42.490000
 30
0.0
 10
271.865000
 20
42.490000
 30
0.0
 10
271.865000
 20
42.490000
 30
0.0
 10
285.865000
 20
42.490000
 30
0.0
  0
LWPOLYLINE
  5
1f7
100
AcDbEntity
  8
0
 62
7
100
AcDbPolyline
 90
5
 70
1
 10
271.865000
 20
42.490000
 30
0.0
 10
271.865000
 20
42.490000
 30
0.0
 10
271.865000
 20
28.490000
 30
0.0
 10
271.865000
 20
28.490000
 30
0.0
 10
271.865000
 20
42.490000
 30
0.0
  0
LWPOLYLINE
  5
1f8
100
AcDbEntity
  8
0
 62
7
100
AcDbPolyline
 90
5
 70
1
 10
285.865000
 20
28.490000
 30
0.0
 10
285.865000
 20
28.490000
 30
0.0
 10
285.865000
 20
42.490000
 30
0.0
 10
285.865000
 20
42.490000
 30
0.0
 10
285.865000
 20
28.490000
 30
0.0
  0
LWPOLYLINE
  5
1f9
100
AcDbEntity
  8
0
 62
7
100
AcDbPolyline
 90
5
 70
1
 10
271.865000
 20
28.490000
 30
0.0
 10
271.865000
 20
28.490000
 30
0.0
 10
285.865000
 20
28.490000
 30
0.0
 10
285.865000
 20
28.490000
 30
0.0
 10
271.865000
 20
28.490000
 30
0.0
  0
LWPOLYLINE
  5
1fa
100
AcDbEntity
  8
0
 62
7
100
AcDbPolyline
 90
5
 70
1
 10
259.671250
 20
42.490000
 30
0.0
 10
259.671250
 20
42.490000
 30
0.0
 10
245.671250
 20
42.490000
 30
0.0
 10
245.671250
 20
42.490000
 30
0.0
 10
259.671250
 20
42.490000
 30
0.0
  0
LWPOLYLINE
  5
1fb
100
AcDbEntity
  8
0
 62
7
100
AcDbPolyline
 90
5
 70
1
 10
245.671250
 20
42.490000
 30
0.0
 10
245.671250
 20
42.490000
 30
0.0
 10
245.671250
 20
28.490000
 30
0.0
 10
245.671250
 20
28.490000
 30
0.0
 10
245.671250
 20
42.490000
 30
0.0
  0
LWPOLYLINE
  5
1fc
100
AcDbEntity
  8
0
 62
7
100
AcDbPolyline
 90
5
 70
1
 10
259.671250
 20
28.490000
 30
0.0
 10
259.671250
 20
28.490000
 30
0.0
 10
259.671250
 20
42.490000
 30
0.0
 10
259.671250
 20
42.490000
 30
0.0
 10
259.671250
 20
28.490000
 30
0.0
  0
LWPOLYLINE
  5
1fd
100
AcDbEntity
  8
0
 62
7
100
AcDbPolyline
 90
5
 70
1
 10
245.671250
 20
28.490000
 30
0.0
 10
245.671250
 20
28.490000
 30
0.0
 10
259.671250
 20
28.490000
 30
0.0
 10
259.671250
 20
28.490000
 30
0.0
 10
245.671250
 20
28.490000
 30
0.0
  0
LWPOLYLINE
  5
1fe
100
AcDbEntity
  8
0
 62
7
100
AcDbPolyline
 90
5
 70
1
 10
283.325250
 20
53.999375
 30
0.0
 10
283.325250
 20
53.999375
 30
0.0
 10
282.531500
 20
53.999375
 30
0.0
 10
282.531500
 20
53.999375
 30
0.0
 10
283.325250
 20
53.999375
 30
0.0
  0
LWPOLYLINE
  5
1ff
100
AcDbEntity
  8
0
 62
7
100
AcDbPolyline
 90
5
 70
1
 10
283.325250
 20
56.856875
 30
0.0
 10
283.325250
 20
56.856875
 30
0.0
 10
283.325250
 20
53.999375
 30
0.0
 10
283.325250
 20
53.999375
 30
0.0
 10
283.325250
 20
56.856875
 30
0.0
  0
LWPOLYLINE
  5
200
100
AcDbEntity
  8
0
 62
7
100
AcDbPolyline
 90
5
 70
1
 10
282.531500
 20
53.999375
 30
0.0
 10
282.531500
 20
53.999375
 30
0.0
 10
282.531500
 20
47.728750
 30
0.0
 10
282.531500
 20
47.728750
 30
0.0
 10
282.531500
 20
53.999375
 30
0.0
  0
LWPOLYLINE
  5
201
100
AcDbEntity
  8
0
 62
7
100
AcDbPolyline
 90
5
 70
1
 10
282.531500
 20
56.856875
 30
0.0
 10
282.531500
 20
56.856875
 30
0.0
 10
283.325250
 20
56.856875
 30
0.0
 10
283.325250
 20
56.856875
 30
0.0
 10
282.531500
 20
56.856875
 30
0.0
  0
LWPOLYLINE
  5
202
100
AcDbEntity
  8
0
 62
7
100
AcDbPolyline
 90
5
 70
1
 10
282.531500
 20
47.728750
 30
0.0
 10
282.531500
 20
47.728750
 30
0.0
 10
280.626500
 20
47.728750
 30
0.0
 10
280.626500
 20
47.728750
 30
0.0
 10
282.531500
 20
47.728750
 30
0.0
  0
LWPOLYLINE
  5
203
100
AcDbEntity
  8
0
 62
7
100
AcDbPolyline
 90
5
 70
1
 10
282.531500
 20
60.111250
 30
0.0
 10
282.531500
 20
60.111250
 30
0.0
 10
282.531500
 20
56.856875
 30
0.0
 10
282.531500
 20
56.856875
 30
0.0
 10
282.531500
 20
60.111250
 30
0.0
  0
LWPOLYLINE
  5
204
100
AcDbEntity
  8
0
 62
7
100
AcDbPolyline
 90
5
 70
1
 10
280.626500
 20
47.728750
 30
0.0
 10
280.626500
 20
47.728750
 30
0.0
 10
280.626500
 20
46.458750
 30
0.0
 10
280.626500
 20
46.458750
 30
0.0
 10
280.626500
 20
47.728750
 30
0.0
  0
LWPOLYLINE
  5
205
100
AcDbEntity
  8
0
 62
7
100
AcDbPolyline
 90
5
 70
1
 10
275.229000
 20
60.111250
 30
0.0
 10
275.229000
 20
60.111250
 30
0.0
 10
282.531500
 20
60.111250
 30
0.0
 10
282.531500
 20
60.111250
 30
0.0
 10
275.229000
 20
60.111250
 30
0.0
  0
LWPOLYLINE
  5
206
100
AcDbEntity
  8
0
 62
7
100
AcDbPolyline
 90
5
 70
1
 10
280.626500
 20
46.458750
 30
0.0
 10
280.626500
 20
46.458750
 30
0.0
 10
277.134000
 20
46.458750
 30
0.0
 10
277.134000
 20
46.458750
 30
0.0
 10
280.626500
 20
46.458750
 30
0.0
  0
LWPOLYLINE
  5
207
100
AcDbEntity
  8
0
 62
7
100
AcDbPolyline
 90
5
 70
1
 10
275.229000
 20
56.936250
 30
0.0
 10
275.229000
 20
56.936250
 30
0.0
 10
275.229000
 20
60.111250
 30
0.0
 10
275.229000
 20
60.111250
 30
0.0
 10
275.229000
 20
56.936250
 30
0.0
  0
LWPOLYLINE
  5
208
100
AcDbEntity
  8
0
 62
7
100
AcDbPolyline
 90
5
 70
1
 10
277.134000
 20
46.458750
 30
0.0
 10
277.134000
 20
46.458750
 30
0.0
 10
277.134000
 20
47.728750
 30
0.0
 10
277.134000
 20
47.728750
 30
0.0
 10
277.134000
 20
46.458750
 30
0.0
  0
LWPOLYLINE
  5
209
100
AcDbEntity
  8
0
 62
7
100
AcDbPolyline
 90
5
 70
1
 10
273.959000
 20
56.936250
 30
0.0
 10
273.959000
 20
56.936250
 30
0.0
 10
275.229000
 20
56.936250
 30
0.0
 10
275.229000
 20
56.936250
 30
0.0
 10
273.959000
 20
56.936250
 30
0.0
  0
LWPOLYLINE
  5
20a
100
AcDbEntity
  8
0
 62
7
100
AcDbPolyline
 90
5
 70
1
 10
277.134000
 20
47.728750
 30
0.0
 10
277.134000
 20
47.728750
 30
0.0
 10
275.229000
 20
47.728750
 30
0.0
 10
275.229000
 20
47.728750
 30
0.0
 10
277.134000
 20
47.728750
 30
0.0
  0
LWPOLYLINE
  5
20b
100
AcDbEntity
  8
0
 62
7
100
AcDbPolyline
 90
5
 70
1
 10
273.959000
 20
61.540000
 30
0.0
 10
273.959000
 20
61.540000
 30
0.0
 10
273.959000
 20
56.936250
 30
0.0
 10
273.959000
 20
56.936250
 30
0.0
 10
273.959000
 20
61.540000
 30
0.0
  0
LWPOLYLINE
  5
20c
100
AcDbEntity
  8
0
 62
7
100
AcDbPolyline
 90
5
 70
1
 10
275.229000
 20
47.728750
 30
0.0
 10
275.229000
 20
47.728750
 30
0.0
 10
275.229000
 20
52.173750
 30
0.0
 10
275.229000
 20
52.173750
 30
0.0
 10
275.229000
 20
47.728750
 30
0.0
  0
LWPOLYLINE
  5
20d
100
AcDbEntity
  8
0
 62
7
100
AcDbPolyline
 90
5
 70
1
 10
259.959000
 20
61.540000
 30
0.0
 10
259.959000
 20
61.540000
 30
0.0
 10
273.959000
 20
61.540000
 30
0.0
 10
273.959000
 20
61.540000
 30
0.0
 10
259.959000
 20
61.540000
 30
0.0
  0
LWPOLYLINE
  5
20e
100
AcDbEntity
  8
0
 62
7
100
AcDbPolyline
 90
5
 70
1
 10
275.229000
 20
52.173750
 30
0.0
 10
275.229000
 20
52.173750
 30
0.0
 10
273.959000
 20
52.173750
 30
0.0
 10
273.959000
 20
52.173750
 30
0.0
 10
275.229000
 20
52.173750
 30
0.0
  0
LWPOLYLINE
  5
20f
100
AcDbEntity
  8
0
 62
7
100
AcDbPolyline
 90
5
 70
1
 10
259.959000
 20
56.936250
 30
0.0
 10
259.959000
 20
56.936250
 30
0.0
 10
259.959000
 20
61.540000
 30
0.0
 10
259.959000
 20
61.540000
 30
0.0
 10
259.959000
 20
56.936250
 30
0.0
  0
LWPOLYLINE
  5
210
100
AcDbEntity
  8
0
 62
7
100
AcDbPolyline
 90
5
 70
1
 10
273.959000
 20
52.173750
 30
0.0
 10
273.959000
 20
52.173750
 30
0.0
 10
273.959000
 20
47.540000
 30
0.0
 10
273.959000
 20
47.540000
 30
0.0
 10
273.959000
 20
52.173750
 30
0.0
  0
LWPOLYLINE
  5
211
100
AcDbEntity
  8
0
 62
7
100
AcDbPolyline
 90
5
 70
1
 10
258.689000
 20
56.936250
 30
0.0
 10
258.689000
 20
56.936250
 30
0.0
 10
259.959000
 20
56.936250
 30
0.0
 10
259.959000
 20
56.936250
 30
0.0
 10
258.689000
 20
56.936250
 30
0.0
  0
LWPOLYLINE
  5
212
100
AcDbEntity
  8
0
 62
7
100
AcDbPolyline
 90
5
 70
1
 10
273.959000
 20
47.540000
 30
0.0
 10
273.959000
 20
47.540000
 30
0.0
 10
259.959000
 20
47.540000
 30
0.0
 10
259.959000
 20
47.540000
 30
0.0
 10
273.959000
 20
47.540000
 30
0.0
  0
LWPOLYLINE
  5
213
100
AcDbEntity
  8
0
 62
7
100
AcDbPolyline
 90
5
 70
1
 10
258.689000
 20
60.111250
 30
0.0
 10
258.689000
 20
60.111250
 30
0.0
 10
258.689000
 20
56.936250
 30
0.0
 10
258.689000
 20
56.936250
 30
0.0
 10
258.689000
 20
60.111250
 30
0.0
  0
LWPOLYLINE
  5
214
100
AcDbEntity
  8
0
 62
7
100
AcDbPolyline
 90
5
 70
1
 10
259.959000
 20
47.540000
 30
0.0
 10
259.959000
 20
47.540000
 30
0.0
 10
259.959000
 20
52.173750
 30
0.0
 10
259.959000
 20
52.173750
 30
0.0
 10
259.959000
 20
47.540000
 30
0.0
  0
LWPOLYLINE
  5
215
100
AcDbEntity
  8
0
 62
7
100
AcDbPolyline
 90
5
 70
1
 10
251.386500
 20
60.111250
 30
0.0
 10
251.386500
 20
60.111250
 30
0.0
 10
258.689000
 20
60.111250
 30
0.0
 10
258.689000
 20
60.111250
 30
0.0
 10
251.386500
 20
60.111250
 30
0.0
  0
LWPOLYLINE
  5
216
100
AcDbEntity
  8
0
 62
7
100
AcDbPolyline
 90
5
 70
1
 10
259.959000
 20
52.173750
 30
0.0
 10
259.959000
 20
52.173750
 30
0.0
 10
258.689000
 20
52.173750
 30
0.0
 10
258.689000
 20
52.173750
 30
0.0
 10
259.959000
 20
52.173750
 30
0.0
  0
LWPOLYLINE
  5
217
100
AcDbEntity
  8
0
 62
7
100
AcDbPolyline
 90
5
 70
1
 10
251.386500
 20
56.856875
 30
0.0
 10
251.386500
 20
56.856875
 30
0.0
 10
251.386500
 20
60.111250
 30
0.0
 10
251.386500
 20
60.111250
 30
0.0
 10
251.386500
 20
56.856875
 30
0.0
  0
LWPOLYLINE
  5
218
100
AcDbEntity
  8
0
 62
7
100
AcDbPolyline
 90
5
 70
1
 10
258.689000
 20
52.173750
 30
0.0
 10
258.689000
 20
52.173750
 30
0.0
 10
258.689000
 20
47.728750
 30
0.0
 10
258.689000
 20
47.728750
 30
0.0
 10
258.689000
 20
52.173750
 30
0.0
  0
LWPOLYLINE
  5
219
100
AcDbEntity
  8
0
 62
7
100
AcDbPolyline
 90
5
 70
1
 10
250.592750
 20
56.856875
 30
0.0
 10
250.592750
 20
56.856875
 30
0.0
 10
251.386500
 20
56.856875
 30
0.0
 10
251.386500
 20
56.856875
 30
0.0
 10
250.592750
 20
56.856875
 30
0.0
  0
LWPOLYLINE
  5
21a
100
AcDbEntity
  8
0
 62
7
100
AcDbPolyline
 90
5
 70
1
 10
258.689000
 20
47.728750
 30
0.0
 10
258.689000
 20
47.728750
 30
0.0
 10
256.784000
 20
47.728750
 30
0.0
 10
256.784000
 20
47.728750
 30
0.0
 10
258.689000
 20
47.728750
 30
0.0
  0
LWPOLYLINE
  5
21b
100
AcDbEntity
  8
0
 62
7
100
AcDbPolyline
 90
5
 70
1
 10
250.592750
 20
53.999375
 30
0.0
 10
250.592750
 20
53.999375
 30
0.0
 10
250.592750
 20
56.856875
 30
0.0
 10
250.592750
 20
56.856875
 30
0.0
 10
250.592750
 20
53.999375
 30
0.0
  0
LWPOLYLINE
  5
21c
100
AcDbEntity
  8
0
 62
7
100
AcDbPolyline
 90
5
 70
1
 10
256.784000
 20
47.728750
 30
0.0
 10
256.784000
 20
47.728750
 30
0.0
 10
256.784000
 20
46.458750
 30
0.0
 10
256.784000
 20
46.458750
 30
0.0
 10
256.784000
 20
47.728750
 30
0.0
  0
LWPOLYLINE
  5
21d
100
AcDbEntity
  8
0
 62
7
100
AcDbPolyline
 90
5
 70
1
 10
251.386500
 20
53.999375
 30
0.0
 10
251.386500
 20
53.999375
 30
0.0
 10
250.592750
 20
53.999375
 30
0.0
 10
250.592750
 20
53.999375
 30
0.0
 10
251.386500
 20
53.999375
 30
0.0
  0
LWPOLYLINE
  5
21e
100
AcDbEntity
  8
0
 62
7
100
AcDbPolyline
 90
5
 70
1
 10
256.784000
 20
46.458750
 30
0.0
 10
256.784000
 20
46.458750
 30
0.0
 10
253.291500
 20
46.458750
 30
0.0
 10
253.291500
 20
46.458750
 30
0.0
 10
256.784000
 20
46.458750
 30
0.0
  0
LWPOLYLINE
  5
21f
100
AcDbEntity
  8
0
 62
7
100
AcDbPolyline
 90
5
 70
1
 10
251.386500
 20
47.728750
 30
0.0
 10
251.386500
 20
47.728750
 30
0.0
 10
251.386500
 20
53.999375
 30
0.0
 10
251.386500
 20
53.999375
 30
0.0
 10
251.386500
 20
47.728750
 30
0.0
  0
LWPOLYLINE
  5
220
100
AcDbEntity
  8
0
 62
7
100
AcDbPolyline
 90
5
 70
1
 10
253.291500
 20
46.458750
 30
0.0
 10
253.291500
 20
46.458750
 30
0.0
 10
253.291500
 20
47.728750
 30
0.0
 10
253.291500
 20
47.728750
 30
0.0
 10
253.291500
 20
46.458750
 30
0.0
  0
SPLINE
  5
221
100
AcDbEntity
  8
0
 62
7
100
AcDbSpline
 70
8
 71
3
 72
8
 73
4
 74
0
 40
0
 40
0
 40
0
 40
0
 40
1
 40
1
 40
1
 40
1
 10
245.527500
 20
53.665000
 30
0.0
 10
245.173596
 20
53.665000
 30
0.0
 10
244.854539
 20
53.878187
 30
0.0
 10
244.719105
 20
54.205152
 30
0.0
  0
SPLINE
  5
222
100
AcDbEntity
  8
0
 62
7
100
AcDbSpline
 70
8
 71
3
 72
8
 73
4
 74
0
 40
0
 40
0
 40
0
 40
0
 40
1
 40
1
 40
1
 40
1
 10
244.719105
 20
54.205152
 30
0.0
 10
244.583672
 20
54.532117
 30
0.0
 10
244.658533
 20
54.908470
 30
0.0
 10
244.908782
 20
55.158718
 30
0.0
  0
SPLINE
  5
223
100
AcDbEntity
  8
0
 62
7
100
AcDbSpline
 70
8
 71
3
 72
8
 73
4
 74
0
 40
0
 40
0
 40
0
 40
0
 40
1
 40
1
 40
1
 40
1
 10
244.908782
 20
55.158718
 30
0.0
 10
245.159030
 20
55.408967
 30
0.0
 10
245.535383
 20
55.483828
 30
0.0
 10
245.862348
 20
55.348395
 30
0.0
  0
SPLINE
  5
224
100
AcDbEntity
  8
0
 62
7
100
AcDbSpline
 70
8
 71
3
 72
8
 73
4
 74
0
 40
0
 40
0
 40
0
 40
0
 40
1
 40
1
 40
1
 40
1
 10
245.862348
 20
55.348395
 30
0.0
 10
246.189313
 20
55.212961
 30
0.0
 10
246.402500
 20
54.893904
 30
0.0
 10
246.402500
 20
54.540000
 30
0.0
  0
SPLINE
  5
225
100
AcDbEntity
  8
0
 62
7
100
AcDbSpline
 70
8
 71
3
 72
8
 73
4
 74
0
 40
0
 40
0
 40
0
 40
0
 40
1
 40
1
 40
1
 40
1
 10
246.402500
 20
54.540000
 30
0.0
 10
246.402500
 20
54.307936
 30
0.0
 10
246.310313
 20
54.085376
 30
0.0
 10
246.146218
 20
53.921282
 30
0.0
  0
SPLINE
  5
226
100
AcDbEntity
  8
0
 62
7
100
AcDbSpline
 70
8
 71
3
 72
8
 73
4
 74
0
 40
0
 40
0
 40
0
 40
0
 40
1
 40
1
 40
1
 40
1
 10
246.146218
 20
53.921282
 30
0.0
 10
245.982124
 20
53.757187
 30
0.0
 10
245.759564
 20
53.665000
 30
0.0
 10
245.527500
 20
53.665000
 30
0.0
  0
LWPOLYLINE
  5
227
100
AcDbEntity
  8
0
 62
7
100
AcDbPolyline
 90
5
 70
1
 10
253.291500
 20
47.728750
 30
0.0
 10
253.291500
 20
47.728750
 30
0.0
 10
251.386500
 20
47.728750
 30
0.0
 10
251.386500
 20
47.728750
 30
0.0
 10
253.291500
 20
47.728750
 30
0.0
  0
LWPOLYLINE
  5
228
100
AcDbEntity
  8
0
 62
7
100
AcDbPolyline
 90
1
 70
1
 10
245.527500
 20
53.665000
 30
0.0
  0
LWPOLYLINE
  5
229
100
AcDbEntity
  8
0
 62
7
100
AcDbPolyline
 90
5
 70
1
 10
233.477500
 20
42.490000
 30
0.0
 10
233.477500
 20
42.490000
 30
0.0
 10
219.477500
 20
42.490000
 30
0.0
 10
219.477500
 20
42.490000
 30
0.0
 10
233.477500
 20
42.490000
 30
0.0
  0
LWPOLYLINE
  5
22a
100
AcDbEntity
  8
0
 62
7
100
AcDbPolyline
 90
5
 70
1
 10
219.477500
 20
42.490000
 30
0.0
 10
219.477500
 20
42.490000
 30
0.0
 10
219.477500
 20
28.490000
 30
0.0
 10
219.477500
 20
28.490000
 30
0.0
 10
219.477500
 20
42.490000
 30
0.0
  0
LWPOLYLINE
  5
22b
100
AcDbEntity
  8
0
 62
7
100
AcDbPolyline
 90
5
 70
1
 10
233.477500
 20
28.490000
 30
0.0
 10
233.477500
 20
28.490000
 30
0.0
 10
233.477500
 20
42.490000
 30
0.0
 10
233.477500
 20
42.490000
 30
0.0
 10
233.477500
 20
28.490000
 30
0.0
  0
LWPOLYLINE
  5
22c
100
AcDbEntity
  8
0
 62
7
100
AcDbPolyline
 90
5
 70
1
 10
219.477500
 20
28.490000
 30
0.0
 10
219.477500
 20
28.490000
 30
0.0
 10
233.477500
 20
28.490000
 30
0.0
 10
233.477500
 20
28.490000
 30
0.0
 10
219.477500
 20
28.490000
 30
0.0
  0
LWPOLYLINE
  5
22d
100
AcDbEntity
  8
0
 62
7
100
AcDbPolyline
 90
5
 70
1
 10
214.427500
 20
42.490000
 30
0.0
 10
214.427500
 20
42.490000
 30
0.0
 10
200.427500
 20
42.490000
 30
0.0
 10
200.427500
 20
42.490000
 30
0.0
 10
214.427500
 20
42.490000
 30
0.0
  0
LWPOLYLINE
  5
22e
100
AcDbEntity
  8
0
 62
7
100
AcDbPolyline
 90
5
 70
1
 10
200.427500
 20
42.490000
 30
0.0
 10
200.427500
 20
42.490000
 30
0.0
 10
200.427500
 20
28.490000
 30
0.0
 10
200.427500
 20
28.490000
 30
0.0
 10
200.427500
 20
42.490000
 30
0.0
  0
LWPOLYLINE
  5
22f
100
AcDbEntity
  8
0
 62
7
100
AcDbPolyline
 90
5
 70
1
 10
214.427500
 20
28.490000
 30
0.0
 10
214.427500
 20
28.490000
 30
0.0
 10
214.427500
 20
42.490000
 30
0.0
 10
214.427500
 20
42.490000
 30
0.0
 10
214.427500
 20
28.490000
 30
0.0
  0
LWPOLYLINE
  5
230
100
AcDbEntity
  8
0
 62
7
100
AcDbPolyline
 90
5
 70
1
 10
200.427500
 20
28.490000
 30
0.0
 10
200.427500
 20
28.490000
 30
0.0
 10
214.427500
 20
28.490000
 30
0.0
 10
214.427500
 20
28.490000
 30
0.0
 10
200.427500
 20
28.490000
 30
0.0
  0
LWPOLYLINE
  5
231
100
AcDbEntity
  8
0
 62
7
100
AcDbPolyline
 90
5
 70
1
 10
195.377500
 20
42.490000
 30
0.0
 10
195.377500
 20
42.490000
 30
0.0
 10
181.377500
 20
42.490000
 30
0.0
 10
181.377500
 20
42.490000
 30
0.0
 10
195.377500
 20
42.490000
 30
0.0
  0
LWPOLYLINE
  5
232
100
AcDbEntity
  8
0
 62
7
100
AcDbPolyline
 90
5
 70
1
 10
181.377500
 20
42.490000
 30
0.0
 10
181.377500
 20
42.490000
 30
0.0
 10
181.377500
 20
28.490000
 30
0.0
 10
181.377500
 20
28.490000
 30
0.0
 10
181.377500
 20
42.490000
 30
0.0
  0
LWPOLYLINE
  5
233
100
AcDbEntity
  8
0
 62
7
100
AcDbPolyline
 90
5
 70
1
 10
195.377500
 20
28.490000
 30
0.0
 10
195.377500
 20
28.490000
 30
0.0
 10
195.377500
 20
42.490000
 30
0.0
 10
195.377500
 20
42.490000
 30
0.0
 10
195.377500
 20
28.490000
 30
0.0
  0
LWPOLYLINE
  5
234
100
AcDbEntity
  8
0
 62
7
100
AcDbPolyline
 90
5
 70
1
 10
181.377500
 20
28.490000
 30
0.0
 10
181.377500
 20
28.490000
 30
0.0
 10
195.377500
 20
28.490000
 30
0.0
 10
195.377500
 20
28.490000
 30
0.0
 10
181.377500
 20
28.490000
 30
0.0
  0
LWPOLYLINE
  5
235
100
AcDbEntity
  8
0
 62
7
100
AcDbPolyline
 90
5
 70
1
 10
176.327500
 20
42.490000
 30
0.0
 10
176.327500
 20
42.490000
 30
0.0
 10
162.327500
 20
42.490000
 30
0.0
 10
162.327500
 20
42.490000
 30
0.0
 10
176.327500
 20
42.490000
 30
0.0
  0
LWPOLYLINE
  5
236
100
AcDbEntity
  8
0
 62
7
100
AcDbPolyline
 90
5
 70
1
 10
162.327500
 20
42.490000
 30
0.0
 10
162.327500
 20
42.490000
 30
0.0
 10
162.327500
 20
28.490000
 30
0.0
 10
162.327500
 20
28.490000
 30
0.0
 10
162.327500
 20
42.490000
 30
0.0
  0
LWPOLYLINE
  5
237
100
AcDbEntity
  8
0
 62
7
100
AcDbPolyline
 90
5
 70
1
 10
176.327500
 20
28.490000
 30
0.0
 10
176.327500
 20
28.490000
 30
0.0
 10
176.327500
 20
42.490000
 30
0.0
 10
176.327500
 20
42.490000
 30
0.0
 10
176.327500
 20
28.490000
 30
0.0
  0
SPLINE
  5
238
100
AcDbEntity
  8
0
 62
7
100
AcDbSpline
 70
8
 71
3
 72
8
 73
4
 74
0
 40
0
 40
0
 40
0
 40
0
 40
1
 40
1
 40
1
 40
1
 10
169.327500
 20
53.665000
 30
0.0
 10
168.973596
 20
53.665000
 30
0.0
 10
168.654539
 20
53.878187
 30
0.0
 10
168.519105
 20
54.205152
 30
0.0
  0
SPLINE
  5
239
100
AcDbEntity
  8
0
 62
7
100
AcDbSpline
 70
8
 71
3
 72
8
 73
4
 74
0
 40
0
 40
0
 40
0
 40
0
 40
1
 40
1
 40
1
 40
1
 10
168.519105
 20
54.205152
 30
0.0
 10
168.383672
 20
54.532117
 30
0.0
 10
168.458533
 20
54.908470
 30
0.0
 10
168.708782
 20
55.158718
 30
0.0
  0
SPLINE
  5
23a
100
AcDbEntity
  8
0
 62
7
100
AcDbSpline
 70
8
 71
3
 72
8
 73
4
 74
0
 40
0
 40
0
 40
0
 40
0
 40
1
 40
1
 40
1
 40
1
 10
168.708782
 20
55.158718
 30
0.0
 10
168.959030
 20
55.408967
 30
0.0
 10
169.335383
 20
55.483828
 30
0.0
 10
169.662348
 20
55.348395
 30
0.0
  0
SPLINE
  5
23b
100
AcDbEntity
  8
0
 62
7
100
AcDbSpline
 70
8
 71
3
 72
8
 73
4
 74
0
 40
0
 40
0
 40
0
 40
0
 40
1
 40
1
 40
1
 40
1
 10
169.662348
 20
55.348395
 30
0.0
 10
169.989313
 20
55.212961
 30
0.0
 10
170.202500
 20
54.893904
 30
0.0
 10
170.202500
 20
54.540000
 30
0.0
  0
SPLINE
  5
23c
100
AcDbEntity
  8
0
 62
7
100
AcDbSpline
 70
8
 71
3
 72
8
 73
4
 74
0
 40
0
 40
0
 40
0
 40
0
 40
1
 40
1
 40
1
 40
1
 10
170.202500
 20
54.540000
 30
0.0
 10
170.202500
 20
54.307936
 30
0.0
 10
170.110313
 20
54.085376
 30
0.0
 10
169.946218
 20
53.921282
 30
0.0
  0
SPLINE
  5
23d
100
AcDbEntity
  8
0
 62
7
100
AcDbSpline
 70
8
 71
3
 72
8
 73
4
 74
0
 40
0
 40
0
 40
0
 40
0
 40
1
 40
1
 40
1
 40
1
 10
169.946218
 20
53.921282
 30
0.0
 10
169.782124
 20
53.757187
 30
0.0
 10
169.559564
 20
53.665000
 30
0.0
 10
169.327500
 20
53.665000
 30
0.0
  0
LWPOLYLINE
  5
23e
100
AcDbEntity
  8
0
 62
7
100
AcDbPolyline
 90
5
 70
1
 10
162.327500
 20
28.490000
 30
0.0
 10
162.327500
 20
28.490000
 30
0.0
 10
176.327500
 20
28.490000
 30
0.0
 10
176.327500
 20
28.490000
 30
0.0
 10
162.327500
 20
28.490000
 30
0.0
  0
SPLINE
  5
23f
100
AcDbEntity
  8
0
 62
7
100
AcDbSpline
 70
8
 71
3
 72
8
 73
4
 74
0
 40
0
 40
0
 40
0
 40
0
 40
1
 40
1
 40
1
 40
1
 10
131.227500
 20
15.565000
 30
0.0
 10
130.873596
 20
15.565000
 30
0.0
 10
130.554539
 20
15.778187
 30
0.0
 10
130.419105
 20
16.105152
 30
0.0
  0
SPLINE
  5
240
100
AcDbEntity
  8
0
 62
7
100
AcDbSpline
 70
8
 71
3
 72
8
 73
4
 74
0
 40
0
 40
0
 40
0
 40
0
 40
1
 40
1
 40
1
 40
1
 10
130.419105
 20
16.105152
 30
0.0
 10
130.283672
 20
16.432117
 30
0.0
 10
130.358533
 20
16.808470
 30
0.0
 10
130.608782
 20
17.058718
 30
0.0
  0
SPLINE
  5
241
100
AcDbEntity
  8
0
 62
7
100
AcDbSpline
 70
8
 71
3
 72
8
 73
4
 74
0
 40
0
 40
0
 40
0
 40
0
 40
1
 40
1
 40
1
 40
1
 10
130.608782
 20
17.058718
 30
0.0
 10
130.859030
 20
17.308967
 30
0.0
 10
131.235383
 20
17.383828
 30
0.0
 10
131.562348
 20
17.248395
 30
0.0
  0
SPLINE
  5
242
100
AcDbEntity
  8
0
 62
7
100
AcDbSpline
 70
8
 71
3
 72
8
 73
4
 74
0
 40
0
 40
0
 40
0
 40
0
 40
1
 40
1
 40
1
 40
1
 10
131.562348
 20
17.248395
 30
0.0
 10
131.889313
 20
17.112961
 30
0.0
 10
132.102500
 20
16.793904
 30
0.0
 10
132.102500
 20
16.440000
 30
0.0
  0
SPLINE
  5
243
100
AcDbEntity
  8
0
 62
7
100
AcDbSpline
 70
8
 71
3
 72
8
 73
4
 74
0
 40
0
 40
0
 40
0
 40
0
 40
1
 40
1
 40
1
 40
1
 10
132.102500
 20
16.440000
 30
0.0
 10
132.102500
 20
16.207936
 30
0.0
 10
132.010313
 20
15.985376
 30
0.0
 10
131.846218
 20
15.821282
 30
0.0
  0
SPLINE
  5
244
100
AcDbEntity
  8
0
 62
7
100
AcDbSpline
 70
8
 71
3
 72
8
 73
4
 74
0
 40
0
 40
0
 40
0
 40
0
 40
1
 40
1
 40
1
 40
1
 10
131.846218
 20
15.821282
 30
0.0
 10
131.682124
 20
15.657187
 30
0.0
 10
131.459564
 20
15.565000
 30
0.0
 10
131.227500
 20
15.565000
 30
0.0
  0
LWPOLYLINE
  5
245
100
AcDbEntity
  8
0
 62
7
100
AcDbPolyline
 90
1
 70
1
 10
169.327500
 20
53.665000
 30
0.0
  0
LWPOLYLINE
  5
246
100
AcDbEntity
  8
0
 62
7
100
AcDbPolyline
 90
1
 70
1
 10
131.227500
 20
15.565000
 30
0.0
  0
LWPOLYLINE
  5
247
100
AcDbEntity
  8
0
 62
7
100
AcDbPolyline
 90
5
 70
1
 10
79.936250
 20
16.980625
 30
0.0
 10
79.936250
 20
23.251250
 30
0.0
 10
79.936250
 20
23.251250
 30
0.0
 10
79.936250
 20
16.980625
 30
0.0
 10
79.936250
 20
16.980625
 30
0.0
  0
LWPOLYLINE
  5
248
100
AcDbEntity
  8
0
 62
7
100
AcDbPolyline
 90
5
 70
1
 10
79.936250
 20
23.251250
 30
0.0
 10
81.841250
 20
23.251250
 30
0.0
 10
81.841250
 20
23.251250
 30
0.0
 10
79.936250
 20
23.251250
 30
0.0
 10
79.936250
 20
23.251250
 30
0.0
  0
LWPOLYLINE
  5
249
100
AcDbEntity
  8
0
 62
7
100
AcDbPolyline
 90
5
 70
1
 10
79.142500
 20
16.980625
 30
0.0
 10
79.936250
 20
16.980625
 30
0.0
 10
79.936250
 20
16.980625
 30
0.0
 10
79.142500
 20
16.980625
 30
0.0
 10
79.142500
 20
16.980625
 30
0.0
  0
LWPOLYLINE
  5
24a
100
AcDbEntity
  8
0
 62
7
100
AcDbPolyline
 90
5
 70
1
 10
81.841250
 20
23.251250
 30
0.0
 10
81.841250
 20
24.521250
 30
0.0
 10
81.841250
 20
24.521250
 30
0.0
 10
81.841250
 20
23.251250
 30
0.0
 10
81.841250
 20
23.251250
 30
0.0
  0
LWPOLYLINE
  5
24b
100
AcDbEntity
  8
0
 62
7
100
AcDbPolyline
 90
5
 70
1
 10
79.142500
 20
14.123125
 30
0.0
 10
79.142500
 20
16.980625
 30
0.0
 10
79.142500
 20
16.980625
 30
0.0
 10
79.142500
 20
14.123125
 30
0.0
 10
79.142500
 20
14.123125
 30
0.0
  0
LWPOLYLINE
  5
24c
100
AcDbEntity
  8
0
 62
7
100
AcDbPolyline
 90
5
 70
1
 10
81.841250
 20
24.521250
 30
0.0
 10
85.333750
 20
24.521250
 30
0.0
 10
85.333750
 20
24.521250
 30
0.0
 10
81.841250
 20
24.521250
 30
0.0
 10
81.841250
 20
24.521250
 30
0.0
  0
LWPOLYLINE
  5
24d
100
AcDbEntity
  8
0
 62
7
100
AcDbPolyline
 90
5
 70
1
 10
79.936250
 20
14.123125
 30
0.0
 10
79.142500
 20
14.123125
 30
0.0
 10
79.142500
 20
14.123125
 30
0.0
 10
79.936250
 20
14.123125
 30
0.0
 10
79.936250
 20
14.123125
 30
0.0
  0
LWPOLYLINE
  5
24e
100
AcDbEntity
  8
0
 62
7
100
AcDbPolyline
 90
5
 70
1
 10
85.333750
 20
24.521250
 30
0.0
 10
85.333750
 20
23.251250
 30
0.0
 10
85.333750
 20
23.251250
 30
0.0
 10
85.333750
 20
24.521250
 30
0.0
 10
85.333750
 20
24.521250
 30
0.0
  0
LWPOLYLINE
  5
24f
100
AcDbEntity
  8
0
 62
7
100
AcDbPolyline
 90
5
 70
1
 10
79.936250
 20
10.868750
 30
0.0
 10
79.936250
 20
14.123125
 30
0.0
 10
79.936250
 20
14.123125
 30
0.0
 10
79.936250
 20
10.868750
 30
0.0
 10
79.936250
 20
10.868750
 30
0.0
  0
LWPOLYLINE
  5
250
100
AcDbEntity
  8
0
 62
7
100
AcDbPolyline
 90
5
 70
1
 10
85.333750
 20
23.251250
 30
0.0
 10
87.238750
 20
23.251250
 30
0.0
 10
87.238750
 20
23.251250
 30
0.0
 10
85.333750
 20
23.251250
 30
0.0
 10
85.333750
 20
23.251250
 30
0.0
  0
LWPOLYLINE
  5
251
100
AcDbEntity
  8
0
 62
7
100
AcDbPolyline
 90
5
 70
1
 10
87.238750
 20
10.868750
 30
0.0
 10
79.936250
 20
10.868750
 30
0.0
 10
79.936250
 20
10.868750
 30
0.0
 10
87.238750
 20
10.868750
 30
0.0
 10
87.238750
 20
10.868750
 30
0.0
  0
LWPOLYLINE
  5
252
100
AcDbEntity
  8
0
 62
7
100
AcDbPolyline
 90
5
 70
1
 10
87.238750
 20
23.251250
 30
0.0
 10
87.238750
 20
18.806250
 30
0.0
 10
87.238750
 20
18.806250
 30
0.0
 10
87.238750
 20
23.251250
 30
0.0
 10
87.238750
 20
23.251250
 30
0.0
  0
LWPOLYLINE
  5
253
100
AcDbEntity
  8
0
 62
7
100
AcDbPolyline
 90
5
 70
1
 10
87.238750
 20
14.043750
 30
0.0
 10
87.238750
 20
10.868750
 30
0.0
 10
87.238750
 20
10.868750
 30
0.0
 10
87.238750
 20
14.043750
 30
0.0
 10
87.238750
 20
14.043750
 30
0.0
  0
LWPOLYLINE
  5
254
100
AcDbEntity
  8
0
 62
7
100
AcDbPolyline
 90
5
 70
1
 10
87.238750
 20
18.806250
 30
0.0
 10
95.652500
 20
18.806250
 30
0.0
 10
95.652500
 20
18.806250
 30
0.0
 10
87.238750
 20
18.806250
 30
0.0
 10
87.238750
 20
18.806250
 30
0.0
  0
LWPOLYLINE
  5
255
100
AcDbEntity
  8
0
 62
7
100
AcDbPolyline
 90
5
 70
1
 10
95.652500
 20
14.043750
 30
0.0
 10
87.238750
 20
14.043750
 30
0.0
 10
87.238750
 20
14.043750
 30
0.0
 10
95.652500
 20
14.043750
 30
0.0
 10
95.652500
 20
14.043750
 30
0.0
  0
LWPOLYLINE
  5
256
100
AcDbEntity
  8
0
 62
7
100
AcDbPolyline
 90
5
 70
1
 10
95.652500
 20
18.806250
 30
0.0
 10
95.652500
 20
23.440000
 30
0.0
 10
95.652500
 20
23.440000
 30
0.0
 10
95.652500
 20
18.806250
 30
0.0
 10
95.652500
 20
18.806250
 30
0.0
  0
LWPOLYLINE
  5
257
100
AcDbEntity
  8
0
 62
7
100
AcDbPolyline
 90
5
 70
1
 10
95.652500
 20
9.440000
 30
0.0
 10
95.652500
 20
14.043750
 30
0.0
 10
95.652500
 20
14.043750
 30
0.0
 10
95.652500
 20
9.440000
 30
0.0
 10
95.652500
 20
9.440000
 30
0.0
  0
LWPOLYLINE
  5
258
100
AcDbEntity
  8
0
 62
7
100
AcDbPolyline
 90
5
 70
1
 10
95.652500
 20
23.440000
 30
0.0
 10
109.652500
 20
23.440000
 30
0.0
 10
109.652500
 20
23.440000
 30
0.0
 10
95.652500
 20
23.440000
 30
0.0
 10
95.652500
 20
23.440000
 30
0.0
  0
LWPOLYLINE
  5
259
100
AcDbEntity
  8
0
 62
7
100
AcDbPolyline
 90
5
 70
1
 10
109.652500
 20
9.440000
 30
0.0
 10
95.652500
 20
9.440000
 30
0.0
 10
95.652500
 20
9.440000
 30
0.0
 10
109.652500
 20
9.440000
 30
0.0
 10
109.652500
 20
9.440000
 30
0.0
  0
LWPOLYLINE
  5
25a
100
AcDbEntity
  8
0
 62
7
100
AcDbPolyline
 90
5
 70
1
 10
109.652500
 20
23.440000
 30
0.0
 10
109.652500
 20
18.806250
 30
0.0
 10
109.652500
 20
18.806250
 30
0.0
 10
109.652500
 20
23.440000
 30
0.0
 10
109.652500
 20
23.440000
 30
0.0
  0
LWPOLYLINE
  5
25b
100
AcDbEntity
  8
0
 62
7
100
AcDbPolyline
 90
5
 70
1
 10
109.652500
 20
14.043750
 30
0.0
 10
109.652500
 20
9.440000
 30
0.0
 10
109.652500
 20
9.440000
 30
0.0
 10
109.652500
 20
14.043750
 30
0.0
 10
109.652500
 20
14.043750
 30
0.0
  0
LWPOLYLINE
  5
25c
100
AcDbEntity
  8
0
 62
7
100
AcDbPolyline
 90
5
 70
1
 10
109.652500
 20
18.806250
 30
0.0
 10
118.066250
 20
18.806250
 30
0.0
 10
118.066250
 20
18.806250
 30
0.0
 10
109.652500
 20
18.806250
 30
0.0
 10
109.652500
 20
18.806250
 30
0.0
  0
LWPOLYLINE
  5
25d
100
AcDbEntity
  8
0
 62
7
100
AcDbPolyline
 90
5
 70
1
 10
118.066250
 20
14.043750
 30
0.0
 10
109.652500
 20
14.043750
 30
0.0
 10
109.652500
 20
14.043750
 30
0.0
 10
118.066250
 20
14.043750
 30
0.0
 10
118.066250
 20
14.043750
 30
0.0
  0
LWPOLYLINE
  5
25e
100
AcDbEntity
  8
0
 62
7
100
AcDbPolyline
 90
5
 70
1
 10
118.066250
 20
18.806250
 30
0.0
 10
118.066250
 20
23.251250
 30
0.0
 10
118.066250
 20
23.251250
 30
0.0
 10
118.066250
 20
18.806250
 30
0.0
 10
118.066250
 20
18.806250
 30
0.0
  0
LWPOLYLINE
  5
25f
100
AcDbEntity
  8
0
 62
7
100
AcDbPolyline
 90
5
 70
1
 10
118.066250
 20
10.868750
 30
0.0
 10
118.066250
 20
14.043750
 30
0.0
 10
118.066250
 20
14.043750
 30
0.0
 10
118.066250
 20
10.868750
 30
0.0
 10
118.066250
 20
10.868750
 30
0.0
  0
LWPOLYLINE
  5
260
100
AcDbEntity
  8
0
 62
7
100
AcDbPolyline
 90
5
 70
1
 10
118.066250
 20
23.251250
 30
0.0
 10
119.971250
 20
23.251250
 30
0.0
 10
119.971250
 20
23.251250
 30
0.0
 10
118.066250
 20
23.251250
 30
0.0
 10
118.066250
 20
23.251250
 30
0.0
  0
LWPOLYLINE
  5
261
100
AcDbEntity
  8
0
 62
7
100
AcDbPolyline
 90
5
 70
1
 10
125.368750
 20
10.868750
 30
0.0
 10
118.066250
 20
10.868750
 30
0.0
 10
118.066250
 20
10.868750
 30
0.0
 10
125.368750
 20
10.868750
 30
0.0
 10
125.368750
 20
10.868750
 30
0.0
  0
LWPOLYLINE
  5
262
100
AcDbEntity
  8
0
 62
7
100
AcDbPolyline
 90
5
 70
1
 10
119.971250
 20
23.251250
 30
0.0
 10
119.971250
 20
24.521250
 30
0.0
 10
119.971250
 20
24.521250
 30
0.0
 10
119.971250
 20
23.251250
 30
0.0
 10
119.971250
 20
23.251250
 30
0.0
  0
LWPOLYLINE
  5
263
100
AcDbEntity
  8
0
 62
7
100
AcDbPolyline
 90
5
 70
1
 10
125.368750
 20
14.123125
 30
0.0
 10
125.368750
 20
10.868750
 30
0.0
 10
125.368750
 20
10.868750
 30
0.0
 10
125.368750
 20
14.123125
 30
0.0
 10
125.368750
 20
14.123125
 30
0.0
  0
LWPOLYLINE
  5
264
100
AcDbEntity
  8
0
 62
7
100
AcDbPolyline
 90
5
 70
1
 10
119.971250
 20
24.521250
 30
0.0
 10
123.463750
 20
24.521250
 30
0.0
 10
123.463750
 20
24.521250
 30
0.0
 10
119.971250
 20
24.521250
 30
0.0
 10
119.971250
 20
24.521250
 30
0.0
  0
LWPOLYLINE
  5
265
100
AcDbEntity
  8
0
 62
7
100
AcDbPolyline
 90
5
 70
1
 10
126.162500
 20
14.123125
 30
0.0
 10
125.368750
 20
14.123125
 30
0.0
 10
125.368750
 20
14.123125
 30
0.0
 10
126.162500
 20
14.123125
 30
0.0
 10
126.162500
 20
14.123125
 30
0.0
  0
LWPOLYLINE
  5
266
100
AcDbEntity
  8
0
 62
7
100
AcDbPolyline
 90
5
 70
1
 10
123.463750
 20
24.521250
 30
0.0
 10
123.463750
 20
23.251250
 30
0.0
 10
123.463750
 20
23.251250
 30
0.0
 10
123.463750
 20
24.521250
 30
0.0
 10
123.463750
 20
24.521250
 30
0.0
  0
LWPOLYLINE
  5
267
100
AcDbEntity
  8
0
 62
7
100
AcDbPolyline
 90
5
 70
1
 10
126.162500
 20
16.980625
 30
0.0
 10
126.162500
 20
14.123125
 30
0.0
 10
126.162500
 20
14.123125
 30
0.0
 10
126.162500
 20
16.980625
 30
0.0
 10
126.162500
 20
16.980625
 30
0.0
  0
LWPOLYLINE
  5
268
100
AcDbEntity
  8
0
 62
7
100
AcDbPolyline
 90
5
 70
1
 10
123.463750
 20
23.251250
 30
0.0
 10
125.368750
 20
23.251250
 30
0.0
 10
125.368750
 20
23.251250
 30
0.0
 10
123.463750
 20
23.251250
 30
0.0
 10
123.463750
 20
23.251250
 30
0.0
  0
LWPOLYLINE
  5
269
100
AcDbEntity
  8
0
 62
7
100
AcDbPolyline
 90
5
 70
1
 10
125.368750
 20
16.980625
 30
0.0
 10
126.162500
 20
16.980625
 30
0.0
 10
126.162500
 20
16.980625
 30
0.0
 10
125.368750
 20
16.980625
 30
0.0
 10
125.368750
 20
16.980625
 30
0.0
  0
LWPOLYLINE
  5
26a
100
AcDbEntity
  8
0
 62
7
100
AcDbPolyline
 90
5
 70
1
 10
125.368750
 20
23.251250
 30
0.0
 10
125.368750
 20
16.980625
 30
0.0
 10
125.368750
 20
16.980625
 30
0.0
 10
125.368750
 20
23.251250
 30
0.0
 10
125.368750
 20
23.251250
 30
0.0
  0
LWPOLYLINE
  5
26b
100
AcDbEntity
  8
0
 62
7
100
AcDbPolyline
 90
5
 70
1
 10
69.171250
 20
23.440000
 30
0.0
 10
69.171250
 20
23.440000
 30
0.0
 10
55.171250
 20
23.440000
 30
0.0
 10
55.171250
 20
23.440000
 30
0.0
 10
69.171250
 20
23.440000
 30
0.0
  0
LWPOLYLINE
  5
26c
100
AcDbEntity
  8
0
 62
7
100
AcDbPolyline
 90
5
 70
1
 10
55.171250
 20
23.440000
 30
0.0
 10
55.171250
 20
23.440000
 30
0.0
 10
55.171250
 20
9.440000
 30
0.0
 10
55.171250
 20
9.440000
 30
0.0
 10
55.171250
 20
23.440000
 30
0.0
  0
LWPOLYLINE
  5
26d
100
AcDbEntity
  8
0
 62
7
100
AcDbPolyline
 90
5
 70
1
 10
69.171250
 20
9.440000
 30
0.0
 10
69.171250
 20
9.440000
 30
0.0
 10
69.171250
 20
23.440000
 30
0.0
 10
69.171250
 20
23.440000
 30
0.0
 10
69.171250
 20
9.440000
 30
0.0
  0
LWPOLYLINE
  5
26e
100
AcDbEntity
  8
0
 62
7
100
AcDbPolyline
 90
5
 70
1
 10
55.171250
 20
9.440000
 30
0.0
 10
55.171250
 20
9.440000
 30
0.0
 10
69.171250
 20
9.440000
 30
0.0
 10
69.171250
 20
9.440000
 30
0.0
 10
55.171250
 20
9.440000
 30
0.0
  0
LWPOLYLINE
  5
26f
100
AcDbEntity
  8
0
 62
7
100
AcDbPolyline
 90
5
 70
1
 10
45.358750
 20
23.440000
 30
0.0
 10
45.358750
 20
23.440000
 30
0.0
 10
31.358750
 20
23.440000
 30
0.0
 10
31.358750
 20
23.440000
 30
0.0
 10
45.358750
 20
23.440000
 30
0.0
  0
LWPOLYLINE
  5
270
100
AcDbEntity
  8
0
 62
7
100
AcDbPolyline
 90
5
 70
1
 10
31.358750
 20
23.440000
 30
0.0
 10
31.358750
 20
23.440000
 30
0.0
 10
31.358750
 20
9.440000
 30
0.0
 10
31.358750
 20
9.440000
 30
0.0
 10
31.358750
 20
23.440000
 30
0.0
  0
LWPOLYLINE
  5
271
100
AcDbEntity
  8
0
 62
7
100
AcDbPolyline
 90
5
 70
1
 10
45.358750
 20
9.440000
 30
0.0
 10
45.358750
 20
9.440000
 30
0.0
 10
45.358750
 20
23.440000
 30
0.0
 10
45.358750
 20
23.440000
 30
0.0
 10
45.358750
 20
9.440000
 30
0.0
  0
SPLINE
  5
272
100
AcDbEntity
  8
0
 62
7
100
AcDbSpline
 70
8
 71
3
 72
8
 73
4
 74
0
 40
0
 40
0
 40
0
 40
0
 40
1
 40
1
 40
1
 40
1
 10
26.452500
 20
15.565000
 30
0.0
 10
26.098596
 20
15.565000
 30
0.0
 10
25.779539
 20
15.778187
 30
0.0
 10
25.644105
 20
16.105152
 30
0.0
  0
SPLINE
  5
273
100
AcDbEntity
  8
0
 62
7
100
AcDbSpline
 70
8
 71
3
 72
8
 73
4
 74
0
 40
0
 40
0
 40
0
 40
0
 40
1
 40
1
 40
1
 40
1
 10
25.644105
 20
16.105152
 30
0.0
 10
25.508672
 20
16.432117
 30
0.0
 10
25.583533
 20
16.808470
 30
0.0
 10
25.833782
 20
17.058718
 30
0.0
  0
SPLINE
  5
274
100
AcDbEntity
  8
0
 62
7
100
AcDbSpline
 70
8
 71
3
 72
8
 73
4
 74
0
 40
0
 40
0
 40
0
 40
0
 40
1
 40
1
 40
1
 40
1
 10
25.833782
 20
17.058718
 30
0.0
 10
26.084030
 20
17.308967
 30
0.0
 10
26.460383
 20
17.383828
 30
0.0
 10
26.787348
 20
17.248395
 30
0.0
  0
SPLINE
  5
275
100
AcDbEntity
  8
0
 62
7
100
AcDbSpline
 70
8
 71
3
 72
8
 73
4
 74
0
 40
0
 40
0
 40
0
 40
0
 40
1
 40
1
 40
1
 40
1
 10
26.787348
 20
17.248395
 30
0.0
 10
27.114313
 20
17.112961
 30
0.0
 10
27.327500
 20
16.793904
 30
0.0
 10
27.327500
 20
16.440000
 30
0.0
  0
SPLINE
  5
276
100
AcDbEntity
  8
0
 62
7
100
AcDbSpline
 70
8
 71
3
 72
8
 73
4
 74
0
 40
0
 40
0
 40
0
 40
0
 40
1
 40
1
 40
1
 40
1
 10
27.327500
 20
16.440000
 30
0.0
 10
27.327500
 20
16.207936
 30
0.0
 10
27.235313
 20
15.985376
 30
0.0
 10
27.071218
 20
15.821282
 30
0.0
  0
SPLINE
  5
277
100
AcDbEntity
  8
0
 62
7
100
AcDbSpline
 70
8
 71
3
 72
8
 73
4
 74
0
 40
0
 40
0
 40
0
 40
0
 40
1
 40
1
 40
1
 40
1
 10
27.071218
 20
15.821282
 30
0.0
 10
26.907124
 20
15.657187
 30
0.0
 10
26.684564
 20
15.565000
 30
0.0
 10
26.452500
 20
15.565000
 30
0.0
  0
LWPOLYLINE
  5
278
100
AcDbEntity
  8
0
 62
7
100
AcDbPolyline
 90
5
 70
1
 10
31.358750
 20
9.440000
 30
0.0
 10
31.358750
 20
9.440000
 30
0.0
 10
45.358750
 20
9.440000
 30
0.0
 10
45.358750
 20
9.440000
 30
0.0
 10
31.358750
 20
9.440000
 30
0.0
  0
LWPOLYLINE
  5
279
100
AcDbEntity
  8
0
 62
7
100
AcDbPolyline
 90
1
 70
1
 10
26.452500
 20
15.565000
 30
0.0
  0
LWPOLYLINE
  5
27a
100
AcDbEntity
  8
0
 62
7
100
AcDbPolyline
 90
5
 70
1
 10
21.546250
 20
23.440000
 30
0.0
 10
21.546250
 20
23.440000
 30
0.0
 10
7.546250
 20
23.440000
 30
0.0
 10
7.546250
 20
23.440000
 30
0.0
 10
21.546250
 20
23.440000
 30
0.0
  0
LWPOLYLINE
  5
27b
100
AcDbEntity
  8
0
 62
7
100
AcDbPolyline
 90
5
 70
1
 10
7.546250
 20
23.440000
 30
0.0
 10
7.546250
 20
23.440000
 30
0.0
 10
7.546250
 20
9.440000
 30
0.0
 10
7.546250
 20
9.440000
 30
0.0
 10
7.546250
 20
23.440000
 30
0.0
  0
LWPOLYLINE
  5
27c
100
AcDbEntity
  8
0
 62
7
100
AcDbPolyline
 90
5
 70
1
 10
21.546250
 20
9.440000
 30
0.0
 10
21.546250
 20
9.440000
 30
0.0
 10
21.546250
 20
23.440000
 30
0.0
 10
21.546250
 20
23.440000
 30
0.0
 10
21.546250
 20
9.440000
 30
0.0
  0
LWPOLYLINE
  5
27d
100
AcDbEntity
  8
0
 62
7
100
AcDbPolyline
 90
5
 70
1
 10
7.546250
 20
9.440000
 30
0.0
 10
7.546250
 20
9.440000
 30
0.0
 10
21.546250
 20
9.440000
 30
0.0
 10
21.546250
 20
9.440000
 30
0.0
 10
7.546250
 20
9.440000
 30
0.0
  0
LWPOLYLINE
  5
27e
100
AcDbEntity
  8
0
 62
7
100
AcDbPolyline
 90
5
 70
1
 10
157.277500
 20
42.490000
 30
0.0
 10
157.277500
 20
42.490000
 30
0.0
 10
143.277500
 20
42.490000
 30
0.0
 10
143.277500
 20
42.490000
 30
0.0
 10
157.277500
 20
42.490000
 30
0.0
  0
LWPOLYLINE
  5
27f
100
AcDbEntity
  8
0
 62
7
100
AcDbPolyline
 90
5
 70
1
 10
143.277500
 20
42.490000
 30
0.0
 10
143.277500
 20
42.490000
 30
0.0
 10
143.277500
 20
28.490000
 30
0.0
 10
143.277500
 20
28.490000
 30
0.0
 10
143.277500
 20
42.490000
 30
0.0
  0
LWPOLYLINE
  5
280
100
AcDbEntity
  8
0
 62
7
100
AcDbPolyline
 90
5
 70
1
 10
157.277500
 20
28.490000
 30
0.0
 10
157.277500
 20
28.490000
 30
0.0
 10
157.277500
 20
42.490000
 30
0.0
 10
157.277500
 20
42.490000
 30
0.0
 10
157.277500
 20
28.490000
 30
0.0
  0
LWPOLYLINE
  5
281
100
AcDbEntity
  8
0
 62
7
100
AcDbPolyline
 90
5
 70
1
 10
143.277500
 20
28.490000
 30
0.0
 10
143.277500
 20
28.490000
 30
0.0
 10
157.277500
 20
28.490000
 30
0.0
 10
157.277500
 20
28.490000
 30
0.0
 10
143.277500
 20
28.490000
 30
0.0
  0
LWPOLYLINE
  5
282
100
AcDbEntity
  8
0
 62
7
100
AcDbPolyline
 90
5
 70
1
 10
138.227500
 20
42.490000
 30
0.0
 10
138.227500
 20
42.490000
 30
0.0
 10
124.227500
 20
42.490000
 30
0.0
 10
124.227500
 20
42.490000
 30
0.0
 10
138.227500
 20
42.490000
 30
0.0
  0
LWPOLYLINE
  5
283
100
AcDbEntity
  8
0
 62
7
100
AcDbPolyline
 90
5
 70
1
 10
124.227500
 20
42.490000
 30
0.0
 10
124.227500
 20
42.490000
 30
0.0
 10
124.227500
 20
28.490000
 30
0.0
 10
124.227500
 20
28.490000
 30
0.0
 10
124.227500
 20
42.490000
 30
0.0
  0
LWPOLYLINE
  5
284
100
AcDbEntity
  8
0
 62
7
100
AcDbPolyline
 90
5
 70
1
 10
138.227500
 20
28.490000
 30
0.0
 10
138.227500
 20
28.490000
 30
0.0
 10
138.227500
 20
42.490000
 30
0.0
 10
138.227500
 20
42.490000
 30
0.0
 10
138.227500
 20
28.490000
 30
0.0
  0
LWPOLYLINE
  5
285
100
AcDbEntity
  8
0
 62
7
100
AcDbPolyline
 90
5
 70
1
 10
124.227500
 20
28.490000
 30
0.0
 10
124.227500
 20
28.490000
 30
0.0
 10
138.227500
 20
28.490000
 30
0.0
 10
138.227500
 20
28.490000
 30
0.0
 10
124.227500
 20
28.490000
 30
0.0
  0
LWPOLYLINE
  5
286
100
AcDbEntity
  8
0
 62
7
100
AcDbPolyline
 90
5
 70
1
 10
119.177500
 20
42.490000
 30
0.0
 10
119.177500
 20
42.490000
 30
0.0
 10
105.177500
 20
42.490000
 30
0.0
 10
105.177500
 20
42.490000
 30
0.0
 10
119.177500
 20
42.490000
 30
0.0
  0
LWPOLYLINE
  5
287
100
AcDbEntity
  8
0
 62
7
100
AcDbPolyline
 90
5
 70
1
 10
105.177500
 20
42.490000
 30
0.0
 10
105.177500
 20
42.490000
 30
0.0
 10
105.177500
 20
28.490000
 30
0.0
 10
105.177500
 20
28.490000
 30
0.0
 10
105.177500
 20
42.490000
 30
0.0
  0
LWPOLYLINE
  5
288
100
AcDbEntity
  8
0
 62
7
100
AcDbPolyline
 90
5
 70
1
 10
119.177500
 20
28.490000
 30
0.0
 10
119.177500
 20
28.490000
 30
0.0
 10
119.177500
 20
42.490000
 30
0.0
 10
119.177500
 20
42.490000
 30
0.0
 10
119.177500
 20
28.490000
 30
0.0
  0
LWPOLYLINE
  5
289
100
AcDbEntity
  8
0
 62
7
100
AcDbPolyline
 90
5
 70
1
 10
105.177500
 20
28.490000
 30
0.0
 10
105.177500
 20
28.490000
 30
0.0
 10
119.177500
 20
28.490000
 30
0.0
 10
119.177500
 20
28.490000
 30
0.0
 10
105.177500
 20
28.490000
 30
0.0
  0
LWPOLYLINE
  5
28a
100
AcDbEntity
  8
0
 62
7
100
AcDbPolyline
 90
5
 70
1
 10
100.127500
 20
42.490000
 30
0.0
 10
100.127500
 20
42.490000
 30
0.0
 10
86.127500
 20
42.490000
 30
0.0
 10
86.127500
 20
42.490000
 30
0.0
 10
100.127500
 20
42.490000
 30
0.0
  0
LWPOLYLINE
  5
28b
100
AcDbEntity
  8
0
 62
7
100
AcDbPolyline
 90
5
 70
1
 10
86.127500
 20
42.490000
 30
0.0
 10
86.127500
 20
42.490000
 30
0.0
 10
86.127500
 20
28.490000
 30
0.0
 10
86.127500
 20
28.490000
 30
0.0
 10
86.127500
 20
42.490000
 30
0.0
  0
LWPOLYLINE
  5
28c
100
AcDbEntity
  8
0
 62
7
100
AcDbPolyline
 90
5
 70
1
 10
100.127500
 20
28.490000
 30
0.0
 10
100.127500
 20
28.490000
 30
0.0
 10
100.127500
 20
42.490000
 30
0.0
 10
100.127500
 20
42.490000
 30
0.0
 10
100.127500
 20
28.490000
 30
0.0
  0
SPLINE
  5
28d
100
AcDbEntity
  8
0
 62
7
100
AcDbSpline
 70
8
 71
3
 72
8
 73
4
 74
0
 40
0
 40
0
 40
0
 40
0
 40
1
 40
1
 40
1
 40
1
 10
93.127500
 20
53.665000
 30
0.0
 10
92.773596
 20
53.665000
 30
0.0
 10
92.454539
 20
53.878187
 30
0.0
 10
92.319105
 20
54.205152
 30
0.0
  0
SPLINE
  5
28e
100
AcDbEntity
  8
0
 62
7
100
AcDbSpline
 70
8
 71
3
 72
8
 73
4
 74
0
 40
0
 40
0
 40
0
 40
0
 40
1
 40
1
 40
1
 40
1
 10
92.319105
 20
54.205152
 30
0.0
 10
92.183672
 20
54.532117
 30
0.0
 10
92.258533
 20
54.908470
 30
0.0
 10
92.508782
 20
55.158718
 30
0.0
  0
SPLINE
  5
28f
100
AcDbEntity
  8
0
 62
7
100
AcDbSpline
 70
8
 71
3
 72
8
 73
4
 74
0
 40
0
 40
0
 40
0
 40
0
 40
1
 40
1
 40
1
 40
1
 10
92.508782
 20
55.158718
 30
0.0
 10
92.759030
 20
55.408967
 30
0.0
 10
93.135383
 20
55.483828
 30
0.0
 10
93.462348
 20
55.348395
 30
0.0
  0
SPLINE
  5
290
100
AcDbEntity
  8
0
 62
7
100
AcDbSpline
 70
8
 71
3
 72
8
 73
4
 74
0
 40
0
 40
0
 40
0
 40
0
 40
1
 40
1
 40
1
 40
1
 10
93.462348
 20
55.348395
 30
0.0
 10
93.789313
 20
55.212961
 30
0.0
 10
94.002500
 20
54.893904
 30
0.0
 10
94.002500
 20
54.540000
 30
0.0
  0
SPLINE
  5
291
100
AcDbEntity
  8
0
 62
7
100
AcDbSpline
 70
8
 71
3
 72
8
 73
4
 74
0
 40
0
 40
0
 40
0
 40
0
 40
1
 40
1
 40
1
 40
1
 10
94.002500
 20
54.540000
 30
0.0
 10
94.002500
 20
54.056751
 30
0.0
 10
93.610749
 20
53.665000
 30
0.0
 10
93.127500
 20
53.665000
 30
0.0
  0
LWPOLYLINE
  5
292
100
AcDbEntity
  8
0
 62
7
100
AcDbPolyline
 90
5
 70
1
 10
86.127500
 20
28.490000
 30
0.0
 10
86.127500
 20
28.490000
 30
0.0
 10
100.127500
 20
28.490000
 30
0.0
 10
100.127500
 20
28.490000
 30
0.0
 10
86.127500
 20
28.490000
 30
0.0
  0
LWPOLYLINE
  5
293
100
AcDbEntity
  8
0
 62
7
100
AcDbPolyline
 90
1
 70
1
 10
93.127500
 20
53.665000
 30
0.0
  0
LWPOLYLINE
  5
294
100
AcDbEntity
  8
0
 62
7
100
AcDbPolyline
 90
5
 70
1
 10
81.077500
 20
42.490000
 30
0.0
 10
81.077500
 20
42.490000
 30
0.0
 10
67.077500
 20
42.490000
 30
0.0
 10
67.077500
 20
42.490000
 30
0.0
 10
81.077500
 20
42.490000
 30
0.0
  0
LWPOLYLINE
  5
295
100
AcDbEntity
  8
0
 62
7
100
AcDbPolyline
 90
5
 70
1
 10
67.077500
 20
42.490000
 30
0.0
 10
67.077500
 20
42.490000
 30
0.0
 10
67.077500
 20
28.490000
 30
0.0
 10
67.077500
 20
28.490000
 30
0.0
 10
67.077500
 20
42.490000
 30
0.0
  0
LWPOLYLINE
  5
296
100
AcDbEntity
  8
0
 62
7
100
AcDbPolyline
 90
5
 70
1
 10
81.077500
 20
28.490000
 30
0.0
 10
81.077500
 20
28.490000
 30
0.0
 10
81.077500
 20
42.490000
 30
0.0
 10
81.077500
 20
42.490000
 30
0.0
 10
81.077500
 20
28.490000
 30
0.0
  0
LWPOLYLINE
  5
297
100
AcDbEntity
  8
0
 62
7
100
AcDbPolyline
 90
5
 70
1
 10
67.077500
 20
28.490000
 30
0.0
 10
67.077500
 20
28.490000
 30
0.0
 10
81.077500
 20
28.490000
 30
0.0
 10
81.077500
 20
28.490000
 30
0.0
 10
67.077500
 20
28.490000
 30
0.0
  0
LWPOLYLINE
  5
298
100
AcDbEntity
  8
0
 62
7
100
AcDbPolyline
 90
5
 70
1
 10
62.027500
 20
42.490000
 30
0.0
 10
62.027500
 20
42.490000
 30
0.0
 10
48.027500
 20
42.490000
 30
0.0
 10
48.027500
 20
42.490000
 30
0.0
 10
62.027500
 20
42.490000
 30
0.0
  0
LWPOLYLINE
  5
299
100
AcDbEntity
  8
0
 62
7
100
AcDbPolyline
 90
5
 70
1
 10
48.027500
 20
42.490000
 30
0.0
 10
48.027500
 20
42.490000
 30
0.0
 10
48.027500
 20
28.490000
 30
0.0
 10
48.027500
 20
28.490000
 30
0.0
 10
48.027500
 20
42.490000
 30
0.0
  0
LWPOLYLINE
  5
29a
100
AcDbEntity
  8
0
 62
7
100
AcDbPolyline
 90
5
 70
1
 10
62.027500
 20
28.490000
 30
0.0
 10
62.027500
 20
28.490000
 30
0.0
 10
62.027500
 20
42.490000
 30
0.0
 10
62.027500
 20
42.490000
 30
0.0
 10
62.027500
 20
28.490000
 30
0.0
  0
LWPOLYLINE
  5
29b
100
AcDbEntity
  8
0
 62
7
100
AcDbPolyline
 90
5
 70
1
 10
48.027500
 20
28.490000
 30
0.0
 10
48.027500
 20
28.490000
 30
0.0
 10
62.027500
 20
28.490000
 30
0.0
 10
62.027500
 20
28.490000
 30
0.0
 10
48.027500
 20
28.490000
 30
0.0
  0
LWPOLYLINE
  5
29c
100
AcDbEntity
  8
0
 62
7
100
AcDbPolyline
 90
5
 70
1
 10
40.437550
 20
34.949375
 30
0.0
 10
40.437550
 20
34.949375
 30
0.0
 10
39.643800
 20
34.949375
 30
0.0
 10
39.643800
 20
34.949375
 30
0.0
 10
40.437550
 20
34.949375
 30
0.0
  0
LWPOLYLINE
  5
29d
100
AcDbEntity
  8
0
 62
7
100
AcDbPolyline
 90
5
 70
1
 10
40.437550
 20
37.806875
 30
0.0
 10
40.437550
 20
37.806875
 30
0.0
 10
40.437550
 20
34.949375
 30
0.0
 10
40.437550
 20
34.949375
 30
0.0
 10
40.437550
 20
37.806875
 30
0.0
  0
LWPOLYLINE
  5
29e
100
AcDbEntity
  8
0
 62
7
100
AcDbPolyline
 90
5
 70
1
 10
39.643800
 20
34.949375
 30
0.0
 10
39.643800
 20
34.949375
 30
0.0
 10
39.643800
 20
28.678750
 30
0.0
 10
39.643800
 20
28.678750
 30
0.0
 10
39.643800
 20
34.949375
 30
0.0
  0
LWPOLYLINE
  5
29f
100
AcDbEntity
  8
0
 62
7
100
AcDbPolyline
 90
5
 70
1
 10
39.643800
 20
37.806875
 30
0.0
 10
39.643800
 20
37.806875
 30
0.0
 10
40.437550
 20
37.806875
 30
0.0
 10
40.437550
 20
37.806875
 30
0.0
 10
39.643800
 20
37.806875
 30
0.0
  0
LWPOLYLINE
  5
2a0
100
AcDbEntity
  8
0
 62
7
100
AcDbPolyline
 90
5
 70
1
 10
39.643800
 20
28.678750
 30
0.0
 10
39.643800
 20
28.678750
 30
0.0
 10
37.738800
 20
28.678750
 30
0.0
 10
37.738800
 20
28.678750
 30
0.0
 10
39.643800
 20
28.678750
 30
0.0
  0
LWPOLYLINE
  5
2a1
100
AcDbEntity
  8
0
 62
7
100
AcDbPolyline
 90
5
 70
1
 10
39.643800
 20
41.061250
 30
0.0
 10
39.643800
 20
41.061250
 30
0.0
 10
39.643800
 20
37.806875
 30
0.0
 10
39.643800
 20
37.806875
 30
0.0
 10
39.643800
 20
41.061250
 30
0.0
  0
LWPOLYLINE
  5
2a2
100
AcDbEntity
  8
0
 62
7
100
AcDbPolyline
 90
5
 70
1
 10
37.738800
 20
28.678750
 30
0.0
 10
37.738800
 20
28.678750
 30
0.0
 10
37.738800
 20
27.408750
 30
0.0
 10
37.738800
 20
27.408750
 30
0.0
 10
37.738800
 20
28.678750
 30
0.0
  0
LWPOLYLINE
  5
2a3
100
AcDbEntity
  8
0
 62
7
100
AcDbPolyline
 90
5
 70
1
 10
32.341300
 20
41.061250
 30
0.0
 10
32.341300
 20
41.061250
 30
0.0
 10
39.643800
 20
41.061250
 30
0.0
 10
39.643800
 20
41.061250
 30
0.0
 10
32.341300
 20
41.061250
 30
0.0
  0
LWPOLYLINE
  5
2a4
100
AcDbEntity
  8
0
 62
7
100
AcDbPolyline
 90
5
 70
1
 10
37.738800
 20
27.408750
 30
0.0
 10
37.738800
 20
27.408750
 30
0.0
 10
34.246300
 20
27.408750
 30
0.0
 10
34.246300
 20
27.408750
 30
0.0
 10
37.738800
 20
27.408750
 30
0.0
  0
LWPOLYLINE
  5
2a5
100
AcDbEntity
  8
0
 62
7
100
AcDbPolyline
 90
5
 70
1
 10
32.341300
 20
37.886250
 30
0.0
 10
32.341300
 20
37.886250
 30
0.0
 10
32.341300
 20
41.061250
 30
0.0
 10
32.341300
 20
41.061250
 30
0.0
 10
32.341300
 20
37.886250
 30
0.0
  0
LWPOLYLINE
  5
2a6
100
AcDbEntity
  8
0
 62
7
100
AcDbPolyline
 90
5
 70
1
 10
34.246300
 20
27.408750
 30
0.0
 10
34.246300
 20
27.408750
 30
0.0
 10
34.246300
 20
28.678750
 30
0.0
 10
34.246300
 20
28.678750
 30
0.0
 10
34.246300
 20
27.408750
 30
0.0
  0
LWPOLYLINE
  5
2a7
100
AcDbEntity
  8
0
 62
7
100
AcDbPolyline
 90
5
 70
1
 10
31.071300
 20
37.886250
 30
0.0
 10
31.071300
 20
37.886250
 30
0.0
 10
32.341300
 20
37.886250
 30
0.0
 10
32.341300
 20
37.886250
 30
0.0
 10
31.071300
 20
37.886250
 30
0.0
  0
LWPOLYLINE
  5
2a8
100
AcDbEntity
  8
0
 62
7
100
AcDbPolyline
 90
5
 70
1
 10
34.246300
 20
28.678750
 30
0.0
 10
34.246300
 20
28.678750
 30
0.0
 10
32.341300
 20
28.678750
 30
0.0
 10
32.341300
 20
28.678750
 30
0.0
 10
34.246300
 20
28.678750
 30
0.0
  0
LWPOLYLINE
  5
2a9
100
AcDbEntity
  8
0
 62
7
100
AcDbPolyline
 90
5
 70
1
 10
31.071300
 20
42.490000
 30
0.0
 10
31.071300
 20
42.490000
 30
0.0
 10
31.071300
 20
37.886250
 30
0.0
 10
31.071300
 20
37.886250
 30
0.0
 10
31.071300
 20
42.490000
 30
0.0
  0
LWPOLYLINE
  5
2aa
100
AcDbEntity
  8
0
 62
7
100
AcDbPolyline
 90
5
 70
1
 10
32.341300
 20
28.678750
 30
0.0
 10
32.341300
 20
28.678750
 30
0.0
 10
32.341300
 20
33.123750
 30
0.0
 10
32.341300
 20
33.123750
 30
0.0
 10
32.341300
 20
28.678750
 30
0.0
  0
LWPOLYLINE
  5
2ab
100
AcDbEntity
  8
0
 62
7
100
AcDbPolyline
 90
5
 70
1
 10
17.071300
 20
42.490000
 30
0.0
 10
17.071300
 20
42.490000
 30
0.0
 10
31.071300
 20
42.490000
 30
0.0
 10
31.071300
 20
42.490000
 30
0.0
 10
17.071300
 20
42.490000
 30
0.0
  0
LWPOLYLINE
  5
2ac
100
AcDbEntity
  8
0
 62
7
100
AcDbPolyline
 90
5
 70
1
 10
32.341300
 20
33.123750
 30
0.0
 10
32.341300
 20
33.123750
 30
0.0
 10
31.071300
 20
33.123750
 30
0.0
 10
31.071300
 20
33.123750
 30
0.0
 10
32.341300
 20
33.123750
 30
0.0
  0
LWPOLYLINE
  5
2ad
100
AcDbEntity
  8
0
 62
7
100
AcDbPolyline
 90
5
 70
1
 10
17.071300
 20
37.886250
 30
0.0
 10
17.071300
 20
37.886250
 30
0.0
 10
17.071300
 20
42.490000
 30
0.0
 10
17.071300
 20
42.490000
 30
0.0
 10
17.071300
 20
37.886250
 30
0.0
  0
LWPOLYLINE
  5
2ae
100
AcDbEntity
  8
0
 62
7
100
AcDbPolyline
 90
5
 70
1
 10
31.071300
 20
33.123750
 30
0.0
 10
31.071300
 20
33.123750
 30
0.0
 10
31.071300
 20
28.490000
 30
0.0
 10
31.071300
 20
28.490000
 30
0.0
 10
31.071300
 20
33.123750
 30
0.0
  0
LWPOLYLINE
  5
2af
100
AcDbEntity
  8
0
 62
7
100
AcDbPolyline
 90
5
 70
1
 10
15.801300
 20
37.886250
 30
0.0
 10
15.801300
 20
37.886250
 30
0.0
 10
17.071300
 20
37.886250
 30
0.0
 10
17.071300
 20
37.886250
 30
0.0
 10
15.801300
 20
37.886250
 30
0.0
  0
LWPOLYLINE
  5
2b0
100
AcDbEntity
  8
0
 62
7
100
AcDbPolyline
 90
5
 70
1
 10
31.071300
 20
28.490000
 30
0.0
 10
31.071300
 20
28.490000
 30
0.0
 10
17.071300
 20
28.490000
 30
0.0
 10
17.071300
 20
28.490000
 30
0.0
 10
31.071300
 20
28.490000
 30
0.0
  0
LWPOLYLINE
  5
2b1
100
AcDbEntity
  8
0
 62
7
100
AcDbPolyline
 90
5
 70
1
 10
15.801300
 20
41.061250
 30
0.0
 10
15.801300
 20
41.061250
 30
0.0
 10
15.801300
 20
37.886250
 30
0.0
 10
15.801300
 20
37.886250
 30
0.0
 10
15.801300
 20
41.061250
 30
0.0
  0
LWPOLYLINE
  5
2b2
100
AcDbEntity
  8
0
 62
7
100
AcDbPolyline
 90
5
 70
1
 10
17.071300
 20
28.490000
 30
0.0
 10
17.071300
 20
28.490000
 30
0.0
 10
17.071300
 20
33.123750
 30
0.0
 10
17.071300
 20
33.123750
 30
0.0
 10
17.071300
 20
28.490000
 30
0.0
  0
LWPOLYLINE
  5
2b3
100
AcDbEntity
  8
0
 62
7
100
AcDbPolyline
 90
5
 70
1
 10
8.498800
 20
41.061250
 30
0.0
 10
8.498800
 20
41.061250
 30
0.0
 10
15.801300
 20
41.061250
 30
0.0
 10
15.801300
 20
41.061250
 30
0.0
 10
8.498800
 20
41.061250
 30
0.0
  0
LWPOLYLINE
  5
2b4
100
AcDbEntity
  8
0
 62
7
100
AcDbPolyline
 90
5
 70
1
 10
17.071300
 20
33.123750
 30
0.0
 10
17.071300
 20
33.123750
 30
0.0
 10
15.801300
 20
33.123750
 30
0.0
 10
15.801300
 20
33.123750
 30
0.0
 10
17.071300
 20
33.123750
 30
0.0
  0
LWPOLYLINE
  5
2b5
100
AcDbEntity
  8
0
 62
7
100
AcDbPolyline
 90
5
 70
1
 10
8.498800
 20
37.806875
 30
0.0
 10
8.498800
 20
37.806875
 30
0.0
 10
8.498800
 20
41.061250
 30
0.0
 10
8.498800
 20
41.061250
 30
0.0
 10
8.498800
 20
37.806875
 30
0.0
  0
LWPOLYLINE
  5
2b6
100
AcDbEntity
  8
0
 62
7
100
AcDbPolyline
 90
5
 70
1
 10
15.801300
 20
33.123750
 30
0.0
 10
15.801300
 20
33.123750
 30
0.0
 10
15.801300
 20
28.678750
 30
0.0
 10
15.801300
 20
28.678750
 30
0.0
 10
15.801300
 20
33.123750
 30
0.0
  0
LWPOLYLINE
  5
2b7
100
AcDbEntity
  8
0
 62
7
100
AcDbPolyline
 90
5
 70
1
 10
7.705050
 20
37.806875
 30
0.0
 10
7.705050
 20
37.806875
 30
0.0
 10
8.498800
 20
37.806875
 30
0.0
 10
8.498800
 20
37.806875
 30
0.0
 10
7.705050
 20
37.806875
 30
0.0
  0
LWPOLYLINE
  5
2b8
100
AcDbEntity
  8
0
 62
7
100
AcDbPolyline
 90
5
 70
1
 10
15.801300
 20
28.678750
 30
0.0
 10
15.801300
 20
28.678750
 30
0.0
 10
13.896300
 20
28.678750
 30
0.0
 10
13.896300
 20
28.678750
 30
0.0
 10
15.801300
 20
28.678750
 30
0.0
  0
LWPOLYLINE
  5
2b9
100
AcDbEntity
  8
0
 62
7
100
AcDbPolyline
 90
5
 70
1
 10
7.705050
 20
34.949375
 30
0.0
 10
7.705050
 20
34.949375
 30
0.0
 10
7.705050
 20
37.806875
 30
0.0
 10
7.705050
 20
37.806875
 30
0.0
 10
7.705050
 20
34.949375
 30
0.0
  0
LWPOLYLINE
  5
2ba
100
AcDbEntity
  8
0
 62
7
100
AcDbPolyline
 90
5
 70
1
 10
13.896300
 20
28.678750
 30
0.0
 10
13.896300
 20
28.678750
 30
0.0
 10
13.896300
 20
27.408750
 30
0.0
 10
13.896300
 20
27.408750
 30
0.0
 10
13.896300
 20
28.678750
 30
0.0
  0
LWPOLYLINE
  5
2bb
100
AcDbEntity
  8
0
 62
7
100
AcDbPolyline
 90
5
 70
1
 10
8.498800
 20
34.949375
 30
0.0
 10
8.498800
 20
34.949375
 30
0.0
 10
7.705050
 20
34.949375
 30
0.0
 10
7.705050
 20
34.949375
 30
0.0
 10
8.498800
 20
34.949375
 30
0.0
  0
LWPOLYLINE
  5
2bc
100
AcDbEntity
  8
0
 62
7
100
AcDbPolyline
 90
5
 70
1
 10
13.896300
 20
27.408750
 30
0.0
 10
13.896300
 20
27.408750
 30
0.0
 10
10.403800
 20
27.408750
 30
0.0
 10
10.403800
 20
27.408750
 30
0.0
 10
13.896300
 20
27.408750
 30
0.0
  0
LWPOLYLINE
  5
2bd
100
AcDbEntity
  8
0
 62
7
100
AcDbPolyline
 90
5
 70
1
 10
8.498800
 20
28.678750
 30
0.0
 10
8.498800
 20
28.678750
 30
0.0
 10
8.498800
 20
34.949375
 30
0.0
 10
8.498800
 20
34.949375
 30
0.0
 10
8.498800
 20
28.678750
 30
0.0
  0
LWPOLYLINE
  5
2be
100
AcDbEntity
  8
0
 62
7
100
AcDbPolyline
 90
5
 70
1
 10
10.403800
 20
27.408750
 30
0.0
 10
10.403800
 20
27.408750
 30
0.0
 10
10.403800
 20
28.678750
 30
0.0
 10
10.403800
 20
28.678750
 30
0.0
 10
10.403800
 20
27.408750
 30
0.0
  0
SPLINE
  5
2bf
100
AcDbEntity
  8
0
 62
7
100
AcDbSpline
 70
8
 71
3
 72
8
 73
4
 74
0
 40
0
 40
0
 40
0
 40
0
 40
1
 40
1
 40
1
 40
1
 10
32.405625
 20
53.665000
 30
0.0
 10
32.051721
 20
53.665000
 30
0.0
 10
31.732664
 20
53.878187
 30
0.0
 10
31.597230
 20
54.205152
 30
0.0
  0
SPLINE
  5
2c0
100
AcDbEntity
  8
0
 62
7
100
AcDbSpline
 70
8
 71
3
 72
8
 73
4
 74
0
 40
0
 40
0
 40
0
 40
0
 40
1
 40
1
 40
1
 40
1
 10
31.597230
 20
54.205152
 30
0.0
 10
31.461797
 20
54.532117
 30
0.0
 10
31.536658
 20
54.908470
 30
0.0
 10
31.786907
 20
55.158718
 30
0.0
  0
SPLINE
  5
2c1
100
AcDbEntity
  8
0
 62
7
100
AcDbSpline
 70
8
 71
3
 72
8
 73
4
 74
0
 40
0
 40
0
 40
0
 40
0
 40
1
 40
1
 40
1
 40
1
 10
31.786907
 20
55.158718
 30
0.0
 10
32.037155
 20
55.408967
 30
0.0
 10
32.413508
 20
55.483828
 30
0.0
 10
32.740473
 20
55.348395
 30
0.0
  0
SPLINE
  5
2c2
100
AcDbEntity
  8
0
 62
7
100
AcDbSpline
 70
8
 71
3
 72
8
 73
4
 74
0
 40
0
 40
0
 40
0
 40
0
 40
1
 40
1
 40
1
 40
1
 10
32.740473
 20
55.348395
 30
0.0
 10
33.067438
 20
55.212961
 30
0.0
 10
33.280625
 20
54.893904
 30
0.0
 10
33.280625
 20
54.540000
 30
0.0
  0
SPLINE
  5
2c3
100
AcDbEntity
  8
0
 62
7
100
AcDbSpline
 70
8
 71
3
 72
8
 73
4
 74
0
 40
0
 40
0
 40
0
 40
0
 40
1
 40
1
 40
1
 40
1
 10
33.280625
 20
54.540000
 30
0.0
 10
33.280625
 20
54.056751
 30
0.0
 10
32.888874
 20
53.665000
 30
0.0
 10
32.405625
 20
53.665000
 30
0.0
  0
LWPOLYLINE
  5
2c4
100
AcDbEntity
  8
0
 62
7
100
AcDbPolyline
 90
5
 70
1
 10
10.403800
 20
28.678750
 30
0.0
 10
10.403800
 20
28.678750
 30
0.0
 10
8.498800
 20
28.678750
 30
0.0
 10
8.498800
 20
28.678750
 30
0.0
 10
10.403800
 20
28.678750
 30
0.0
  0
LWPOLYLINE
  5
2c5
100
AcDbEntity
  8
0
 62
7
100
AcDbPolyline
 90
1
 70
1
 10
32.405625
 20
53.665000
 30
0.0
  0
LWPOLYLINE
  5
2c6
100
AcDbEntity
  8
0
 62
7
100
AcDbPolyline
 90
5
 70
1
 10
304.915000
 20
61.540000
 30
0.0
 10
304.915000
 20
61.540000
 30
0.0
 10
290.915000
 20
61.540000
 30
0.0
 10
290.915000
 20
61.540000
 30
0.0
 10
304.915000
 20
61.540000
 30
0.0
  0
LWPOLYLINE
  5
2c7
100
AcDbEntity
  8
0
 62
7
100
AcDbPolyline
 90
5
 70
1
 10
290.915000
 20
61.540000
 30
0.0
 10
290.915000
 20
61.540000
 30
0.0
 10
290.915000
 20
47.540000
 30
0.0
 10
290.915000
 20
47.540000
 30
0.0
 10
290.915000
 20
61.540000
 30
0.0
  0
LWPOLYLINE
  5
2c8
100
AcDbEntity
  8
0
 62
7
100
AcDbPolyline
 90
5
 70
1
 10
304.915000
 20
47.540000
 30
0.0
 10
304.915000
 20
47.540000
 30
0.0
 10
304.915000
 20
61.540000
 30
0.0
 10
304.915000
 20
61.540000
 30
0.0
 10
304.915000
 20
47.540000
 30
0.0
  0
LWPOLYLINE
  5
2c9
100
AcDbEntity
  8
0
 62
7
100
AcDbPolyline
 90
5
 70
1
 10
290.915000
 20
47.540000
 30
0.0
 10
290.915000
 20
47.540000
 30
0.0
 10
304.915000
 20
47.540000
 30
0.0
 10
304.915000
 20
47.540000
 30
0.0
 10
290.915000
 20
47.540000
 30
0.0
  0
LWPOLYLINE
  5
2ca
100
AcDbEntity
  8
0
 62
7
100
AcDbPolyline
 90
5
 70
1
 10
243.002500
 20
61.540000
 30
0.0
 10
243.002500
 20
61.540000
 30
0.0
 10
229.002500
 20
61.540000
 30
0.0
 10
229.002500
 20
61.540000
 30
0.0
 10
243.002500
 20
61.540000
 30
0.0
  0
LWPOLYLINE
  5
2cb
100
AcDbEntity
  8
0
 62
7
100
AcDbPolyline
 90
5
 70
1
 10
229.002500
 20
61.540000
 30
0.0
 10
229.002500
 20
61.540000
 30
0.0
 10
229.002500
 20
47.540000
 30
0.0
 10
229.002500
 20
47.540000
 30
0.0
 10
229.002500
 20
61.540000
 30
0.0
  0
LWPOLYLINE
  5
2cc
100
AcDbEntity
  8
0
 62
7
100
AcDbPolyline
 90
5
 70
1
 10
243.002500
 20
47.540000
 30
0.0
 10
243.002500
 20
47.540000
 30
0.0
 10
243.002500
 20
61.540000
 30
0.0
 10
243.002500
 20
61.540000
 30
0.0
 10
243.002500
 20
47.540000
 30
0.0
  0
LWPOLYLINE
  5
2cd
100
AcDbEntity
  8
0
 62
7
100
AcDbPolyline
 90
5
 70
1
 10
229.002500
 20
47.540000
 30
0.0
 10
229.002500
 20
47.540000
 30
0.0
 10
243.002500
 20
47.540000
 30
0.0
 10
243.002500
 20
47.540000
 30
0.0
 10
229.002500
 20
47.540000
 30
0.0
  0
LWPOLYLINE
  5
2ce
100
AcDbEntity
  8
0
 62
7
100
AcDbPolyline
 90
5
 70
1
 10
304.915000
 20
80.590000
 30
0.0
 10
304.915000
 20
80.590000
 30
0.0
 10
290.915000
 20
80.590000
 30
0.0
 10
290.915000
 20
80.590000
 30
0.0
 10
304.915000
 20
80.590000
 30
0.0
  0
LWPOLYLINE
  5
2cf
100
AcDbEntity
  8
0
 62
7
100
AcDbPolyline
 90
5
 70
1
 10
290.915000
 20
80.590000
 30
0.0
 10
290.915000
 20
80.590000
 30
0.0
 10
290.915000
 20
66.590000
 30
0.0
 10
290.915000
 20
66.590000
 30
0.0
 10
290.915000
 20
80.590000
 30
0.0
  0
LWPOLYLINE
  5
2d0
100
AcDbEntity
  8
0
 62
7
100
AcDbPolyline
 90
5
 70
1
 10
304.915000
 20
66.590000
 30
0.0
 10
304.915000
 20
66.590000
 30
0.0
 10
304.915000
 20
80.590000
 30
0.0
 10
304.915000
 20
80.590000
 30
0.0
 10
304.915000
 20
66.590000
 30
0.0
  0
LWPOLYLINE
  5
2d1
100
AcDbEntity
  8
0
 62
7
100
AcDbPolyline
 90
5
 70
1
 10
290.915000
 20
66.590000
 30
0.0
 10
290.915000
 20
66.590000
 30
0.0
 10
304.915000
 20
66.590000
 30
0.0
 10
304.915000
 20
66.590000
 30
0.0
 10
290.915000
 20
66.590000
 30
0.0
  0
LWPOLYLINE
  5
2d2
100
AcDbEntity
  8
0
 62
7
100
AcDbPolyline
 90
5
 70
1
 10
281.102500
 20
80.590000
 30
0.0
 10
281.102500
 20
80.590000
 30
0.0
 10
267.102500
 20
80.590000
 30
0.0
 10
267.102500
 20
80.590000
 30
0.0
 10
281.102500
 20
80.590000
 30
0.0
  0
LWPOLYLINE
  5
2d3
100
AcDbEntity
  8
0
 62
7
100
AcDbPolyline
 90
5
 70
1
 10
267.102500
 20
80.590000
 30
0.0
 10
267.102500
 20
80.590000
 30
0.0
 10
267.102500
 20
66.590000
 30
0.0
 10
267.102500
 20
66.590000
 30
0.0
 10
267.102500
 20
80.590000
 30
0.0
  0
LWPOLYLINE
  5
2d4
100
AcDbEntity
  8
0
 62
7
100
AcDbPolyline
 90
5
 70
1
 10
281.102500
 20
66.590000
 30
0.0
 10
281.102500
 20
66.590000
 30
0.0
 10
281.102500
 20
80.590000
 30
0.0
 10
281.102500
 20
80.590000
 30
0.0
 10
281.102500
 20
66.590000
 30
0.0
  0
LWPOLYLINE
  5
2d5
100
AcDbEntity
  8
0
 62
7
100
AcDbPolyline
 90
5
 70
1
 10
267.102500
 20
66.590000
 30
0.0
 10
267.102500
 20
66.590000
 30
0.0
 10
281.102500
 20
66.590000
 30
0.0
 10
281.102500
 20
66.590000
 30
0.0
 10
267.102500
 20
66.590000
 30
0.0
  0
LWPOLYLINE
  5
2d6
100
AcDbEntity
  8
0
 62
7
100
AcDbPolyline
 90
5
 70
1
 10
257.290000
 20
80.590000
 30
0.0
 10
257.290000
 20
80.590000
 30
0.0
 10
243.290000
 20
80.590000
 30
0.0
 10
243.290000
 20
80.590000
 30
0.0
 10
257.290000
 20
80.590000
 30
0.0
  0
LWPOLYLINE
  5
2d7
100
AcDbEntity
  8
0
 62
7
100
AcDbPolyline
 90
5
 70
1
 10
243.290000
 20
80.590000
 30
0.0
 10
243.290000
 20
80.590000
 30
0.0
 10
243.290000
 20
66.590000
 30
0.0
 10
243.290000
 20
66.590000
 30
0.0
 10
243.290000
 20
80.590000
 30
0.0
  0
LWPOLYLINE
  5
2d8
100
AcDbEntity
  8
0
 62
7
100
AcDbPolyline
 90
5
 70
1
 10
257.290000
 20
66.590000
 30
0.0
 10
257.290000
 20
66.590000
 30
0.0
 10
257.290000
 20
80.590000
 30
0.0
 10
257.290000
 20
80.590000
 30
0.0
 10
257.290000
 20
66.590000
 30
0.0
  0
LWPOLYLINE
  5
2d9
100
AcDbEntity
  8
0
 62
7
100
AcDbPolyline
 90
5
 70
1
 10
243.290000
 20
66.590000
 30
0.0
 10
243.290000
 20
66.590000
 30
0.0
 10
257.290000
 20
66.590000
 30
0.0
 10
257.290000
 20
66.590000
 30
0.0
 10
243.290000
 20
66.590000
 30
0.0
  0
LWPOLYLINE
  5
2da
100
AcDbEntity
  8
0
 62
7
100
AcDbPolyline
 90
5
 70
1
 10
238.240000
 20
80.590000
 30
0.0
 10
238.240000
 20
80.590000
 30
0.0
 10
224.240000
 20
80.590000
 30
0.0
 10
224.240000
 20
80.590000
 30
0.0
 10
238.240000
 20
80.590000
 30
0.0
  0
LWPOLYLINE
  5
2db
100
AcDbEntity
  8
0
 62
7
100
AcDbPolyline
 90
5
 70
1
 10
224.240000
 20
80.590000
 30
0.0
 10
224.240000
 20
80.590000
 30
0.0
 10
224.240000
 20
66.590000
 30
0.0
 10
224.240000
 20
66.590000
 30
0.0
 10
224.240000
 20
80.590000
 30
0.0
  0
LWPOLYLINE
  5
2dc
100
AcDbEntity
  8
0
 62
7
100
AcDbPolyline
 90
5
 70
1
 10
238.240000
 20
66.590000
 30
0.0
 10
238.240000
 20
66.590000
 30
0.0
 10
238.240000
 20
80.590000
 30
0.0
 10
238.240000
 20
80.590000
 30
0.0
 10
238.240000
 20
66.590000
 30
0.0
  0
LWPOLYLINE
  5
2dd
100
AcDbEntity
  8
0
 62
7
100
AcDbPolyline
 90
5
 70
1
 10
224.240000
 20
66.590000
 30
0.0
 10
224.240000
 20
66.590000
 30
0.0
 10
238.240000
 20
66.590000
 30
0.0
 10
238.240000
 20
66.590000
 30
0.0
 10
224.240000
 20
66.590000
 30
0.0
  0
LWPOLYLINE
  5
2de
100
AcDbEntity
  8
0
 62
7
100
AcDbPolyline
 90
5
 70
1
 10
223.952500
 20
61.540000
 30
0.0
 10
223.952500
 20
61.540000
 30
0.0
 10
209.952500
 20
61.540000
 30
0.0
 10
209.952500
 20
61.540000
 30
0.0
 10
223.952500
 20
61.540000
 30
0.0
  0
LWPOLYLINE
  5
2df
100
AcDbEntity
  8
0
 62
7
100
AcDbPolyline
 90
5
 70
1
 10
209.952500
 20
61.540000
 30
0.0
 10
209.952500
 20
61.540000
 30
0.0
 10
209.952500
 20
47.540000
 30
0.0
 10
209.952500
 20
47.540000
 30
0.0
 10
209.952500
 20
61.540000
 30
0.0
  0
LWPOLYLINE
  5
2e0
100
AcDbEntity
  8
0
 62
7
100
AcDbPolyline
 90
5
 70
1
 10
223.952500
 20
47.540000
 30
0.0
 10
223.952500
 20
47.540000
 30
0.0
 10
223.952500
 20
61.540000
 30
0.0
 10
223.952500
 20
61.540000
 30
0.0
 10
223.952500
 20
47.540000
 30
0.0
  0
LWPOLYLINE
  5
2e1
100
AcDbEntity
  8
0
 62
7
100
AcDbPolyline
 90
5
 70
1
 10
209.952500
 20
47.540000
 30
0.0
 10
209.952500
 20
47.540000
 30
0.0
 10
223.952500
 20
47.540000
 30
0.0
 10
223.952500
 20
47.540000
 30
0.0
 10
209.952500
 20
47.540000
 30
0.0
  0
LWPOLYLINE
  5
2e2
100
AcDbEntity
  8
0
 62
7
100
AcDbPolyline
 90
5
 70
1
 10
204.902500
 20
61.540000
 30
0.0
 10
204.902500
 20
61.540000
 30
0.0
 10
190.902500
 20
61.540000
 30
0.0
 10
190.902500
 20
61.540000
 30
0.0
 10
204.902500
 20
61.540000
 30
0.0
  0
LWPOLYLINE
  5
2e3
100
AcDbEntity
  8
0
 62
7
100
AcDbPolyline
 90
5
 70
1
 10
190.902500
 20
61.540000
 30
0.0
 10
190.902500
 20
61.540000
 30
0.0
 10
190.902500
 20
47.540000
 30
0.0
 10
190.902500
 20
47.540000
 30
0.0
 10
190.902500
 20
61.540000
 30
0.0
  0
LWPOLYLINE
  5
2e4
100
AcDbEntity
  8
0
 62
7
100
AcDbPolyline
 90
5
 70
1
 10
204.902500
 20
47.540000
 30
0.0
 10
204.902500
 20
47.540000
 30
0.0
 10
204.902500
 20
61.540000
 30
0.0
 10
204.902500
 20
61.540000
 30
0.0
 10
204.902500
 20
47.540000
 30
0.0
  0
LWPOLYLINE
  5
2e5
100
AcDbEntity
  8
0
 62
7
100
AcDbPolyline
 90
5
 70
1
 10
190.902500
 20
47.540000
 30
0.0
 10
190.902500
 20
47.540000
 30
0.0
 10
204.902500
 20
47.540000
 30
0.0
 10
204.902500
 20
47.540000
 30
0.0
 10
190.902500
 20
47.540000
 30
0.0
  0
LWPOLYLINE
  5
2e6
100
AcDbEntity
  8
0
 62
7
100
AcDbPolyline
 90
5
 70
1
 10
185.852500
 20
61.540000
 30
0.0
 10
185.852500
 20
61.540000
 30
0.0
 10
171.852500
 20
61.540000
 30
0.0
 10
171.852500
 20
61.540000
 30
0.0
 10
185.852500
 20
61.540000
 30
0.0
  0
LWPOLYLINE
  5
2e7
100
AcDbEntity
  8
0
 62
7
100
AcDbPolyline
 90
5
 70
1
 10
171.852500
 20
61.540000
 30
0.0
 10
171.852500
 20
61.540000
 30
0.0
 10
171.852500
 20
47.540000
 30
0.0
 10
171.852500
 20
47.540000
 30
0.0
 10
171.852500
 20
61.540000
 30
0.0
  0
LWPOLYLINE
  5
2e8
100
AcDbEntity
  8
0
 62
7
100
AcDbPolyline
 90
5
 70
1
 10
185.852500
 20
47.540000
 30
0.0
 10
185.852500
 20
47.540000
 30
0.0
 10
185.852500
 20
61.540000
 30
0.0
 10
185.852500
 20
61.540000
 30
0.0
 10
185.852500
 20
47.540000
 30
0.0
  0
LWPOLYLINE
  5
2e9
100
AcDbEntity
  8
0
 62
7
100
AcDbPolyline
 90
5
 70
1
 10
171.852500
 20
47.540000
 30
0.0
 10
171.852500
 20
47.540000
 30
0.0
 10
185.852500
 20
47.540000
 30
0.0
 10
185.852500
 20
47.540000
 30
0.0
 10
171.852500
 20
47.540000
 30
0.0
  0
LWPOLYLINE
  5
2ea
100
AcDbEntity
  8
0
 62
7
100
AcDbPolyline
 90
5
 70
1
 10
166.802500
 20
61.540000
 30
0.0
 10
166.802500
 20
61.540000
 30
0.0
 10
152.802500
 20
61.540000
 30
0.0
 10
152.802500
 20
61.540000
 30
0.0
 10
166.802500
 20
61.540000
 30
0.0
  0
LWPOLYLINE
  5
2eb
100
AcDbEntity
  8
0
 62
7
100
AcDbPolyline
 90
5
 70
1
 10
152.802500
 20
61.540000
 30
0.0
 10
152.802500
 20
61.540000
 30
0.0
 10
152.802500
 20
47.540000
 30
0.0
 10
152.802500
 20
47.540000
 30
0.0
 10
152.802500
 20
61.540000
 30
0.0
  0
LWPOLYLINE
  5
2ec
100
AcDbEntity
  8
0
 62
7
100
AcDbPolyline
 90
5
 70
1
 10
166.802500
 20
47.540000
 30
0.0
 10
166.802500
 20
47.540000
 30
0.0
 10
166.802500
 20
61.540000
 30
0.0
 10
166.802500
 20
61.540000
 30
0.0
 10
166.802500
 20
47.540000
 30
0.0
  0
LWPOLYLINE
  5
2ed
100
AcDbEntity
  8
0
 62
7
100
AcDbPolyline
 90
5
 70
1
 10
152.802500
 20
47.540000
 30
0.0
 10
152.802500
 20
47.540000
 30
0.0
 10
166.802500
 20
47.540000
 30
0.0
 10
166.802500
 20
47.540000
 30
0.0
 10
152.802500
 20
47.540000
 30
0.0
  0
LWPOLYLINE
  5
2ee
100
AcDbEntity
  8
0
 62
7
100
AcDbPolyline
 90
5
 70
1
 10
219.190000
 20
80.590000
 30
0.0
 10
219.190000
 20
80.590000
 30
0.0
 10
205.190000
 20
80.590000
 30
0.0
 10
205.190000
 20
80.590000
 30
0.0
 10
219.190000
 20
80.590000
 30
0.0
  0
LWPOLYLINE
  5
2ef
100
AcDbEntity
  8
0
 62
7
100
AcDbPolyline
 90
5
 70
1
 10
205.190000
 20
80.590000
 30
0.0
 10
205.190000
 20
80.590000
 30
0.0
 10
205.190000
 20
66.590000
 30
0.0
 10
205.190000
 20
66.590000
 30
0.0
 10
205.190000
 20
80.590000
 30
0.0
  0
LWPOLYLINE
  5
2f0
100
AcDbEntity
  8
0
 62
7
100
AcDbPolyline
 90
5
 70
1
 10
219.190000
 20
66.590000
 30
0.0
 10
219.190000
 20
66.590000
 30
0.0
 10
219.190000
 20
80.590000
 30
0.0
 10
219.190000
 20
80.590000
 30
0.0
 10
219.190000
 20
66.590000
 30
0.0
  0
LWPOLYLINE
  5
2f1
100
AcDbEntity
  8
0
 62
7
100
AcDbPolyline
 90
5
 70
1
 10
205.190000
 20
66.590000
 30
0.0
 10
205.190000
 20
66.590000
 30
0.0
 10
219.190000
 20
66.590000
 30
0.0
 10
219.190000
 20
66.590000
 30
0.0
 10
205.190000
 20
66.590000
 30
0.0
  0
LWPOLYLINE
  5
2f2
100
AcDbEntity
  8
0
 62
7
100
AcDbPolyline
 90
5
 70
1
 10
200.140000
 20
80.590000
 30
0.0
 10
200.140000
 20
80.590000
 30
0.0
 10
186.140000
 20
80.590000
 30
0.0
 10
186.140000
 20
80.590000
 30
0.0
 10
200.140000
 20
80.590000
 30
0.0
  0
LWPOLYLINE
  5
2f3
100
AcDbEntity
  8
0
 62
7
100
AcDbPolyline
 90
5
 70
1
 10
186.140000
 20
80.590000
 30
0.0
 10
186.140000
 20
80.590000
 30
0.0
 10
186.140000
 20
66.590000
 30
0.0
 10
186.140000
 20
66.590000
 30
0.0
 10
186.140000
 20
80.590000
 30
0.0
  0
LWPOLYLINE
  5
2f4
100
AcDbEntity
  8
0
 62
7
100
AcDbPolyline
 90
5
 70
1
 10
200.140000
 20
66.590000
 30
0.0
 10
200.140000
 20
66.590000
 30
0.0
 10
200.140000
 20
80.590000
 30
0.0
 10
200.140000
 20
80.590000
 30
0.0
 10
200.140000
 20
66.590000
 30
0.0
  0
LWPOLYLINE
  5
2f5
100
AcDbEntity
  8
0
 62
7
100
AcDbPolyline
 90
5
 70
1
 10
186.140000
 20
66.590000
 30
0.0
 10
186.140000
 20
66.590000
 30
0.0
 10
200.140000
 20
66.590000
 30
0.0
 10
200.140000
 20
66.590000
 30
0.0
 10
186.140000
 20
66.590000
 30
0.0
  0
LWPOLYLINE
  5
2f6
100
AcDbEntity
  8
0
 62
7
100
AcDbPolyline
 90
5
 70
1
 10
181.090000
 20
80.590000
 30
0.0
 10
181.090000
 20
80.590000
 30
0.0
 10
167.090000
 20
80.590000
 30
0.0
 10
167.090000
 20
80.590000
 30
0.0
 10
181.090000
 20
80.590000
 30
0.0
  0
LWPOLYLINE
  5
2f7
100
AcDbEntity
  8
0
 62
7
100
AcDbPolyline
 90
5
 70
1
 10
167.090000
 20
80.590000
 30
0.0
 10
167.090000
 20
80.590000
 30
0.0
 10
167.090000
 20
66.590000
 30
0.0
 10
167.090000
 20
66.590000
 30
0.0
 10
167.090000
 20
80.590000
 30
0.0
  0
LWPOLYLINE
  5
2f8
100
AcDbEntity
  8
0
 62
7
100
AcDbPolyline
 90
5
 70
1
 10
181.090000
 20
66.590000
 30
0.0
 10
181.090000
 20
66.590000
 30
0.0
 10
181.090000
 20
80.590000
 30
0.0
 10
181.090000
 20
80.590000
 30
0.0
 10
181.090000
 20
66.590000
 30
0.0
  0
LWPOLYLINE
  5
2f9
100
AcDbEntity
  8
0
 62
7
100
AcDbPolyline
 90
5
 70
1
 10
167.090000
 20
66.590000
 30
0.0
 10
167.090000
 20
66.590000
 30
0.0
 10
181.090000
 20
66.590000
 30
0.0
 10
181.090000
 20
66.590000
 30
0.0
 10
167.090000
 20
66.590000
 30
0.0
  0
LWPOLYLINE
  5
2fa
100
AcDbEntity
  8
0
 62
7
100
AcDbPolyline
 90
5
 70
1
 10
304.915000
 20
99.640000
 30
0.0
 10
304.915000
 20
99.640000
 30
0.0
 10
290.915000
 20
99.640000
 30
0.0
 10
290.915000
 20
99.640000
 30
0.0
 10
304.915000
 20
99.640000
 30
0.0
  0
LWPOLYLINE
  5
2fb
100
AcDbEntity
  8
0
 62
7
100
AcDbPolyline
 90
5
 70
1
 10
290.915000
 20
99.640000
 30
0.0
 10
290.915000
 20
99.640000
 30
0.0
 10
290.915000
 20
85.640000
 30
0.0
 10
290.915000
 20
85.640000
 30
0.0
 10
290.915000
 20
99.640000
 30
0.0
  0
LWPOLYLINE
  5
2fc
100
AcDbEntity
  8
0
 62
7
100
AcDbPolyline
 90
5
 70
1
 10
304.915000
 20
85.640000
 30
0.0
 10
304.915000
 20
85.640000
 30
0.0
 10
304.915000
 20
99.640000
 30
0.0
 10
304.915000
 20
99.640000
 30
0.0
 10
304.915000
 20
85.640000
 30
0.0
  0
SPLINE
  5
2fd
100
AcDbEntity
  8
0
 62
7
100
AcDbSpline
 70
8
 71
3
 72
8
 73
4
 74
0
 40
0
 40
0
 40
0
 40
0
 40
1
 40
1
 40
1
 40
1
 10
288.390000
 20
91.765000
 30
0.0
 10
288.036096
 20
91.765000
 30
0.0
 10
287.717039
 20
91.978187
 30
0.0
 10
287.581605
 20
92.305152
 30
0.0
  0
SPLINE
  5
2fe
100
AcDbEntity
  8
0
 62
7
100
AcDbSpline
 70
8
 71
3
 72
8
 73
4
 74
0
 40
0
 40
0
 40
0
 40
0
 40
1
 40
1
 40
1
 40
1
 10
287.581605
 20
92.305152
 30
0.0
 10
287.446172
 20
92.632117
 30
0.0
 10
287.521033
 20
93.008470
 30
0.0
 10
287.771282
 20
93.258718
 30
0.0
  0
SPLINE
  5
2ff
100
AcDbEntity
  8
0
 62
7
100
AcDbSpline
 70
8
 71
3
 72
8
 73
4
 74
0
 40
0
 40
0
 40
0
 40
0
 40
1
 40
1
 40
1
 40
1
 10
287.771282
 20
93.258718
 30
0.0
 10
288.021530
 20
93.508967
 30
0.0
 10
288.397883
 20
93.583828
 30
0.0
 10
288.724848
 20
93.448395
 30
0.0
  0
SPLINE
  5
300
100
AcDbEntity
  8
0
 62
7
100
AcDbSpline
 70
8
 71
3
 72
8
 73
4
 74
0
 40
0
 40
0
 40
0
 40
0
 40
1
 40
1
 40
1
 40
1
 10
288.724848
 20
93.448395
 30
0.0
 10
289.051813
 20
93.312961
 30
0.0
 10
289.265000
 20
92.993904
 30
0.0
 10
289.265000
 20
92.640000
 30
0.0
  0
SPLINE
  5
301
100
AcDbEntity
  8
0
 62
7
100
AcDbSpline
 70
8
 71
3
 72
8
 73
4
 74
0
 40
0
 40
0
 40
0
 40
0
 40
1
 40
1
 40
1
 40
1
 10
289.265000
 20
92.640000
 30
0.0
 10
289.265000
 20
92.407936
 30
0.0
 10
289.172813
 20
92.185376
 30
0.0
 10
289.008718
 20
92.021282
 30
0.0
  0
SPLINE
  5
302
100
AcDbEntity
  8
0
 62
7
100
AcDbSpline
 70
8
 71
3
 72
8
 73
4
 74
0
 40
0
 40
0
 40
0
 40
0
 40
1
 40
1
 40
1
 40
1
 10
289.008718
 20
92.021282
 30
0.0
 10
288.844624
 20
91.857187
 30
0.0
 10
288.622064
 20
91.765000
 30
0.0
 10
288.390000
 20
91.765000
 30
0.0
  0
LWPOLYLINE
  5
303
100
AcDbEntity
  8
0
 62
7
100
AcDbPolyline
 90
5
 70
1
 10
290.915000
 20
85.640000
 30
0.0
 10
290.915000
 20
85.640000
 30
0.0
 10
304.915000
 20
85.640000
 30
0.0
 10
304.915000
 20
85.640000
 30
0.0
 10
290.915000
 20
85.640000
 30
0.0
  0
LWPOLYLINE
  5
304
100
AcDbEntity
  8
0
 62
7
100
AcDbPolyline
 90
1
 70
1
 10
288.390000
 20
91.765000
 30
0.0
  0
LWPOLYLINE
  5
305
100
AcDbEntity
  8
0
 62
7
100
AcDbPolyline
 90
5
 70
1
 10
285.706250
 20
92.099375
 30
0.0
 10
285.706250
 20
92.099375
 30
0.0
 10
284.912500
 20
92.099375
 30
0.0
 10
284.912500
 20
92.099375
 30
0.0
 10
285.706250
 20
92.099375
 30
0.0
  0
LWPOLYLINE
  5
306
100
AcDbEntity
  8
0
 62
7
100
AcDbPolyline
 90
5
 70
1
 10
285.706250
 20
94.956875
 30
0.0
 10
285.706250
 20
94.956875
 30
0.0
 10
285.706250
 20
92.099375
 30
0.0
 10
285.706250
 20
92.099375
 30
0.0
 10
285.706250
 20
94.956875
 30
0.0
  0
LWPOLYLINE
  5
307
100
AcDbEntity
  8
0
 62
7
100
AcDbPolyline
 90
5
 70
1
 10
284.912500
 20
92.099375
 30
0.0
 10
284.912500
 20
92.099375
 30
0.0
 10
284.912500
 20
85.828750
 30
0.0
 10
284.912500
 20
85.828750
 30
0.0
 10
284.912500
 20
92.099375
 30
0.0
  0
LWPOLYLINE
  5
308
100
AcDbEntity
  8
0
 62
7
100
AcDbPolyline
 90
5
 70
1
 10
284.912500
 20
94.956875
 30
0.0
 10
284.912500
 20
94.956875
 30
0.0
 10
285.706250
 20
94.956875
 30
0.0
 10
285.706250
 20
94.956875
 30
0.0
 10
284.912500
 20
94.956875
 30
0.0
  0
LWPOLYLINE
  5
309
100
AcDbEntity
  8
0
 62
7
100
AcDbPolyline
 90
5
 70
1
 10
284.912500
 20
85.828750
 30
0.0
 10
284.912500
 20
85.828750
 30
0.0
 10
283.007500
 20
85.828750
 30
0.0
 10
283.007500
 20
85.828750
 30
0.0
 10
284.912500
 20
85.828750
 30
0.0
  0
LWPOLYLINE
  5
30a
100
AcDbEntity
  8
0
 62
7
100
AcDbPolyline
 90
5
 70
1
 10
284.912500
 20
98.211250
 30
0.0
 10
284.912500
 20
98.211250
 30
0.0
 10
284.912500
 20
94.956875
 30
0.0
 10
284.912500
 20
94.956875
 30
0.0
 10
284.912500
 20
98.211250
 30
0.0
  0
LWPOLYLINE
  5
30b
100
AcDbEntity
  8
0
 62
7
100
AcDbPolyline
 90
5
 70
1
 10
283.007500
 20
85.828750
 30
0.0
 10
283.007500
 20
85.828750
 30
0.0
 10
283.007500
 20
84.558750
 30
0.0
 10
283.007500
 20
84.558750
 30
0.0
 10
283.007500
 20
85.828750
 30
0.0
  0
LWPOLYLINE
  5
30c
100
AcDbEntity
  8
0
 62
7
100
AcDbPolyline
 90
5
 70
1
 10
277.610000
 20
98.211250
 30
0.0
 10
277.610000
 20
98.211250
 30
0.0
 10
284.912500
 20
98.211250
 30
0.0
 10
284.912500
 20
98.211250
 30
0.0
 10
277.610000
 20
98.211250
 30
0.0
  0
LWPOLYLINE
  5
30d
100
AcDbEntity
  8
0
 62
7
100
AcDbPolyline
 90
5
 70
1
 10
283.007500
 20
84.558750
 30
0.0
 10
283.007500
 20
84.558750
 30
0.0
 10
279.515000
 20
84.558750
 30
0.0
 10
279.515000
 20
84.558750
 30
0.0
 10
283.007500
 20
84.558750
 30
0.0
  0
LWPOLYLINE
  5
30e
100
AcDbEntity
  8
0
 62
7
100
AcDbPolyline
 90
5
 70
1
 10
277.610000
 20
95.036250
 30
0.0
 10
277.610000
 20
95.036250
 30
0.0
 10
277.610000
 20
98.211250
 30
0.0
 10
277.610000
 20
98.211250
 30
0.0
 10
277.610000
 20
95.036250
 30
0.0
  0
LWPOLYLINE
  5
30f
100
AcDbEntity
  8
0
 62
7
100
AcDbPolyline
 90
5
 70
1
 10
279.515000
 20
84.558750
 30
0.0
 10
279.515000
 20
84.558750
 30
0.0
 10
279.515000
 20
85.828750
 30
0.0
 10
279.515000
 20
85.828750
 30
0.0
 10
279.515000
 20
84.558750
 30
0.0
  0
LWPOLYLINE
  5
310
100
AcDbEntity
  8
0
 62
7
100
AcDbPolyline
 90
5
 70
1
 10
276.340000
 20
95.036250
 30
0.0
 10
276.340000
 20
95.036250
 30
0.0
 10
277.610000
 20
95.036250
 30
0.0
 10
277.610000
 20
95.036250
 30
0.0
 10
276.340000
 20
95.036250
 30
0.0
  0
LWPOLYLINE
  5
311
100
AcDbEntity
  8
0
 62
7
100
AcDbPolyline
 90
5
 70
1
 10
279.515000
 20
85.828750
 30
0.0
 10
279.515000
 20
85.828750
 30
0.0
 10
277.610000
 20
85.828750
 30
0.0
 10
277.610000
 20
85.828750
 30
0.0
 10
279.515000
 20
85.828750
 30
0.0
  0
LWPOLYLINE
  5
312
100
AcDbEntity
  8
0
 62
7
100
AcDbPolyline
 90
5
 70
1
 10
276.340000
 20
99.640000
 30
0.0
 10
276.340000
 20
99.640000
 30
0.0
 10
276.340000
 20
95.036250
 30
0.0
 10
276.340000
 20
95.036250
 30
0.0
 10
276.340000
 20
99.640000
 30
0.0
  0
LWPOLYLINE
  5
313
100
AcDbEntity
  8
0
 62
7
100
AcDbPolyline
 90
5
 70
1
 10
277.610000
 20
85.828750
 30
0.0
 10
277.610000
 20
85.828750
 30
0.0
 10
277.610000
 20
90.273750
 30
0.0
 10
277.610000
 20
90.273750
 30
0.0
 10
277.610000
 20
85.828750
 30
0.0
  0
LWPOLYLINE
  5
314
100
AcDbEntity
  8
0
 62
7
100
AcDbPolyline
 90
5
 70
1
 10
262.340000
 20
99.640000
 30
0.0
 10
262.340000
 20
99.640000
 30
0.0
 10
276.340000
 20
99.640000
 30
0.0
 10
276.340000
 20
99.640000
 30
0.0
 10
262.340000
 20
99.640000
 30
0.0
  0
LWPOLYLINE
  5
315
100
AcDbEntity
  8
0
 62
7
100
AcDbPolyline
 90
5
 70
1
 10
277.610000
 20
90.273750
 30
0.0
 10
277.610000
 20
90.273750
 30
0.0
 10
276.340000
 20
90.273750
 30
0.0
 10
276.340000
 20
90.273750
 30
0.0
 10
277.610000
 20
90.273750
 30
0.0
  0
LWPOLYLINE
  5
316
100
AcDbEntity
  8
0
 62
7
100
AcDbPolyline
 90
5
 70
1
 10
262.340000
 20
95.036250
 30
0.0
 10
262.340000
 20
95.036250
 30
0.0
 10
262.340000
 20
99.640000
 30
0.0
 10
262.340000
 20
99.640000
 30
0.0
 10
262.340000
 20
95.036250
 30
0.0
  0
LWPOLYLINE
  5
317
100
AcDbEntity
  8
0
 62
7
100
AcDbPolyline
 90
5
 70
1
 10
276.340000
 20
90.273750
 30
0.0
 10
276.340000
 20
90.273750
 30
0.0
 10
276.340000
 20
85.640000
 30
0.0
 10
276.340000
 20
85.640000
 30
0.0
 10
276.340000
 20
90.273750
 30
0.0
  0
LWPOLYLINE
  5
318
100
AcDbEntity
  8
0
 62
7
100
AcDbPolyline
 90
5
 70
1
 10
261.070000
 20
95.036250
 30
0.0
 10
261.070000
 20
95.036250
 30
0.0
 10
262.340000
 20
95.036250
 30
0.0
 10
262.340000
 20
95.036250
 30
0.0
 10
261.070000
 20
95.036250
 30
0.0
  0
LWPOLYLINE
  5
319
100
AcDbEntity
  8
0
 62
7
100
AcDbPolyline
 90
5
 70
1
 10
276.340000
 20
85.640000
 30
0.0
 10
276.340000
 20
85.640000
 30
0.0
 10
262.340000
 20
85.640000
 30
0.0
 10
262.340000
 20
85.640000
 30
0.0
 10
276.340000
 20
85.640000
 30
0.0
  0
LWPOLYLINE
  5
31a
100
AcDbEntity
  8
0
 62
7
100
AcDbPolyline
 90
5
 70
1
 10
261.070000
 20
98.211250
 30
0.0
 10
261.070000
 20
98.211250
 30
0.0
 10
261.070000
 20
95.036250
 30
0.0
 10
261.070000
 20
95.036250
 30
0.0
 10
261.070000
 20
98.211250
 30
0.0
  0
LWPOLYLINE
  5
31b
100
AcDbEntity
  8
0
 62
7
100
AcDbPolyline
 90
5
 70
1
 10
262.340000
 20
85.640000
 30
0.0
 10
262.340000
 20
85.640000
 30
0.0
 10
262.340000
 20
90.273750
 30
0.0
 10
262.340000
 20
90.273750
 30
0.0
 10
262.340000
 20
85.640000
 30
0.0
  0
LWPOLYLINE
  5
31c
100
AcDbEntity
  8
0
 62
7
100
AcDbPolyline
 90
5
 70
1
 10
253.767500
 20
98.211250
 30
0.0
 10
253.767500
 20
98.211250
 30
0.0
 10
261.070000
 20
98.211250
 30
0.0
 10
261.070000
 20
98.211250
 30
0.0
 10
253.767500
 20
98.211250
 30
0.0
  0
LWPOLYLINE
  5
31d
100
AcDbEntity
  8
0
 62
7
100
AcDbPolyline
 90
5
 70
1
 10
262.340000
 20
90.273750
 30
0.0
 10
262.340000
 20
90.273750
 30
0.0
 10
261.070000
 20
90.273750
 30
0.0
 10
261.070000
 20
90.273750
 30
0.0
 10
262.340000
 20
90.273750
 30
0.0
  0
LWPOLYLINE
  5
31e
100
AcDbEntity
  8
0
 62
7
100
AcDbPolyline
 90
5
 70
1
 10
253.767500
 20
94.956875
 30
0.0
 10
253.767500
 20
94.956875
 30
0.0
 10
253.767500
 20
98.211250
 30
0.0
 10
253.767500
 20
98.211250
 30
0.0
 10
253.767500
 20
94.956875
 30
0.0
  0
LWPOLYLINE
  5
31f
100
AcDbEntity
  8
0
 62
7
100
AcDbPolyline
 90
5
 70
1
 10
261.070000
 20
90.273750
 30
0.0
 10
261.070000
 20
90.273750
 30
0.0
 10
261.070000
 20
85.828750
 30
0.0
 10
261.070000
 20
85.828750
 30
0.0
 10
261.070000
 20
90.273750
 30
0.0
  0
LWPOLYLINE
  5
320
100
AcDbEntity
  8
0
 62
7
100
AcDbPolyline
 90
5
 70
1
 10
252.973750
 20
94.956875
 30
0.0
 10
252.973750
 20
94.956875
 30
0.0
 10
253.767500
 20
94.956875
 30
0.0
 10
253.767500
 20
94.956875
 30
0.0
 10
252.973750
 20
94.956875
 30
0.0
  0
LWPOLYLINE
  5
321
100
AcDbEntity
  8
0
 62
7
100
AcDbPolyline
 90
5
 70
1
 10
261.070000
 20
85.828750
 30
0.0
 10
261.070000
 20
85.828750
 30
0.0
 10
259.165000
 20
85.828750
 30
0.0
 10
259.165000
 20
85.828750
 30
0.0
 10
261.070000
 20
85.828750
 30
0.0
  0
LWPOLYLINE
  5
322
100
AcDbEntity
  8
0
 62
7
100
AcDbPolyline
 90
5
 70
1
 10
252.973750
 20
92.099375
 30
0.0
 10
252.973750
 20
92.099375
 30
0.0
 10
252.973750
 20
94.956875
 30
0.0
 10
252.973750
 20
94.956875
 30
0.0
 10
252.973750
 20
92.099375
 30
0.0
  0
LWPOLYLINE
  5
323
100
AcDbEntity
  8
0
 62
7
100
AcDbPolyline
 90
5
 70
1
 10
259.165000
 20
85.828750
 30
0.0
 10
259.165000
 20
85.828750
 30
0.0
 10
259.165000
 20
84.558750
 30
0.0
 10
259.165000
 20
84.558750
 30
0.0
 10
259.165000
 20
85.828750
 30
0.0
  0
LWPOLYLINE
  5
324
100
AcDbEntity
  8
0
 62
7
100
AcDbPolyline
 90
5
 70
1
 10
253.767500
 20
92.099375
 30
0.0
 10
253.767500
 20
92.099375
 30
0.0
 10
252.973750
 20
92.099375
 30
0.0
 10
252.973750
 20
92.099375
 30
0.0
 10
253.767500
 20
92.099375
 30
0.0
  0
LWPOLYLINE
  5
325
100
AcDbEntity
  8
0
 62
7
100
AcDbPolyline
 90
5
 70
1
 10
259.165000
 20
84.558750
 30
0.0
 10
259.165000
 20
84.558750
 30
0.0
 10
255.672500
 20
84.558750
 30
0.0
 10
255.672500
 20
84.558750
 30
0.0
 10
259.165000
 20
84.558750
 30
0.0
  0
LWPOLYLINE
  5
326
100
AcDbEntity
  8
0
 62
7
100
AcDbPolyline
 90
5
 70
1
 10
253.767500
 20
85.828750
 30
0.0
 10
253.767500
 20
85.828750
 30
0.0
 10
253.767500
 20
92.099375
 30
0.0
 10
253.767500
 20
92.099375
 30
0.0
 10
253.767500
 20
85.828750
 30
0.0
  0
LWPOLYLINE
  5
327
100
AcDbEntity
  8
0
 62
7
100
AcDbPolyline
 90
5
 70
1
 10
255.672500
 20
84.558750
 30
0.0
 10
255.672500
 20
84.558750
 30
0.0
 10
255.672500
 20
85.828750
 30
0.0
 10
255.672500
 20
85.828750
 30
0.0
 10
255.672500
 20
84.558750
 30
0.0
  0
LWPOLYLINE
  5
328
100
AcDbEntity
  8
0
 62
7
100
AcDbPolyline
 90
5
 70
1
 10
255.672500
 20
85.828750
 30
0.0
 10
255.672500
 20
85.828750
 30
0.0
 10
253.767500
 20
85.828750
 30
0.0
 10
253.767500
 20
85.828750
 30
0.0
 10
255.672500
 20
85.828750
 30
0.0
  0
LWPOLYLINE
  5
329
100
AcDbEntity
  8
0
 62
7
100
AcDbPolyline
 90
5
 70
1
 10
247.765000
 20
99.640000
 30
0.0
 10
247.765000
 20
99.640000
 30
0.0
 10
233.765000
 20
99.640000
 30
0.0
 10
233.765000
 20
99.640000
 30
0.0
 10
247.765000
 20
99.640000
 30
0.0
  0
LWPOLYLINE
  5
32a
100
AcDbEntity
  8
0
 62
7
100
AcDbPolyline
 90
5
 70
1
 10
233.765000
 20
99.640000
 30
0.0
 10
233.765000
 20
99.640000
 30
0.0
 10
233.765000
 20
85.640000
 30
0.0
 10
233.765000
 20
85.640000
 30
0.0
 10
233.765000
 20
99.640000
 30
0.0
  0
LWPOLYLINE
  5
32b
100
AcDbEntity
  8
0
 62
7
100
AcDbPolyline
 90
5
 70
1
 10
247.765000
 20
85.640000
 30
0.0
 10
247.765000
 20
85.640000
 30
0.0
 10
247.765000
 20
99.640000
 30
0.0
 10
247.765000
 20
99.640000
 30
0.0
 10
247.765000
 20
85.640000
 30
0.0
  0
LWPOLYLINE
  5
32c
100
AcDbEntity
  8
0
 62
7
100
AcDbPolyline
 90
5
 70
1
 10
233.765000
 20
85.640000
 30
0.0
 10
233.765000
 20
85.640000
 30
0.0
 10
247.765000
 20
85.640000
 30
0.0
 10
247.765000
 20
85.640000
 30
0.0
 10
233.765000
 20
85.640000
 30
0.0
  0
LWPOLYLINE
  5
32d
100
AcDbEntity
  8
0
 62
7
100
AcDbPolyline
 90
5
 70
1
 10
228.715000
 20
99.640000
 30
0.0
 10
228.715000
 20
99.640000
 30
0.0
 10
214.715000
 20
99.640000
 30
0.0
 10
214.715000
 20
99.640000
 30
0.0
 10
228.715000
 20
99.640000
 30
0.0
  0
LWPOLYLINE
  5
32e
100
AcDbEntity
  8
0
 62
7
100
AcDbPolyline
 90
5
 70
1
 10
214.715000
 20
99.640000
 30
0.0
 10
214.715000
 20
99.640000
 30
0.0
 10
214.715000
 20
85.640000
 30
0.0
 10
214.715000
 20
85.640000
 30
0.0
 10
214.715000
 20
99.640000
 30
0.0
  0
LWPOLYLINE
  5
32f
100
AcDbEntity
  8
0
 62
7
100
AcDbPolyline
 90
5
 70
1
 10
228.715000
 20
85.640000
 30
0.0
 10
228.715000
 20
85.640000
 30
0.0
 10
228.715000
 20
99.640000
 30
0.0
 10
228.715000
 20
99.640000
 30
0.0
 10
228.715000
 20
85.640000
 30
0.0
  0
SPLINE
  5
330
100
AcDbEntity
  8
0
 62
7
100
AcDbSpline
 70
8
 71
3
 72
8
 73
4
 74
0
 40
0
 40
0
 40
0
 40
0
 40
1
 40
1
 40
1
 40
1
 10
212.190000
 20
91.765000
 30
0.0
 10
211.836096
 20
91.765000
 30
0.0
 10
211.517039
 20
91.978187
 30
0.0
 10
211.381605
 20
92.305152
 30
0.0
  0
SPLINE
  5
331
100
AcDbEntity
  8
0
 62
7
100
AcDbSpline
 70
8
 71
3
 72
8
 73
4
 74
0
 40
0
 40
0
 40
0
 40
0
 40
1
 40
1
 40
1
 40
1
 10
211.381605
 20
92.305152
 30
0.0
 10
211.246172
 20
92.632117
 30
0.0
 10
211.321033
 20
93.008470
 30
0.0
 10
211.571282
 20
93.258718
 30
0.0
  0
SPLINE
  5
332
100
AcDbEntity
  8
0
 62
7
100
AcDbSpline
 70
8
 71
3
 72
8
 73
4
 74
0
 40
0
 40
0
 40
0
 40
0
 40
1
 40
1
 40
1
 40
1
 10
211.571282
 20
93.258718
 30
0.0
 10
211.821530
 20
93.508967
 30
0.0
 10
212.197883
 20
93.583828
 30
0.0
 10
212.524848
 20
93.448395
 30
0.0
  0
SPLINE
  5
333
100
AcDbEntity
  8
0
 62
7
100
AcDbSpline
 70
8
 71
3
 72
8
 73
4
 74
0
 40
0
 40
0
 40
0
 40
0
 40
1
 40
1
 40
1
 40
1
 10
212.524848
 20
93.448395
 30
0.0
 10
212.851813
 20
93.312961
 30
0.0
 10
213.065000
 20
92.993904
 30
0.0
 10
213.065000
 20
92.640000
 30
0.0
  0
SPLINE
  5
334
100
AcDbEntity
  8
0
 62
7
100
AcDbSpline
 70
8
 71
3
 72
8
 73
4
 74
0
 40
0
 40
0
 40
0
 40
0
 40
1
 40
1
 40
1
 40
1
 10
213.065000
 20
92.640000
 30
0.0
 10
213.065000
 20
92.407936
 30
0.0
 10
212.972813
 20
92.185376
 30
0.0
 10
212.808718
 20
92.021282
 30
0.0
  0
SPLINE
  5
335
100
AcDbEntity
  8
0
 62
7
100
AcDbSpline
 70
8
 71
3
 72
8
 73
4
 74
0
 40
0
 40
0
 40
0
 40
0
 40
1
 40
1
 40
1
 40
1
 10
212.808718
 20
92.021282
 30
0.0
 10
212.644624
 20
91.857187
 30
0.0
 10
212.422064
 20
91.765000
 30
0.0
 10
212.190000
 20
91.765000
 30
0.0
  0
LWPOLYLINE
  5
336
100
AcDbEntity
  8
0
 62
7
100
AcDbPolyline
 90
5
 70
1
 10
214.715000
 20
85.640000
 30
0.0
 10
214.715000
 20
85.640000
 30
0.0
 10
228.715000
 20
85.640000
 30
0.0
 10
228.715000
 20
85.640000
 30
0.0
 10
214.715000
 20
85.640000
 30
0.0
  0
LWPOLYLINE
  5
337
100
AcDbEntity
  8
0
 62
7
100
AcDbPolyline
 90
1
 70
1
 10
212.190000
 20
91.765000
 30
0.0
  0
LWPOLYLINE
  5
338
100
AcDbEntity
  8
0
 62
7
100
AcDbPolyline
 90
5
 70
1
 10
209.665000
 20
99.640000
 30
0.0
 10
209.665000
 20
99.640000
 30
0.0
 10
195.665000
 20
99.640000
 30
0.0
 10
195.665000
 20
99.640000
 30
0.0
 10
209.665000
 20
99.640000
 30
0.0
  0
LWPOLYLINE
  5
339
100
AcDbEntity
  8
0
 62
7
100
AcDbPolyline
 90
5
 70
1
 10
195.665000
 20
99.640000
 30
0.0
 10
195.665000
 20
99.640000
 30
0.0
 10
195.665000
 20
85.640000
 30
0.0
 10
195.665000
 20
85.640000
 30
0.0
 10
195.665000
 20
99.640000
 30
0.0
  0
LWPOLYLINE
  5
33a
100
AcDbEntity
  8
0
 62
7
100
AcDbPolyline
 90
5
 70
1
 10
209.665000
 20
85.640000
 30
0.0
 10
209.665000
 20
85.640000
 30
0.0
 10
209.665000
 20
99.640000
 30
0.0
 10
209.665000
 20
99.640000
 30
0.0
 10
209.665000
 20
85.640000
 30
0.0
  0
LWPOLYLINE
  5
33b
100
AcDbEntity
  8
0
 62
7
100
AcDbPolyline
 90
5
 70
1
 10
195.665000
 20
85.640000
 30
0.0
 10
195.665000
 20
85.640000
 30
0.0
 10
209.665000
 20
85.640000
 30
0.0
 10
209.665000
 20
85.640000
 30
0.0
 10
195.665000
 20
85.640000
 30
0.0
  0
LWPOLYLINE
  5
33c
100
AcDbEntity
  8
0
 62
7
100
AcDbPolyline
 90
5
 70
1
 10
190.615000
 20
99.640000
 30
0.0
 10
190.615000
 20
99.640000
 30
0.0
 10
176.615000
 20
99.640000
 30
0.0
 10
176.615000
 20
99.640000
 30
0.0
 10
190.615000
 20
99.640000
 30
0.0
  0
LWPOLYLINE
  5
33d
100
AcDbEntity
  8
0
 62
7
100
AcDbPolyline
 90
5
 70
1
 10
176.615000
 20
99.640000
 30
0.0
 10
176.615000
 20
99.640000
 30
0.0
 10
176.615000
 20
85.640000
 30
0.0
 10
176.615000
 20
85.640000
 30
0.0
 10
176.615000
 20
99.640000
 30
0.0
  0
LWPOLYLINE
  5
33e
100
AcDbEntity
  8
0
 62
7
100
AcDbPolyline
 90
5
 70
1
 10
190.615000
 20
85.640000
 30
0.0
 10
190.615000
 20
85.640000
 30
0.0
 10
190.615000
 20
99.640000
 30
0.0
 10
190.615000
 20
99.640000
 30
0.0
 10
190.615000
 20
85.640000
 30
0.0
  0
LWPOLYLINE
  5
33f
100
AcDbEntity
  8
0
 62
7
100
AcDbPolyline
 90
5
 70
1
 10
176.615000
 20
85.640000
 30
0.0
 10
176.615000
 20
85.640000
 30
0.0
 10
190.615000
 20
85.640000
 30
0.0
 10
190.615000
 20
85.640000
 30
0.0
 10
176.615000
 20
85.640000
 30
0.0
  0
LWPOLYLINE
  5
340
100
AcDbEntity
  8
0
 62
7
100
AcDbPolyline
 90
5
 70
1
 10
171.565000
 20
99.640000
 30
0.0
 10
171.565000
 20
99.640000
 30
0.0
 10
157.565000
 20
99.640000
 30
0.0
 10
157.565000
 20
99.640000
 30
0.0
 10
171.565000
 20
99.640000
 30
0.0
  0
LWPOLYLINE
  5
341
100
AcDbEntity
  8
0
 62
7
100
AcDbPolyline
 90
5
 70
1
 10
157.565000
 20
99.640000
 30
0.0
 10
157.565000
 20
99.640000
 30
0.0
 10
157.565000
 20
85.640000
 30
0.0
 10
157.565000
 20
85.640000
 30
0.0
 10
157.565000
 20
99.640000
 30
0.0
  0
LWPOLYLINE
  5
342
100
AcDbEntity
  8
0
 62
7
100
AcDbPolyline
 90
5
 70
1
 10
171.565000
 20
85.640000
 30
0.0
 10
171.565000
 20
85.640000
 30
0.0
 10
171.565000
 20
99.640000
 30
0.0
 10
171.565000
 20
99.640000
 30
0.0
 10
171.565000
 20
85.640000
 30
0.0
  0
LWPOLYLINE
  5
343
100
AcDbEntity
  8
0
 62
7
100
AcDbPolyline
 90
5
 70
1
 10
157.565000
 20
85.640000
 30
0.0
 10
157.565000
 20
85.640000
 30
0.0
 10
171.565000
 20
85.640000
 30
0.0
 10
171.565000
 20
85.640000
 30
0.0
 10
157.565000
 20
85.640000
 30
0.0
  0
LWPOLYLINE
  5
344
100
AcDbEntity
  8
0
 62
7
100
AcDbPolyline
 90
5
 70
1
 10
147.752500
 20
61.540000
 30
0.0
 10
147.752500
 20
61.540000
 30
0.0
 10
133.752500
 20
61.540000
 30
0.0
 10
133.752500
 20
61.540000
 30
0.0
 10
147.752500
 20
61.540000
 30
0.0
  0
LWPOLYLINE
  5
345
100
AcDbEntity
  8
0
 62
7
100
AcDbPolyline
 90
5
 70
1
 10
133.752500
 20
61.540000
 30
0.0
 10
133.752500
 20
61.540000
 30
0.0
 10
133.752500
 20
47.540000
 30
0.0
 10
133.752500
 20
47.540000
 30
0.0
 10
133.752500
 20
61.540000
 30
0.0
  0
LWPOLYLINE
  5
346
100
AcDbEntity
  8
0
 62
7
100
AcDbPolyline
 90
5
 70
1
 10
147.752500
 20
47.540000
 30
0.0
 10
147.752500
 20
47.540000
 30
0.0
 10
147.752500
 20
61.540000
 30
0.0
 10
147.752500
 20
61.540000
 30
0.0
 10
147.752500
 20
47.540000
 30
0.0
  0
LWPOLYLINE
  5
347
100
AcDbEntity
  8
0
 62
7
100
AcDbPolyline
 90
5
 70
1
 10
133.752500
 20
47.540000
 30
0.0
 10
133.752500
 20
47.540000
 30
0.0
 10
147.752500
 20
47.540000
 30
0.0
 10
147.752500
 20
47.540000
 30
0.0
 10
133.752500
 20
47.540000
 30
0.0
  0
LWPOLYLINE
  5
348
100
AcDbEntity
  8
0
 62
7
100
AcDbPolyline
 90
5
 70
1
 10
128.702500
 20
61.540000
 30
0.0
 10
128.702500
 20
61.540000
 30
0.0
 10
114.702500
 20
61.540000
 30
0.0
 10
114.702500
 20
61.540000
 30
0.0
 10
128.702500
 20
61.540000
 30
0.0
  0
LWPOLYLINE
  5
349
100
AcDbEntity
  8
0
 62
7
100
AcDbPolyline
 90
5
 70
1
 10
114.702500
 20
61.540000
 30
0.0
 10
114.702500
 20
61.540000
 30
0.0
 10
114.702500
 20
47.540000
 30
0.0
 10
114.702500
 20
47.540000
 30
0.0
 10
114.702500
 20
61.540000
 30
0.0
  0
LWPOLYLINE
  5
34a
100
AcDbEntity
  8
0
 62
7
100
AcDbPolyline
 90
5
 70
1
 10
128.702500
 20
47.540000
 30
0.0
 10
128.702500
 20
47.540000
 30
0.0
 10
128.702500
 20
61.540000
 30
0.0
 10
128.702500
 20
61.540000
 30
0.0
 10
128.702500
 20
47.540000
 30
0.0
  0
LWPOLYLINE
  5
34b
100
AcDbEntity
  8
0
 62
7
100
AcDbPolyline
 90
5
 70
1
 10
114.702500
 20
47.540000
 30
0.0
 10
114.702500
 20
47.540000
 30
0.0
 10
128.702500
 20
47.540000
 30
0.0
 10
128.702500
 20
47.540000
 30
0.0
 10
114.702500
 20
47.540000
 30
0.0
  0
LWPOLYLINE
  5
34c
100
AcDbEntity
  8
0
 62
7
100
AcDbPolyline
 90
5
 70
1
 10
109.652500
 20
61.540000
 30
0.0
 10
109.652500
 20
61.540000
 30
0.0
 10
95.652500
 20
61.540000
 30
0.0
 10
95.652500
 20
61.540000
 30
0.0
 10
109.652500
 20
61.540000
 30
0.0
  0
LWPOLYLINE
  5
34d
100
AcDbEntity
  8
0
 62
7
100
AcDbPolyline
 90
5
 70
1
 10
95.652500
 20
61.540000
 30
0.0
 10
95.652500
 20
61.540000
 30
0.0
 10
95.652500
 20
47.540000
 30
0.0
 10
95.652500
 20
47.540000
 30
0.0
 10
95.652500
 20
61.540000
 30
0.0
  0
LWPOLYLINE
  5
34e
100
AcDbEntity
  8
0
 62
7
100
AcDbPolyline
 90
5
 70
1
 10
109.652500
 20
47.540000
 30
0.0
 10
109.652500
 20
47.540000
 30
0.0
 10
109.652500
 20
61.540000
 30
0.0
 10
109.652500
 20
61.540000
 30
0.0
 10
109.652500
 20
47.540000
 30
0.0
  0
LWPOLYLINE
  5
34f
100
AcDbEntity
  8
0
 62
7
100
AcDbPolyline
 90
5
 70
1
 10
95.652500
 20
47.540000
 30
0.0
 10
95.652500
 20
47.540000
 30
0.0
 10
109.652500
 20
47.540000
 30
0.0
 10
109.652500
 20
47.540000
 30
0.0
 10
95.652500
 20
47.540000
 30
0.0
  0
LWPOLYLINE
  5
350
100
AcDbEntity
  8
0
 62
7
100
AcDbPolyline
 90
5
 70
1
 10
90.602500
 20
61.540000
 30
0.0
 10
90.602500
 20
61.540000
 30
0.0
 10
76.602500
 20
61.540000
 30
0.0
 10
76.602500
 20
61.540000
 30
0.0
 10
90.602500
 20
61.540000
 30
0.0
  0
LWPOLYLINE
  5
351
100
AcDbEntity
  8
0
 62
7
100
AcDbPolyline
 90
5
 70
1
 10
76.602500
 20
61.540000
 30
0.0
 10
76.602500
 20
61.540000
 30
0.0
 10
76.602500
 20
47.540000
 30
0.0
 10
76.602500
 20
47.540000
 30
0.0
 10
76.602500
 20
61.540000
 30
0.0
  0
LWPOLYLINE
  5
352
100
AcDbEntity
  8
0
 62
7
100
AcDbPolyline
 90
5
 70
1
 10
90.602500
 20
47.540000
 30
0.0
 10
90.602500
 20
47.540000
 30
0.0
 10
90.602500
 20
61.540000
 30
0.0
 10
90.602500
 20
61.540000
 30
0.0
 10
90.602500
 20
47.540000
 30
0.0
  0
LWPOLYLINE
  5
353
100
AcDbEntity
  8
0
 62
7
100
AcDbPolyline
 90
5
 70
1
 10
76.602500
 20
47.540000
 30
0.0
 10
76.602500
 20
47.540000
 30
0.0
 10
90.602500
 20
47.540000
 30
0.0
 10
90.602500
 20
47.540000
 30
0.0
 10
76.602500
 20
47.540000
 30
0.0
  0
LWPOLYLINE
  5
354
100
AcDbEntity
  8
0
 62
7
100
AcDbPolyline
 90
5
 70
1
 10
162.040000
 20
80.590000
 30
0.0
 10
162.040000
 20
80.590000
 30
0.0
 10
148.040000
 20
80.590000
 30
0.0
 10
148.040000
 20
80.590000
 30
0.0
 10
162.040000
 20
80.590000
 30
0.0
  0
LWPOLYLINE
  5
355
100
AcDbEntity
  8
0
 62
7
100
AcDbPolyline
 90
5
 70
1
 10
148.040000
 20
80.590000
 30
0.0
 10
148.040000
 20
80.590000
 30
0.0
 10
148.040000
 20
66.590000
 30
0.0
 10
148.040000
 20
66.590000
 30
0.0
 10
148.040000
 20
80.590000
 30
0.0
  0
LWPOLYLINE
  5
356
100
AcDbEntity
  8
0
 62
7
100
AcDbPolyline
 90
5
 70
1
 10
162.040000
 20
66.590000
 30
0.0
 10
162.040000
 20
66.590000
 30
0.0
 10
162.040000
 20
80.590000
 30
0.0
 10
162.040000
 20
80.590000
 30
0.0
 10
162.040000
 20
66.590000
 30
0.0
  0
LWPOLYLINE
  5
357
100
AcDbEntity
  8
0
 62
7
100
AcDbPolyline
 90
5
 70
1
 10
148.040000
 20
66.590000
 30
0.0
 10
148.040000
 20
66.590000
 30
0.0
 10
162.040000
 20
66.590000
 30
0.0
 10
162.040000
 20
66.590000
 30
0.0
 10
148.040000
 20
66.590000
 30
0.0
  0
LWPOLYLINE
  5
358
100
AcDbEntity
  8
0
 62
7
100
AcDbPolyline
 90
5
 70
1
 10
142.990000
 20
80.590000
 30
0.0
 10
142.990000
 20
80.590000
 30
0.0
 10
128.990000
 20
80.590000
 30
0.0
 10
128.990000
 20
80.590000
 30
0.0
 10
142.990000
 20
80.590000
 30
0.0
  0
LWPOLYLINE
  5
359
100
AcDbEntity
  8
0
 62
7
100
AcDbPolyline
 90
5
 70
1
 10
128.990000
 20
80.590000
 30
0.0
 10
128.990000
 20
80.590000
 30
0.0
 10
128.990000
 20
66.590000
 30
0.0
 10
128.990000
 20
66.590000
 30
0.0
 10
128.990000
 20
80.590000
 30
0.0
  0
LWPOLYLINE
  5
35a
100
AcDbEntity
  8
0
 62
7
100
AcDbPolyline
 90
5
 70
1
 10
142.990000
 20
66.590000
 30
0.0
 10
142.990000
 20
66.590000
 30
0.0
 10
142.990000
 20
80.590000
 30
0.0
 10
142.990000
 20
80.590000
 30
0.0
 10
142.990000
 20
66.590000
 30
0.0
  0
LWPOLYLINE
  5
35b
100
AcDbEntity
  8
0
 62
7
100
AcDbPolyline
 90
5
 70
1
 10
128.990000
 20
66.590000
 30
0.0
 10
128.990000
 20
66.590000
 30
0.0
 10
142.990000
 20
66.590000
 30
0.0
 10
142.990000
 20
66.590000
 30
0.0
 10
128.990000
 20
66.590000
 30
0.0
  0
LWPOLYLINE
  5
35c
100
AcDbEntity
  8
0
 62
7
100
AcDbPolyline
 90
5
 70
1
 10
123.940000
 20
80.590000
 30
0.0
 10
123.940000
 20
80.590000
 30
0.0
 10
109.940000
 20
80.590000
 30
0.0
 10
109.940000
 20
80.590000
 30
0.0
 10
123.940000
 20
80.590000
 30
0.0
  0
LWPOLYLINE
  5
35d
100
AcDbEntity
  8
0
 62
7
100
AcDbPolyline
 90
5
 70
1
 10
109.940000
 20
80.590000
 30
0.0
 10
109.940000
 20
80.590000
 30
0.0
 10
109.940000
 20
66.590000
 30
0.0
 10
109.940000
 20
66.590000
 30
0.0
 10
109.940000
 20
80.590000
 30
0.0
  0
LWPOLYLINE
  5
35e
100
AcDbEntity
  8
0
 62
7
100
AcDbPolyline
 90
5
 70
1
 10
123.940000
 20
66.590000
 30
0.0
 10
123.940000
 20
66.590000
 30
0.0
 10
123.940000
 20
80.590000
 30
0.0
 10
123.940000
 20
80.590000
 30
0.0
 10
123.940000
 20
66.590000
 30
0.0
  0
LWPOLYLINE
  5
35f
100
AcDbEntity
  8
0
 62
7
100
AcDbPolyline
 90
5
 70
1
 10
109.940000
 20
66.590000
 30
0.0
 10
109.940000
 20
66.590000
 30
0.0
 10
123.940000
 20
66.590000
 30
0.0
 10
123.940000
 20
66.590000
 30
0.0
 10
109.940000
 20
66.590000
 30
0.0
  0
LWPOLYLINE
  5
360
100
AcDbEntity
  8
0
 62
7
100
AcDbPolyline
 90
5
 70
1
 10
104.890000
 20
80.590000
 30
0.0
 10
104.890000
 20
80.590000
 30
0.0
 10
90.890000
 20
80.590000
 30
0.0
 10
90.890000
 20
80.590000
 30
0.0
 10
104.890000
 20
80.590000
 30
0.0
  0
LWPOLYLINE
  5
361
100
AcDbEntity
  8
0
 62
7
100
AcDbPolyline
 90
5
 70
1
 10
90.890000
 20
80.590000
 30
0.0
 10
90.890000
 20
80.590000
 30
0.0
 10
90.890000
 20
66.590000
 30
0.0
 10
90.890000
 20
66.590000
 30
0.0
 10
90.890000
 20
80.590000
 30
0.0
  0
LWPOLYLINE
  5
362
100
AcDbEntity
  8
0
 62
7
100
AcDbPolyline
 90
5
 70
1
 10
104.890000
 20
66.590000
 30
0.0
 10
104.890000
 20
66.590000
 30
0.0
 10
104.890000
 20
80.590000
 30
0.0
 10
104.890000
 20
80.590000
 30
0.0
 10
104.890000
 20
66.590000
 30
0.0
  0
LWPOLYLINE
  5
363
100
AcDbEntity
  8
0
 62
7
100
AcDbPolyline
 90
5
 70
1
 10
90.890000
 20
66.590000
 30
0.0
 10
90.890000
 20
66.590000
 30
0.0
 10
104.890000
 20
66.590000
 30
0.0
 10
104.890000
 20
66.590000
 30
0.0
 10
90.890000
 20
66.590000
 30
0.0
  0
LWPOLYLINE
  5
364
100
AcDbEntity
  8
0
 62
7
100
AcDbPolyline
 90
5
 70
1
 10
71.552500
 20
61.540000
 30
0.0
 10
71.552500
 20
61.540000
 30
0.0
 10
57.552500
 20
61.540000
 30
0.0
 10
57.552500
 20
61.540000
 30
0.0
 10
71.552500
 20
61.540000
 30
0.0
  0
LWPOLYLINE
  5
365
100
AcDbEntity
  8
0
 62
7
100
AcDbPolyline
 90
5
 70
1
 10
57.552500
 20
61.540000
 30
0.0
 10
57.552500
 20
61.540000
 30
0.0
 10
57.552500
 20
47.540000
 30
0.0
 10
57.552500
 20
47.540000
 30
0.0
 10
57.552500
 20
61.540000
 30
0.0
  0
LWPOLYLINE
  5
366
100
AcDbEntity
  8
0
 62
7
100
AcDbPolyline
 90
5
 70
1
 10
71.552500
 20
47.540000
 30
0.0
 10
71.552500
 20
47.540000
 30
0.0
 10
71.552500
 20
61.540000
 30
0.0
 10
71.552500
 20
61.540000
 30
0.0
 10
71.552500
 20
47.540000
 30
0.0
  0
LWPOLYLINE
  5
367
100
AcDbEntity
  8
0
 62
7
100
AcDbPolyline
 90
5
 70
1
 10
57.552500
 20
47.540000
 30
0.0
 10
57.552500
 20
47.540000
 30
0.0
 10
71.552500
 20
47.540000
 30
0.0
 10
71.552500
 20
47.540000
 30
0.0
 10
57.552500
 20
47.540000
 30
0.0
  0
LWPOLYLINE
  5
368
100
AcDbEntity
  8
0
 62
7
100
AcDbPolyline
 90
5
 70
1
 10
52.502500
 20
61.540000
 30
0.0
 10
52.502500
 20
61.540000
 30
0.0
 10
38.502500
 20
61.540000
 30
0.0
 10
38.502500
 20
61.540000
 30
0.0
 10
52.502500
 20
61.540000
 30
0.0
  0
LWPOLYLINE
  5
369
100
AcDbEntity
  8
0
 62
7
100
AcDbPolyline
 90
5
 70
1
 10
38.502500
 20
61.540000
 30
0.0
 10
38.502500
 20
61.540000
 30
0.0
 10
38.502500
 20
47.540000
 30
0.0
 10
38.502500
 20
47.540000
 30
0.0
 10
38.502500
 20
61.540000
 30
0.0
  0
LWPOLYLINE
  5
36a
100
AcDbEntity
  8
0
 62
7
100
AcDbPolyline
 90
5
 70
1
 10
52.502500
 20
47.540000
 30
0.0
 10
52.502500
 20
47.540000
 30
0.0
 10
52.502500
 20
61.540000
 30
0.0
 10
52.502500
 20
61.540000
 30
0.0
 10
52.502500
 20
47.540000
 30
0.0
  0
LWPOLYLINE
  5
36b
100
AcDbEntity
  8
0
 62
7
100
AcDbPolyline
 90
5
 70
1
 10
38.502500
 20
47.540000
 30
0.0
 10
38.502500
 20
47.540000
 30
0.0
 10
52.502500
 20
47.540000
 30
0.0
 10
52.502500
 20
47.540000
 30
0.0
 10
38.502500
 20
47.540000
 30
0.0
  0
LWPOLYLINE
  5
36c
100
AcDbEntity
  8
0
 62
7
100
AcDbPolyline
 90
5
 70
1
 10
26.308750
 20
61.540000
 30
0.0
 10
26.308750
 20
61.540000
 30
0.0
 10
12.308750
 20
61.540000
 30
0.0
 10
12.308750
 20
61.540000
 30
0.0
 10
26.308750
 20
61.540000
 30
0.0
  0
LWPOLYLINE
  5
36d
100
AcDbEntity
  8
0
 62
7
100
AcDbPolyline
 90
5
 70
1
 10
26.308750
 20
47.540000
 30
0.0
 10
26.308750
 20
47.540000
 30
0.0
 10
26.308750
 20
61.540000
 30
0.0
 10
26.308750
 20
61.540000
 30
0.0
 10
26.308750
 20
47.540000
 30
0.0
  0
LWPOLYLINE
  5
36e
100
AcDbEntity
  8
0
 62
7
100
AcDbPolyline
 90
5
 70
1
 10
12.308750
 20
47.540000
 30
0.0
 10
12.308750
 20
47.540000
 30
0.0
 10
26.308750
 20
47.540000
 30
0.0
 10
26.308750
 20
47.540000
 30
0.0
 10
12.308750
 20
47.540000
 30
0.0
  0
LWPOLYLINE
  5
36f
100
AcDbEntity
  8
0
 62
7
100
AcDbPolyline
 90
5
 70
1
 10
12.308750
 20
61.540000
 30
0.0
 10
12.308750
 20
61.540000
 30
0.0
 10
12.308750
 20
47.540000
 30
0.0
 10
12.308750
 20
47.540000
 30
0.0
 10
12.308750
 20
61.540000
 30
0.0
  0
LWPOLYLINE
  5
370
100
AcDbEntity
  8
0
 62
7
100
AcDbPolyline
 90
5
 70
1
 10
85.840000
 20
80.590000
 30
0.0
 10
85.840000
 20
80.590000
 30
0.0
 10
71.840000
 20
80.590000
 30
0.0
 10
71.840000
 20
80.590000
 30
0.0
 10
85.840000
 20
80.590000
 30
0.0
  0
LWPOLYLINE
  5
371
100
AcDbEntity
  8
0
 62
7
100
AcDbPolyline
 90
5
 70
1
 10
71.840000
 20
80.590000
 30
0.0
 10
71.840000
 20
80.590000
 30
0.0
 10
71.840000
 20
66.590000
 30
0.0
 10
71.840000
 20
66.590000
 30
0.0
 10
71.840000
 20
80.590000
 30
0.0
  0
LWPOLYLINE
  5
372
100
AcDbEntity
  8
0
 62
7
100
AcDbPolyline
 90
5
 70
1
 10
85.840000
 20
66.590000
 30
0.0
 10
85.840000
 20
66.590000
 30
0.0
 10
85.840000
 20
80.590000
 30
0.0
 10
85.840000
 20
80.590000
 30
0.0
 10
85.840000
 20
66.590000
 30
0.0
  0
LWPOLYLINE
  5
373
100
AcDbEntity
  8
0
 62
7
100
AcDbPolyline
 90
5
 70
1
 10
71.840000
 20
66.590000
 30
0.0
 10
71.840000
 20
66.590000
 30
0.0
 10
85.840000
 20
66.590000
 30
0.0
 10
85.840000
 20
66.590000
 30
0.0
 10
71.840000
 20
66.590000
 30
0.0
  0
LWPOLYLINE
  5
374
100
AcDbEntity
  8
0
 62
7
100
AcDbPolyline
 90
5
 70
1
 10
66.790000
 20
80.590000
 30
0.0
 10
66.790000
 20
80.590000
 30
0.0
 10
52.790000
 20
80.590000
 30
0.0
 10
52.790000
 20
80.590000
 30
0.0
 10
66.790000
 20
80.590000
 30
0.0
  0
LWPOLYLINE
  5
375
100
AcDbEntity
  8
0
 62
7
100
AcDbPolyline
 90
5
 70
1
 10
52.790000
 20
80.590000
 30
0.0
 10
52.790000
 20
80.590000
 30
0.0
 10
52.790000
 20
66.590000
 30
0.0
 10
52.790000
 20
66.590000
 30
0.0
 10
52.790000
 20
80.590000
 30
0.0
  0
LWPOLYLINE
  5
376
100
AcDbEntity
  8
0
 62
7
100
AcDbPolyline
 90
5
 70
1
 10
66.790000
 20
66.590000
 30
0.0
 10
66.790000
 20
66.590000
 30
0.0
 10
66.790000
 20
80.590000
 30
0.0
 10
66.790000
 20
80.590000
 30
0.0
 10
66.790000
 20
66.590000
 30
0.0
  0
LWPOLYLINE
  5
377
100
AcDbEntity
  8
0
 62
7
100
AcDbPolyline
 90
5
 70
1
 10
52.790000
 20
66.590000
 30
0.0
 10
52.790000
 20
66.590000
 30
0.0
 10
66.790000
 20
66.590000
 30
0.0
 10
66.790000
 20
66.590000
 30
0.0
 10
52.790000
 20
66.590000
 30
0.0
  0
LWPOLYLINE
  5
378
100
AcDbEntity
  8
0
 62
7
100
AcDbPolyline
 90
5
 70
1
 10
47.740000
 20
80.590000
 30
0.0
 10
47.740000
 20
80.590000
 30
0.0
 10
33.740000
 20
80.590000
 30
0.0
 10
33.740000
 20
80.590000
 30
0.0
 10
47.740000
 20
80.590000
 30
0.0
  0
LWPOLYLINE
  5
379
100
AcDbEntity
  8
0
 62
7
100
AcDbPolyline
 90
5
 70
1
 10
33.740000
 20
80.590000
 30
0.0
 10
33.740000
 20
80.590000
 30
0.0
 10
33.740000
 20
66.590000
 30
0.0
 10
33.740000
 20
66.590000
 30
0.0
 10
33.740000
 20
80.590000
 30
0.0
  0
LWPOLYLINE
  5
37a
100
AcDbEntity
  8
0
 62
7
100
AcDbPolyline
 90
5
 70
1
 10
47.740000
 20
66.590000
 30
0.0
 10
47.740000
 20
66.590000
 30
0.0
 10
47.740000
 20
80.590000
 30
0.0
 10
47.740000
 20
80.590000
 30
0.0
 10
47.740000
 20
66.590000
 30
0.0
  0
LWPOLYLINE
  5
37b
100
AcDbEntity
  8
0
 62
7
100
AcDbPolyline
 90
5
 70
1
 10
33.740000
 20
66.590000
 30
0.0
 10
33.740000
 20
66.590000
 30
0.0
 10
47.740000
 20
66.590000
 30
0.0
 10
47.740000
 20
66.590000
 30
0.0
 10
33.740000
 20
66.590000
 30
0.0
  0
LWPOLYLINE
  5
37c
100
AcDbEntity
  8
0
 62
7
100
AcDbPolyline
 90
5
 70
1
 10
23.927500
 20
80.590000
 30
0.0
 10
23.927500
 20
80.590000
 30
0.0
 10
9.927500
 20
80.590000
 30
0.0
 10
9.927500
 20
80.590000
 30
0.0
 10
23.927500
 20
80.590000
 30
0.0
  0
LWPOLYLINE
  5
37d
100
AcDbEntity
  8
0
 62
7
100
AcDbPolyline
 90
5
 70
1
 10
9.927500
 20
80.590000
 30
0.0
 10
9.927500
 20
80.590000
 30
0.0
 10
9.927500
 20
66.590000
 30
0.0
 10
9.927500
 20
66.590000
 30
0.0
 10
9.927500
 20
80.590000
 30
0.0
  0
LWPOLYLINE
  5
37e
100
AcDbEntity
  8
0
 62
7
100
AcDbPolyline
 90
5
 70
1
 10
23.927500
 20
66.590000
 30
0.0
 10
23.927500
 20
66.590000
 30
0.0
 10
23.927500
 20
80.590000
 30
0.0
 10
23.927500
 20
80.590000
 30
0.0
 10
23.927500
 20
66.590000
 30
0.0
  0
LWPOLYLINE
  5
37f
100
AcDbEntity
  8
0
 62
7
100
AcDbPolyline
 90
5
 70
1
 10
9.927500
 20
66.590000
 30
0.0
 10
9.927500
 20
66.590000
 30
0.0
 10
23.927500
 20
66.590000
 30
0.0
 10
23.927500
 20
66.590000
 30
0.0
 10
9.927500
 20
66.590000
 30
0.0
  0
LWPOLYLINE
  5
380
100
AcDbEntity
  8
0
 62
7
100
AcDbPolyline
 90
5
 70
1
 10
152.515000
 20
99.640000
 30
0.0
 10
152.515000
 20
99.640000
 30
0.0
 10
138.515000
 20
99.640000
 30
0.0
 10
138.515000
 20
99.640000
 30
0.0
 10
152.515000
 20
99.640000
 30
0.0
  0
LWPOLYLINE
  5
381
100
AcDbEntity
  8
0
 62
7
100
AcDbPolyline
 90
5
 70
1
 10
138.515000
 20
99.640000
 30
0.0
 10
138.515000
 20
99.640000
 30
0.0
 10
138.515000
 20
85.640000
 30
0.0
 10
138.515000
 20
85.640000
 30
0.0
 10
138.515000
 20
99.640000
 30
0.0
  0
LWPOLYLINE
  5
382
100
AcDbEntity
  8
0
 62
7
100
AcDbPolyline
 90
5
 70
1
 10
152.515000
 20
85.640000
 30
0.0
 10
152.515000
 20
85.640000
 30
0.0
 10
152.515000
 20
99.640000
 30
0.0
 10
152.515000
 20
99.640000
 30
0.0
 10
152.515000
 20
85.640000
 30
0.0
  0
LWPOLYLINE
  5
383
100
AcDbEntity
  8
0
 62
7
100
AcDbPolyline
 90
5
 70
1
 10
138.515000
 20
85.640000
 30
0.0
 10
138.515000
 20
85.640000
 30
0.0
 10
152.515000
 20
85.640000
 30
0.0
 10
152.515000
 20
85.640000
 30
0.0
 10
138.515000
 20
85.640000
 30
0.0
  0
LWPOLYLINE
  5
384
100
AcDbEntity
  8
0
 62
7
100
AcDbPolyline
 90
5
 70
1
 10
133.465000
 20
99.640000
 30
0.0
 10
133.465000
 20
99.640000
 30
0.0
 10
119.465000
 20
99.640000
 30
0.0
 10
119.465000
 20
99.640000
 30
0.0
 10
133.465000
 20
99.640000
 30
0.0
  0
LWPOLYLINE
  5
385
100
AcDbEntity
  8
0
 62
7
100
AcDbPolyline
 90
5
 70
1
 10
119.465000
 20
99.640000
 30
0.0
 10
119.465000
 20
99.640000
 30
0.0
 10
119.465000
 20
85.640000
 30
0.0
 10
119.465000
 20
85.640000
 30
0.0
 10
119.465000
 20
99.640000
 30
0.0
  0
LWPOLYLINE
  5
386
100
AcDbEntity
  8
0
 62
7
100
AcDbPolyline
 90
5
 70
1
 10
133.465000
 20
85.640000
 30
0.0
 10
133.465000
 20
85.640000
 30
0.0
 10
133.465000
 20
99.640000
 30
0.0
 10
133.465000
 20
99.640000
 30
0.0
 10
133.465000
 20
85.640000
 30
0.0
  0
SPLINE
  5
387
100
AcDbEntity
  8
0
 62
7
100
AcDbSpline
 70
8
 71
3
 72
8
 73
4
 74
0
 40
0
 40
0
 40
0
 40
0
 40
1
 40
1
 40
1
 40
1
 10
116.940000
 20
91.765000
 30
0.0
 10
116.586096
 20
91.765000
 30
0.0
 10
116.267039
 20
91.978187
 30
0.0
 10
116.131605
 20
92.305152
 30
0.0
  0
SPLINE
  5
388
100
AcDbEntity
  8
0
 62
7
100
AcDbSpline
 70
8
 71
3
 72
8
 73
4
 74
0
 40
0
 40
0
 40
0
 40
0
 40
1
 40
1
 40
1
 40
1
 10
116.131605
 20
92.305152
 30
0.0
 10
115.996172
 20
92.632117
 30
0.0
 10
116.071033
 20
93.008470
 30
0.0
 10
116.321282
 20
93.258718
 30
0.0
  0
SPLINE
  5
389
100
AcDbEntity
  8
0
 62
7
100
AcDbSpline
 70
8
 71
3
 72
8
 73
4
 74
0
 40
0
 40
0
 40
0
 40
0
 40
1
 40
1
 40
1
 40
1
 10
116.321282
 20
93.258718
 30
0.0
 10
116.571530
 20
93.508967
 30
0.0
 10
116.947883
 20
93.583828
 30
0.0
 10
117.274848
 20
93.448395
 30
0.0
  0
SPLINE
  5
38a
100
AcDbEntity
  8
0
 62
7
100
AcDbSpline
 70
8
 71
3
 72
8
 73
4
 74
0
 40
0
 40
0
 40
0
 40
0
 40
1
 40
1
 40
1
 40
1
 10
117.274848
 20
93.448395
 30
0.0
 10
117.601813
 20
93.312961
 30
0.0
 10
117.815000
 20
92.993904
 30
0.0
 10
117.815000
 20
92.640000
 30
0.0
  0
SPLINE
  5
38b
100
AcDbEntity
  8
0
 62
7
100
AcDbSpline
 70
8
 71
3
 72
8
 73
4
 74
0
 40
0
 40
0
 40
0
 40
0
 40
1
 40
1
 40
1
 40
1
 10
117.815000
 20
92.640000
 30
0.0
 10
117.815000
 20
92.156751
 30
0.0
 10
117.423249
 20
91.765000
 30
0.0
 10
116.940000
 20
91.765000
 30
0.0
  0
LWPOLYLINE
  5
38c
100
AcDbEntity
  8
0
 62
7
100
AcDbPolyline
 90
5
 70
1
 10
119.465000
 20
85.640000
 30
0.0
 10
119.465000
 20
85.640000
 30
0.0
 10
133.465000
 20
85.640000
 30
0.0
 10
133.465000
 20
85.640000
 30
0.0
 10
119.465000
 20
85.640000
 30
0.0
  0
LWPOLYLINE
  5
38d
100
AcDbEntity
  8
0
 62
7
100
AcDbPolyline
 90
1
 70
1
 10
116.940000
 20
91.765000
 30
0.0
  0
LWPOLYLINE
  5
38e
100
AcDbEntity
  8
0
 62
7
100
AcDbPolyline
 90
5
 70
1
 10
114.415000
 20
99.640000
 30
0.0
 10
114.415000
 20
99.640000
 30
0.0
 10
100.415000
 20
99.640000
 30
0.0
 10
100.415000
 20
99.640000
 30
0.0
 10
114.415000
 20
99.640000
 30
0.0
  0
LWPOLYLINE
  5
38f
100
AcDbEntity
  8
0
 62
7
100
AcDbPolyline
 90
5
 70
1
 10
100.415000
 20
99.640000
 30
0.0
 10
100.415000
 20
99.640000
 30
0.0
 10
100.415000
 20
85.640000
 30
0.0
 10
100.415000
 20
85.640000
 30
0.0
 10
100.415000
 20
99.640000
 30
0.0
  0
LWPOLYLINE
  5
390
100
AcDbEntity
  8
0
 62
7
100
AcDbPolyline
 90
5
 70
1
 10
114.415000
 20
85.640000
 30
0.0
 10
114.415000
 20
85.640000
 30
0.0
 10
114.415000
 20
99.640000
 30
0.0
 10
114.415000
 20
99.640000
 30
0.0
 10
114.415000
 20
85.640000
 30
0.0
  0
LWPOLYLINE
  5
391
100
AcDbEntity
  8
0
 62
7
100
AcDbPolyline
 90
5
 70
1
 10
100.415000
 20
85.640000
 30
0.0
 10
100.415000
 20
85.640000
 30
0.0
 10
114.415000
 20
85.640000
 30
0.0
 10
114.415000
 20
85.640000
 30
0.0
 10
100.415000
 20
85.640000
 30
0.0
  0
LWPOLYLINE
  5
392
100
AcDbEntity
  8
0
 62
7
100
AcDbPolyline
 90
5
 70
1
 10
95.365000
 20
99.640000
 30
0.0
 10
95.365000
 20
99.640000
 30
0.0
 10
81.365000
 20
99.640000
 30
0.0
 10
81.365000
 20
99.640000
 30
0.0
 10
95.365000
 20
99.640000
 30
0.0
  0
LWPOLYLINE
  5
393
100
AcDbEntity
  8
0
 62
7
100
AcDbPolyline
 90
5
 70
1
 10
81.365000
 20
99.640000
 30
0.0
 10
81.365000
 20
99.640000
 30
0.0
 10
81.365000
 20
85.640000
 30
0.0
 10
81.365000
 20
85.640000
 30
0.0
 10
81.365000
 20
99.640000
 30
0.0
  0
LWPOLYLINE
  5
394
100
AcDbEntity
  8
0
 62
7
100
AcDbPolyline
 90
5
 70
1
 10
95.365000
 20
85.640000
 30
0.0
 10
95.365000
 20
85.640000
 30
0.0
 10
95.365000
 20
99.640000
 30
0.0
 10
95.365000
 20
99.640000
 30
0.0
 10
95.365000
 20
85.640000
 30
0.0
  0
LWPOLYLINE
  5
395
100
AcDbEntity
  8
0
 62
7
100
AcDbPolyline
 90
5
 70
1
 10
81.365000
 20
85.640000
 30
0.0
 10
81.365000
 20
85.640000
 30
0.0
 10
95.365000
 20
85.640000
 30
0.0
 10
95.365000
 20
85.640000
 30
0.0
 10
81.365000
 20
85.640000
 30
0.0
  0
LWPOLYLINE
  5
396
100
AcDbEntity
  8
0
 62
7
100
AcDbPolyline
 90
5
 70
1
 10
76.315000
 20
99.640000
 30
0.0
 10
76.315000
 20
99.640000
 30
0.0
 10
62.315000
 20
99.640000
 30
0.0
 10
62.315000
 20
99.640000
 30
0.0
 10
76.315000
 20
99.640000
 30
0.0
  0
LWPOLYLINE
  5
397
100
AcDbEntity
  8
0
 62
7
100
AcDbPolyline
 90
5
 70
1
 10
62.315000
 20
99.640000
 30
0.0
 10
62.315000
 20
99.640000
 30
0.0
 10
62.315000
 20
85.640000
 30
0.0
 10
62.315000
 20
85.640000
 30
0.0
 10
62.315000
 20
99.640000
 30
0.0
  0
LWPOLYLINE
  5
398
100
AcDbEntity
  8
0
 62
7
100
AcDbPolyline
 90
5
 70
1
 10
76.315000
 20
85.640000
 30
0.0
 10
76.315000
 20
85.640000
 30
0.0
 10
76.315000
 20
99.640000
 30
0.0
 10
76.315000
 20
99.640000
 30
0.0
 10
76.315000
 20
85.640000
 30
0.0
  0
LWPOLYLINE
  5
399
100
AcDbEntity
  8
0
 62
7
100
AcDbPolyline
 90
5
 70
1
 10
62.315000
 20
85.640000
 30
0.0
 10
62.315000
 20
85.640000
 30
0.0
 10
76.315000
 20
85.640000
 30
0.0
 10
76.315000
 20
85.640000
 30
0.0
 10
62.315000
 20
85.640000
 30
0.0
  0
LWPOLYLINE
  5
39a
100
AcDbEntity
  8
0
 62
7
100
AcDbPolyline
 90
5
 70
1
 10
57.265000
 20
99.640000
 30
0.0
 10
57.265000
 20
99.640000
 30
0.0
 10
43.265000
 20
99.640000
 30
0.0
 10
43.265000
 20
99.640000
 30
0.0
 10
57.265000
 20
99.640000
 30
0.0
  0
LWPOLYLINE
  5
39b
100
AcDbEntity
  8
0
 62
7
100
AcDbPolyline
 90
5
 70
1
 10
43.265000
 20
99.640000
 30
0.0
 10
43.265000
 20
99.640000
 30
0.0
 10
43.265000
 20
85.640000
 30
0.0
 10
43.265000
 20
85.640000
 30
0.0
 10
43.265000
 20
99.640000
 30
0.0
  0
LWPOLYLINE
  5
39c
100
AcDbEntity
  8
0
 62
7
100
AcDbPolyline
 90
5
 70
1
 10
57.265000
 20
85.640000
 30
0.0
 10
57.265000
 20
85.640000
 30
0.0
 10
57.265000
 20
99.640000
 30
0.0
 10
57.265000
 20
99.640000
 30
0.0
 10
57.265000
 20
85.640000
 30
0.0
  0
LWPOLYLINE
  5
39d
100
AcDbEntity
  8
0
 62
7
100
AcDbPolyline
 90
5
 70
1
 10
43.265000
 20
85.640000
 30
0.0
 10
43.265000
 20
85.640000
 30
0.0
 10
57.265000
 20
85.640000
 30
0.0
 10
57.265000
 20
85.640000
 30
0.0
 10
43.265000
 20
85.640000
 30
0.0
  0
LWPOLYLINE
  5
39e
100
AcDbEntity
  8
0
 62
7
100
AcDbPolyline
 90
5
 70
1
 10
38.215000
 20
99.640000
 30
0.0
 10
38.215000
 20
99.640000
 30
0.0
 10
24.215000
 20
99.640000
 30
0.0
 10
24.215000
 20
99.640000
 30
0.0
 10
38.215000
 20
99.640000
 30
0.0
  0
LWPOLYLINE
  5
39f
100
AcDbEntity
  8
0
 62
7
100
AcDbPolyline
 90
5
 70
1
 10
24.215000
 20
99.640000
 30
0.0
 10
24.215000
 20
99.640000
 30
0.0
 10
24.215000
 20
85.640000
 30
0.0
 10
24.215000
 20
85.640000
 30
0.0
 10
24.215000
 20
99.640000
 30
0.0
  0
LWPOLYLINE
  5
3a0
100
AcDbEntity
  8
0
 62
7
100
AcDbPolyline
 90
5
 70
1
 10
38.215000
 20
85.640000
 30
0.0
 10
38.215000
 20
85.640000
 30
0.0
 10
38.215000
 20
99.640000
 30
0.0
 10
38.215000
 20
99.640000
 30
0.0
 10
38.215000
 20
85.640000
 30
0.0
  0
SPLINE
  5
3a1
100
AcDbEntity
  8
0
 62
7
100
AcDbSpline
 70
8
 71
3
 72
8
 73
4
 74
0
 40
0
 40
0
 40
0
 40
0
 40
1
 40
1
 40
1
 40
1
 10
21.690000
 20
91.765000
 30
0.0
 10
21.336096
 20
91.765000
 30
0.0
 10
21.017039
 20
91.978187
 30
0.0
 10
20.881605
 20
92.305152
 30
0.0
  0
SPLINE
  5
3a2
100
AcDbEntity
  8
0
 62
7
100
AcDbSpline
 70
8
 71
3
 72
8
 73
4
 74
0
 40
0
 40
0
 40
0
 40
0
 40
1
 40
1
 40
1
 40
1
 10
20.881605
 20
92.305152
 30
0.0
 10
20.746172
 20
92.632117
 30
0.0
 10
20.821033
 20
93.008470
 30
0.0
 10
21.071282
 20
93.258718
 30
0.0
  0
SPLINE
  5
3a3
100
AcDbEntity
  8
0
 62
7
100
AcDbSpline
 70
8
 71
3
 72
8
 73
4
 74
0
 40
0
 40
0
 40
0
 40
0
 40
1
 40
1
 40
1
 40
1
 10
21.071282
 20
93.258718
 30
0.0
 10
21.321530
 20
93.508967
 30
0.0
 10
21.697883
 20
93.583828
 30
0.0
 10
22.024848
 20
93.448395
 30
0.0
  0
SPLINE
  5
3a4
100
AcDbEntity
  8
0
 62
7
100
AcDbSpline
 70
8
 71
3
 72
8
 73
4
 74
0
 40
0
 40
0
 40
0
 40
0
 40
1
 40
1
 40
1
 40
1
 10
22.024848
 20
93.448395
 30
0.0
 10
22.351813
 20
93.312961
 30
0.0
 10
22.565000
 20
92.993904
 30
0.0
 10
22.565000
 20
92.640000
 30
0.0
  0
SPLINE
  5
3a5
100
AcDbEntity
  8
0
 62
7
100
AcDbSpline
 70
8
 71
3
 72
8
 73
4
 74
0
 40
0
 40
0
 40
0
 40
0
 40
1
 40
1
 40
1
 40
1
 10
22.565000
 20
92.640000
 30
0.0
 10
22.565000
 20
92.407936
 30
0.0
 10
22.472813
 20
92.185376
 30
0.0
 10
22.308718
 20
92.021282
 30
0.0
  0
SPLINE
  5
3a6
100
AcDbEntity
  8
0
 62
7
100
AcDbSpline
 70
8
 71
3
 72
8
 73
4
 74
0
 40
0
 40
0
 40
0
 40
0
 40
1
 40
1
 40
1
 40
1
 10
22.308718
 20
92.021282
 30
0.0
 10
22.144624
 20
91.857187
 30
0.0
 10
21.922064
 20
91.765000
 30
0.0
 10
21.690000
 20
91.765000
 30
0.0
  0
LWPOLYLINE
  5
3a7
100
AcDbEntity
  8
0
 62
7
100
AcDbPolyline
 90
5
 70
1
 10
24.215000
 20
85.640000
 30
0.0
 10
24.215000
 20
85.640000
 30
0.0
 10
38.215000
 20
85.640000
 30
0.0
 10
38.215000
 20
85.640000
 30
0.0
 10
24.215000
 20
85.640000
 30
0.0
  0
LWPOLYLINE
  5
3a8
100
AcDbEntity
  8
0
 62
7
100
AcDbPolyline
 90
1
 70
1
 10
21.690000
 20
91.765000
 30
0.0
  0
LWPOLYLINE
  5
3a9
100
AcDbEntity
  8
0
 62
7
100
AcDbPolyline
 90
5
 70
1
 10
19.165000
 20
99.640000
 30
0.0
 10
19.165000
 20
99.640000
 30
0.0
 10
5.165000
 20
99.640000
 30
0.0
 10
5.165000
 20
99.640000
 30
0.0
 10
19.165000
 20
99.640000
 30
0.0
  0
LWPOLYLINE
  5
3aa
100
AcDbEntity
  8
0
 62
7
100
AcDbPolyline
 90
5
 70
1
 10
5.165000
 20
99.640000
 30
0.0
 10
5.165000
 20
99.640000
 30
0.0
 10
5.165000
 20
85.640000
 30
0.0
 10
5.165000
 20
85.640000
 30
0.0
 10
5.165000
 20
99.640000
 30
0.0
  0
LWPOLYLINE
  5
3ab
100
AcDbEntity
  8
0
 62
7
100
AcDbPolyline
 90
5
 70
1
 10
19.165000
 20
85.640000
 30
0.0
 10
19.165000
 20
85.640000
 30
0.0
 10
19.165000
 20
99.640000
 30
0.0
 10
19.165000
 20
99.640000
 30
0.0
 10
19.165000
 20
85.640000
 30
0.0
  0
LWPOLYLINE
  5
3ac
100
AcDbEntity
  8
0
 62
7
100
AcDbPolyline
 90
5
 70
1
 10
5.165000
 20
85.640000
 30
0.0
 10
5.165000
 20
85.640000
 30
0.0
 10
19.165000
 20
85.640000
 30
0.0
 10
19.165000
 20
85.640000
 30
0.0
 10
5.165000
 20
85.640000
 30
0.0
  0
ENDSEC
  0
SECTION
  2
OBJECTS
  0
DICTIONARY
  5
C
330
0
100
AcDbDictionary
  3
ACAD_GROUP
350
D
  3
ACAD_MLINESTYLE
350
17
  0
DICTIONARY
  5
D
330
C
100
AcDbDictionary
  0
DICTIONARY
  5
1A
330
C
100
AcDbDictionary
  0
DICTIONARY
  5
17
330
C
100
AcDbDictionary
  3
STANDARD
350
18
  0
DICTIONARY
  5
19
330
C
100
AcDbDictionary
  0
ENDSEC
  0
EOF
