G04 #@! TF.GenerationSoftware,KiCad,Pcbnew,(5.1.8-0-10_14)*
G04 #@! TF.CreationDate,2021-11-24T06:39:14+09:00*
G04 #@! TF.ProjectId,tc69,74633639-2e6b-4696-9361-645f70636258,rev?*
G04 #@! TF.SameCoordinates,Original*
G04 #@! TF.FileFunction,Paste,Bot*
G04 #@! TF.FilePolarity,Positive*
%FSLAX46Y46*%
G04 Gerber Fmt 4.6, Leading zero omitted, Abs format (unit mm)*
G04 Created by KiCad (PCBNEW (5.1.8-0-10_14)) date 2021-11-24 06:39:14*
%MOMM*%
%LPD*%
G01*
G04 APERTURE LIST*
%ADD10R,0.650000X1.560000*%
%ADD11C,1.143000*%
%ADD12O,1.016000X2.032000*%
%ADD13O,2.748280X1.998980*%
G04 APERTURE END LIST*
G36*
G01*
X225073627Y-37384406D02*
X225073627Y-36434406D01*
G75*
G02*
X225323627Y-36184406I250000J0D01*
G01*
X225998627Y-36184406D01*
G75*
G02*
X226248627Y-36434406I0J-250000D01*
G01*
X226248627Y-37384406D01*
G75*
G02*
X225998627Y-37634406I-250000J0D01*
G01*
X225323627Y-37634406D01*
G75*
G02*
X225073627Y-37384406I0J250000D01*
G01*
G37*
G36*
G01*
X222998627Y-37384406D02*
X222998627Y-36434406D01*
G75*
G02*
X223248627Y-36184406I250000J0D01*
G01*
X223923627Y-36184406D01*
G75*
G02*
X224173627Y-36434406I0J-250000D01*
G01*
X224173627Y-37384406D01*
G75*
G02*
X223923627Y-37634406I-250000J0D01*
G01*
X223248627Y-37634406D01*
G75*
G02*
X222998627Y-37384406I0J250000D01*
G01*
G37*
G36*
G01*
X72673499Y-37979719D02*
X72673499Y-37029719D01*
G75*
G02*
X72923499Y-36779719I250000J0D01*
G01*
X73598499Y-36779719D01*
G75*
G02*
X73848499Y-37029719I0J-250000D01*
G01*
X73848499Y-37979719D01*
G75*
G02*
X73598499Y-38229719I-250000J0D01*
G01*
X72923499Y-38229719D01*
G75*
G02*
X72673499Y-37979719I0J250000D01*
G01*
G37*
G36*
G01*
X70598499Y-37979719D02*
X70598499Y-37029719D01*
G75*
G02*
X70848499Y-36779719I250000J0D01*
G01*
X71523499Y-36779719D01*
G75*
G02*
X71773499Y-37029719I0J-250000D01*
G01*
X71773499Y-37979719D01*
G75*
G02*
X71523499Y-38229719I-250000J0D01*
G01*
X70848499Y-38229719D01*
G75*
G02*
X70598499Y-37979719I0J250000D01*
G01*
G37*
G36*
G01*
X127517295Y-26834398D02*
X128467295Y-26834398D01*
G75*
G02*
X128717295Y-27084398I0J-250000D01*
G01*
X128717295Y-27759398D01*
G75*
G02*
X128467295Y-28009398I-250000J0D01*
G01*
X127517295Y-28009398D01*
G75*
G02*
X127267295Y-27759398I0J250000D01*
G01*
X127267295Y-27084398D01*
G75*
G02*
X127517295Y-26834398I250000J0D01*
G01*
G37*
G36*
G01*
X127517295Y-24759398D02*
X128467295Y-24759398D01*
G75*
G02*
X128717295Y-25009398I0J-250000D01*
G01*
X128717295Y-25684398D01*
G75*
G02*
X128467295Y-25934398I-250000J0D01*
G01*
X127517295Y-25934398D01*
G75*
G02*
X127267295Y-25684398I0J250000D01*
G01*
X127267295Y-25009398D01*
G75*
G02*
X127517295Y-24759398I250000J0D01*
G01*
G37*
D10*
X127751669Y-32901589D03*
X126801669Y-32901589D03*
X125851669Y-32901589D03*
X125851669Y-30201589D03*
X127751669Y-30201589D03*
G36*
G01*
X121829791Y-28125023D02*
X121829791Y-29025025D01*
G75*
G02*
X121579792Y-29275024I-249999J0D01*
G01*
X120879790Y-29275024D01*
G75*
G02*
X120629791Y-29025025I0J249999D01*
G01*
X120629791Y-28125023D01*
G75*
G02*
X120879790Y-27875024I249999J0D01*
G01*
X121579792Y-27875024D01*
G75*
G02*
X121829791Y-28125023I0J-249999D01*
G01*
G37*
G36*
G01*
X123829791Y-28125023D02*
X123829791Y-29025025D01*
G75*
G02*
X123579792Y-29275024I-249999J0D01*
G01*
X122879790Y-29275024D01*
G75*
G02*
X122629791Y-29025025I0J249999D01*
G01*
X122629791Y-28125023D01*
G75*
G02*
X122879790Y-27875024I249999J0D01*
G01*
X123579792Y-27875024D01*
G75*
G02*
X123829791Y-28125023I0J-249999D01*
G01*
G37*
G36*
G01*
X121298540Y-33746902D02*
X120398538Y-33746902D01*
G75*
G02*
X120148539Y-33496903I0J249999D01*
G01*
X120148539Y-32796901D01*
G75*
G02*
X120398538Y-32546902I249999J0D01*
G01*
X121298540Y-32546902D01*
G75*
G02*
X121548539Y-32796901I0J-249999D01*
G01*
X121548539Y-33496903D01*
G75*
G02*
X121298540Y-33746902I-249999J0D01*
G01*
G37*
G36*
G01*
X121298540Y-31746902D02*
X120398538Y-31746902D01*
G75*
G02*
X120148539Y-31496903I0J249999D01*
G01*
X120148539Y-30796901D01*
G75*
G02*
X120398538Y-30546902I249999J0D01*
G01*
X121298540Y-30546902D01*
G75*
G02*
X121548539Y-30796901I0J-249999D01*
G01*
X121548539Y-31496903D01*
G75*
G02*
X121298540Y-31746902I-249999J0D01*
G01*
G37*
G36*
G01*
X132014174Y-33151589D02*
X131114172Y-33151589D01*
G75*
G02*
X130864173Y-32901590I0J249999D01*
G01*
X130864173Y-32201588D01*
G75*
G02*
X131114172Y-31951589I249999J0D01*
G01*
X132014174Y-31951589D01*
G75*
G02*
X132264173Y-32201588I0J-249999D01*
G01*
X132264173Y-32901590D01*
G75*
G02*
X132014174Y-33151589I-249999J0D01*
G01*
G37*
G36*
G01*
X132014174Y-31151589D02*
X131114172Y-31151589D01*
G75*
G02*
X130864173Y-30901590I0J249999D01*
G01*
X130864173Y-30201588D01*
G75*
G02*
X131114172Y-29951589I249999J0D01*
G01*
X132014174Y-29951589D01*
G75*
G02*
X132264173Y-30201588I0J-249999D01*
G01*
X132264173Y-30901590D01*
G75*
G02*
X132014174Y-31151589I-249999J0D01*
G01*
G37*
G36*
G01*
X123704791Y-33771902D02*
X122754791Y-33771902D01*
G75*
G02*
X122504791Y-33521902I0J250000D01*
G01*
X122504791Y-32846902D01*
G75*
G02*
X122754791Y-32596902I250000J0D01*
G01*
X123704791Y-32596902D01*
G75*
G02*
X123954791Y-32846902I0J-250000D01*
G01*
X123954791Y-33521902D01*
G75*
G02*
X123704791Y-33771902I-250000J0D01*
G01*
G37*
G36*
G01*
X123704791Y-31696902D02*
X122754791Y-31696902D01*
G75*
G02*
X122504791Y-31446902I0J250000D01*
G01*
X122504791Y-30771902D01*
G75*
G02*
X122754791Y-30521902I250000J0D01*
G01*
X123704791Y-30521902D01*
G75*
G02*
X123954791Y-30771902I0J-250000D01*
G01*
X123954791Y-31446902D01*
G75*
G02*
X123704791Y-31696902I-250000J0D01*
G01*
G37*
G36*
G01*
X133470425Y-29926589D02*
X134420425Y-29926589D01*
G75*
G02*
X134670425Y-30176589I0J-250000D01*
G01*
X134670425Y-30851589D01*
G75*
G02*
X134420425Y-31101589I-250000J0D01*
G01*
X133470425Y-31101589D01*
G75*
G02*
X133220425Y-30851589I0J250000D01*
G01*
X133220425Y-30176589D01*
G75*
G02*
X133470425Y-29926589I250000J0D01*
G01*
G37*
G36*
G01*
X133470425Y-32001589D02*
X134420425Y-32001589D01*
G75*
G02*
X134670425Y-32251589I0J-250000D01*
G01*
X134670425Y-32926589D01*
G75*
G02*
X134420425Y-33176589I-250000J0D01*
G01*
X133470425Y-33176589D01*
G75*
G02*
X133220425Y-32926589I0J250000D01*
G01*
X133220425Y-32251589D01*
G75*
G02*
X133470425Y-32001589I250000J0D01*
G01*
G37*
D11*
X145733203Y-24872413D03*
X148273203Y-24872413D03*
X145733203Y-22332413D03*
X148273203Y-22332413D03*
D12*
X145722006Y-39336600D03*
X148272006Y-39336600D03*
D13*
X155138886Y-23018780D03*
X155138886Y-25558780D03*
X155138886Y-28098780D03*
X155138886Y-30638780D03*
X155138886Y-33178780D03*
X155138886Y-35718780D03*
X155138886Y-38258780D03*
X138974326Y-38258780D03*
X138974326Y-35718780D03*
X138974326Y-33178780D03*
X138974326Y-30638780D03*
X138974326Y-28098780D03*
X138974326Y-25558780D03*
X138974326Y-23018780D03*
G36*
G01*
X67392247Y-35551276D02*
X67392247Y-35251276D01*
G75*
G02*
X67542247Y-35101276I150000J0D01*
G01*
X69192247Y-35101276D01*
G75*
G02*
X69342247Y-35251276I0J-150000D01*
G01*
X69342247Y-35551276D01*
G75*
G02*
X69192247Y-35701276I-150000J0D01*
G01*
X67542247Y-35701276D01*
G75*
G02*
X67392247Y-35551276I0J150000D01*
G01*
G37*
G36*
G01*
X67392247Y-34281276D02*
X67392247Y-33981276D01*
G75*
G02*
X67542247Y-33831276I150000J0D01*
G01*
X69192247Y-33831276D01*
G75*
G02*
X69342247Y-33981276I0J-150000D01*
G01*
X69342247Y-34281276D01*
G75*
G02*
X69192247Y-34431276I-150000J0D01*
G01*
X67542247Y-34431276D01*
G75*
G02*
X67392247Y-34281276I0J150000D01*
G01*
G37*
G36*
G01*
X67392247Y-33011276D02*
X67392247Y-32711276D01*
G75*
G02*
X67542247Y-32561276I150000J0D01*
G01*
X69192247Y-32561276D01*
G75*
G02*
X69342247Y-32711276I0J-150000D01*
G01*
X69342247Y-33011276D01*
G75*
G02*
X69192247Y-33161276I-150000J0D01*
G01*
X67542247Y-33161276D01*
G75*
G02*
X67392247Y-33011276I0J150000D01*
G01*
G37*
G36*
G01*
X67392247Y-31741276D02*
X67392247Y-31441276D01*
G75*
G02*
X67542247Y-31291276I150000J0D01*
G01*
X69192247Y-31291276D01*
G75*
G02*
X69342247Y-31441276I0J-150000D01*
G01*
X69342247Y-31741276D01*
G75*
G02*
X69192247Y-31891276I-150000J0D01*
G01*
X67542247Y-31891276D01*
G75*
G02*
X67392247Y-31741276I0J150000D01*
G01*
G37*
G36*
G01*
X67392247Y-30471276D02*
X67392247Y-30171276D01*
G75*
G02*
X67542247Y-30021276I150000J0D01*
G01*
X69192247Y-30021276D01*
G75*
G02*
X69342247Y-30171276I0J-150000D01*
G01*
X69342247Y-30471276D01*
G75*
G02*
X69192247Y-30621276I-150000J0D01*
G01*
X67542247Y-30621276D01*
G75*
G02*
X67392247Y-30471276I0J150000D01*
G01*
G37*
G36*
G01*
X67392247Y-29201276D02*
X67392247Y-28901276D01*
G75*
G02*
X67542247Y-28751276I150000J0D01*
G01*
X69192247Y-28751276D01*
G75*
G02*
X69342247Y-28901276I0J-150000D01*
G01*
X69342247Y-29201276D01*
G75*
G02*
X69192247Y-29351276I-150000J0D01*
G01*
X67542247Y-29351276D01*
G75*
G02*
X67392247Y-29201276I0J150000D01*
G01*
G37*
G36*
G01*
X67392247Y-27931276D02*
X67392247Y-27631276D01*
G75*
G02*
X67542247Y-27481276I150000J0D01*
G01*
X69192247Y-27481276D01*
G75*
G02*
X69342247Y-27631276I0J-150000D01*
G01*
X69342247Y-27931276D01*
G75*
G02*
X69192247Y-28081276I-150000J0D01*
G01*
X67542247Y-28081276D01*
G75*
G02*
X67392247Y-27931276I0J150000D01*
G01*
G37*
G36*
G01*
X67392247Y-26661276D02*
X67392247Y-26361276D01*
G75*
G02*
X67542247Y-26211276I150000J0D01*
G01*
X69192247Y-26211276D01*
G75*
G02*
X69342247Y-26361276I0J-150000D01*
G01*
X69342247Y-26661276D01*
G75*
G02*
X69192247Y-26811276I-150000J0D01*
G01*
X67542247Y-26811276D01*
G75*
G02*
X67392247Y-26661276I0J150000D01*
G01*
G37*
G36*
G01*
X72342247Y-26661276D02*
X72342247Y-26361276D01*
G75*
G02*
X72492247Y-26211276I150000J0D01*
G01*
X74142247Y-26211276D01*
G75*
G02*
X74292247Y-26361276I0J-150000D01*
G01*
X74292247Y-26661276D01*
G75*
G02*
X74142247Y-26811276I-150000J0D01*
G01*
X72492247Y-26811276D01*
G75*
G02*
X72342247Y-26661276I0J150000D01*
G01*
G37*
G36*
G01*
X72342247Y-27931276D02*
X72342247Y-27631276D01*
G75*
G02*
X72492247Y-27481276I150000J0D01*
G01*
X74142247Y-27481276D01*
G75*
G02*
X74292247Y-27631276I0J-150000D01*
G01*
X74292247Y-27931276D01*
G75*
G02*
X74142247Y-28081276I-150000J0D01*
G01*
X72492247Y-28081276D01*
G75*
G02*
X72342247Y-27931276I0J150000D01*
G01*
G37*
G36*
G01*
X72342247Y-29201276D02*
X72342247Y-28901276D01*
G75*
G02*
X72492247Y-28751276I150000J0D01*
G01*
X74142247Y-28751276D01*
G75*
G02*
X74292247Y-28901276I0J-150000D01*
G01*
X74292247Y-29201276D01*
G75*
G02*
X74142247Y-29351276I-150000J0D01*
G01*
X72492247Y-29351276D01*
G75*
G02*
X72342247Y-29201276I0J150000D01*
G01*
G37*
G36*
G01*
X72342247Y-30471276D02*
X72342247Y-30171276D01*
G75*
G02*
X72492247Y-30021276I150000J0D01*
G01*
X74142247Y-30021276D01*
G75*
G02*
X74292247Y-30171276I0J-150000D01*
G01*
X74292247Y-30471276D01*
G75*
G02*
X74142247Y-30621276I-150000J0D01*
G01*
X72492247Y-30621276D01*
G75*
G02*
X72342247Y-30471276I0J150000D01*
G01*
G37*
G36*
G01*
X72342247Y-31741276D02*
X72342247Y-31441276D01*
G75*
G02*
X72492247Y-31291276I150000J0D01*
G01*
X74142247Y-31291276D01*
G75*
G02*
X74292247Y-31441276I0J-150000D01*
G01*
X74292247Y-31741276D01*
G75*
G02*
X74142247Y-31891276I-150000J0D01*
G01*
X72492247Y-31891276D01*
G75*
G02*
X72342247Y-31741276I0J150000D01*
G01*
G37*
G36*
G01*
X72342247Y-33011276D02*
X72342247Y-32711276D01*
G75*
G02*
X72492247Y-32561276I150000J0D01*
G01*
X74142247Y-32561276D01*
G75*
G02*
X74292247Y-32711276I0J-150000D01*
G01*
X74292247Y-33011276D01*
G75*
G02*
X74142247Y-33161276I-150000J0D01*
G01*
X72492247Y-33161276D01*
G75*
G02*
X72342247Y-33011276I0J150000D01*
G01*
G37*
G36*
G01*
X72342247Y-34281276D02*
X72342247Y-33981276D01*
G75*
G02*
X72492247Y-33831276I150000J0D01*
G01*
X74142247Y-33831276D01*
G75*
G02*
X74292247Y-33981276I0J-150000D01*
G01*
X74292247Y-34281276D01*
G75*
G02*
X74142247Y-34431276I-150000J0D01*
G01*
X72492247Y-34431276D01*
G75*
G02*
X72342247Y-34281276I0J150000D01*
G01*
G37*
G36*
G01*
X72342247Y-35551276D02*
X72342247Y-35251276D01*
G75*
G02*
X72492247Y-35101276I150000J0D01*
G01*
X74142247Y-35101276D01*
G75*
G02*
X74292247Y-35251276I0J-150000D01*
G01*
X74292247Y-35551276D01*
G75*
G02*
X74142247Y-35701276I-150000J0D01*
G01*
X72492247Y-35701276D01*
G75*
G02*
X72342247Y-35551276I0J150000D01*
G01*
G37*
G36*
G01*
X245414268Y-34610967D02*
X246314270Y-34610967D01*
G75*
G02*
X246564269Y-34860966I0J-249999D01*
G01*
X246564269Y-35560968D01*
G75*
G02*
X246314270Y-35810967I-249999J0D01*
G01*
X245414268Y-35810967D01*
G75*
G02*
X245164269Y-35560968I0J249999D01*
G01*
X245164269Y-34860966D01*
G75*
G02*
X245414268Y-34610967I249999J0D01*
G01*
G37*
G36*
G01*
X245414268Y-32610967D02*
X246314270Y-32610967D01*
G75*
G02*
X246564269Y-32860966I0J-249999D01*
G01*
X246564269Y-33560968D01*
G75*
G02*
X246314270Y-33810967I-249999J0D01*
G01*
X245414268Y-33810967D01*
G75*
G02*
X245164269Y-33560968I0J249999D01*
G01*
X245164269Y-32860966D01*
G75*
G02*
X245414268Y-32610967I249999J0D01*
G01*
G37*
G36*
G01*
X240056451Y-35206280D02*
X240956453Y-35206280D01*
G75*
G02*
X241206452Y-35456279I0J-249999D01*
G01*
X241206452Y-36156281D01*
G75*
G02*
X240956453Y-36406280I-249999J0D01*
G01*
X240056451Y-36406280D01*
G75*
G02*
X239806452Y-36156281I0J249999D01*
G01*
X239806452Y-35456279D01*
G75*
G02*
X240056451Y-35206280I249999J0D01*
G01*
G37*
G36*
G01*
X240056451Y-33206280D02*
X240956453Y-33206280D01*
G75*
G02*
X241206452Y-33456279I0J-249999D01*
G01*
X241206452Y-34156281D01*
G75*
G02*
X240956453Y-34406280I-249999J0D01*
G01*
X240056451Y-34406280D01*
G75*
G02*
X239806452Y-34156281I0J249999D01*
G01*
X239806452Y-33456279D01*
G75*
G02*
X240056451Y-33206280I249999J0D01*
G01*
G37*
G36*
G01*
X234698634Y-35801593D02*
X235598636Y-35801593D01*
G75*
G02*
X235848635Y-36051592I0J-249999D01*
G01*
X235848635Y-36751594D01*
G75*
G02*
X235598636Y-37001593I-249999J0D01*
G01*
X234698634Y-37001593D01*
G75*
G02*
X234448635Y-36751594I0J249999D01*
G01*
X234448635Y-36051592D01*
G75*
G02*
X234698634Y-35801593I249999J0D01*
G01*
G37*
G36*
G01*
X234698634Y-33801593D02*
X235598636Y-33801593D01*
G75*
G02*
X235848635Y-34051592I0J-249999D01*
G01*
X235848635Y-34751594D01*
G75*
G02*
X235598636Y-35001593I-249999J0D01*
G01*
X234698634Y-35001593D01*
G75*
G02*
X234448635Y-34751594I0J249999D01*
G01*
X234448635Y-34051592D01*
G75*
G02*
X234698634Y-33801593I249999J0D01*
G01*
G37*
G36*
G01*
X229340817Y-36396906D02*
X230240819Y-36396906D01*
G75*
G02*
X230490818Y-36646905I0J-249999D01*
G01*
X230490818Y-37346907D01*
G75*
G02*
X230240819Y-37596906I-249999J0D01*
G01*
X229340817Y-37596906D01*
G75*
G02*
X229090818Y-37346907I0J249999D01*
G01*
X229090818Y-36646905D01*
G75*
G02*
X229340817Y-36396906I249999J0D01*
G01*
G37*
G36*
G01*
X229340817Y-34396906D02*
X230240819Y-34396906D01*
G75*
G02*
X230490818Y-34646905I0J-249999D01*
G01*
X230490818Y-35346907D01*
G75*
G02*
X230240819Y-35596906I-249999J0D01*
G01*
X229340817Y-35596906D01*
G75*
G02*
X229090818Y-35346907I0J249999D01*
G01*
X229090818Y-34646905D01*
G75*
G02*
X229340817Y-34396906I249999J0D01*
G01*
G37*
G36*
G01*
X216243931Y-36396906D02*
X217143933Y-36396906D01*
G75*
G02*
X217393932Y-36646905I0J-249999D01*
G01*
X217393932Y-37346907D01*
G75*
G02*
X217143933Y-37596906I-249999J0D01*
G01*
X216243931Y-37596906D01*
G75*
G02*
X215993932Y-37346907I0J249999D01*
G01*
X215993932Y-36646905D01*
G75*
G02*
X216243931Y-36396906I249999J0D01*
G01*
G37*
G36*
G01*
X216243931Y-34396906D02*
X217143933Y-34396906D01*
G75*
G02*
X217393932Y-34646905I0J-249999D01*
G01*
X217393932Y-35346907D01*
G75*
G02*
X217143933Y-35596906I-249999J0D01*
G01*
X216243931Y-35596906D01*
G75*
G02*
X215993932Y-35346907I0J249999D01*
G01*
X215993932Y-34646905D01*
G75*
G02*
X216243931Y-34396906I249999J0D01*
G01*
G37*
G36*
G01*
X210886114Y-35801593D02*
X211786116Y-35801593D01*
G75*
G02*
X212036115Y-36051592I0J-249999D01*
G01*
X212036115Y-36751594D01*
G75*
G02*
X211786116Y-37001593I-249999J0D01*
G01*
X210886114Y-37001593D01*
G75*
G02*
X210636115Y-36751594I0J249999D01*
G01*
X210636115Y-36051592D01*
G75*
G02*
X210886114Y-35801593I249999J0D01*
G01*
G37*
G36*
G01*
X210886114Y-33801593D02*
X211786116Y-33801593D01*
G75*
G02*
X212036115Y-34051592I0J-249999D01*
G01*
X212036115Y-34751594D01*
G75*
G02*
X211786116Y-35001593I-249999J0D01*
G01*
X210886114Y-35001593D01*
G75*
G02*
X210636115Y-34751594I0J249999D01*
G01*
X210636115Y-34051592D01*
G75*
G02*
X210886114Y-33801593I249999J0D01*
G01*
G37*
G36*
G01*
X205528297Y-35206280D02*
X206428299Y-35206280D01*
G75*
G02*
X206678298Y-35456279I0J-249999D01*
G01*
X206678298Y-36156281D01*
G75*
G02*
X206428299Y-36406280I-249999J0D01*
G01*
X205528297Y-36406280D01*
G75*
G02*
X205278298Y-36156281I0J249999D01*
G01*
X205278298Y-35456279D01*
G75*
G02*
X205528297Y-35206280I249999J0D01*
G01*
G37*
G36*
G01*
X205528297Y-33206280D02*
X206428299Y-33206280D01*
G75*
G02*
X206678298Y-33456279I0J-249999D01*
G01*
X206678298Y-34156281D01*
G75*
G02*
X206428299Y-34406280I-249999J0D01*
G01*
X205528297Y-34406280D01*
G75*
G02*
X205278298Y-34156281I0J249999D01*
G01*
X205278298Y-33456279D01*
G75*
G02*
X205528297Y-33206280I249999J0D01*
G01*
G37*
G36*
G01*
X200170480Y-34610967D02*
X201070482Y-34610967D01*
G75*
G02*
X201320481Y-34860966I0J-249999D01*
G01*
X201320481Y-35560968D01*
G75*
G02*
X201070482Y-35810967I-249999J0D01*
G01*
X200170480Y-35810967D01*
G75*
G02*
X199920481Y-35560968I0J249999D01*
G01*
X199920481Y-34860966D01*
G75*
G02*
X200170480Y-34610967I249999J0D01*
G01*
G37*
G36*
G01*
X200170480Y-32610967D02*
X201070482Y-32610967D01*
G75*
G02*
X201320481Y-32860966I0J-249999D01*
G01*
X201320481Y-33560968D01*
G75*
G02*
X201070482Y-33810967I-249999J0D01*
G01*
X200170480Y-33810967D01*
G75*
G02*
X199920481Y-33560968I0J249999D01*
G01*
X199920481Y-32860966D01*
G75*
G02*
X200170480Y-32610967I249999J0D01*
G01*
G37*
G36*
G01*
X93014140Y-34610967D02*
X93914142Y-34610967D01*
G75*
G02*
X94164141Y-34860966I0J-249999D01*
G01*
X94164141Y-35560968D01*
G75*
G02*
X93914142Y-35810967I-249999J0D01*
G01*
X93014140Y-35810967D01*
G75*
G02*
X92764141Y-35560968I0J249999D01*
G01*
X92764141Y-34860966D01*
G75*
G02*
X93014140Y-34610967I249999J0D01*
G01*
G37*
G36*
G01*
X93014140Y-32610967D02*
X93914142Y-32610967D01*
G75*
G02*
X94164141Y-32860966I0J-249999D01*
G01*
X94164141Y-33560968D01*
G75*
G02*
X93914142Y-33810967I-249999J0D01*
G01*
X93014140Y-33810967D01*
G75*
G02*
X92764141Y-33560968I0J249999D01*
G01*
X92764141Y-32860966D01*
G75*
G02*
X93014140Y-32610967I249999J0D01*
G01*
G37*
G36*
G01*
X87656323Y-35206280D02*
X88556325Y-35206280D01*
G75*
G02*
X88806324Y-35456279I0J-249999D01*
G01*
X88806324Y-36156281D01*
G75*
G02*
X88556325Y-36406280I-249999J0D01*
G01*
X87656323Y-36406280D01*
G75*
G02*
X87406324Y-36156281I0J249999D01*
G01*
X87406324Y-35456279D01*
G75*
G02*
X87656323Y-35206280I249999J0D01*
G01*
G37*
G36*
G01*
X87656323Y-33206280D02*
X88556325Y-33206280D01*
G75*
G02*
X88806324Y-33456279I0J-249999D01*
G01*
X88806324Y-34156281D01*
G75*
G02*
X88556325Y-34406280I-249999J0D01*
G01*
X87656323Y-34406280D01*
G75*
G02*
X87406324Y-34156281I0J249999D01*
G01*
X87406324Y-33456279D01*
G75*
G02*
X87656323Y-33206280I249999J0D01*
G01*
G37*
G36*
G01*
X82298506Y-35801593D02*
X83198508Y-35801593D01*
G75*
G02*
X83448507Y-36051592I0J-249999D01*
G01*
X83448507Y-36751594D01*
G75*
G02*
X83198508Y-37001593I-249999J0D01*
G01*
X82298506Y-37001593D01*
G75*
G02*
X82048507Y-36751594I0J249999D01*
G01*
X82048507Y-36051592D01*
G75*
G02*
X82298506Y-35801593I249999J0D01*
G01*
G37*
G36*
G01*
X82298506Y-33801593D02*
X83198508Y-33801593D01*
G75*
G02*
X83448507Y-34051592I0J-249999D01*
G01*
X83448507Y-34751594D01*
G75*
G02*
X83198508Y-35001593I-249999J0D01*
G01*
X82298506Y-35001593D01*
G75*
G02*
X82048507Y-34751594I0J249999D01*
G01*
X82048507Y-34051592D01*
G75*
G02*
X82298506Y-33801593I249999J0D01*
G01*
G37*
G36*
G01*
X76940689Y-36396906D02*
X77840691Y-36396906D01*
G75*
G02*
X78090690Y-36646905I0J-249999D01*
G01*
X78090690Y-37346907D01*
G75*
G02*
X77840691Y-37596906I-249999J0D01*
G01*
X76940689Y-37596906D01*
G75*
G02*
X76690690Y-37346907I0J249999D01*
G01*
X76690690Y-36646905D01*
G75*
G02*
X76940689Y-36396906I249999J0D01*
G01*
G37*
G36*
G01*
X76940689Y-34396906D02*
X77840691Y-34396906D01*
G75*
G02*
X78090690Y-34646905I0J-249999D01*
G01*
X78090690Y-35346907D01*
G75*
G02*
X77840691Y-35596906I-249999J0D01*
G01*
X76940689Y-35596906D01*
G75*
G02*
X76690690Y-35346907I0J249999D01*
G01*
X76690690Y-34646905D01*
G75*
G02*
X76940689Y-34396906I249999J0D01*
G01*
G37*
G36*
G01*
X63843803Y-36396906D02*
X64743805Y-36396906D01*
G75*
G02*
X64993804Y-36646905I0J-249999D01*
G01*
X64993804Y-37346907D01*
G75*
G02*
X64743805Y-37596906I-249999J0D01*
G01*
X63843803Y-37596906D01*
G75*
G02*
X63593804Y-37346907I0J249999D01*
G01*
X63593804Y-36646905D01*
G75*
G02*
X63843803Y-36396906I249999J0D01*
G01*
G37*
G36*
G01*
X63843803Y-34396906D02*
X64743805Y-34396906D01*
G75*
G02*
X64993804Y-34646905I0J-249999D01*
G01*
X64993804Y-35346907D01*
G75*
G02*
X64743805Y-35596906I-249999J0D01*
G01*
X63843803Y-35596906D01*
G75*
G02*
X63593804Y-35346907I0J249999D01*
G01*
X63593804Y-34646905D01*
G75*
G02*
X63843803Y-34396906I249999J0D01*
G01*
G37*
G36*
G01*
X58485986Y-35801593D02*
X59385988Y-35801593D01*
G75*
G02*
X59635987Y-36051592I0J-249999D01*
G01*
X59635987Y-36751594D01*
G75*
G02*
X59385988Y-37001593I-249999J0D01*
G01*
X58485986Y-37001593D01*
G75*
G02*
X58235987Y-36751594I0J249999D01*
G01*
X58235987Y-36051592D01*
G75*
G02*
X58485986Y-35801593I249999J0D01*
G01*
G37*
G36*
G01*
X58485986Y-33801593D02*
X59385988Y-33801593D01*
G75*
G02*
X59635987Y-34051592I0J-249999D01*
G01*
X59635987Y-34751594D01*
G75*
G02*
X59385988Y-35001593I-249999J0D01*
G01*
X58485986Y-35001593D01*
G75*
G02*
X58235987Y-34751594I0J249999D01*
G01*
X58235987Y-34051592D01*
G75*
G02*
X58485986Y-33801593I249999J0D01*
G01*
G37*
G36*
G01*
X53128169Y-35206280D02*
X54028171Y-35206280D01*
G75*
G02*
X54278170Y-35456279I0J-249999D01*
G01*
X54278170Y-36156281D01*
G75*
G02*
X54028171Y-36406280I-249999J0D01*
G01*
X53128169Y-36406280D01*
G75*
G02*
X52878170Y-36156281I0J249999D01*
G01*
X52878170Y-35456279D01*
G75*
G02*
X53128169Y-35206280I249999J0D01*
G01*
G37*
G36*
G01*
X53128169Y-33206280D02*
X54028171Y-33206280D01*
G75*
G02*
X54278170Y-33456279I0J-249999D01*
G01*
X54278170Y-34156281D01*
G75*
G02*
X54028171Y-34406280I-249999J0D01*
G01*
X53128169Y-34406280D01*
G75*
G02*
X52878170Y-34156281I0J249999D01*
G01*
X52878170Y-33456279D01*
G75*
G02*
X53128169Y-33206280I249999J0D01*
G01*
G37*
G36*
G01*
X47770352Y-34610967D02*
X48670354Y-34610967D01*
G75*
G02*
X48920353Y-34860966I0J-249999D01*
G01*
X48920353Y-35560968D01*
G75*
G02*
X48670354Y-35810967I-249999J0D01*
G01*
X47770352Y-35810967D01*
G75*
G02*
X47520353Y-35560968I0J249999D01*
G01*
X47520353Y-34860966D01*
G75*
G02*
X47770352Y-34610967I249999J0D01*
G01*
G37*
G36*
G01*
X47770352Y-32610967D02*
X48670354Y-32610967D01*
G75*
G02*
X48920353Y-32860966I0J-249999D01*
G01*
X48920353Y-33560968D01*
G75*
G02*
X48670354Y-33810967I-249999J0D01*
G01*
X47770352Y-33810967D01*
G75*
G02*
X47520353Y-33560968I0J249999D01*
G01*
X47520353Y-32860966D01*
G75*
G02*
X47770352Y-32610967I249999J0D01*
G01*
G37*
G36*
G01*
X166832953Y-27504711D02*
X166832953Y-28454711D01*
G75*
G02*
X166582953Y-28704711I-250000J0D01*
G01*
X165907953Y-28704711D01*
G75*
G02*
X165657953Y-28454711I0J250000D01*
G01*
X165657953Y-27504711D01*
G75*
G02*
X165907953Y-27254711I250000J0D01*
G01*
X166582953Y-27254711D01*
G75*
G02*
X166832953Y-27504711I0J-250000D01*
G01*
G37*
G36*
G01*
X168907953Y-27504711D02*
X168907953Y-28454711D01*
G75*
G02*
X168657953Y-28704711I-250000J0D01*
G01*
X167982953Y-28704711D01*
G75*
G02*
X167732953Y-28454711I0J250000D01*
G01*
X167732953Y-27504711D01*
G75*
G02*
X167982953Y-27254711I250000J0D01*
G01*
X168657953Y-27254711D01*
G75*
G02*
X168907953Y-27504711I0J-250000D01*
G01*
G37*
G36*
G01*
X224742375Y-34955963D02*
X224742375Y-34655963D01*
G75*
G02*
X224892375Y-34505963I150000J0D01*
G01*
X226542375Y-34505963D01*
G75*
G02*
X226692375Y-34655963I0J-150000D01*
G01*
X226692375Y-34955963D01*
G75*
G02*
X226542375Y-35105963I-150000J0D01*
G01*
X224892375Y-35105963D01*
G75*
G02*
X224742375Y-34955963I0J150000D01*
G01*
G37*
G36*
G01*
X224742375Y-33685963D02*
X224742375Y-33385963D01*
G75*
G02*
X224892375Y-33235963I150000J0D01*
G01*
X226542375Y-33235963D01*
G75*
G02*
X226692375Y-33385963I0J-150000D01*
G01*
X226692375Y-33685963D01*
G75*
G02*
X226542375Y-33835963I-150000J0D01*
G01*
X224892375Y-33835963D01*
G75*
G02*
X224742375Y-33685963I0J150000D01*
G01*
G37*
G36*
G01*
X224742375Y-32415963D02*
X224742375Y-32115963D01*
G75*
G02*
X224892375Y-31965963I150000J0D01*
G01*
X226542375Y-31965963D01*
G75*
G02*
X226692375Y-32115963I0J-150000D01*
G01*
X226692375Y-32415963D01*
G75*
G02*
X226542375Y-32565963I-150000J0D01*
G01*
X224892375Y-32565963D01*
G75*
G02*
X224742375Y-32415963I0J150000D01*
G01*
G37*
G36*
G01*
X224742375Y-31145963D02*
X224742375Y-30845963D01*
G75*
G02*
X224892375Y-30695963I150000J0D01*
G01*
X226542375Y-30695963D01*
G75*
G02*
X226692375Y-30845963I0J-150000D01*
G01*
X226692375Y-31145963D01*
G75*
G02*
X226542375Y-31295963I-150000J0D01*
G01*
X224892375Y-31295963D01*
G75*
G02*
X224742375Y-31145963I0J150000D01*
G01*
G37*
G36*
G01*
X224742375Y-29875963D02*
X224742375Y-29575963D01*
G75*
G02*
X224892375Y-29425963I150000J0D01*
G01*
X226542375Y-29425963D01*
G75*
G02*
X226692375Y-29575963I0J-150000D01*
G01*
X226692375Y-29875963D01*
G75*
G02*
X226542375Y-30025963I-150000J0D01*
G01*
X224892375Y-30025963D01*
G75*
G02*
X224742375Y-29875963I0J150000D01*
G01*
G37*
G36*
G01*
X224742375Y-28605963D02*
X224742375Y-28305963D01*
G75*
G02*
X224892375Y-28155963I150000J0D01*
G01*
X226542375Y-28155963D01*
G75*
G02*
X226692375Y-28305963I0J-150000D01*
G01*
X226692375Y-28605963D01*
G75*
G02*
X226542375Y-28755963I-150000J0D01*
G01*
X224892375Y-28755963D01*
G75*
G02*
X224742375Y-28605963I0J150000D01*
G01*
G37*
G36*
G01*
X224742375Y-27335963D02*
X224742375Y-27035963D01*
G75*
G02*
X224892375Y-26885963I150000J0D01*
G01*
X226542375Y-26885963D01*
G75*
G02*
X226692375Y-27035963I0J-150000D01*
G01*
X226692375Y-27335963D01*
G75*
G02*
X226542375Y-27485963I-150000J0D01*
G01*
X224892375Y-27485963D01*
G75*
G02*
X224742375Y-27335963I0J150000D01*
G01*
G37*
G36*
G01*
X224742375Y-26065963D02*
X224742375Y-25765963D01*
G75*
G02*
X224892375Y-25615963I150000J0D01*
G01*
X226542375Y-25615963D01*
G75*
G02*
X226692375Y-25765963I0J-150000D01*
G01*
X226692375Y-26065963D01*
G75*
G02*
X226542375Y-26215963I-150000J0D01*
G01*
X224892375Y-26215963D01*
G75*
G02*
X224742375Y-26065963I0J150000D01*
G01*
G37*
G36*
G01*
X219792375Y-26065963D02*
X219792375Y-25765963D01*
G75*
G02*
X219942375Y-25615963I150000J0D01*
G01*
X221592375Y-25615963D01*
G75*
G02*
X221742375Y-25765963I0J-150000D01*
G01*
X221742375Y-26065963D01*
G75*
G02*
X221592375Y-26215963I-150000J0D01*
G01*
X219942375Y-26215963D01*
G75*
G02*
X219792375Y-26065963I0J150000D01*
G01*
G37*
G36*
G01*
X219792375Y-27335963D02*
X219792375Y-27035963D01*
G75*
G02*
X219942375Y-26885963I150000J0D01*
G01*
X221592375Y-26885963D01*
G75*
G02*
X221742375Y-27035963I0J-150000D01*
G01*
X221742375Y-27335963D01*
G75*
G02*
X221592375Y-27485963I-150000J0D01*
G01*
X219942375Y-27485963D01*
G75*
G02*
X219792375Y-27335963I0J150000D01*
G01*
G37*
G36*
G01*
X219792375Y-28605963D02*
X219792375Y-28305963D01*
G75*
G02*
X219942375Y-28155963I150000J0D01*
G01*
X221592375Y-28155963D01*
G75*
G02*
X221742375Y-28305963I0J-150000D01*
G01*
X221742375Y-28605963D01*
G75*
G02*
X221592375Y-28755963I-150000J0D01*
G01*
X219942375Y-28755963D01*
G75*
G02*
X219792375Y-28605963I0J150000D01*
G01*
G37*
G36*
G01*
X219792375Y-29875963D02*
X219792375Y-29575963D01*
G75*
G02*
X219942375Y-29425963I150000J0D01*
G01*
X221592375Y-29425963D01*
G75*
G02*
X221742375Y-29575963I0J-150000D01*
G01*
X221742375Y-29875963D01*
G75*
G02*
X221592375Y-30025963I-150000J0D01*
G01*
X219942375Y-30025963D01*
G75*
G02*
X219792375Y-29875963I0J150000D01*
G01*
G37*
G36*
G01*
X219792375Y-31145963D02*
X219792375Y-30845963D01*
G75*
G02*
X219942375Y-30695963I150000J0D01*
G01*
X221592375Y-30695963D01*
G75*
G02*
X221742375Y-30845963I0J-150000D01*
G01*
X221742375Y-31145963D01*
G75*
G02*
X221592375Y-31295963I-150000J0D01*
G01*
X219942375Y-31295963D01*
G75*
G02*
X219792375Y-31145963I0J150000D01*
G01*
G37*
G36*
G01*
X219792375Y-32415963D02*
X219792375Y-32115963D01*
G75*
G02*
X219942375Y-31965963I150000J0D01*
G01*
X221592375Y-31965963D01*
G75*
G02*
X221742375Y-32115963I0J-150000D01*
G01*
X221742375Y-32415963D01*
G75*
G02*
X221592375Y-32565963I-150000J0D01*
G01*
X219942375Y-32565963D01*
G75*
G02*
X219792375Y-32415963I0J150000D01*
G01*
G37*
G36*
G01*
X219792375Y-33685963D02*
X219792375Y-33385963D01*
G75*
G02*
X219942375Y-33235963I150000J0D01*
G01*
X221592375Y-33235963D01*
G75*
G02*
X221742375Y-33385963I0J-150000D01*
G01*
X221742375Y-33685963D01*
G75*
G02*
X221592375Y-33835963I-150000J0D01*
G01*
X219942375Y-33835963D01*
G75*
G02*
X219792375Y-33685963I0J150000D01*
G01*
G37*
G36*
G01*
X219792375Y-34955963D02*
X219792375Y-34655963D01*
G75*
G02*
X219942375Y-34505963I150000J0D01*
G01*
X221592375Y-34505963D01*
G75*
G02*
X221742375Y-34655963I0J-150000D01*
G01*
X221742375Y-34955963D01*
G75*
G02*
X221592375Y-35105963I-150000J0D01*
G01*
X219942375Y-35105963D01*
G75*
G02*
X219792375Y-34955963I0J150000D01*
G01*
G37*
D10*
X166332953Y-23217207D03*
X167282953Y-23217207D03*
X168232953Y-23217207D03*
X168232953Y-25917207D03*
X166332953Y-25917207D03*
M02*
