M48
; DRILL file {KiCad (5.1.8-0-10_14)} date Wednesday, November 24, 2021 at 06:39:19 AM
; FORMAT={-:-/ absolute / metric / decimal}
; #@! TF.CreationDate,2021-11-24T06:39:19+09:00
; #@! TF.GenerationSoftware,Kicad,Pcbnew,(5.1.8-0-10_14)
; #@! TF.FileFunction,Plated,1,2,PTH
FMAT,2
METRIC
T1C0.400
%
G90
G05
T1
X-5.358Y-30.956
X-5.358Y-41.672
X-5.358Y-59.531
X-5.358Y-77.391
X-5.358Y-95.25
X-5.358Y-113.109
X-5.358Y-135.136
X-0.595Y-56.555
X1.786Y-132.755
X2.977Y-47.03
X4.167Y-75.605
X4.167Y-93.464
X4.167Y-112.514
X5.358Y-47.03
X5.358Y-123.23
X6.548Y-93.464
X6.548Y-130.969
X7.739Y-30.956
X7.739Y-66.08
X7.739Y-123.23
X8.93Y-55.364
X8.93Y-57.745
X8.93Y-74.414
X8.93Y-76.795
X9.882Y-135.136
X10.12Y-66.08
X10.12Y-85.13
X10.716Y-39.291
X11.311Y-55.364
X11.311Y-74.414
X12.502Y-85.13
X13.097Y-41.672
X14.883Y-104.18
X17.264Y-104.18
X18.455Y-56.555
X19.05Y-33.933
X19.05Y-36.314
X20.836Y-30.956
X20.836Y-66.08
X22.027Y-47.03
X22.027Y-94.655
X24.408Y-47.03
X25.122Y-135.136
X25.598Y-132.755
X26.789Y-55.364
X26.789Y-57.745
X26.789Y-113.705
X28.575Y-74.414
X28.575Y-76.795
X29.17Y-55.364
X29.17Y-123.23
X29.766Y-39.291
X30.361Y-130.969
X30.956Y-74.414
X31.552Y-66.08
X31.552Y-93.464
X31.552Y-95.845
X31.552Y-112.514
X31.552Y-114.895
X31.552Y-123.23
X32.147Y-41.672
X33.933Y-30.956
X33.933Y-66.08
X33.933Y-93.464
X33.933Y-112.514
X36.314Y-85.13
X37.505Y-56.555
X37.505Y-75.605
X38.695Y-85.13
X40.362Y-135.136
X41.077Y-47.03
X42.267Y-94.655
X42.267Y-113.705
X42.863Y-33.933
X42.863Y-36.314
X43.458Y-47.03
X45.839Y-22.027
X45.839Y-55.364
X45.839Y-57.745
X45.839Y-104.18
X47.625Y-74.414
X47.625Y-76.795
X48.22Y-55.364
X48.22Y-104.18
X48.816Y-39.291
X49.411Y-132.755
X50.006Y-74.414
X50.602Y-66.08
X50.602Y-93.464
X50.602Y-95.845
X51.197Y-41.672
X52.388Y-28.575
X52.388Y-32.147
X52.983Y-66.08
X52.983Y-93.464
X52.983Y-123.23
X54.173Y-130.969
X55.364Y-85.13
X55.364Y-123.23
X55.602Y-135.136
X56.555Y-33.338
X56.555Y-56.555
X56.555Y-75.605
X57.745Y-22.027
X57.745Y-85.13
X60.127Y-47.03
X60.722Y-39.291
X61.317Y-35.123
X61.317Y-94.655
X61.317Y-113.705
X62.508Y-47.03
X64.294Y-39.291
X64.889Y-55.364
X64.889Y-57.745
X64.889Y-104.18
X66.08Y-32.742
X66.08Y-118.467
X66.675Y-74.414
X66.675Y-76.795
X67.27Y-55.364
X67.27Y-104.18
X67.866Y-25.003
X69.056Y-74.414
X69.652Y-22.027
X69.652Y-66.08
X69.652Y-93.464
X69.652Y-95.845
X69.652Y-112.514
X69.652Y-114.895
X70.842Y-135.136
X70.842Y-118.467
X70.967Y-28.776
X70.967Y-32.147
X72.033Y-66.08
X72.033Y-93.464
X72.033Y-112.514
X72.628Y-29.051
X72.628Y-26.511
X72.628Y-27.781
X73.223Y-37.505
X74.414Y-85.13
X74.414Y-130.374
X75.605Y-27.98
X75.605Y-56.555
X75.605Y-75.605
X76.795Y-85.13
X78.581Y-29.17
X79.177Y-47.03
X79.772Y-39.291
X80.367Y-32.742
X80.367Y-35.123
X80.367Y-113.705
X80.367Y-118.467
X80.963Y-94.655
X81.558Y-22.027
X81.558Y-47.03
X83.344Y-39.291
X83.939Y-55.364
X83.939Y-57.745
X83.939Y-104.18
X85.725Y-74.414
X85.725Y-76.795
X86.082Y-135.136
X86.32Y-55.364
X86.32Y-104.18
X86.916Y-31.552
X88.106Y-74.414
X88.702Y-26.789
X88.702Y-29.17
X88.702Y-66.08
X88.702Y-93.464
X88.702Y-95.845
X89.892Y-132.755
X90.488Y-41.672
X91.083Y-66.08
X91.083Y-93.464
X92.869Y-39.291
X93.464Y-22.027
X93.464Y-85.13
X93.464Y-123.23
X94.655Y-75.605
X94.655Y-130.969
X95.845Y-31.552
X95.845Y-35.123
X95.845Y-55.364
X95.845Y-57.745
X95.845Y-85.13
X95.845Y-123.23
X98.227Y-47.03
X98.227Y-55.364
X99.417Y-94.655
X99.417Y-113.705
X100.608Y-47.03
X101.322Y-135.136
X102.989Y-104.18
X104.18Y-33.933
X104.18Y-56.555
X104.18Y-118.467
X104.775Y-27.384
X104.775Y-74.414
X104.775Y-76.795
X105.37Y-22.027
X105.37Y-104.18
X107.156Y-74.414
X107.752Y-66.08
X107.752Y-93.464
X107.752Y-95.845
X107.752Y-112.514
X107.752Y-114.895
X108.942Y-36.909
X108.942Y-118.467
X109.538Y-41.672
X110.133Y-33.338
X110.133Y-66.08
X110.133Y-93.464
X110.133Y-112.514
X111.919Y-35.719
X111.919Y-39.291
X112.514Y-85.13
X113.705Y-75.605
X113.705Y-130.374
X114.3Y-29.17
X114.895Y-55.364
X114.895Y-57.745
X114.895Y-85.13
X116.562Y-135.136
X117.277Y-22.027
X117.277Y-47.03
X117.277Y-55.364
X118.467Y-94.655
X118.467Y-113.705
X118.467Y-118.467
X119.063Y-26.194
X119.063Y-35.719
X119.658Y-47.03
X122.039Y-104.18
X123.23Y-56.555
X123.825Y-74.414
X123.825Y-76.795
X124.42Y-104.18
X126.206Y-26.194
X126.206Y-74.414
X126.802Y-34.528
X126.802Y-36.314
X126.802Y-66.08
X126.802Y-93.464
X126.802Y-95.845
X127.397Y-41.077
X127.397Y-42.863
X127.397Y-55.364
X127.992Y-22.027
X129.183Y-42.863
X129.183Y-66.08
X129.183Y-93.464
X129.203Y-23.088
X129.778Y-30.361
X129.778Y-32.742
X129.778Y-38.695
X130.374Y-26.194
X131.564Y-30.552
X131.564Y-34.528
X131.564Y-38.695
X131.564Y-40.481
X131.564Y-85.13
X131.802Y-135.136
X132.755Y-75.605
X133.35Y-130.374
X133.945Y-55.364
X133.945Y-57.745
X133.945Y-85.13
X135.731Y-26.194
X135.731Y-29.17
X135.731Y-32.742
X135.731Y-35.719
X136.327Y-39.291
X136.327Y-47.03
X136.327Y-55.364
X137.517Y-94.655
X137.517Y-113.705
X137.517Y-118.467
X138.708Y-47.03
X138.728Y-23.088
X138.974Y-31.075
X141.089Y-22.027
X141.089Y-104.18
X141.684Y-26.194
X141.684Y-29.766
X141.684Y-32.147
X142.28Y-56.555
X142.875Y-74.414
X142.875Y-76.795
X143.47Y-104.18
X145.256Y-74.414
X145.852Y-66.08
X145.852Y-93.464
X145.852Y-95.845
X147.042Y-135.136
X147.042Y-132.755
X148.233Y-66.08
X148.233Y-93.464
X150.019Y-39.291
X150.614Y-26.194
X150.614Y-85.13
X150.614Y-123.23
X151.21Y-75.605
X151.805Y-29.766
X151.805Y-32.147
X151.805Y-41.077
X151.805Y-130.969
X152.204Y-26.39
X152.822Y-25.522
X152.995Y-22.027
X152.995Y-24.538
X152.995Y-85.13
X152.995Y-123.23
X155.139Y-23.455
X155.377Y-47.03
X155.377Y-56.555
X155.377Y-74.414
X156.567Y-94.655
X156.567Y-113.705
X157.758Y-47.03
X158.353Y-26.194
X158.353Y-29.766
X158.353Y-32.147
X160.139Y-55.364
X160.139Y-57.745
X160.139Y-74.414
X160.139Y-76.795
X160.139Y-104.18
X162.282Y-135.136
X162.52Y-36.314
X162.52Y-38.695
X162.52Y-55.364
X162.52Y-104.18
X163.711Y-22.027
X163.711Y-118.467
X164.306Y-41.077
X164.306Y-74.414
X164.584Y-33.615
X164.902Y-26.194
X164.902Y-36.314
X164.902Y-66.08
X164.902Y-93.464
X164.902Y-95.845
X164.902Y-112.514
X164.902Y-114.895
X164.914Y-23.048
X167.283Y-24.278
X167.283Y-33.933
X167.283Y-66.08
X167.283Y-93.464
X167.283Y-112.514
X167.283Y-130.374
X167.878Y-41.672
X167.878Y-118.467
X168.474Y-55.364
X168.474Y-57.745
X169.069Y-35.719
X169.664Y-25.438
X169.664Y-85.13
X170.26Y-26.789
X170.855Y-55.364
X170.855Y-75.605
X172.045Y-29.766
X172.045Y-32.147
X172.045Y-85.13
X174.427Y-47.03
X174.427Y-56.555
X175.617Y-94.655
X175.617Y-113.705
X175.617Y-118.467
X176.213Y-74.414
X176.808Y-22.027
X176.808Y-47.03
X177.522Y-135.136
X177.999Y-93.464
X177.999Y-95.845
X179.189Y-55.364
X179.189Y-57.745
X179.189Y-104.18
X179.785Y-29.766
X180.38Y-26.194
X180.38Y-33.338
X180.38Y-40.481
X180.38Y-74.414
X180.38Y-76.795
X180.38Y-93.464
X180.38Y-130.374
X181.57Y-55.364
X181.57Y-104.18
X182.761Y-38.1
X183.952Y-66.08
X183.952Y-74.414
X185.142Y-40.481
X185.842Y-43.563
X186.333Y-66.08
X187.524Y-26.194
X187.524Y-33.338
X187.524Y-132.755
X188.119Y-29.766
X188.714Y-22.027
X188.714Y-55.364
X188.714Y-85.13
X189.31Y-57.745
X189.905Y-75.605
X189.905Y-112.514
X191.095Y-85.13
X191.095Y-94.655
X191.095Y-123.23
X191.691Y-55.364
X192.286Y-112.514
X192.286Y-114.895
X192.286Y-130.969
X192.762Y-135.136
X193.477Y-47.03
X193.477Y-56.555
X193.477Y-93.464
X193.477Y-95.845
X193.477Y-123.23
X194.667Y-113.705
X195.263Y-74.414
X195.858Y-47.03
X195.858Y-93.464
X197.049Y-35.719
X198.239Y-55.364
X198.239Y-57.745
X198.239Y-104.18
X198.835Y-26.789
X199.43Y-74.414
X199.43Y-76.795
X200.62Y-22.027
X200.62Y-39.886
X200.62Y-55.364
X200.62Y-104.18
X201.811Y-29.766
X201.811Y-112.514
X201.811Y-114.895
X203.002Y-42.267
X203.002Y-66.08
X203.002Y-74.414
X203.002Y-93.464
X203.002Y-95.845
X203.597Y-32.742
X204.192Y-112.514
X205.383Y-66.08
X205.383Y-93.464
X207.764Y-85.13
X208.002Y-135.136
X208.955Y-33.933
X208.955Y-56.555
X208.955Y-75.605
X208.955Y-132.755
X210.145Y-85.13
X212.527Y-22.027
X212.527Y-47.03
X212.527Y-123.23
X213.717Y-35.123
X213.717Y-94.655
X213.717Y-113.705
X213.717Y-130.969
X214.908Y-47.03
X214.908Y-123.23
X216.694Y-39.291
X217.289Y-55.364
X217.289Y-57.745
X217.289Y-104.18
X218.48Y-26.789
X219.075Y-32.147
X219.075Y-74.414
X219.075Y-76.795
X219.67Y-39.291
X219.67Y-55.364
X219.67Y-104.18
X220.767Y-28.456
X221.456Y-74.414
X222.052Y-66.08
X222.052Y-93.464
X222.052Y-95.845
X222.052Y-112.514
X222.052Y-114.895
X223.242Y-135.136
X223.242Y-33.933
X224.433Y-22.027
X224.433Y-66.08
X224.433Y-93.464
X224.433Y-112.514
X225.624Y-36.909
X225.717Y-25.916
X225.717Y-27.186
X225.717Y-28.456
X226.814Y-85.13
X227.41Y-114.895
X228.005Y-56.555
X228.005Y-75.605
X229.196Y-27.98
X229.196Y-85.13
X229.791Y-112.514
X229.791Y-114.895
X231.577Y-47.03
X231.577Y-123.23
X232.172Y-33.933
X232.172Y-39.291
X232.767Y-94.655
X232.767Y-130.969
X233.958Y-47.03
X233.958Y-123.23
X236.339Y-22.027
X236.339Y-32.742
X236.339Y-55.364
X236.339Y-57.745
X236.339Y-74.414
X236.339Y-76.795
X236.339Y-93.464
X236.339Y-95.845
X237.53Y-132.755
X238.482Y-135.136
X238.721Y-55.364
X238.721Y-74.414
X238.721Y-93.464
X239.911Y-113.705
X241.102Y-27.98
X241.102Y-31.552
X241.102Y-66.08
X242.292Y-38.695
X242.292Y-41.077
X243.483Y-66.08
X243.483Y-104.18
X245.864Y-104.18
X247.055Y-75.605
X247.055Y-132.755
X248.245Y-22.027
X248.246Y-35.719
X250.627Y-93.464
X250.627Y-95.845
X250.627Y-123.23
X251.817Y-30.956
X251.817Y-130.969
X253.008Y-41.672
X253.008Y-55.364
X253.008Y-57.745
X253.008Y-74.414
X253.008Y-76.795
X253.008Y-93.464
X253.008Y-123.23
X253.722Y-135.136
X254.794Y-39.886
X255.389Y-55.364
X255.389Y-74.414
X255.985Y-112.514
X255.985Y-114.895
X257.175Y-33.933
X257.771Y-85.13
X258.366Y-112.514
X260.152Y-47.03
X260.152Y-85.13
X261.342Y-75.605
X262.533Y-47.03
X263.724Y-94.655
X264.914Y-66.08
X266.105Y-56.555
X266.105Y-113.705
X266.105Y-132.755
X267.296Y-30.956
X267.296Y-66.08
X268.962Y-135.136
X269.677Y-104.18
X269.677Y-123.23
X270.867Y-130.969
X272.058Y-41.672
X272.058Y-55.364
X272.058Y-57.745
X272.058Y-104.18
X272.058Y-123.23
X273.844Y-41.672
X273.844Y-55.364
X274.439Y-74.414
X274.439Y-76.795
X274.439Y-93.464
X274.439Y-95.845
X275.035Y-112.514
X275.035Y-114.895
X275.63Y-33.933
X275.63Y-36.314
X276.821Y-74.414
X276.821Y-93.464
X277.416Y-112.514
X281.583Y-41.672
X282.774Y-30.956
X283.369Y-39.886
X283.369Y-55.364
X283.369Y-57.745
X283.369Y-74.414
X283.369Y-76.795
X283.369Y-93.464
X283.369Y-95.845
X283.369Y-112.514
X283.369Y-114.895
X284.202Y-135.136
X285.75Y-55.364
X285.75Y-74.414
X285.75Y-93.464
X285.75Y-112.514
X288.727Y-47.03
X288.727Y-66.08
X288.727Y-85.13
X288.727Y-104.18
X288.727Y-123.23
X289.917Y-130.969
X291.108Y-47.03
X291.108Y-66.08
X291.108Y-85.13
X291.108Y-104.18
X291.108Y-123.23
X294.68Y-56.555
X294.68Y-75.605
X294.68Y-94.655
X294.68Y-113.705
X294.68Y-132.755
X299.442Y-135.136
X299.442Y-30.956
X299.442Y-44.053
X299.442Y-61.913
X299.442Y-79.772
X299.442Y-97.631
X299.442Y-115.491
T0
M30
