%FSLAX45Y45*%
G04 Gerber Fmt 4.5, Leading zero omitted, Abs format (unit mm)*
G04 Created by KiCad (PCBNEW (5.1.8-0-10_14)) date 2021-11-24 06:39:21*
%MOMM*%
%LPD*%
G01*
G04 APERTURE LIST*
%TA.AperFunction,Profile*%
%ADD10C,0.050000*%
%TD*%
%ADD11C,0.200000*%
%ADD12C,0.300000*%
G04 APERTURE END LIST*
D10*
X-654844Y-13335011D02*
X-654844Y-13513605D01*
X-535782Y-13632668D02*
G75*
G02*
X-654844Y-13513605I0J119063D01*
G01*
X29944244Y-13632668D02*
X-535782Y-13632668D01*
X30063306Y-13513605D02*
X30063306Y-13335011D01*
X30063306Y-13513605D02*
G75*
G02*
X29944244Y-13632668I-119063J0D01*
G01*
X-654844Y-3095628D02*
X-654844Y-13335011D01*
X4583910Y-2083595D02*
X24824552Y-2083595D01*
X4464848Y-2202658D02*
G75*
G02*
X4583910Y-2083595I119063J0D01*
G01*
X4464848Y-2797971D02*
X4464848Y-2202658D01*
X4286254Y-2976565D02*
X-535782Y-2976565D01*
X4464848Y-2797971D02*
G75*
G02*
X4286254Y-2976565I-178594J0D01*
G01*
X-654844Y-3095628D02*
G75*
G02*
X-535782Y-2976565I119063J0D01*
G01*
X30063306Y-3095628D02*
X30063306Y-13335011D01*
X29944244Y-2976565D02*
G75*
G02*
X30063306Y-3095628I0J-119063D01*
G01*
X25122209Y-2976565D02*
X29944244Y-2976565D01*
X25122209Y-2976565D02*
G75*
G02*
X24943615Y-2797971I0J178594D01*
G01*
X24943615Y-2202658D02*
X24943615Y-2797971D01*
X24824552Y-2083595D02*
G75*
G02*
X24943615Y-2202658I0J-119063D01*
G01*
D11*
X1740470Y-12217979D02*
X1950470Y-12427979D01*
X1950470Y-12217979D02*
X1740470Y-12427979D01*
X12217979Y-12217979D02*
X12427979Y-12427979D01*
X12427979Y-12217979D02*
X12217979Y-12427979D01*
X20314236Y-12217979D02*
X20524236Y-12427979D01*
X20524236Y-12217979D02*
X20314236Y-12427979D01*
X27934242Y-12217979D02*
X28144242Y-12427979D01*
X28144242Y-12217979D02*
X27934242Y-12427979D01*
X23647989Y-8407976D02*
X23857989Y-8617976D01*
X23857989Y-8407976D02*
X23647989Y-8617976D01*
X16027982Y-8407976D02*
X16237982Y-8617976D01*
X16237982Y-8407976D02*
X16027982Y-8617976D01*
X8407976Y-8407976D02*
X8617976Y-8617976D01*
X8617976Y-8407976D02*
X8407976Y-8617976D01*
X2335783Y-8407976D02*
X2545783Y-8617976D01*
X2545783Y-8407976D02*
X2335783Y-8617976D01*
X27934242Y-4597973D02*
X28144242Y-4807973D01*
X28144242Y-4597973D02*
X27934242Y-4807973D01*
X20314236Y-4597973D02*
X20524236Y-4807973D01*
X20524236Y-4597973D02*
X20314236Y-4807973D01*
X10789228Y-4597973D02*
X10999228Y-4807973D01*
X10999228Y-4597973D02*
X10789228Y-4807973D01*
X1264220Y-4597973D02*
X1474220Y-4807973D01*
X1474220Y-4597973D02*
X1264220Y-4807973D01*
X11288290Y-2857502D02*
G75*
G03*
X11288290Y-2857502I-275000J0D01*
G01*
X18670172Y-2857502D02*
G75*
G03*
X18670172Y-2857502I-275000J0D01*
G01*
D12*
X-370916Y-14100882D02*
X-370916Y-13800882D01*
X-299487Y-13800882D01*
X-256630Y-13815168D01*
X-228059Y-13843739D01*
X-213773Y-13872311D01*
X-199487Y-13929453D01*
X-199487Y-13972311D01*
X-213773Y-14029453D01*
X-228059Y-14058025D01*
X-256630Y-14086596D01*
X-299487Y-14100882D01*
X-370916Y-14100882D01*
X-70916Y-14100882D02*
X-70916Y-13900882D01*
X-70916Y-13958025D02*
X-56630Y-13929453D01*
X-42344Y-13915168D01*
X-13773Y-13900882D01*
X14798Y-13900882D01*
X114798Y-14100882D02*
X114798Y-13900882D01*
X114798Y-13800882D02*
X100513Y-13815168D01*
X114798Y-13829453D01*
X129084Y-13815168D01*
X114798Y-13800882D01*
X114798Y-13829453D01*
X300513Y-14100882D02*
X271941Y-14086596D01*
X257655Y-14058025D01*
X257655Y-13800882D01*
X457655Y-14100882D02*
X429084Y-14086596D01*
X414798Y-14058025D01*
X414798Y-13800882D01*
X800513Y-14100882D02*
X800513Y-13800882D01*
X900513Y-14015168D01*
X1000513Y-13800882D01*
X1000513Y-14100882D01*
X1271941Y-14100882D02*
X1271941Y-13943739D01*
X1257656Y-13915168D01*
X1229084Y-13900882D01*
X1171941Y-13900882D01*
X1143370Y-13915168D01*
X1271941Y-14086596D02*
X1243370Y-14100882D01*
X1171941Y-14100882D01*
X1143370Y-14086596D01*
X1129084Y-14058025D01*
X1129084Y-14029453D01*
X1143370Y-14000882D01*
X1171941Y-13986596D01*
X1243370Y-13986596D01*
X1271941Y-13972311D01*
X1414798Y-13900882D02*
X1414798Y-14200882D01*
X1414798Y-13915168D02*
X1443370Y-13900882D01*
X1500513Y-13900882D01*
X1529084Y-13915168D01*
X1543370Y-13929453D01*
X1557655Y-13958025D01*
X1557655Y-14043739D01*
X1543370Y-14072311D01*
X1529084Y-14086596D01*
X1500513Y-14100882D01*
X1443370Y-14100882D01*
X1414798Y-14086596D01*
X1686227Y-14072311D02*
X1700513Y-14086596D01*
X1686227Y-14100882D01*
X1671941Y-14086596D01*
X1686227Y-14072311D01*
X1686227Y-14100882D01*
X1686227Y-13915168D02*
X1700513Y-13929453D01*
X1686227Y-13943739D01*
X1671941Y-13929453D01*
X1686227Y-13915168D01*
X1686227Y-13943739D01*
X-867344Y-14490168D02*
X-657344Y-14700168D01*
X-657344Y-14490168D02*
X-867344Y-14700168D01*
X-385201Y-14459453D02*
X-370916Y-14445168D01*
X-342344Y-14430882D01*
X-270916Y-14430882D01*
X-242344Y-14445168D01*
X-228059Y-14459453D01*
X-213773Y-14488025D01*
X-213773Y-14516596D01*
X-228059Y-14559453D01*
X-399487Y-14730882D01*
X-213773Y-14730882D01*
X-85202Y-14702311D02*
X-70916Y-14716596D01*
X-85202Y-14730882D01*
X-99487Y-14716596D01*
X-85202Y-14702311D01*
X-85202Y-14730882D01*
X214798Y-14730882D02*
X43370Y-14730882D01*
X129084Y-14730882D02*
X129084Y-14430882D01*
X100513Y-14473739D01*
X71941Y-14502311D01*
X43370Y-14516596D01*
X400513Y-14430882D02*
X429084Y-14430882D01*
X457656Y-14445168D01*
X471941Y-14459453D01*
X486227Y-14488025D01*
X500513Y-14545168D01*
X500513Y-14616596D01*
X486227Y-14673739D01*
X471941Y-14702311D01*
X457656Y-14716596D01*
X429084Y-14730882D01*
X400513Y-14730882D01*
X371941Y-14716596D01*
X357655Y-14702311D01*
X343370Y-14673739D01*
X329084Y-14616596D01*
X329084Y-14545168D01*
X343370Y-14488025D01*
X357655Y-14459453D01*
X371941Y-14445168D01*
X400513Y-14430882D01*
X629084Y-14730882D02*
X629084Y-14530882D01*
X629084Y-14559453D02*
X643370Y-14545168D01*
X671941Y-14530882D01*
X714798Y-14530882D01*
X743370Y-14545168D01*
X757655Y-14573739D01*
X757655Y-14730882D01*
X757655Y-14573739D02*
X771941Y-14545168D01*
X800513Y-14530882D01*
X843370Y-14530882D01*
X871941Y-14545168D01*
X886227Y-14573739D01*
X886227Y-14730882D01*
X1029084Y-14730882D02*
X1029084Y-14530882D01*
X1029084Y-14559453D02*
X1043370Y-14545168D01*
X1071941Y-14530882D01*
X1114798Y-14530882D01*
X1143370Y-14545168D01*
X1157656Y-14573739D01*
X1157656Y-14730882D01*
X1157656Y-14573739D02*
X1171941Y-14545168D01*
X1200513Y-14530882D01*
X1243370Y-14530882D01*
X1271941Y-14545168D01*
X1286227Y-14573739D01*
X1286227Y-14730882D01*
X1871941Y-14416596D02*
X1614798Y-14802311D01*
X2257656Y-14430882D02*
X2286227Y-14430882D01*
X2314798Y-14445168D01*
X2329084Y-14459453D01*
X2343370Y-14488025D01*
X2357656Y-14545168D01*
X2357656Y-14616596D01*
X2343370Y-14673739D01*
X2329084Y-14702311D01*
X2314798Y-14716596D01*
X2286227Y-14730882D01*
X2257656Y-14730882D01*
X2229084Y-14716596D01*
X2214798Y-14702311D01*
X2200513Y-14673739D01*
X2186227Y-14616596D01*
X2186227Y-14545168D01*
X2200513Y-14488025D01*
X2214798Y-14459453D01*
X2229084Y-14445168D01*
X2257656Y-14430882D01*
X2486227Y-14702311D02*
X2500513Y-14716596D01*
X2486227Y-14730882D01*
X2471941Y-14716596D01*
X2486227Y-14702311D01*
X2486227Y-14730882D01*
X2686227Y-14430882D02*
X2714798Y-14430882D01*
X2743370Y-14445168D01*
X2757656Y-14459453D01*
X2771941Y-14488025D01*
X2786227Y-14545168D01*
X2786227Y-14616596D01*
X2771941Y-14673739D01*
X2757656Y-14702311D01*
X2743370Y-14716596D01*
X2714798Y-14730882D01*
X2686227Y-14730882D01*
X2657656Y-14716596D01*
X2643370Y-14702311D01*
X2629084Y-14673739D01*
X2614798Y-14616596D01*
X2614798Y-14545168D01*
X2629084Y-14488025D01*
X2643370Y-14459453D01*
X2657656Y-14445168D01*
X2686227Y-14430882D01*
X2957656Y-14559453D02*
X2929084Y-14545168D01*
X2914798Y-14530882D01*
X2900513Y-14502311D01*
X2900513Y-14488025D01*
X2914798Y-14459453D01*
X2929084Y-14445168D01*
X2957656Y-14430882D01*
X3014798Y-14430882D01*
X3043370Y-14445168D01*
X3057656Y-14459453D01*
X3071941Y-14488025D01*
X3071941Y-14502311D01*
X3057656Y-14530882D01*
X3043370Y-14545168D01*
X3014798Y-14559453D01*
X2957656Y-14559453D01*
X2929084Y-14573739D01*
X2914798Y-14588025D01*
X2900513Y-14616596D01*
X2900513Y-14673739D01*
X2914798Y-14702311D01*
X2929084Y-14716596D01*
X2957656Y-14730882D01*
X3014798Y-14730882D01*
X3043370Y-14716596D01*
X3057656Y-14702311D01*
X3071941Y-14673739D01*
X3071941Y-14616596D01*
X3057656Y-14588025D01*
X3043370Y-14573739D01*
X3014798Y-14559453D01*
X3171941Y-14430882D02*
X3357655Y-14430882D01*
X3257655Y-14545168D01*
X3300513Y-14545168D01*
X3329084Y-14559453D01*
X3343370Y-14573739D01*
X3357655Y-14602311D01*
X3357655Y-14673739D01*
X3343370Y-14702311D01*
X3329084Y-14716596D01*
X3300513Y-14730882D01*
X3214798Y-14730882D01*
X3186227Y-14716596D01*
X3171941Y-14702311D01*
X3471941Y-14430882D02*
X3471941Y-14488025D01*
X3586227Y-14430882D02*
X3586227Y-14488025D01*
X4029084Y-14845168D02*
X4014798Y-14830882D01*
X3986227Y-14788025D01*
X3971941Y-14759453D01*
X3957655Y-14716596D01*
X3943370Y-14645168D01*
X3943370Y-14588025D01*
X3957655Y-14516596D01*
X3971941Y-14473739D01*
X3986227Y-14445168D01*
X4014798Y-14402311D01*
X4029084Y-14388025D01*
X4300513Y-14730882D02*
X4129084Y-14730882D01*
X4214798Y-14730882D02*
X4214798Y-14430882D01*
X4186227Y-14473739D01*
X4157655Y-14502311D01*
X4129084Y-14516596D01*
X4414798Y-14459453D02*
X4429084Y-14445168D01*
X4457656Y-14430882D01*
X4529084Y-14430882D01*
X4557656Y-14445168D01*
X4571941Y-14459453D01*
X4586227Y-14488025D01*
X4586227Y-14516596D01*
X4571941Y-14559453D01*
X4400513Y-14730882D01*
X4586227Y-14730882D01*
X4943370Y-14730882D02*
X4943370Y-14430882D01*
X5071941Y-14730882D02*
X5071941Y-14573739D01*
X5057656Y-14545168D01*
X5029084Y-14530882D01*
X4986227Y-14530882D01*
X4957656Y-14545168D01*
X4943370Y-14559453D01*
X5257656Y-14730882D02*
X5229084Y-14716596D01*
X5214798Y-14702311D01*
X5200513Y-14673739D01*
X5200513Y-14588025D01*
X5214798Y-14559453D01*
X5229084Y-14545168D01*
X5257656Y-14530882D01*
X5300513Y-14530882D01*
X5329084Y-14545168D01*
X5343370Y-14559453D01*
X5357656Y-14588025D01*
X5357656Y-14673739D01*
X5343370Y-14702311D01*
X5329084Y-14716596D01*
X5300513Y-14730882D01*
X5257656Y-14730882D01*
X5529084Y-14730882D02*
X5500513Y-14716596D01*
X5486227Y-14688025D01*
X5486227Y-14430882D01*
X5757656Y-14716596D02*
X5729084Y-14730882D01*
X5671941Y-14730882D01*
X5643370Y-14716596D01*
X5629084Y-14688025D01*
X5629084Y-14573739D01*
X5643370Y-14545168D01*
X5671941Y-14530882D01*
X5729084Y-14530882D01*
X5757656Y-14545168D01*
X5771941Y-14573739D01*
X5771941Y-14602311D01*
X5629084Y-14630882D01*
X5886227Y-14716596D02*
X5914798Y-14730882D01*
X5971941Y-14730882D01*
X6000513Y-14716596D01*
X6014798Y-14688025D01*
X6014798Y-14673739D01*
X6000513Y-14645168D01*
X5971941Y-14630882D01*
X5929084Y-14630882D01*
X5900513Y-14616596D01*
X5886227Y-14588025D01*
X5886227Y-14573739D01*
X5900513Y-14545168D01*
X5929084Y-14530882D01*
X5971941Y-14530882D01*
X6000513Y-14545168D01*
X6114798Y-14845168D02*
X6129084Y-14830882D01*
X6157656Y-14788025D01*
X6171941Y-14759453D01*
X6186227Y-14716596D01*
X6200513Y-14645168D01*
X6200513Y-14588025D01*
X6186227Y-14516596D01*
X6171941Y-14473739D01*
X6157656Y-14445168D01*
X6129084Y-14402311D01*
X6114798Y-14388025D01*
X6657655Y-14845168D02*
X6643370Y-14830882D01*
X6614798Y-14788025D01*
X6600513Y-14759453D01*
X6586227Y-14716596D01*
X6571941Y-14645168D01*
X6571941Y-14588025D01*
X6586227Y-14516596D01*
X6600513Y-14473739D01*
X6614798Y-14445168D01*
X6643370Y-14402311D01*
X6657655Y-14388025D01*
X6771941Y-14530882D02*
X6771941Y-14730882D01*
X6771941Y-14559453D02*
X6786227Y-14545168D01*
X6814798Y-14530882D01*
X6857655Y-14530882D01*
X6886227Y-14545168D01*
X6900513Y-14573739D01*
X6900513Y-14730882D01*
X7086227Y-14730882D02*
X7057655Y-14716596D01*
X7043370Y-14702311D01*
X7029084Y-14673739D01*
X7029084Y-14588025D01*
X7043370Y-14559453D01*
X7057655Y-14545168D01*
X7086227Y-14530882D01*
X7129084Y-14530882D01*
X7157655Y-14545168D01*
X7171941Y-14559453D01*
X7186227Y-14588025D01*
X7186227Y-14673739D01*
X7171941Y-14702311D01*
X7157655Y-14716596D01*
X7129084Y-14730882D01*
X7086227Y-14730882D01*
X7271941Y-14530882D02*
X7386227Y-14530882D01*
X7314798Y-14430882D02*
X7314798Y-14688025D01*
X7329084Y-14716596D01*
X7357656Y-14730882D01*
X7386227Y-14730882D01*
X7714798Y-14530882D02*
X7714798Y-14830882D01*
X7714798Y-14545168D02*
X7743370Y-14530882D01*
X7800513Y-14530882D01*
X7829084Y-14545168D01*
X7843370Y-14559453D01*
X7857656Y-14588025D01*
X7857656Y-14673739D01*
X7843370Y-14702311D01*
X7829084Y-14716596D01*
X7800513Y-14730882D01*
X7743370Y-14730882D01*
X7714798Y-14716596D01*
X8029084Y-14730882D02*
X8000513Y-14716596D01*
X7986227Y-14688025D01*
X7986227Y-14430882D01*
X8271941Y-14730882D02*
X8271941Y-14573739D01*
X8257655Y-14545168D01*
X8229084Y-14530882D01*
X8171941Y-14530882D01*
X8143370Y-14545168D01*
X8271941Y-14716596D02*
X8243370Y-14730882D01*
X8171941Y-14730882D01*
X8143370Y-14716596D01*
X8129084Y-14688025D01*
X8129084Y-14659453D01*
X8143370Y-14630882D01*
X8171941Y-14616596D01*
X8243370Y-14616596D01*
X8271941Y-14602311D01*
X8371941Y-14530882D02*
X8486227Y-14530882D01*
X8414798Y-14430882D02*
X8414798Y-14688025D01*
X8429084Y-14716596D01*
X8457656Y-14730882D01*
X8486227Y-14730882D01*
X8700513Y-14716596D02*
X8671941Y-14730882D01*
X8614798Y-14730882D01*
X8586227Y-14716596D01*
X8571941Y-14688025D01*
X8571941Y-14573739D01*
X8586227Y-14545168D01*
X8614798Y-14530882D01*
X8671941Y-14530882D01*
X8700513Y-14545168D01*
X8714798Y-14573739D01*
X8714798Y-14602311D01*
X8571941Y-14630882D01*
X8971941Y-14730882D02*
X8971941Y-14430882D01*
X8971941Y-14716596D02*
X8943370Y-14730882D01*
X8886227Y-14730882D01*
X8857656Y-14716596D01*
X8843370Y-14702311D01*
X8829084Y-14673739D01*
X8829084Y-14588025D01*
X8843370Y-14559453D01*
X8857656Y-14545168D01*
X8886227Y-14530882D01*
X8943370Y-14530882D01*
X8971941Y-14545168D01*
X9086227Y-14845168D02*
X9100513Y-14830882D01*
X9129084Y-14788025D01*
X9143370Y-14759453D01*
X9157656Y-14716596D01*
X9171941Y-14645168D01*
X9171941Y-14588025D01*
X9157656Y-14516596D01*
X9143370Y-14473739D01*
X9129084Y-14445168D01*
X9100513Y-14402311D01*
X9086227Y-14388025D01*
X-657344Y-14991168D02*
G75*
G03*
X-657344Y-14991168I-275000J0D01*
G01*
X-228059Y-14826882D02*
X-370916Y-14826882D01*
X-385201Y-14969739D01*
X-370916Y-14955453D01*
X-342344Y-14941168D01*
X-270916Y-14941168D01*
X-242344Y-14955453D01*
X-228059Y-14969739D01*
X-213773Y-14998311D01*
X-213773Y-15069739D01*
X-228059Y-15098311D01*
X-242344Y-15112596D01*
X-270916Y-15126882D01*
X-342344Y-15126882D01*
X-370916Y-15112596D01*
X-385201Y-15098311D01*
X-85202Y-15098311D02*
X-70916Y-15112596D01*
X-85202Y-15126882D01*
X-99487Y-15112596D01*
X-85202Y-15098311D01*
X-85202Y-15126882D01*
X200513Y-14826882D02*
X57656Y-14826882D01*
X43370Y-14969739D01*
X57656Y-14955453D01*
X86227Y-14941168D01*
X157656Y-14941168D01*
X186227Y-14955453D01*
X200513Y-14969739D01*
X214798Y-14998311D01*
X214798Y-15069739D01*
X200513Y-15098311D01*
X186227Y-15112596D01*
X157656Y-15126882D01*
X86227Y-15126882D01*
X57656Y-15112596D01*
X43370Y-15098311D01*
X400513Y-14826882D02*
X429084Y-14826882D01*
X457656Y-14841168D01*
X471941Y-14855453D01*
X486227Y-14884025D01*
X500513Y-14941168D01*
X500513Y-15012596D01*
X486227Y-15069739D01*
X471941Y-15098311D01*
X457656Y-15112596D01*
X429084Y-15126882D01*
X400513Y-15126882D01*
X371941Y-15112596D01*
X357655Y-15098311D01*
X343370Y-15069739D01*
X329084Y-15012596D01*
X329084Y-14941168D01*
X343370Y-14884025D01*
X357655Y-14855453D01*
X371941Y-14841168D01*
X400513Y-14826882D01*
X629084Y-15126882D02*
X629084Y-14926882D01*
X629084Y-14955453D02*
X643370Y-14941168D01*
X671941Y-14926882D01*
X714798Y-14926882D01*
X743370Y-14941168D01*
X757655Y-14969739D01*
X757655Y-15126882D01*
X757655Y-14969739D02*
X771941Y-14941168D01*
X800513Y-14926882D01*
X843370Y-14926882D01*
X871941Y-14941168D01*
X886227Y-14969739D01*
X886227Y-15126882D01*
X1029084Y-15126882D02*
X1029084Y-14926882D01*
X1029084Y-14955453D02*
X1043370Y-14941168D01*
X1071941Y-14926882D01*
X1114798Y-14926882D01*
X1143370Y-14941168D01*
X1157656Y-14969739D01*
X1157656Y-15126882D01*
X1157656Y-14969739D02*
X1171941Y-14941168D01*
X1200513Y-14926882D01*
X1243370Y-14926882D01*
X1271941Y-14941168D01*
X1286227Y-14969739D01*
X1286227Y-15126882D01*
X1871941Y-14812596D02*
X1614798Y-15198311D01*
X2257656Y-14826882D02*
X2286227Y-14826882D01*
X2314798Y-14841168D01*
X2329084Y-14855453D01*
X2343370Y-14884025D01*
X2357656Y-14941168D01*
X2357656Y-15012596D01*
X2343370Y-15069739D01*
X2329084Y-15098311D01*
X2314798Y-15112596D01*
X2286227Y-15126882D01*
X2257656Y-15126882D01*
X2229084Y-15112596D01*
X2214798Y-15098311D01*
X2200513Y-15069739D01*
X2186227Y-15012596D01*
X2186227Y-14941168D01*
X2200513Y-14884025D01*
X2214798Y-14855453D01*
X2229084Y-14841168D01*
X2257656Y-14826882D01*
X2486227Y-15098311D02*
X2500513Y-15112596D01*
X2486227Y-15126882D01*
X2471941Y-15112596D01*
X2486227Y-15098311D01*
X2486227Y-15126882D01*
X2614798Y-14855453D02*
X2629084Y-14841168D01*
X2657656Y-14826882D01*
X2729084Y-14826882D01*
X2757656Y-14841168D01*
X2771941Y-14855453D01*
X2786227Y-14884025D01*
X2786227Y-14912596D01*
X2771941Y-14955453D01*
X2600513Y-15126882D01*
X2786227Y-15126882D01*
X3071941Y-15126882D02*
X2900513Y-15126882D01*
X2986227Y-15126882D02*
X2986227Y-14826882D01*
X2957656Y-14869739D01*
X2929084Y-14898311D01*
X2900513Y-14912596D01*
X3171941Y-14826882D02*
X3371941Y-14826882D01*
X3243370Y-15126882D01*
X3471941Y-14826882D02*
X3471941Y-14884025D01*
X3586227Y-14826882D02*
X3586227Y-14884025D01*
X4029084Y-15241168D02*
X4014798Y-15226882D01*
X3986227Y-15184025D01*
X3971941Y-15155453D01*
X3957655Y-15112596D01*
X3943370Y-15041168D01*
X3943370Y-14984025D01*
X3957655Y-14912596D01*
X3971941Y-14869739D01*
X3986227Y-14841168D01*
X4014798Y-14798311D01*
X4029084Y-14784025D01*
X4129084Y-14855453D02*
X4143370Y-14841168D01*
X4171941Y-14826882D01*
X4243370Y-14826882D01*
X4271941Y-14841168D01*
X4286227Y-14855453D01*
X4300513Y-14884025D01*
X4300513Y-14912596D01*
X4286227Y-14955453D01*
X4114798Y-15126882D01*
X4300513Y-15126882D01*
X4657656Y-15126882D02*
X4657656Y-14826882D01*
X4786227Y-15126882D02*
X4786227Y-14969739D01*
X4771941Y-14941168D01*
X4743370Y-14926882D01*
X4700513Y-14926882D01*
X4671941Y-14941168D01*
X4657656Y-14955453D01*
X4971941Y-15126882D02*
X4943370Y-15112596D01*
X4929084Y-15098311D01*
X4914798Y-15069739D01*
X4914798Y-14984025D01*
X4929084Y-14955453D01*
X4943370Y-14941168D01*
X4971941Y-14926882D01*
X5014798Y-14926882D01*
X5043370Y-14941168D01*
X5057656Y-14955453D01*
X5071941Y-14984025D01*
X5071941Y-15069739D01*
X5057656Y-15098311D01*
X5043370Y-15112596D01*
X5014798Y-15126882D01*
X4971941Y-15126882D01*
X5243370Y-15126882D02*
X5214798Y-15112596D01*
X5200513Y-15084025D01*
X5200513Y-14826882D01*
X5471941Y-15112596D02*
X5443370Y-15126882D01*
X5386227Y-15126882D01*
X5357656Y-15112596D01*
X5343370Y-15084025D01*
X5343370Y-14969739D01*
X5357656Y-14941168D01*
X5386227Y-14926882D01*
X5443370Y-14926882D01*
X5471941Y-14941168D01*
X5486227Y-14969739D01*
X5486227Y-14998311D01*
X5343370Y-15026882D01*
X5600513Y-15112596D02*
X5629084Y-15126882D01*
X5686227Y-15126882D01*
X5714798Y-15112596D01*
X5729084Y-15084025D01*
X5729084Y-15069739D01*
X5714798Y-15041168D01*
X5686227Y-15026882D01*
X5643370Y-15026882D01*
X5614798Y-15012596D01*
X5600513Y-14984025D01*
X5600513Y-14969739D01*
X5614798Y-14941168D01*
X5643370Y-14926882D01*
X5686227Y-14926882D01*
X5714798Y-14941168D01*
X5829084Y-15241168D02*
X5843370Y-15226882D01*
X5871941Y-15184025D01*
X5886227Y-15155453D01*
X5900513Y-15112596D01*
X5914798Y-15041168D01*
X5914798Y-14984025D01*
X5900513Y-14912596D01*
X5886227Y-14869739D01*
X5871941Y-14841168D01*
X5843370Y-14798311D01*
X5829084Y-14784025D01*
X6371941Y-15241168D02*
X6357656Y-15226882D01*
X6329084Y-15184025D01*
X6314798Y-15155453D01*
X6300513Y-15112596D01*
X6286227Y-15041168D01*
X6286227Y-14984025D01*
X6300513Y-14912596D01*
X6314798Y-14869739D01*
X6329084Y-14841168D01*
X6357656Y-14798311D01*
X6371941Y-14784025D01*
X6486227Y-14926882D02*
X6486227Y-15126882D01*
X6486227Y-14955453D02*
X6500513Y-14941168D01*
X6529084Y-14926882D01*
X6571941Y-14926882D01*
X6600513Y-14941168D01*
X6614798Y-14969739D01*
X6614798Y-15126882D01*
X6800513Y-15126882D02*
X6771941Y-15112596D01*
X6757656Y-15098311D01*
X6743370Y-15069739D01*
X6743370Y-14984025D01*
X6757656Y-14955453D01*
X6771941Y-14941168D01*
X6800513Y-14926882D01*
X6843370Y-14926882D01*
X6871941Y-14941168D01*
X6886227Y-14955453D01*
X6900513Y-14984025D01*
X6900513Y-15069739D01*
X6886227Y-15098311D01*
X6871941Y-15112596D01*
X6843370Y-15126882D01*
X6800513Y-15126882D01*
X6986227Y-14926882D02*
X7100513Y-14926882D01*
X7029084Y-14826882D02*
X7029084Y-15084025D01*
X7043370Y-15112596D01*
X7071941Y-15126882D01*
X7100513Y-15126882D01*
X7429084Y-14926882D02*
X7429084Y-15226882D01*
X7429084Y-14941168D02*
X7457656Y-14926882D01*
X7514798Y-14926882D01*
X7543370Y-14941168D01*
X7557656Y-14955453D01*
X7571941Y-14984025D01*
X7571941Y-15069739D01*
X7557656Y-15098311D01*
X7543370Y-15112596D01*
X7514798Y-15126882D01*
X7457656Y-15126882D01*
X7429084Y-15112596D01*
X7743370Y-15126882D02*
X7714798Y-15112596D01*
X7700513Y-15084025D01*
X7700513Y-14826882D01*
X7986227Y-15126882D02*
X7986227Y-14969739D01*
X7971941Y-14941168D01*
X7943370Y-14926882D01*
X7886227Y-14926882D01*
X7857656Y-14941168D01*
X7986227Y-15112596D02*
X7957656Y-15126882D01*
X7886227Y-15126882D01*
X7857656Y-15112596D01*
X7843370Y-15084025D01*
X7843370Y-15055453D01*
X7857656Y-15026882D01*
X7886227Y-15012596D01*
X7957656Y-15012596D01*
X7986227Y-14998311D01*
X8086227Y-14926882D02*
X8200513Y-14926882D01*
X8129084Y-14826882D02*
X8129084Y-15084025D01*
X8143370Y-15112596D01*
X8171941Y-15126882D01*
X8200513Y-15126882D01*
X8414798Y-15112596D02*
X8386227Y-15126882D01*
X8329084Y-15126882D01*
X8300513Y-15112596D01*
X8286227Y-15084025D01*
X8286227Y-14969739D01*
X8300513Y-14941168D01*
X8329084Y-14926882D01*
X8386227Y-14926882D01*
X8414798Y-14941168D01*
X8429084Y-14969739D01*
X8429084Y-14998311D01*
X8286227Y-15026882D01*
X8686227Y-15126882D02*
X8686227Y-14826882D01*
X8686227Y-15112596D02*
X8657656Y-15126882D01*
X8600513Y-15126882D01*
X8571941Y-15112596D01*
X8557656Y-15098311D01*
X8543370Y-15069739D01*
X8543370Y-14984025D01*
X8557656Y-14955453D01*
X8571941Y-14941168D01*
X8600513Y-14926882D01*
X8657656Y-14926882D01*
X8686227Y-14941168D01*
X8800513Y-15241168D02*
X8814798Y-15226882D01*
X8843370Y-15184025D01*
X8857656Y-15155453D01*
X8871941Y-15112596D01*
X8886227Y-15041168D01*
X8886227Y-14984025D01*
X8871941Y-14912596D01*
X8857656Y-14869739D01*
X8843370Y-14841168D01*
X8814798Y-14798311D01*
X8800513Y-14784025D01*
M02*
