G04 #@! TF.GenerationSoftware,KiCad,Pcbnew,(5.1.8-0-10_14)*
G04 #@! TF.CreationDate,2021-11-24T06:39:14+09:00*
G04 #@! TF.ProjectId,tc69,74633639-2e6b-4696-9361-645f70636258,rev?*
G04 #@! TF.SameCoordinates,Original*
G04 #@! TF.FileFunction,Legend,Top*
G04 #@! TF.FilePolarity,Positive*
%FSLAX46Y46*%
G04 Gerber Fmt 4.6, Leading zero omitted, Abs format (unit mm)*
G04 Created by KiCad (PCBNEW (5.1.8-0-10_14)) date 2021-11-24 06:39:14*
%MOMM*%
%LPD*%
G01*
G04 APERTURE LIST*
%ADD10C,0.120000*%
%ADD11C,5.500000*%
%ADD12C,2.100000*%
G04 APERTURE END LIST*
D10*
X126544675Y-65212926D02*
X126658961Y-65251021D01*
X126849437Y-65251021D01*
X126925628Y-65212926D01*
X126963723Y-65174831D01*
X127001818Y-65098640D01*
X127001818Y-65022450D01*
X126963723Y-64946259D01*
X126925628Y-64908164D01*
X126849437Y-64870069D01*
X126697056Y-64831974D01*
X126620866Y-64793878D01*
X126582771Y-64755783D01*
X126544675Y-64679593D01*
X126544675Y-64603402D01*
X126582771Y-64527212D01*
X126620866Y-64489117D01*
X126697056Y-64451021D01*
X126887533Y-64451021D01*
X127001818Y-64489117D01*
X127268485Y-64451021D02*
X127458961Y-65251021D01*
X127611342Y-64679593D01*
X127763723Y-65251021D01*
X127954199Y-64451021D01*
X128182771Y-64451021D02*
X128678009Y-64451021D01*
X128411342Y-64755783D01*
X128525628Y-64755783D01*
X128601818Y-64793878D01*
X128639914Y-64831974D01*
X128678009Y-64908164D01*
X128678009Y-65098640D01*
X128639914Y-65174831D01*
X128601818Y-65212926D01*
X128525628Y-65251021D01*
X128297056Y-65251021D01*
X128220866Y-65212926D01*
X128182771Y-65174831D01*
X128982771Y-64527212D02*
X129020866Y-64489117D01*
X129097056Y-64451021D01*
X129287533Y-64451021D01*
X129363723Y-64489117D01*
X129401818Y-64527212D01*
X129439914Y-64603402D01*
X129439914Y-64679593D01*
X129401818Y-64793878D01*
X128944675Y-65251021D01*
X129439914Y-65251021D01*
X15006784Y-103312958D02*
X15121070Y-103351053D01*
X15311546Y-103351053D01*
X15387736Y-103312958D01*
X15425831Y-103274863D01*
X15463927Y-103198672D01*
X15463927Y-103122482D01*
X15425831Y-103046291D01*
X15387736Y-103008196D01*
X15311546Y-102970101D01*
X15159165Y-102932006D01*
X15082974Y-102893910D01*
X15044879Y-102855815D01*
X15006784Y-102779625D01*
X15006784Y-102703434D01*
X15044879Y-102627244D01*
X15082974Y-102589149D01*
X15159165Y-102551053D01*
X15349641Y-102551053D01*
X15463927Y-102589149D01*
X15730593Y-102551053D02*
X15921070Y-103351053D01*
X16073451Y-102779625D01*
X16225831Y-103351053D01*
X16416308Y-102551053D01*
X17063927Y-102817720D02*
X17063927Y-103351053D01*
X16873451Y-102512958D02*
X16682974Y-103084387D01*
X17178212Y-103084387D01*
X193219731Y-46162910D02*
X193334017Y-46201005D01*
X193524493Y-46201005D01*
X193600684Y-46162910D01*
X193638779Y-46124815D01*
X193676874Y-46048624D01*
X193676874Y-45972434D01*
X193638779Y-45896243D01*
X193600684Y-45858148D01*
X193524493Y-45820053D01*
X193372112Y-45781958D01*
X193295922Y-45743862D01*
X193257827Y-45705767D01*
X193219731Y-45629577D01*
X193219731Y-45553386D01*
X193257827Y-45477196D01*
X193295922Y-45439101D01*
X193372112Y-45401005D01*
X193562589Y-45401005D01*
X193676874Y-45439101D01*
X193943541Y-45401005D02*
X194134017Y-46201005D01*
X194286398Y-45629577D01*
X194438779Y-46201005D01*
X194629255Y-45401005D01*
X195314970Y-45401005D02*
X194934017Y-45401005D01*
X194895922Y-45781958D01*
X194934017Y-45743862D01*
X195010208Y-45705767D01*
X195200684Y-45705767D01*
X195276874Y-45743862D01*
X195314970Y-45781958D01*
X195353065Y-45858148D01*
X195353065Y-46048624D01*
X195314970Y-46124815D01*
X195276874Y-46162910D01*
X195200684Y-46201005D01*
X195010208Y-46201005D01*
X194934017Y-46162910D01*
X194895922Y-46124815D01*
X196114970Y-46201005D02*
X195657827Y-46201005D01*
X195886398Y-46201005D02*
X195886398Y-45401005D01*
X195810208Y-45515291D01*
X195734017Y-45591481D01*
X195657827Y-45629577D01*
X97969651Y-46162910D02*
X98083937Y-46201005D01*
X98274413Y-46201005D01*
X98350604Y-46162910D01*
X98388699Y-46124815D01*
X98426794Y-46048624D01*
X98426794Y-45972434D01*
X98388699Y-45896243D01*
X98350604Y-45858148D01*
X98274413Y-45820053D01*
X98122032Y-45781958D01*
X98045842Y-45743862D01*
X98007747Y-45705767D01*
X97969651Y-45629577D01*
X97969651Y-45553386D01*
X98007747Y-45477196D01*
X98045842Y-45439101D01*
X98122032Y-45401005D01*
X98312509Y-45401005D01*
X98426794Y-45439101D01*
X98693461Y-45401005D02*
X98883937Y-46201005D01*
X99036318Y-45629577D01*
X99188699Y-46201005D01*
X99379175Y-45401005D01*
X99645842Y-45477196D02*
X99683937Y-45439101D01*
X99760128Y-45401005D01*
X99950604Y-45401005D01*
X100026794Y-45439101D01*
X100064890Y-45477196D01*
X100102985Y-45553386D01*
X100102985Y-45629577D01*
X100064890Y-45743862D01*
X99607747Y-46201005D01*
X100102985Y-46201005D01*
X100788699Y-45401005D02*
X100636318Y-45401005D01*
X100560128Y-45439101D01*
X100522032Y-45477196D01*
X100445842Y-45591481D01*
X100407747Y-45743862D01*
X100407747Y-46048624D01*
X100445842Y-46124815D01*
X100483937Y-46162910D01*
X100560128Y-46201005D01*
X100712509Y-46201005D01*
X100788699Y-46162910D01*
X100826794Y-46124815D01*
X100864890Y-46048624D01*
X100864890Y-45858148D01*
X100826794Y-45781958D01*
X100788699Y-45743862D01*
X100712509Y-45705767D01*
X100560128Y-45705767D01*
X100483937Y-45743862D01*
X100445842Y-45781958D01*
X100407747Y-45858148D01*
X7863028Y-65212926D02*
X7977314Y-65251021D01*
X8167790Y-65251021D01*
X8243980Y-65212926D01*
X8282075Y-65174831D01*
X8320171Y-65098640D01*
X8320171Y-65022450D01*
X8282075Y-64946259D01*
X8243980Y-64908164D01*
X8167790Y-64870069D01*
X8015409Y-64831974D01*
X7939218Y-64793878D01*
X7901123Y-64755783D01*
X7863028Y-64679593D01*
X7863028Y-64603402D01*
X7901123Y-64527212D01*
X7939218Y-64489117D01*
X8015409Y-64451021D01*
X8205885Y-64451021D01*
X8320171Y-64489117D01*
X8586837Y-64451021D02*
X8777314Y-65251021D01*
X8929695Y-64679593D01*
X9082075Y-65251021D01*
X9272552Y-64451021D01*
X9539218Y-64527212D02*
X9577314Y-64489117D01*
X9653504Y-64451021D01*
X9843980Y-64451021D01*
X9920171Y-64489117D01*
X9958266Y-64527212D01*
X9996361Y-64603402D01*
X9996361Y-64679593D01*
X9958266Y-64793878D01*
X9501123Y-65251021D01*
X9996361Y-65251021D01*
X117019667Y-46162910D02*
X117133953Y-46201005D01*
X117324429Y-46201005D01*
X117400620Y-46162910D01*
X117438715Y-46124815D01*
X117476810Y-46048624D01*
X117476810Y-45972434D01*
X117438715Y-45896243D01*
X117400620Y-45858148D01*
X117324429Y-45820053D01*
X117172048Y-45781958D01*
X117095858Y-45743862D01*
X117057763Y-45705767D01*
X117019667Y-45629577D01*
X117019667Y-45553386D01*
X117057763Y-45477196D01*
X117095858Y-45439101D01*
X117172048Y-45401005D01*
X117362525Y-45401005D01*
X117476810Y-45439101D01*
X117743477Y-45401005D02*
X117933953Y-46201005D01*
X118086334Y-45629577D01*
X118238715Y-46201005D01*
X118429191Y-45401005D01*
X118657763Y-45401005D02*
X119153001Y-45401005D01*
X118886334Y-45705767D01*
X119000620Y-45705767D01*
X119076810Y-45743862D01*
X119114906Y-45781958D01*
X119153001Y-45858148D01*
X119153001Y-46048624D01*
X119114906Y-46124815D01*
X119076810Y-46162910D01*
X119000620Y-46201005D01*
X118772048Y-46201005D01*
X118695858Y-46162910D01*
X118657763Y-46124815D01*
X119914906Y-46201005D02*
X119457763Y-46201005D01*
X119686334Y-46201005D02*
X119686334Y-45401005D01*
X119610144Y-45515291D01*
X119533953Y-45591481D01*
X119457763Y-45629577D01*
X174169715Y-46162910D02*
X174284001Y-46201005D01*
X174474477Y-46201005D01*
X174550668Y-46162910D01*
X174588763Y-46124815D01*
X174626858Y-46048624D01*
X174626858Y-45972434D01*
X174588763Y-45896243D01*
X174550668Y-45858148D01*
X174474477Y-45820053D01*
X174322096Y-45781958D01*
X174245906Y-45743862D01*
X174207811Y-45705767D01*
X174169715Y-45629577D01*
X174169715Y-45553386D01*
X174207811Y-45477196D01*
X174245906Y-45439101D01*
X174322096Y-45401005D01*
X174512573Y-45401005D01*
X174626858Y-45439101D01*
X174893525Y-45401005D02*
X175084001Y-46201005D01*
X175236382Y-45629577D01*
X175388763Y-46201005D01*
X175579239Y-45401005D01*
X176226858Y-45667672D02*
X176226858Y-46201005D01*
X176036382Y-45362910D02*
X175845906Y-45934339D01*
X176341144Y-45934339D01*
X176988763Y-45401005D02*
X176836382Y-45401005D01*
X176760192Y-45439101D01*
X176722096Y-45477196D01*
X176645906Y-45591481D01*
X176607811Y-45743862D01*
X176607811Y-46048624D01*
X176645906Y-46124815D01*
X176684001Y-46162910D01*
X176760192Y-46201005D01*
X176912573Y-46201005D01*
X176988763Y-46162910D01*
X177026858Y-46124815D01*
X177064954Y-46048624D01*
X177064954Y-45858148D01*
X177026858Y-45781958D01*
X176988763Y-45743862D01*
X176912573Y-45705767D01*
X176760192Y-45705767D01*
X176684001Y-45743862D01*
X176645906Y-45781958D01*
X176607811Y-45858148D01*
X40819603Y-46162910D02*
X40933889Y-46201005D01*
X41124365Y-46201005D01*
X41200556Y-46162910D01*
X41238651Y-46124815D01*
X41276746Y-46048624D01*
X41276746Y-45972434D01*
X41238651Y-45896243D01*
X41200556Y-45858148D01*
X41124365Y-45820053D01*
X40971984Y-45781958D01*
X40895794Y-45743862D01*
X40857699Y-45705767D01*
X40819603Y-45629577D01*
X40819603Y-45553386D01*
X40857699Y-45477196D01*
X40895794Y-45439101D01*
X40971984Y-45401005D01*
X41162461Y-45401005D01*
X41276746Y-45439101D01*
X41543413Y-45401005D02*
X41733889Y-46201005D01*
X41886270Y-45629577D01*
X42038651Y-46201005D01*
X42229127Y-45401005D01*
X42952937Y-46201005D02*
X42495794Y-46201005D01*
X42724365Y-46201005D02*
X42724365Y-45401005D01*
X42648175Y-45515291D01*
X42571984Y-45591481D01*
X42495794Y-45629577D01*
X43714842Y-46201005D02*
X43257699Y-46201005D01*
X43486270Y-46201005D02*
X43486270Y-45401005D01*
X43410080Y-45515291D01*
X43333889Y-45591481D01*
X43257699Y-45629577D01*
X136069683Y-46162910D02*
X136183969Y-46201005D01*
X136374445Y-46201005D01*
X136450636Y-46162910D01*
X136488731Y-46124815D01*
X136526826Y-46048624D01*
X136526826Y-45972434D01*
X136488731Y-45896243D01*
X136450636Y-45858148D01*
X136374445Y-45820053D01*
X136222064Y-45781958D01*
X136145874Y-45743862D01*
X136107779Y-45705767D01*
X136069683Y-45629577D01*
X136069683Y-45553386D01*
X136107779Y-45477196D01*
X136145874Y-45439101D01*
X136222064Y-45401005D01*
X136412541Y-45401005D01*
X136526826Y-45439101D01*
X136793493Y-45401005D02*
X136983969Y-46201005D01*
X137136350Y-45629577D01*
X137288731Y-46201005D01*
X137479207Y-45401005D01*
X137707779Y-45401005D02*
X138203017Y-45401005D01*
X137936350Y-45705767D01*
X138050636Y-45705767D01*
X138126826Y-45743862D01*
X138164922Y-45781958D01*
X138203017Y-45858148D01*
X138203017Y-46048624D01*
X138164922Y-46124815D01*
X138126826Y-46162910D01*
X138050636Y-46201005D01*
X137822064Y-46201005D01*
X137745874Y-46162910D01*
X137707779Y-46124815D01*
X138888731Y-45401005D02*
X138736350Y-45401005D01*
X138660160Y-45439101D01*
X138622064Y-45477196D01*
X138545874Y-45591481D01*
X138507779Y-45743862D01*
X138507779Y-46048624D01*
X138545874Y-46124815D01*
X138583969Y-46162910D01*
X138660160Y-46201005D01*
X138812541Y-46201005D01*
X138888731Y-46162910D01*
X138926826Y-46124815D01*
X138964922Y-46048624D01*
X138964922Y-45858148D01*
X138926826Y-45781958D01*
X138888731Y-45743862D01*
X138812541Y-45705767D01*
X138660160Y-45705767D01*
X138583969Y-45743862D01*
X138545874Y-45781958D01*
X138507779Y-45858148D01*
X3100524Y-46162910D02*
X3214810Y-46201005D01*
X3405286Y-46201005D01*
X3481476Y-46162910D01*
X3519571Y-46124815D01*
X3557667Y-46048624D01*
X3557667Y-45972434D01*
X3519571Y-45896243D01*
X3481476Y-45858148D01*
X3405286Y-45820053D01*
X3252905Y-45781958D01*
X3176714Y-45743862D01*
X3138619Y-45705767D01*
X3100524Y-45629577D01*
X3100524Y-45553386D01*
X3138619Y-45477196D01*
X3176714Y-45439101D01*
X3252905Y-45401005D01*
X3443381Y-45401005D01*
X3557667Y-45439101D01*
X3824333Y-45401005D02*
X4014810Y-46201005D01*
X4167191Y-45629577D01*
X4319571Y-46201005D01*
X4510048Y-45401005D01*
X5233857Y-46201005D02*
X4776714Y-46201005D01*
X5005286Y-46201005D02*
X5005286Y-45401005D01*
X4929095Y-45515291D01*
X4852905Y-45591481D01*
X4776714Y-45629577D01*
X10244280Y-84262942D02*
X10358566Y-84301037D01*
X10549042Y-84301037D01*
X10625232Y-84262942D01*
X10663327Y-84224847D01*
X10701423Y-84148656D01*
X10701423Y-84072466D01*
X10663327Y-83996275D01*
X10625232Y-83958180D01*
X10549042Y-83920085D01*
X10396661Y-83881990D01*
X10320470Y-83843894D01*
X10282375Y-83805799D01*
X10244280Y-83729609D01*
X10244280Y-83653418D01*
X10282375Y-83577228D01*
X10320470Y-83539133D01*
X10396661Y-83501037D01*
X10587137Y-83501037D01*
X10701423Y-83539133D01*
X10968089Y-83501037D02*
X11158566Y-84301037D01*
X11310947Y-83729609D01*
X11463327Y-84301037D01*
X11653804Y-83501037D01*
X11882375Y-83501037D02*
X12377613Y-83501037D01*
X12110947Y-83805799D01*
X12225232Y-83805799D01*
X12301423Y-83843894D01*
X12339518Y-83881990D01*
X12377613Y-83958180D01*
X12377613Y-84148656D01*
X12339518Y-84224847D01*
X12301423Y-84262942D01*
X12225232Y-84301037D01*
X11996661Y-84301037D01*
X11920470Y-84262942D01*
X11882375Y-84224847D01*
X5481776Y-122362974D02*
X5596062Y-122401069D01*
X5786538Y-122401069D01*
X5862728Y-122362974D01*
X5900823Y-122324879D01*
X5938919Y-122248688D01*
X5938919Y-122172498D01*
X5900823Y-122096307D01*
X5862728Y-122058212D01*
X5786538Y-122020117D01*
X5634157Y-121982022D01*
X5557966Y-121943926D01*
X5519871Y-121905831D01*
X5481776Y-121829641D01*
X5481776Y-121753450D01*
X5519871Y-121677260D01*
X5557966Y-121639165D01*
X5634157Y-121601069D01*
X5824633Y-121601069D01*
X5938919Y-121639165D01*
X6205585Y-121601069D02*
X6396062Y-122401069D01*
X6548443Y-121829641D01*
X6700823Y-122401069D01*
X6891300Y-121601069D01*
X7577014Y-121601069D02*
X7196062Y-121601069D01*
X7157966Y-121982022D01*
X7196062Y-121943926D01*
X7272252Y-121905831D01*
X7462728Y-121905831D01*
X7538919Y-121943926D01*
X7577014Y-121982022D01*
X7615109Y-122058212D01*
X7615109Y-122248688D01*
X7577014Y-122324879D01*
X7538919Y-122362974D01*
X7462728Y-122401069D01*
X7272252Y-122401069D01*
X7196062Y-122362974D01*
X7157966Y-122324879D01*
X22150540Y-46162910D02*
X22264826Y-46201005D01*
X22455302Y-46201005D01*
X22531492Y-46162910D01*
X22569587Y-46124815D01*
X22607683Y-46048624D01*
X22607683Y-45972434D01*
X22569587Y-45896243D01*
X22531492Y-45858148D01*
X22455302Y-45820053D01*
X22302921Y-45781958D01*
X22226730Y-45743862D01*
X22188635Y-45705767D01*
X22150540Y-45629577D01*
X22150540Y-45553386D01*
X22188635Y-45477196D01*
X22226730Y-45439101D01*
X22302921Y-45401005D01*
X22493397Y-45401005D01*
X22607683Y-45439101D01*
X22874349Y-45401005D02*
X23064826Y-46201005D01*
X23217207Y-45629577D01*
X23369587Y-46201005D01*
X23560064Y-45401005D01*
X24207683Y-45401005D02*
X24055302Y-45401005D01*
X23979111Y-45439101D01*
X23941016Y-45477196D01*
X23864826Y-45591481D01*
X23826730Y-45743862D01*
X23826730Y-46048624D01*
X23864826Y-46124815D01*
X23902921Y-46162910D01*
X23979111Y-46201005D01*
X24131492Y-46201005D01*
X24207683Y-46162910D01*
X24245778Y-46124815D01*
X24283873Y-46048624D01*
X24283873Y-45858148D01*
X24245778Y-45781958D01*
X24207683Y-45743862D01*
X24131492Y-45705767D01*
X23979111Y-45705767D01*
X23902921Y-45743862D01*
X23864826Y-45781958D01*
X23826730Y-45858148D01*
X31675548Y-65212926D02*
X31789834Y-65251021D01*
X31980310Y-65251021D01*
X32056500Y-65212926D01*
X32094595Y-65174831D01*
X32132691Y-65098640D01*
X32132691Y-65022450D01*
X32094595Y-64946259D01*
X32056500Y-64908164D01*
X31980310Y-64870069D01*
X31827929Y-64831974D01*
X31751738Y-64793878D01*
X31713643Y-64755783D01*
X31675548Y-64679593D01*
X31675548Y-64603402D01*
X31713643Y-64527212D01*
X31751738Y-64489117D01*
X31827929Y-64451021D01*
X32018405Y-64451021D01*
X32132691Y-64489117D01*
X32399357Y-64451021D02*
X32589834Y-65251021D01*
X32742215Y-64679593D01*
X32894595Y-65251021D01*
X33085072Y-64451021D01*
X33313643Y-64451021D02*
X33846976Y-64451021D01*
X33504119Y-65251021D01*
X28913343Y-122362974D02*
X29027629Y-122401069D01*
X29218105Y-122401069D01*
X29294296Y-122362974D01*
X29332391Y-122324879D01*
X29370486Y-122248688D01*
X29370486Y-122172498D01*
X29332391Y-122096307D01*
X29294296Y-122058212D01*
X29218105Y-122020117D01*
X29065724Y-121982022D01*
X28989534Y-121943926D01*
X28951439Y-121905831D01*
X28913343Y-121829641D01*
X28913343Y-121753450D01*
X28951439Y-121677260D01*
X28989534Y-121639165D01*
X29065724Y-121601069D01*
X29256201Y-121601069D01*
X29370486Y-121639165D01*
X29637153Y-121601069D02*
X29827629Y-122401069D01*
X29980010Y-121829641D01*
X30132391Y-122401069D01*
X30322867Y-121601069D01*
X31046677Y-122401069D02*
X30589534Y-122401069D01*
X30818105Y-122401069D02*
X30818105Y-121601069D01*
X30741915Y-121715355D01*
X30665724Y-121791545D01*
X30589534Y-121829641D01*
X31541915Y-121601069D02*
X31618105Y-121601069D01*
X31694296Y-121639165D01*
X31732391Y-121677260D01*
X31770486Y-121753450D01*
X31808582Y-121905831D01*
X31808582Y-122096307D01*
X31770486Y-122248688D01*
X31732391Y-122324879D01*
X31694296Y-122362974D01*
X31618105Y-122401069D01*
X31541915Y-122401069D01*
X31465724Y-122362974D01*
X31427629Y-122324879D01*
X31389534Y-122248688D01*
X31351439Y-122096307D01*
X31351439Y-121905831D01*
X31389534Y-121753450D01*
X31427629Y-121677260D01*
X31465724Y-121639165D01*
X31541915Y-121601069D01*
X50344611Y-65212926D02*
X50458897Y-65251021D01*
X50649373Y-65251021D01*
X50725564Y-65212926D01*
X50763659Y-65174831D01*
X50801754Y-65098640D01*
X50801754Y-65022450D01*
X50763659Y-64946259D01*
X50725564Y-64908164D01*
X50649373Y-64870069D01*
X50496992Y-64831974D01*
X50420802Y-64793878D01*
X50382707Y-64755783D01*
X50344611Y-64679593D01*
X50344611Y-64603402D01*
X50382707Y-64527212D01*
X50420802Y-64489117D01*
X50496992Y-64451021D01*
X50687469Y-64451021D01*
X50801754Y-64489117D01*
X51068421Y-64451021D02*
X51258897Y-65251021D01*
X51411278Y-64679593D01*
X51563659Y-65251021D01*
X51754135Y-64451021D01*
X52477945Y-65251021D02*
X52020802Y-65251021D01*
X52249373Y-65251021D02*
X52249373Y-64451021D01*
X52173183Y-64565307D01*
X52096992Y-64641497D01*
X52020802Y-64679593D01*
X52782707Y-64527212D02*
X52820802Y-64489117D01*
X52896992Y-64451021D01*
X53087469Y-64451021D01*
X53163659Y-64489117D01*
X53201754Y-64527212D01*
X53239850Y-64603402D01*
X53239850Y-64679593D01*
X53201754Y-64793878D01*
X52744611Y-65251021D01*
X53239850Y-65251021D01*
X55107115Y-84262942D02*
X55221401Y-84301037D01*
X55411877Y-84301037D01*
X55488068Y-84262942D01*
X55526163Y-84224847D01*
X55564258Y-84148656D01*
X55564258Y-84072466D01*
X55526163Y-83996275D01*
X55488068Y-83958180D01*
X55411877Y-83920085D01*
X55259496Y-83881990D01*
X55183306Y-83843894D01*
X55145211Y-83805799D01*
X55107115Y-83729609D01*
X55107115Y-83653418D01*
X55145211Y-83577228D01*
X55183306Y-83539133D01*
X55259496Y-83501037D01*
X55449973Y-83501037D01*
X55564258Y-83539133D01*
X55830925Y-83501037D02*
X56021401Y-84301037D01*
X56173782Y-83729609D01*
X56326163Y-84301037D01*
X56516639Y-83501037D01*
X57240449Y-84301037D02*
X56783306Y-84301037D01*
X57011877Y-84301037D02*
X57011877Y-83501037D01*
X56935687Y-83615323D01*
X56859496Y-83691513D01*
X56783306Y-83729609D01*
X57507115Y-83501037D02*
X58002354Y-83501037D01*
X57735687Y-83805799D01*
X57849973Y-83805799D01*
X57926163Y-83843894D01*
X57964258Y-83881990D01*
X58002354Y-83958180D01*
X58002354Y-84148656D01*
X57964258Y-84224847D01*
X57926163Y-84262942D01*
X57849973Y-84301037D01*
X57621401Y-84301037D01*
X57545211Y-84262942D01*
X57507115Y-84224847D01*
X45582107Y-103312958D02*
X45696393Y-103351053D01*
X45886869Y-103351053D01*
X45963060Y-103312958D01*
X46001155Y-103274863D01*
X46039250Y-103198672D01*
X46039250Y-103122482D01*
X46001155Y-103046291D01*
X45963060Y-103008196D01*
X45886869Y-102970101D01*
X45734488Y-102932006D01*
X45658298Y-102893910D01*
X45620203Y-102855815D01*
X45582107Y-102779625D01*
X45582107Y-102703434D01*
X45620203Y-102627244D01*
X45658298Y-102589149D01*
X45734488Y-102551053D01*
X45924965Y-102551053D01*
X46039250Y-102589149D01*
X46305917Y-102551053D02*
X46496393Y-103351053D01*
X46648774Y-102779625D01*
X46801155Y-103351053D01*
X46991631Y-102551053D01*
X47715441Y-103351053D02*
X47258298Y-103351053D01*
X47486869Y-103351053D02*
X47486869Y-102551053D01*
X47410679Y-102665339D01*
X47334488Y-102741529D01*
X47258298Y-102779625D01*
X48401155Y-102817720D02*
X48401155Y-103351053D01*
X48210679Y-102512958D02*
X48020203Y-103084387D01*
X48515441Y-103084387D01*
X59869619Y-46162910D02*
X59983905Y-46201005D01*
X60174381Y-46201005D01*
X60250572Y-46162910D01*
X60288667Y-46124815D01*
X60326762Y-46048624D01*
X60326762Y-45972434D01*
X60288667Y-45896243D01*
X60250572Y-45858148D01*
X60174381Y-45820053D01*
X60022000Y-45781958D01*
X59945810Y-45743862D01*
X59907715Y-45705767D01*
X59869619Y-45629577D01*
X59869619Y-45553386D01*
X59907715Y-45477196D01*
X59945810Y-45439101D01*
X60022000Y-45401005D01*
X60212477Y-45401005D01*
X60326762Y-45439101D01*
X60593429Y-45401005D02*
X60783905Y-46201005D01*
X60936286Y-45629577D01*
X61088667Y-46201005D01*
X61279143Y-45401005D01*
X62002953Y-46201005D02*
X61545810Y-46201005D01*
X61774381Y-46201005D02*
X61774381Y-45401005D01*
X61698191Y-45515291D01*
X61622000Y-45591481D01*
X61545810Y-45629577D01*
X62688667Y-45401005D02*
X62536286Y-45401005D01*
X62460096Y-45439101D01*
X62422000Y-45477196D01*
X62345810Y-45591481D01*
X62307715Y-45743862D01*
X62307715Y-46048624D01*
X62345810Y-46124815D01*
X62383905Y-46162910D01*
X62460096Y-46201005D01*
X62612477Y-46201005D01*
X62688667Y-46162910D01*
X62726762Y-46124815D01*
X62764858Y-46048624D01*
X62764858Y-45858148D01*
X62726762Y-45781958D01*
X62688667Y-45743862D01*
X62612477Y-45705767D01*
X62460096Y-45705767D01*
X62383905Y-45743862D01*
X62345810Y-45781958D01*
X62307715Y-45858148D01*
X69394627Y-65212926D02*
X69508913Y-65251021D01*
X69699389Y-65251021D01*
X69775580Y-65212926D01*
X69813675Y-65174831D01*
X69851770Y-65098640D01*
X69851770Y-65022450D01*
X69813675Y-64946259D01*
X69775580Y-64908164D01*
X69699389Y-64870069D01*
X69547008Y-64831974D01*
X69470818Y-64793878D01*
X69432723Y-64755783D01*
X69394627Y-64679593D01*
X69394627Y-64603402D01*
X69432723Y-64527212D01*
X69470818Y-64489117D01*
X69547008Y-64451021D01*
X69737485Y-64451021D01*
X69851770Y-64489117D01*
X70118437Y-64451021D02*
X70308913Y-65251021D01*
X70461294Y-64679593D01*
X70613675Y-65251021D01*
X70804151Y-64451021D01*
X71527961Y-65251021D02*
X71070818Y-65251021D01*
X71299389Y-65251021D02*
X71299389Y-64451021D01*
X71223199Y-64565307D01*
X71147008Y-64641497D01*
X71070818Y-64679593D01*
X71794627Y-64451021D02*
X72327961Y-64451021D01*
X71985104Y-65251021D01*
X74157131Y-84262942D02*
X74271417Y-84301037D01*
X74461893Y-84301037D01*
X74538084Y-84262942D01*
X74576179Y-84224847D01*
X74614274Y-84148656D01*
X74614274Y-84072466D01*
X74576179Y-83996275D01*
X74538084Y-83958180D01*
X74461893Y-83920085D01*
X74309512Y-83881990D01*
X74233322Y-83843894D01*
X74195227Y-83805799D01*
X74157131Y-83729609D01*
X74157131Y-83653418D01*
X74195227Y-83577228D01*
X74233322Y-83539133D01*
X74309512Y-83501037D01*
X74499989Y-83501037D01*
X74614274Y-83539133D01*
X74880941Y-83501037D02*
X75071417Y-84301037D01*
X75223798Y-83729609D01*
X75376179Y-84301037D01*
X75566655Y-83501037D01*
X76290465Y-84301037D02*
X75833322Y-84301037D01*
X76061893Y-84301037D02*
X76061893Y-83501037D01*
X75985703Y-83615323D01*
X75909512Y-83691513D01*
X75833322Y-83729609D01*
X76747608Y-83843894D02*
X76671417Y-83805799D01*
X76633322Y-83767704D01*
X76595227Y-83691513D01*
X76595227Y-83653418D01*
X76633322Y-83577228D01*
X76671417Y-83539133D01*
X76747608Y-83501037D01*
X76899989Y-83501037D01*
X76976179Y-83539133D01*
X77014274Y-83577228D01*
X77052370Y-83653418D01*
X77052370Y-83691513D01*
X77014274Y-83767704D01*
X76976179Y-83805799D01*
X76899989Y-83843894D01*
X76747608Y-83843894D01*
X76671417Y-83881990D01*
X76633322Y-83920085D01*
X76595227Y-83996275D01*
X76595227Y-84148656D01*
X76633322Y-84224847D01*
X76671417Y-84262942D01*
X76747608Y-84301037D01*
X76899989Y-84301037D01*
X76976179Y-84262942D01*
X77014274Y-84224847D01*
X77052370Y-84148656D01*
X77052370Y-83996275D01*
X77014274Y-83920085D01*
X76976179Y-83881990D01*
X76899989Y-83843894D01*
X64632123Y-103312958D02*
X64746409Y-103351053D01*
X64936885Y-103351053D01*
X65013076Y-103312958D01*
X65051171Y-103274863D01*
X65089266Y-103198672D01*
X65089266Y-103122482D01*
X65051171Y-103046291D01*
X65013076Y-103008196D01*
X64936885Y-102970101D01*
X64784504Y-102932006D01*
X64708314Y-102893910D01*
X64670219Y-102855815D01*
X64632123Y-102779625D01*
X64632123Y-102703434D01*
X64670219Y-102627244D01*
X64708314Y-102589149D01*
X64784504Y-102551053D01*
X64974981Y-102551053D01*
X65089266Y-102589149D01*
X65355933Y-102551053D02*
X65546409Y-103351053D01*
X65698790Y-102779625D01*
X65851171Y-103351053D01*
X66041647Y-102551053D01*
X66765457Y-103351053D02*
X66308314Y-103351053D01*
X66536885Y-103351053D02*
X66536885Y-102551053D01*
X66460695Y-102665339D01*
X66384504Y-102741529D01*
X66308314Y-102779625D01*
X67146409Y-103351053D02*
X67298790Y-103351053D01*
X67374981Y-103312958D01*
X67413076Y-103274863D01*
X67489266Y-103160577D01*
X67527362Y-103008196D01*
X67527362Y-102703434D01*
X67489266Y-102627244D01*
X67451171Y-102589149D01*
X67374981Y-102551053D01*
X67222600Y-102551053D01*
X67146409Y-102589149D01*
X67108314Y-102627244D01*
X67070219Y-102703434D01*
X67070219Y-102893910D01*
X67108314Y-102970101D01*
X67146409Y-103008196D01*
X67222600Y-103046291D01*
X67374981Y-103046291D01*
X67451171Y-103008196D01*
X67489266Y-102970101D01*
X67527362Y-102893910D01*
X52725863Y-122362974D02*
X52840149Y-122401069D01*
X53030625Y-122401069D01*
X53106816Y-122362974D01*
X53144911Y-122324879D01*
X53183006Y-122248688D01*
X53183006Y-122172498D01*
X53144911Y-122096307D01*
X53106816Y-122058212D01*
X53030625Y-122020117D01*
X52878244Y-121982022D01*
X52802054Y-121943926D01*
X52763959Y-121905831D01*
X52725863Y-121829641D01*
X52725863Y-121753450D01*
X52763959Y-121677260D01*
X52802054Y-121639165D01*
X52878244Y-121601069D01*
X53068721Y-121601069D01*
X53183006Y-121639165D01*
X53449673Y-121601069D02*
X53640149Y-122401069D01*
X53792530Y-121829641D01*
X53944911Y-122401069D01*
X54135387Y-121601069D01*
X54402054Y-121677260D02*
X54440149Y-121639165D01*
X54516340Y-121601069D01*
X54706816Y-121601069D01*
X54783006Y-121639165D01*
X54821102Y-121677260D01*
X54859197Y-121753450D01*
X54859197Y-121829641D01*
X54821102Y-121943926D01*
X54363959Y-122401069D01*
X54859197Y-122401069D01*
X55354435Y-121601069D02*
X55430625Y-121601069D01*
X55506816Y-121639165D01*
X55544911Y-121677260D01*
X55583006Y-121753450D01*
X55621102Y-121905831D01*
X55621102Y-122096307D01*
X55583006Y-122248688D01*
X55544911Y-122324879D01*
X55506816Y-122362974D01*
X55430625Y-122401069D01*
X55354435Y-122401069D01*
X55278244Y-122362974D01*
X55240149Y-122324879D01*
X55202054Y-122248688D01*
X55163959Y-122096307D01*
X55163959Y-121905831D01*
X55202054Y-121753450D01*
X55240149Y-121677260D01*
X55278244Y-121639165D01*
X55354435Y-121601069D01*
X78919635Y-46162910D02*
X79033921Y-46201005D01*
X79224397Y-46201005D01*
X79300588Y-46162910D01*
X79338683Y-46124815D01*
X79376778Y-46048624D01*
X79376778Y-45972434D01*
X79338683Y-45896243D01*
X79300588Y-45858148D01*
X79224397Y-45820053D01*
X79072016Y-45781958D01*
X78995826Y-45743862D01*
X78957731Y-45705767D01*
X78919635Y-45629577D01*
X78919635Y-45553386D01*
X78957731Y-45477196D01*
X78995826Y-45439101D01*
X79072016Y-45401005D01*
X79262493Y-45401005D01*
X79376778Y-45439101D01*
X79643445Y-45401005D02*
X79833921Y-46201005D01*
X79986302Y-45629577D01*
X80138683Y-46201005D01*
X80329159Y-45401005D01*
X80595826Y-45477196D02*
X80633921Y-45439101D01*
X80710112Y-45401005D01*
X80900588Y-45401005D01*
X80976778Y-45439101D01*
X81014874Y-45477196D01*
X81052969Y-45553386D01*
X81052969Y-45629577D01*
X81014874Y-45743862D01*
X80557731Y-46201005D01*
X81052969Y-46201005D01*
X81814874Y-46201005D02*
X81357731Y-46201005D01*
X81586302Y-46201005D02*
X81586302Y-45401005D01*
X81510112Y-45515291D01*
X81433921Y-45591481D01*
X81357731Y-45629577D01*
X88444643Y-65212926D02*
X88558929Y-65251021D01*
X88749405Y-65251021D01*
X88825596Y-65212926D01*
X88863691Y-65174831D01*
X88901786Y-65098640D01*
X88901786Y-65022450D01*
X88863691Y-64946259D01*
X88825596Y-64908164D01*
X88749405Y-64870069D01*
X88597024Y-64831974D01*
X88520834Y-64793878D01*
X88482739Y-64755783D01*
X88444643Y-64679593D01*
X88444643Y-64603402D01*
X88482739Y-64527212D01*
X88520834Y-64489117D01*
X88597024Y-64451021D01*
X88787501Y-64451021D01*
X88901786Y-64489117D01*
X89168453Y-64451021D02*
X89358929Y-65251021D01*
X89511310Y-64679593D01*
X89663691Y-65251021D01*
X89854167Y-64451021D01*
X90120834Y-64527212D02*
X90158929Y-64489117D01*
X90235120Y-64451021D01*
X90425596Y-64451021D01*
X90501786Y-64489117D01*
X90539882Y-64527212D01*
X90577977Y-64603402D01*
X90577977Y-64679593D01*
X90539882Y-64793878D01*
X90082739Y-65251021D01*
X90577977Y-65251021D01*
X90882739Y-64527212D02*
X90920834Y-64489117D01*
X90997024Y-64451021D01*
X91187501Y-64451021D01*
X91263691Y-64489117D01*
X91301786Y-64527212D01*
X91339882Y-64603402D01*
X91339882Y-64679593D01*
X91301786Y-64793878D01*
X90844643Y-65251021D01*
X91339882Y-65251021D01*
X93207147Y-84262942D02*
X93321433Y-84301037D01*
X93511909Y-84301037D01*
X93588100Y-84262942D01*
X93626195Y-84224847D01*
X93664290Y-84148656D01*
X93664290Y-84072466D01*
X93626195Y-83996275D01*
X93588100Y-83958180D01*
X93511909Y-83920085D01*
X93359528Y-83881990D01*
X93283338Y-83843894D01*
X93245243Y-83805799D01*
X93207147Y-83729609D01*
X93207147Y-83653418D01*
X93245243Y-83577228D01*
X93283338Y-83539133D01*
X93359528Y-83501037D01*
X93550005Y-83501037D01*
X93664290Y-83539133D01*
X93930957Y-83501037D02*
X94121433Y-84301037D01*
X94273814Y-83729609D01*
X94426195Y-84301037D01*
X94616671Y-83501037D01*
X94883338Y-83577228D02*
X94921433Y-83539133D01*
X94997624Y-83501037D01*
X95188100Y-83501037D01*
X95264290Y-83539133D01*
X95302386Y-83577228D01*
X95340481Y-83653418D01*
X95340481Y-83729609D01*
X95302386Y-83843894D01*
X94845243Y-84301037D01*
X95340481Y-84301037D01*
X95607147Y-83501037D02*
X96102386Y-83501037D01*
X95835719Y-83805799D01*
X95950005Y-83805799D01*
X96026195Y-83843894D01*
X96064290Y-83881990D01*
X96102386Y-83958180D01*
X96102386Y-84148656D01*
X96064290Y-84224847D01*
X96026195Y-84262942D01*
X95950005Y-84301037D01*
X95721433Y-84301037D01*
X95645243Y-84262942D01*
X95607147Y-84224847D01*
X83682139Y-103312958D02*
X83796425Y-103351053D01*
X83986901Y-103351053D01*
X84063092Y-103312958D01*
X84101187Y-103274863D01*
X84139282Y-103198672D01*
X84139282Y-103122482D01*
X84101187Y-103046291D01*
X84063092Y-103008196D01*
X83986901Y-102970101D01*
X83834520Y-102932006D01*
X83758330Y-102893910D01*
X83720235Y-102855815D01*
X83682139Y-102779625D01*
X83682139Y-102703434D01*
X83720235Y-102627244D01*
X83758330Y-102589149D01*
X83834520Y-102551053D01*
X84024997Y-102551053D01*
X84139282Y-102589149D01*
X84405949Y-102551053D02*
X84596425Y-103351053D01*
X84748806Y-102779625D01*
X84901187Y-103351053D01*
X85091663Y-102551053D01*
X85358330Y-102627244D02*
X85396425Y-102589149D01*
X85472616Y-102551053D01*
X85663092Y-102551053D01*
X85739282Y-102589149D01*
X85777378Y-102627244D01*
X85815473Y-102703434D01*
X85815473Y-102779625D01*
X85777378Y-102893910D01*
X85320235Y-103351053D01*
X85815473Y-103351053D01*
X86501187Y-102817720D02*
X86501187Y-103351053D01*
X86310711Y-102512958D02*
X86120235Y-103084387D01*
X86615473Y-103084387D01*
X107494659Y-65212926D02*
X107608945Y-65251021D01*
X107799421Y-65251021D01*
X107875612Y-65212926D01*
X107913707Y-65174831D01*
X107951802Y-65098640D01*
X107951802Y-65022450D01*
X107913707Y-64946259D01*
X107875612Y-64908164D01*
X107799421Y-64870069D01*
X107647040Y-64831974D01*
X107570850Y-64793878D01*
X107532755Y-64755783D01*
X107494659Y-64679593D01*
X107494659Y-64603402D01*
X107532755Y-64527212D01*
X107570850Y-64489117D01*
X107647040Y-64451021D01*
X107837517Y-64451021D01*
X107951802Y-64489117D01*
X108218469Y-64451021D02*
X108408945Y-65251021D01*
X108561326Y-64679593D01*
X108713707Y-65251021D01*
X108904183Y-64451021D01*
X109170850Y-64527212D02*
X109208945Y-64489117D01*
X109285136Y-64451021D01*
X109475612Y-64451021D01*
X109551802Y-64489117D01*
X109589898Y-64527212D01*
X109627993Y-64603402D01*
X109627993Y-64679593D01*
X109589898Y-64793878D01*
X109132755Y-65251021D01*
X109627993Y-65251021D01*
X109894659Y-64451021D02*
X110427993Y-64451021D01*
X110085136Y-65251021D01*
X112257163Y-84262942D02*
X112371449Y-84301037D01*
X112561925Y-84301037D01*
X112638116Y-84262942D01*
X112676211Y-84224847D01*
X112714306Y-84148656D01*
X112714306Y-84072466D01*
X112676211Y-83996275D01*
X112638116Y-83958180D01*
X112561925Y-83920085D01*
X112409544Y-83881990D01*
X112333354Y-83843894D01*
X112295259Y-83805799D01*
X112257163Y-83729609D01*
X112257163Y-83653418D01*
X112295259Y-83577228D01*
X112333354Y-83539133D01*
X112409544Y-83501037D01*
X112600021Y-83501037D01*
X112714306Y-83539133D01*
X112980973Y-83501037D02*
X113171449Y-84301037D01*
X113323830Y-83729609D01*
X113476211Y-84301037D01*
X113666687Y-83501037D01*
X113933354Y-83577228D02*
X113971449Y-83539133D01*
X114047640Y-83501037D01*
X114238116Y-83501037D01*
X114314306Y-83539133D01*
X114352402Y-83577228D01*
X114390497Y-83653418D01*
X114390497Y-83729609D01*
X114352402Y-83843894D01*
X113895259Y-84301037D01*
X114390497Y-84301037D01*
X114847640Y-83843894D02*
X114771449Y-83805799D01*
X114733354Y-83767704D01*
X114695259Y-83691513D01*
X114695259Y-83653418D01*
X114733354Y-83577228D01*
X114771449Y-83539133D01*
X114847640Y-83501037D01*
X115000021Y-83501037D01*
X115076211Y-83539133D01*
X115114306Y-83577228D01*
X115152402Y-83653418D01*
X115152402Y-83691513D01*
X115114306Y-83767704D01*
X115076211Y-83805799D01*
X115000021Y-83843894D01*
X114847640Y-83843894D01*
X114771449Y-83881990D01*
X114733354Y-83920085D01*
X114695259Y-83996275D01*
X114695259Y-84148656D01*
X114733354Y-84224847D01*
X114771449Y-84262942D01*
X114847640Y-84301037D01*
X115000021Y-84301037D01*
X115076211Y-84262942D01*
X115114306Y-84224847D01*
X115152402Y-84148656D01*
X115152402Y-83996275D01*
X115114306Y-83920085D01*
X115076211Y-83881990D01*
X115000021Y-83843894D01*
X102732155Y-103312958D02*
X102846441Y-103351053D01*
X103036917Y-103351053D01*
X103113108Y-103312958D01*
X103151203Y-103274863D01*
X103189298Y-103198672D01*
X103189298Y-103122482D01*
X103151203Y-103046291D01*
X103113108Y-103008196D01*
X103036917Y-102970101D01*
X102884536Y-102932006D01*
X102808346Y-102893910D01*
X102770251Y-102855815D01*
X102732155Y-102779625D01*
X102732155Y-102703434D01*
X102770251Y-102627244D01*
X102808346Y-102589149D01*
X102884536Y-102551053D01*
X103075013Y-102551053D01*
X103189298Y-102589149D01*
X103455965Y-102551053D02*
X103646441Y-103351053D01*
X103798822Y-102779625D01*
X103951203Y-103351053D01*
X104141679Y-102551053D01*
X104408346Y-102627244D02*
X104446441Y-102589149D01*
X104522632Y-102551053D01*
X104713108Y-102551053D01*
X104789298Y-102589149D01*
X104827394Y-102627244D01*
X104865489Y-102703434D01*
X104865489Y-102779625D01*
X104827394Y-102893910D01*
X104370251Y-103351053D01*
X104865489Y-103351053D01*
X105246441Y-103351053D02*
X105398822Y-103351053D01*
X105475013Y-103312958D01*
X105513108Y-103274863D01*
X105589298Y-103160577D01*
X105627394Y-103008196D01*
X105627394Y-102703434D01*
X105589298Y-102627244D01*
X105551203Y-102589149D01*
X105475013Y-102551053D01*
X105322632Y-102551053D01*
X105246441Y-102589149D01*
X105208346Y-102627244D01*
X105170251Y-102703434D01*
X105170251Y-102893910D01*
X105208346Y-102970101D01*
X105246441Y-103008196D01*
X105322632Y-103046291D01*
X105475013Y-103046291D01*
X105551203Y-103008196D01*
X105589298Y-102970101D01*
X105627394Y-102893910D01*
X93207147Y-122362974D02*
X93321433Y-122401069D01*
X93511909Y-122401069D01*
X93588100Y-122362974D01*
X93626195Y-122324879D01*
X93664290Y-122248688D01*
X93664290Y-122172498D01*
X93626195Y-122096307D01*
X93588100Y-122058212D01*
X93511909Y-122020117D01*
X93359528Y-121982022D01*
X93283338Y-121943926D01*
X93245243Y-121905831D01*
X93207147Y-121829641D01*
X93207147Y-121753450D01*
X93245243Y-121677260D01*
X93283338Y-121639165D01*
X93359528Y-121601069D01*
X93550005Y-121601069D01*
X93664290Y-121639165D01*
X93930957Y-121601069D02*
X94121433Y-122401069D01*
X94273814Y-121829641D01*
X94426195Y-122401069D01*
X94616671Y-121601069D01*
X94845243Y-121601069D02*
X95340481Y-121601069D01*
X95073814Y-121905831D01*
X95188100Y-121905831D01*
X95264290Y-121943926D01*
X95302386Y-121982022D01*
X95340481Y-122058212D01*
X95340481Y-122248688D01*
X95302386Y-122324879D01*
X95264290Y-122362974D01*
X95188100Y-122401069D01*
X94959528Y-122401069D01*
X94883338Y-122362974D01*
X94845243Y-122324879D01*
X95835719Y-121601069D02*
X95911909Y-121601069D01*
X95988100Y-121639165D01*
X96026195Y-121677260D01*
X96064290Y-121753450D01*
X96102386Y-121905831D01*
X96102386Y-122096307D01*
X96064290Y-122248688D01*
X96026195Y-122324879D01*
X95988100Y-122362974D01*
X95911909Y-122401069D01*
X95835719Y-122401069D01*
X95759528Y-122362974D01*
X95721433Y-122324879D01*
X95683338Y-122248688D01*
X95645243Y-122096307D01*
X95645243Y-121905831D01*
X95683338Y-121753450D01*
X95721433Y-121677260D01*
X95759528Y-121639165D01*
X95835719Y-121601069D01*
X131307179Y-84262942D02*
X131421465Y-84301037D01*
X131611941Y-84301037D01*
X131688132Y-84262942D01*
X131726227Y-84224847D01*
X131764322Y-84148656D01*
X131764322Y-84072466D01*
X131726227Y-83996275D01*
X131688132Y-83958180D01*
X131611941Y-83920085D01*
X131459560Y-83881990D01*
X131383370Y-83843894D01*
X131345275Y-83805799D01*
X131307179Y-83729609D01*
X131307179Y-83653418D01*
X131345275Y-83577228D01*
X131383370Y-83539133D01*
X131459560Y-83501037D01*
X131650037Y-83501037D01*
X131764322Y-83539133D01*
X132030989Y-83501037D02*
X132221465Y-84301037D01*
X132373846Y-83729609D01*
X132526227Y-84301037D01*
X132716703Y-83501037D01*
X132945275Y-83501037D02*
X133440513Y-83501037D01*
X133173846Y-83805799D01*
X133288132Y-83805799D01*
X133364322Y-83843894D01*
X133402418Y-83881990D01*
X133440513Y-83958180D01*
X133440513Y-84148656D01*
X133402418Y-84224847D01*
X133364322Y-84262942D01*
X133288132Y-84301037D01*
X133059560Y-84301037D01*
X132983370Y-84262942D01*
X132945275Y-84224847D01*
X133707179Y-83501037D02*
X134202418Y-83501037D01*
X133935751Y-83805799D01*
X134050037Y-83805799D01*
X134126227Y-83843894D01*
X134164322Y-83881990D01*
X134202418Y-83958180D01*
X134202418Y-84148656D01*
X134164322Y-84224847D01*
X134126227Y-84262942D01*
X134050037Y-84301037D01*
X133821465Y-84301037D01*
X133745275Y-84262942D01*
X133707179Y-84224847D01*
X121782171Y-103312958D02*
X121896457Y-103351053D01*
X122086933Y-103351053D01*
X122163124Y-103312958D01*
X122201219Y-103274863D01*
X122239314Y-103198672D01*
X122239314Y-103122482D01*
X122201219Y-103046291D01*
X122163124Y-103008196D01*
X122086933Y-102970101D01*
X121934552Y-102932006D01*
X121858362Y-102893910D01*
X121820267Y-102855815D01*
X121782171Y-102779625D01*
X121782171Y-102703434D01*
X121820267Y-102627244D01*
X121858362Y-102589149D01*
X121934552Y-102551053D01*
X122125029Y-102551053D01*
X122239314Y-102589149D01*
X122505981Y-102551053D02*
X122696457Y-103351053D01*
X122848838Y-102779625D01*
X123001219Y-103351053D01*
X123191695Y-102551053D01*
X123420267Y-102551053D02*
X123915505Y-102551053D01*
X123648838Y-102855815D01*
X123763124Y-102855815D01*
X123839314Y-102893910D01*
X123877410Y-102932006D01*
X123915505Y-103008196D01*
X123915505Y-103198672D01*
X123877410Y-103274863D01*
X123839314Y-103312958D01*
X123763124Y-103351053D01*
X123534552Y-103351053D01*
X123458362Y-103312958D01*
X123420267Y-103274863D01*
X124601219Y-102817720D02*
X124601219Y-103351053D01*
X124410743Y-102512958D02*
X124220267Y-103084387D01*
X124715505Y-103084387D01*
X145594691Y-65212926D02*
X145708977Y-65251021D01*
X145899453Y-65251021D01*
X145975644Y-65212926D01*
X146013739Y-65174831D01*
X146051834Y-65098640D01*
X146051834Y-65022450D01*
X146013739Y-64946259D01*
X145975644Y-64908164D01*
X145899453Y-64870069D01*
X145747072Y-64831974D01*
X145670882Y-64793878D01*
X145632787Y-64755783D01*
X145594691Y-64679593D01*
X145594691Y-64603402D01*
X145632787Y-64527212D01*
X145670882Y-64489117D01*
X145747072Y-64451021D01*
X145937549Y-64451021D01*
X146051834Y-64489117D01*
X146318501Y-64451021D02*
X146508977Y-65251021D01*
X146661358Y-64679593D01*
X146813739Y-65251021D01*
X147004215Y-64451021D01*
X147232787Y-64451021D02*
X147728025Y-64451021D01*
X147461358Y-64755783D01*
X147575644Y-64755783D01*
X147651834Y-64793878D01*
X147689930Y-64831974D01*
X147728025Y-64908164D01*
X147728025Y-65098640D01*
X147689930Y-65174831D01*
X147651834Y-65212926D01*
X147575644Y-65251021D01*
X147347072Y-65251021D01*
X147270882Y-65212926D01*
X147232787Y-65174831D01*
X147994691Y-64451021D02*
X148528025Y-64451021D01*
X148185168Y-65251021D01*
X150357195Y-84262942D02*
X150471481Y-84301037D01*
X150661957Y-84301037D01*
X150738148Y-84262942D01*
X150776243Y-84224847D01*
X150814338Y-84148656D01*
X150814338Y-84072466D01*
X150776243Y-83996275D01*
X150738148Y-83958180D01*
X150661957Y-83920085D01*
X150509576Y-83881990D01*
X150433386Y-83843894D01*
X150395291Y-83805799D01*
X150357195Y-83729609D01*
X150357195Y-83653418D01*
X150395291Y-83577228D01*
X150433386Y-83539133D01*
X150509576Y-83501037D01*
X150700053Y-83501037D01*
X150814338Y-83539133D01*
X151081005Y-83501037D02*
X151271481Y-84301037D01*
X151423862Y-83729609D01*
X151576243Y-84301037D01*
X151766719Y-83501037D01*
X151995291Y-83501037D02*
X152490529Y-83501037D01*
X152223862Y-83805799D01*
X152338148Y-83805799D01*
X152414338Y-83843894D01*
X152452434Y-83881990D01*
X152490529Y-83958180D01*
X152490529Y-84148656D01*
X152452434Y-84224847D01*
X152414338Y-84262942D01*
X152338148Y-84301037D01*
X152109576Y-84301037D01*
X152033386Y-84262942D01*
X151995291Y-84224847D01*
X152947672Y-83843894D02*
X152871481Y-83805799D01*
X152833386Y-83767704D01*
X152795291Y-83691513D01*
X152795291Y-83653418D01*
X152833386Y-83577228D01*
X152871481Y-83539133D01*
X152947672Y-83501037D01*
X153100053Y-83501037D01*
X153176243Y-83539133D01*
X153214338Y-83577228D01*
X153252434Y-83653418D01*
X153252434Y-83691513D01*
X153214338Y-83767704D01*
X153176243Y-83805799D01*
X153100053Y-83843894D01*
X152947672Y-83843894D01*
X152871481Y-83881990D01*
X152833386Y-83920085D01*
X152795291Y-83996275D01*
X152795291Y-84148656D01*
X152833386Y-84224847D01*
X152871481Y-84262942D01*
X152947672Y-84301037D01*
X153100053Y-84301037D01*
X153176243Y-84262942D01*
X153214338Y-84224847D01*
X153252434Y-84148656D01*
X153252434Y-83996275D01*
X153214338Y-83920085D01*
X153176243Y-83881990D01*
X153100053Y-83843894D01*
X140832187Y-103312958D02*
X140946473Y-103351053D01*
X141136949Y-103351053D01*
X141213140Y-103312958D01*
X141251235Y-103274863D01*
X141289330Y-103198672D01*
X141289330Y-103122482D01*
X141251235Y-103046291D01*
X141213140Y-103008196D01*
X141136949Y-102970101D01*
X140984568Y-102932006D01*
X140908378Y-102893910D01*
X140870283Y-102855815D01*
X140832187Y-102779625D01*
X140832187Y-102703434D01*
X140870283Y-102627244D01*
X140908378Y-102589149D01*
X140984568Y-102551053D01*
X141175045Y-102551053D01*
X141289330Y-102589149D01*
X141555997Y-102551053D02*
X141746473Y-103351053D01*
X141898854Y-102779625D01*
X142051235Y-103351053D01*
X142241711Y-102551053D01*
X142470283Y-102551053D02*
X142965521Y-102551053D01*
X142698854Y-102855815D01*
X142813140Y-102855815D01*
X142889330Y-102893910D01*
X142927426Y-102932006D01*
X142965521Y-103008196D01*
X142965521Y-103198672D01*
X142927426Y-103274863D01*
X142889330Y-103312958D01*
X142813140Y-103351053D01*
X142584568Y-103351053D01*
X142508378Y-103312958D01*
X142470283Y-103274863D01*
X143346473Y-103351053D02*
X143498854Y-103351053D01*
X143575045Y-103312958D01*
X143613140Y-103274863D01*
X143689330Y-103160577D01*
X143727426Y-103008196D01*
X143727426Y-102703434D01*
X143689330Y-102627244D01*
X143651235Y-102589149D01*
X143575045Y-102551053D01*
X143422664Y-102551053D01*
X143346473Y-102589149D01*
X143308378Y-102627244D01*
X143270283Y-102703434D01*
X143270283Y-102893910D01*
X143308378Y-102970101D01*
X143346473Y-103008196D01*
X143422664Y-103046291D01*
X143575045Y-103046291D01*
X143651235Y-103008196D01*
X143689330Y-102970101D01*
X143727426Y-102893910D01*
X155119699Y-46162910D02*
X155233985Y-46201005D01*
X155424461Y-46201005D01*
X155500652Y-46162910D01*
X155538747Y-46124815D01*
X155576842Y-46048624D01*
X155576842Y-45972434D01*
X155538747Y-45896243D01*
X155500652Y-45858148D01*
X155424461Y-45820053D01*
X155272080Y-45781958D01*
X155195890Y-45743862D01*
X155157795Y-45705767D01*
X155119699Y-45629577D01*
X155119699Y-45553386D01*
X155157795Y-45477196D01*
X155195890Y-45439101D01*
X155272080Y-45401005D01*
X155462557Y-45401005D01*
X155576842Y-45439101D01*
X155843509Y-45401005D02*
X156033985Y-46201005D01*
X156186366Y-45629577D01*
X156338747Y-46201005D01*
X156529223Y-45401005D01*
X157176842Y-45667672D02*
X157176842Y-46201005D01*
X156986366Y-45362910D02*
X156795890Y-45934339D01*
X157291128Y-45934339D01*
X158014938Y-46201005D02*
X157557795Y-46201005D01*
X157786366Y-46201005D02*
X157786366Y-45401005D01*
X157710176Y-45515291D01*
X157633985Y-45591481D01*
X157557795Y-45629577D01*
X164644707Y-65212926D02*
X164758993Y-65251021D01*
X164949469Y-65251021D01*
X165025660Y-65212926D01*
X165063755Y-65174831D01*
X165101850Y-65098640D01*
X165101850Y-65022450D01*
X165063755Y-64946259D01*
X165025660Y-64908164D01*
X164949469Y-64870069D01*
X164797088Y-64831974D01*
X164720898Y-64793878D01*
X164682803Y-64755783D01*
X164644707Y-64679593D01*
X164644707Y-64603402D01*
X164682803Y-64527212D01*
X164720898Y-64489117D01*
X164797088Y-64451021D01*
X164987565Y-64451021D01*
X165101850Y-64489117D01*
X165368517Y-64451021D02*
X165558993Y-65251021D01*
X165711374Y-64679593D01*
X165863755Y-65251021D01*
X166054231Y-64451021D01*
X166701850Y-64717688D02*
X166701850Y-65251021D01*
X166511374Y-64412926D02*
X166320898Y-64984355D01*
X166816136Y-64984355D01*
X167082803Y-64527212D02*
X167120898Y-64489117D01*
X167197088Y-64451021D01*
X167387565Y-64451021D01*
X167463755Y-64489117D01*
X167501850Y-64527212D01*
X167539946Y-64603402D01*
X167539946Y-64679593D01*
X167501850Y-64793878D01*
X167044707Y-65251021D01*
X167539946Y-65251021D01*
X169407211Y-84262942D02*
X169521497Y-84301037D01*
X169711973Y-84301037D01*
X169788164Y-84262942D01*
X169826259Y-84224847D01*
X169864354Y-84148656D01*
X169864354Y-84072466D01*
X169826259Y-83996275D01*
X169788164Y-83958180D01*
X169711973Y-83920085D01*
X169559592Y-83881990D01*
X169483402Y-83843894D01*
X169445307Y-83805799D01*
X169407211Y-83729609D01*
X169407211Y-83653418D01*
X169445307Y-83577228D01*
X169483402Y-83539133D01*
X169559592Y-83501037D01*
X169750069Y-83501037D01*
X169864354Y-83539133D01*
X170131021Y-83501037D02*
X170321497Y-84301037D01*
X170473878Y-83729609D01*
X170626259Y-84301037D01*
X170816735Y-83501037D01*
X171464354Y-83767704D02*
X171464354Y-84301037D01*
X171273878Y-83462942D02*
X171083402Y-84034371D01*
X171578640Y-84034371D01*
X171807211Y-83501037D02*
X172302450Y-83501037D01*
X172035783Y-83805799D01*
X172150069Y-83805799D01*
X172226259Y-83843894D01*
X172264354Y-83881990D01*
X172302450Y-83958180D01*
X172302450Y-84148656D01*
X172264354Y-84224847D01*
X172226259Y-84262942D01*
X172150069Y-84301037D01*
X171921497Y-84301037D01*
X171845307Y-84262942D01*
X171807211Y-84224847D01*
X159882203Y-103312958D02*
X159996489Y-103351053D01*
X160186965Y-103351053D01*
X160263156Y-103312958D01*
X160301251Y-103274863D01*
X160339346Y-103198672D01*
X160339346Y-103122482D01*
X160301251Y-103046291D01*
X160263156Y-103008196D01*
X160186965Y-102970101D01*
X160034584Y-102932006D01*
X159958394Y-102893910D01*
X159920299Y-102855815D01*
X159882203Y-102779625D01*
X159882203Y-102703434D01*
X159920299Y-102627244D01*
X159958394Y-102589149D01*
X160034584Y-102551053D01*
X160225061Y-102551053D01*
X160339346Y-102589149D01*
X160606013Y-102551053D02*
X160796489Y-103351053D01*
X160948870Y-102779625D01*
X161101251Y-103351053D01*
X161291727Y-102551053D01*
X161939346Y-102817720D02*
X161939346Y-103351053D01*
X161748870Y-102512958D02*
X161558394Y-103084387D01*
X162053632Y-103084387D01*
X162701251Y-102817720D02*
X162701251Y-103351053D01*
X162510775Y-102512958D02*
X162320299Y-103084387D01*
X162815537Y-103084387D01*
X150357195Y-122362974D02*
X150471481Y-122401069D01*
X150661957Y-122401069D01*
X150738148Y-122362974D01*
X150776243Y-122324879D01*
X150814338Y-122248688D01*
X150814338Y-122172498D01*
X150776243Y-122096307D01*
X150738148Y-122058212D01*
X150661957Y-122020117D01*
X150509576Y-121982022D01*
X150433386Y-121943926D01*
X150395291Y-121905831D01*
X150357195Y-121829641D01*
X150357195Y-121753450D01*
X150395291Y-121677260D01*
X150433386Y-121639165D01*
X150509576Y-121601069D01*
X150700053Y-121601069D01*
X150814338Y-121639165D01*
X151081005Y-121601069D02*
X151271481Y-122401069D01*
X151423862Y-121829641D01*
X151576243Y-122401069D01*
X151766719Y-121601069D01*
X152414338Y-121867736D02*
X152414338Y-122401069D01*
X152223862Y-121562974D02*
X152033386Y-122134403D01*
X152528624Y-122134403D01*
X153214338Y-121601069D02*
X152833386Y-121601069D01*
X152795291Y-121982022D01*
X152833386Y-121943926D01*
X152909576Y-121905831D01*
X153100053Y-121905831D01*
X153176243Y-121943926D01*
X153214338Y-121982022D01*
X153252434Y-122058212D01*
X153252434Y-122248688D01*
X153214338Y-122324879D01*
X153176243Y-122362974D01*
X153100053Y-122401069D01*
X152909576Y-122401069D01*
X152833386Y-122362974D01*
X152795291Y-122324879D01*
X183694723Y-65212926D02*
X183809009Y-65251021D01*
X183999485Y-65251021D01*
X184075676Y-65212926D01*
X184113771Y-65174831D01*
X184151866Y-65098640D01*
X184151866Y-65022450D01*
X184113771Y-64946259D01*
X184075676Y-64908164D01*
X183999485Y-64870069D01*
X183847104Y-64831974D01*
X183770914Y-64793878D01*
X183732819Y-64755783D01*
X183694723Y-64679593D01*
X183694723Y-64603402D01*
X183732819Y-64527212D01*
X183770914Y-64489117D01*
X183847104Y-64451021D01*
X184037581Y-64451021D01*
X184151866Y-64489117D01*
X184418533Y-64451021D02*
X184609009Y-65251021D01*
X184761390Y-64679593D01*
X184913771Y-65251021D01*
X185104247Y-64451021D01*
X185751866Y-64717688D02*
X185751866Y-65251021D01*
X185561390Y-64412926D02*
X185370914Y-64984355D01*
X185866152Y-64984355D01*
X186094723Y-64451021D02*
X186628057Y-64451021D01*
X186285200Y-65251021D01*
X188457227Y-84262942D02*
X188571513Y-84301037D01*
X188761989Y-84301037D01*
X188838180Y-84262942D01*
X188876275Y-84224847D01*
X188914370Y-84148656D01*
X188914370Y-84072466D01*
X188876275Y-83996275D01*
X188838180Y-83958180D01*
X188761989Y-83920085D01*
X188609608Y-83881990D01*
X188533418Y-83843894D01*
X188495323Y-83805799D01*
X188457227Y-83729609D01*
X188457227Y-83653418D01*
X188495323Y-83577228D01*
X188533418Y-83539133D01*
X188609608Y-83501037D01*
X188800085Y-83501037D01*
X188914370Y-83539133D01*
X189181037Y-83501037D02*
X189371513Y-84301037D01*
X189523894Y-83729609D01*
X189676275Y-84301037D01*
X189866751Y-83501037D01*
X190514370Y-83767704D02*
X190514370Y-84301037D01*
X190323894Y-83462942D02*
X190133418Y-84034371D01*
X190628656Y-84034371D01*
X191047704Y-83843894D02*
X190971513Y-83805799D01*
X190933418Y-83767704D01*
X190895323Y-83691513D01*
X190895323Y-83653418D01*
X190933418Y-83577228D01*
X190971513Y-83539133D01*
X191047704Y-83501037D01*
X191200085Y-83501037D01*
X191276275Y-83539133D01*
X191314370Y-83577228D01*
X191352466Y-83653418D01*
X191352466Y-83691513D01*
X191314370Y-83767704D01*
X191276275Y-83805799D01*
X191200085Y-83843894D01*
X191047704Y-83843894D01*
X190971513Y-83881990D01*
X190933418Y-83920085D01*
X190895323Y-83996275D01*
X190895323Y-84148656D01*
X190933418Y-84224847D01*
X190971513Y-84262942D01*
X191047704Y-84301037D01*
X191200085Y-84301037D01*
X191276275Y-84262942D01*
X191314370Y-84224847D01*
X191352466Y-84148656D01*
X191352466Y-83996275D01*
X191314370Y-83920085D01*
X191276275Y-83881990D01*
X191200085Y-83843894D01*
X178932219Y-103312958D02*
X179046505Y-103351053D01*
X179236981Y-103351053D01*
X179313172Y-103312958D01*
X179351267Y-103274863D01*
X179389362Y-103198672D01*
X179389362Y-103122482D01*
X179351267Y-103046291D01*
X179313172Y-103008196D01*
X179236981Y-102970101D01*
X179084600Y-102932006D01*
X179008410Y-102893910D01*
X178970315Y-102855815D01*
X178932219Y-102779625D01*
X178932219Y-102703434D01*
X178970315Y-102627244D01*
X179008410Y-102589149D01*
X179084600Y-102551053D01*
X179275077Y-102551053D01*
X179389362Y-102589149D01*
X179656029Y-102551053D02*
X179846505Y-103351053D01*
X179998886Y-102779625D01*
X180151267Y-103351053D01*
X180341743Y-102551053D01*
X180989362Y-102817720D02*
X180989362Y-103351053D01*
X180798886Y-102512958D02*
X180608410Y-103084387D01*
X181103648Y-103084387D01*
X181446505Y-103351053D02*
X181598886Y-103351053D01*
X181675077Y-103312958D01*
X181713172Y-103274863D01*
X181789362Y-103160577D01*
X181827458Y-103008196D01*
X181827458Y-102703434D01*
X181789362Y-102627244D01*
X181751267Y-102589149D01*
X181675077Y-102551053D01*
X181522696Y-102551053D01*
X181446505Y-102589149D01*
X181408410Y-102627244D01*
X181370315Y-102703434D01*
X181370315Y-102893910D01*
X181408410Y-102970101D01*
X181446505Y-103008196D01*
X181522696Y-103046291D01*
X181675077Y-103046291D01*
X181751267Y-103008196D01*
X181789362Y-102970101D01*
X181827458Y-102893910D01*
X202744739Y-65212926D02*
X202859025Y-65251021D01*
X203049501Y-65251021D01*
X203125692Y-65212926D01*
X203163787Y-65174831D01*
X203201882Y-65098640D01*
X203201882Y-65022450D01*
X203163787Y-64946259D01*
X203125692Y-64908164D01*
X203049501Y-64870069D01*
X202897120Y-64831974D01*
X202820930Y-64793878D01*
X202782835Y-64755783D01*
X202744739Y-64679593D01*
X202744739Y-64603402D01*
X202782835Y-64527212D01*
X202820930Y-64489117D01*
X202897120Y-64451021D01*
X203087597Y-64451021D01*
X203201882Y-64489117D01*
X203468549Y-64451021D02*
X203659025Y-65251021D01*
X203811406Y-64679593D01*
X203963787Y-65251021D01*
X204154263Y-64451021D01*
X204839978Y-64451021D02*
X204459025Y-64451021D01*
X204420930Y-64831974D01*
X204459025Y-64793878D01*
X204535216Y-64755783D01*
X204725692Y-64755783D01*
X204801882Y-64793878D01*
X204839978Y-64831974D01*
X204878073Y-64908164D01*
X204878073Y-65098640D01*
X204839978Y-65174831D01*
X204801882Y-65212926D01*
X204725692Y-65251021D01*
X204535216Y-65251021D01*
X204459025Y-65212926D01*
X204420930Y-65174831D01*
X205182835Y-64527212D02*
X205220930Y-64489117D01*
X205297120Y-64451021D01*
X205487597Y-64451021D01*
X205563787Y-64489117D01*
X205601882Y-64527212D01*
X205639978Y-64603402D01*
X205639978Y-64679593D01*
X205601882Y-64793878D01*
X205144739Y-65251021D01*
X205639978Y-65251021D01*
X207507243Y-84262942D02*
X207621529Y-84301037D01*
X207812005Y-84301037D01*
X207888196Y-84262942D01*
X207926291Y-84224847D01*
X207964386Y-84148656D01*
X207964386Y-84072466D01*
X207926291Y-83996275D01*
X207888196Y-83958180D01*
X207812005Y-83920085D01*
X207659624Y-83881990D01*
X207583434Y-83843894D01*
X207545339Y-83805799D01*
X207507243Y-83729609D01*
X207507243Y-83653418D01*
X207545339Y-83577228D01*
X207583434Y-83539133D01*
X207659624Y-83501037D01*
X207850101Y-83501037D01*
X207964386Y-83539133D01*
X208231053Y-83501037D02*
X208421529Y-84301037D01*
X208573910Y-83729609D01*
X208726291Y-84301037D01*
X208916767Y-83501037D01*
X209602482Y-83501037D02*
X209221529Y-83501037D01*
X209183434Y-83881990D01*
X209221529Y-83843894D01*
X209297720Y-83805799D01*
X209488196Y-83805799D01*
X209564386Y-83843894D01*
X209602482Y-83881990D01*
X209640577Y-83958180D01*
X209640577Y-84148656D01*
X209602482Y-84224847D01*
X209564386Y-84262942D01*
X209488196Y-84301037D01*
X209297720Y-84301037D01*
X209221529Y-84262942D01*
X209183434Y-84224847D01*
X209907243Y-83501037D02*
X210402482Y-83501037D01*
X210135815Y-83805799D01*
X210250101Y-83805799D01*
X210326291Y-83843894D01*
X210364386Y-83881990D01*
X210402482Y-83958180D01*
X210402482Y-84148656D01*
X210364386Y-84224847D01*
X210326291Y-84262942D01*
X210250101Y-84301037D01*
X210021529Y-84301037D01*
X209945339Y-84262942D01*
X209907243Y-84224847D01*
X197982235Y-103312958D02*
X198096521Y-103351053D01*
X198286997Y-103351053D01*
X198363188Y-103312958D01*
X198401283Y-103274863D01*
X198439378Y-103198672D01*
X198439378Y-103122482D01*
X198401283Y-103046291D01*
X198363188Y-103008196D01*
X198286997Y-102970101D01*
X198134616Y-102932006D01*
X198058426Y-102893910D01*
X198020331Y-102855815D01*
X197982235Y-102779625D01*
X197982235Y-102703434D01*
X198020331Y-102627244D01*
X198058426Y-102589149D01*
X198134616Y-102551053D01*
X198325093Y-102551053D01*
X198439378Y-102589149D01*
X198706045Y-102551053D02*
X198896521Y-103351053D01*
X199048902Y-102779625D01*
X199201283Y-103351053D01*
X199391759Y-102551053D01*
X200077474Y-102551053D02*
X199696521Y-102551053D01*
X199658426Y-102932006D01*
X199696521Y-102893910D01*
X199772712Y-102855815D01*
X199963188Y-102855815D01*
X200039378Y-102893910D01*
X200077474Y-102932006D01*
X200115569Y-103008196D01*
X200115569Y-103198672D01*
X200077474Y-103274863D01*
X200039378Y-103312958D01*
X199963188Y-103351053D01*
X199772712Y-103351053D01*
X199696521Y-103312958D01*
X199658426Y-103274863D01*
X200801283Y-102817720D02*
X200801283Y-103351053D01*
X200610807Y-102512958D02*
X200420331Y-103084387D01*
X200915569Y-103084387D01*
X190838479Y-122362974D02*
X190952765Y-122401069D01*
X191143241Y-122401069D01*
X191219432Y-122362974D01*
X191257527Y-122324879D01*
X191295622Y-122248688D01*
X191295622Y-122172498D01*
X191257527Y-122096307D01*
X191219432Y-122058212D01*
X191143241Y-122020117D01*
X190990860Y-121982022D01*
X190914670Y-121943926D01*
X190876575Y-121905831D01*
X190838479Y-121829641D01*
X190838479Y-121753450D01*
X190876575Y-121677260D01*
X190914670Y-121639165D01*
X190990860Y-121601069D01*
X191181337Y-121601069D01*
X191295622Y-121639165D01*
X191562289Y-121601069D02*
X191752765Y-122401069D01*
X191905146Y-121829641D01*
X192057527Y-122401069D01*
X192248003Y-121601069D01*
X192933718Y-121601069D02*
X192552765Y-121601069D01*
X192514670Y-121982022D01*
X192552765Y-121943926D01*
X192628956Y-121905831D01*
X192819432Y-121905831D01*
X192895622Y-121943926D01*
X192933718Y-121982022D01*
X192971813Y-122058212D01*
X192971813Y-122248688D01*
X192933718Y-122324879D01*
X192895622Y-122362974D01*
X192819432Y-122401069D01*
X192628956Y-122401069D01*
X192552765Y-122362974D01*
X192514670Y-122324879D01*
X193695622Y-121601069D02*
X193314670Y-121601069D01*
X193276575Y-121982022D01*
X193314670Y-121943926D01*
X193390860Y-121905831D01*
X193581337Y-121905831D01*
X193657527Y-121943926D01*
X193695622Y-121982022D01*
X193733718Y-122058212D01*
X193733718Y-122248688D01*
X193695622Y-122324879D01*
X193657527Y-122362974D01*
X193581337Y-122401069D01*
X193390860Y-122401069D01*
X193314670Y-122362974D01*
X193276575Y-122324879D01*
X212269747Y-46162910D02*
X212384033Y-46201005D01*
X212574509Y-46201005D01*
X212650700Y-46162910D01*
X212688795Y-46124815D01*
X212726890Y-46048624D01*
X212726890Y-45972434D01*
X212688795Y-45896243D01*
X212650700Y-45858148D01*
X212574509Y-45820053D01*
X212422128Y-45781958D01*
X212345938Y-45743862D01*
X212307843Y-45705767D01*
X212269747Y-45629577D01*
X212269747Y-45553386D01*
X212307843Y-45477196D01*
X212345938Y-45439101D01*
X212422128Y-45401005D01*
X212612605Y-45401005D01*
X212726890Y-45439101D01*
X212993557Y-45401005D02*
X213184033Y-46201005D01*
X213336414Y-45629577D01*
X213488795Y-46201005D01*
X213679271Y-45401005D01*
X214364986Y-45401005D02*
X213984033Y-45401005D01*
X213945938Y-45781958D01*
X213984033Y-45743862D01*
X214060224Y-45705767D01*
X214250700Y-45705767D01*
X214326890Y-45743862D01*
X214364986Y-45781958D01*
X214403081Y-45858148D01*
X214403081Y-46048624D01*
X214364986Y-46124815D01*
X214326890Y-46162910D01*
X214250700Y-46201005D01*
X214060224Y-46201005D01*
X213984033Y-46162910D01*
X213945938Y-46124815D01*
X215088795Y-45401005D02*
X214936414Y-45401005D01*
X214860224Y-45439101D01*
X214822128Y-45477196D01*
X214745938Y-45591481D01*
X214707843Y-45743862D01*
X214707843Y-46048624D01*
X214745938Y-46124815D01*
X214784033Y-46162910D01*
X214860224Y-46201005D01*
X215012605Y-46201005D01*
X215088795Y-46162910D01*
X215126890Y-46124815D01*
X215164986Y-46048624D01*
X215164986Y-45858148D01*
X215126890Y-45781958D01*
X215088795Y-45743862D01*
X215012605Y-45705767D01*
X214860224Y-45705767D01*
X214784033Y-45743862D01*
X214745938Y-45781958D01*
X214707843Y-45858148D01*
X221794755Y-65212926D02*
X221909041Y-65251021D01*
X222099517Y-65251021D01*
X222175708Y-65212926D01*
X222213803Y-65174831D01*
X222251898Y-65098640D01*
X222251898Y-65022450D01*
X222213803Y-64946259D01*
X222175708Y-64908164D01*
X222099517Y-64870069D01*
X221947136Y-64831974D01*
X221870946Y-64793878D01*
X221832851Y-64755783D01*
X221794755Y-64679593D01*
X221794755Y-64603402D01*
X221832851Y-64527212D01*
X221870946Y-64489117D01*
X221947136Y-64451021D01*
X222137613Y-64451021D01*
X222251898Y-64489117D01*
X222518565Y-64451021D02*
X222709041Y-65251021D01*
X222861422Y-64679593D01*
X223013803Y-65251021D01*
X223204279Y-64451021D01*
X223889994Y-64451021D02*
X223509041Y-64451021D01*
X223470946Y-64831974D01*
X223509041Y-64793878D01*
X223585232Y-64755783D01*
X223775708Y-64755783D01*
X223851898Y-64793878D01*
X223889994Y-64831974D01*
X223928089Y-64908164D01*
X223928089Y-65098640D01*
X223889994Y-65174831D01*
X223851898Y-65212926D01*
X223775708Y-65251021D01*
X223585232Y-65251021D01*
X223509041Y-65212926D01*
X223470946Y-65174831D01*
X224194755Y-64451021D02*
X224728089Y-64451021D01*
X224385232Y-65251021D01*
X226557259Y-84262942D02*
X226671545Y-84301037D01*
X226862021Y-84301037D01*
X226938212Y-84262942D01*
X226976307Y-84224847D01*
X227014402Y-84148656D01*
X227014402Y-84072466D01*
X226976307Y-83996275D01*
X226938212Y-83958180D01*
X226862021Y-83920085D01*
X226709640Y-83881990D01*
X226633450Y-83843894D01*
X226595355Y-83805799D01*
X226557259Y-83729609D01*
X226557259Y-83653418D01*
X226595355Y-83577228D01*
X226633450Y-83539133D01*
X226709640Y-83501037D01*
X226900117Y-83501037D01*
X227014402Y-83539133D01*
X227281069Y-83501037D02*
X227471545Y-84301037D01*
X227623926Y-83729609D01*
X227776307Y-84301037D01*
X227966783Y-83501037D01*
X228652498Y-83501037D02*
X228271545Y-83501037D01*
X228233450Y-83881990D01*
X228271545Y-83843894D01*
X228347736Y-83805799D01*
X228538212Y-83805799D01*
X228614402Y-83843894D01*
X228652498Y-83881990D01*
X228690593Y-83958180D01*
X228690593Y-84148656D01*
X228652498Y-84224847D01*
X228614402Y-84262942D01*
X228538212Y-84301037D01*
X228347736Y-84301037D01*
X228271545Y-84262942D01*
X228233450Y-84224847D01*
X229147736Y-83843894D02*
X229071545Y-83805799D01*
X229033450Y-83767704D01*
X228995355Y-83691513D01*
X228995355Y-83653418D01*
X229033450Y-83577228D01*
X229071545Y-83539133D01*
X229147736Y-83501037D01*
X229300117Y-83501037D01*
X229376307Y-83539133D01*
X229414402Y-83577228D01*
X229452498Y-83653418D01*
X229452498Y-83691513D01*
X229414402Y-83767704D01*
X229376307Y-83805799D01*
X229300117Y-83843894D01*
X229147736Y-83843894D01*
X229071545Y-83881990D01*
X229033450Y-83920085D01*
X228995355Y-83996275D01*
X228995355Y-84148656D01*
X229033450Y-84224847D01*
X229071545Y-84262942D01*
X229147736Y-84301037D01*
X229300117Y-84301037D01*
X229376307Y-84262942D01*
X229414402Y-84224847D01*
X229452498Y-84148656D01*
X229452498Y-83996275D01*
X229414402Y-83920085D01*
X229376307Y-83881990D01*
X229300117Y-83843894D01*
X217032251Y-103312958D02*
X217146537Y-103351053D01*
X217337013Y-103351053D01*
X217413204Y-103312958D01*
X217451299Y-103274863D01*
X217489394Y-103198672D01*
X217489394Y-103122482D01*
X217451299Y-103046291D01*
X217413204Y-103008196D01*
X217337013Y-102970101D01*
X217184632Y-102932006D01*
X217108442Y-102893910D01*
X217070347Y-102855815D01*
X217032251Y-102779625D01*
X217032251Y-102703434D01*
X217070347Y-102627244D01*
X217108442Y-102589149D01*
X217184632Y-102551053D01*
X217375109Y-102551053D01*
X217489394Y-102589149D01*
X217756061Y-102551053D02*
X217946537Y-103351053D01*
X218098918Y-102779625D01*
X218251299Y-103351053D01*
X218441775Y-102551053D01*
X219127490Y-102551053D02*
X218746537Y-102551053D01*
X218708442Y-102932006D01*
X218746537Y-102893910D01*
X218822728Y-102855815D01*
X219013204Y-102855815D01*
X219089394Y-102893910D01*
X219127490Y-102932006D01*
X219165585Y-103008196D01*
X219165585Y-103198672D01*
X219127490Y-103274863D01*
X219089394Y-103312958D01*
X219013204Y-103351053D01*
X218822728Y-103351053D01*
X218746537Y-103312958D01*
X218708442Y-103274863D01*
X219546537Y-103351053D02*
X219698918Y-103351053D01*
X219775109Y-103312958D01*
X219813204Y-103274863D01*
X219889394Y-103160577D01*
X219927490Y-103008196D01*
X219927490Y-102703434D01*
X219889394Y-102627244D01*
X219851299Y-102589149D01*
X219775109Y-102551053D01*
X219622728Y-102551053D01*
X219546537Y-102589149D01*
X219508442Y-102627244D01*
X219470347Y-102703434D01*
X219470347Y-102893910D01*
X219508442Y-102970101D01*
X219546537Y-103008196D01*
X219622728Y-103046291D01*
X219775109Y-103046291D01*
X219851299Y-103008196D01*
X219889394Y-102970101D01*
X219927490Y-102893910D01*
X212269747Y-122362974D02*
X212384033Y-122401069D01*
X212574509Y-122401069D01*
X212650700Y-122362974D01*
X212688795Y-122324879D01*
X212726890Y-122248688D01*
X212726890Y-122172498D01*
X212688795Y-122096307D01*
X212650700Y-122058212D01*
X212574509Y-122020117D01*
X212422128Y-121982022D01*
X212345938Y-121943926D01*
X212307843Y-121905831D01*
X212269747Y-121829641D01*
X212269747Y-121753450D01*
X212307843Y-121677260D01*
X212345938Y-121639165D01*
X212422128Y-121601069D01*
X212612605Y-121601069D01*
X212726890Y-121639165D01*
X212993557Y-121601069D02*
X213184033Y-122401069D01*
X213336414Y-121829641D01*
X213488795Y-122401069D01*
X213679271Y-121601069D01*
X214326890Y-121601069D02*
X214174509Y-121601069D01*
X214098319Y-121639165D01*
X214060224Y-121677260D01*
X213984033Y-121791545D01*
X213945938Y-121943926D01*
X213945938Y-122248688D01*
X213984033Y-122324879D01*
X214022128Y-122362974D01*
X214098319Y-122401069D01*
X214250700Y-122401069D01*
X214326890Y-122362974D01*
X214364986Y-122324879D01*
X214403081Y-122248688D01*
X214403081Y-122058212D01*
X214364986Y-121982022D01*
X214326890Y-121943926D01*
X214250700Y-121905831D01*
X214098319Y-121905831D01*
X214022128Y-121943926D01*
X213984033Y-121982022D01*
X213945938Y-122058212D01*
X214898319Y-121601069D02*
X214974509Y-121601069D01*
X215050700Y-121639165D01*
X215088795Y-121677260D01*
X215126890Y-121753450D01*
X215164986Y-121905831D01*
X215164986Y-122096307D01*
X215126890Y-122248688D01*
X215088795Y-122324879D01*
X215050700Y-122362974D01*
X214974509Y-122401069D01*
X214898319Y-122401069D01*
X214822128Y-122362974D01*
X214784033Y-122324879D01*
X214745938Y-122248688D01*
X214707843Y-122096307D01*
X214707843Y-121905831D01*
X214745938Y-121753450D01*
X214784033Y-121677260D01*
X214822128Y-121639165D01*
X214898319Y-121601069D01*
X231319763Y-46162910D02*
X231434049Y-46201005D01*
X231624525Y-46201005D01*
X231700716Y-46162910D01*
X231738811Y-46124815D01*
X231776906Y-46048624D01*
X231776906Y-45972434D01*
X231738811Y-45896243D01*
X231700716Y-45858148D01*
X231624525Y-45820053D01*
X231472144Y-45781958D01*
X231395954Y-45743862D01*
X231357859Y-45705767D01*
X231319763Y-45629577D01*
X231319763Y-45553386D01*
X231357859Y-45477196D01*
X231395954Y-45439101D01*
X231472144Y-45401005D01*
X231662621Y-45401005D01*
X231776906Y-45439101D01*
X232043573Y-45401005D02*
X232234049Y-46201005D01*
X232386430Y-45629577D01*
X232538811Y-46201005D01*
X232729287Y-45401005D01*
X233376906Y-45401005D02*
X233224525Y-45401005D01*
X233148335Y-45439101D01*
X233110240Y-45477196D01*
X233034049Y-45591481D01*
X232995954Y-45743862D01*
X232995954Y-46048624D01*
X233034049Y-46124815D01*
X233072144Y-46162910D01*
X233148335Y-46201005D01*
X233300716Y-46201005D01*
X233376906Y-46162910D01*
X233415002Y-46124815D01*
X233453097Y-46048624D01*
X233453097Y-45858148D01*
X233415002Y-45781958D01*
X233376906Y-45743862D01*
X233300716Y-45705767D01*
X233148335Y-45705767D01*
X233072144Y-45743862D01*
X233034049Y-45781958D01*
X232995954Y-45858148D01*
X234215002Y-46201005D02*
X233757859Y-46201005D01*
X233986430Y-46201005D02*
X233986430Y-45401005D01*
X233910240Y-45515291D01*
X233834049Y-45591481D01*
X233757859Y-45629577D01*
X240844771Y-65212926D02*
X240959057Y-65251021D01*
X241149533Y-65251021D01*
X241225724Y-65212926D01*
X241263819Y-65174831D01*
X241301914Y-65098640D01*
X241301914Y-65022450D01*
X241263819Y-64946259D01*
X241225724Y-64908164D01*
X241149533Y-64870069D01*
X240997152Y-64831974D01*
X240920962Y-64793878D01*
X240882867Y-64755783D01*
X240844771Y-64679593D01*
X240844771Y-64603402D01*
X240882867Y-64527212D01*
X240920962Y-64489117D01*
X240997152Y-64451021D01*
X241187629Y-64451021D01*
X241301914Y-64489117D01*
X241568581Y-64451021D02*
X241759057Y-65251021D01*
X241911438Y-64679593D01*
X242063819Y-65251021D01*
X242254295Y-64451021D01*
X242901914Y-64451021D02*
X242749533Y-64451021D01*
X242673343Y-64489117D01*
X242635248Y-64527212D01*
X242559057Y-64641497D01*
X242520962Y-64793878D01*
X242520962Y-65098640D01*
X242559057Y-65174831D01*
X242597152Y-65212926D01*
X242673343Y-65251021D01*
X242825724Y-65251021D01*
X242901914Y-65212926D01*
X242940010Y-65174831D01*
X242978105Y-65098640D01*
X242978105Y-64908164D01*
X242940010Y-64831974D01*
X242901914Y-64793878D01*
X242825724Y-64755783D01*
X242673343Y-64755783D01*
X242597152Y-64793878D01*
X242559057Y-64831974D01*
X242520962Y-64908164D01*
X243282867Y-64527212D02*
X243320962Y-64489117D01*
X243397152Y-64451021D01*
X243587629Y-64451021D01*
X243663819Y-64489117D01*
X243701914Y-64527212D01*
X243740010Y-64603402D01*
X243740010Y-64679593D01*
X243701914Y-64793878D01*
X243244771Y-65251021D01*
X243740010Y-65251021D01*
X231319763Y-122362974D02*
X231434049Y-122401069D01*
X231624525Y-122401069D01*
X231700716Y-122362974D01*
X231738811Y-122324879D01*
X231776906Y-122248688D01*
X231776906Y-122172498D01*
X231738811Y-122096307D01*
X231700716Y-122058212D01*
X231624525Y-122020117D01*
X231472144Y-121982022D01*
X231395954Y-121943926D01*
X231357859Y-121905831D01*
X231319763Y-121829641D01*
X231319763Y-121753450D01*
X231357859Y-121677260D01*
X231395954Y-121639165D01*
X231472144Y-121601069D01*
X231662621Y-121601069D01*
X231776906Y-121639165D01*
X232043573Y-121601069D02*
X232234049Y-122401069D01*
X232386430Y-121829641D01*
X232538811Y-122401069D01*
X232729287Y-121601069D01*
X233376906Y-121601069D02*
X233224525Y-121601069D01*
X233148335Y-121639165D01*
X233110240Y-121677260D01*
X233034049Y-121791545D01*
X232995954Y-121943926D01*
X232995954Y-122248688D01*
X233034049Y-122324879D01*
X233072144Y-122362974D01*
X233148335Y-122401069D01*
X233300716Y-122401069D01*
X233376906Y-122362974D01*
X233415002Y-122324879D01*
X233453097Y-122248688D01*
X233453097Y-122058212D01*
X233415002Y-121982022D01*
X233376906Y-121943926D01*
X233300716Y-121905831D01*
X233148335Y-121905831D01*
X233072144Y-121943926D01*
X233034049Y-121982022D01*
X232995954Y-122058212D01*
X234176906Y-121601069D02*
X233795954Y-121601069D01*
X233757859Y-121982022D01*
X233795954Y-121943926D01*
X233872144Y-121905831D01*
X234062621Y-121905831D01*
X234138811Y-121943926D01*
X234176906Y-121982022D01*
X234215002Y-122058212D01*
X234215002Y-122248688D01*
X234176906Y-122324879D01*
X234138811Y-122362974D01*
X234062621Y-122401069D01*
X233872144Y-122401069D01*
X233795954Y-122362974D01*
X233757859Y-122324879D01*
X259894787Y-46162910D02*
X260009073Y-46201005D01*
X260199549Y-46201005D01*
X260275740Y-46162910D01*
X260313835Y-46124815D01*
X260351930Y-46048624D01*
X260351930Y-45972434D01*
X260313835Y-45896243D01*
X260275740Y-45858148D01*
X260199549Y-45820053D01*
X260047168Y-45781958D01*
X259970978Y-45743862D01*
X259932883Y-45705767D01*
X259894787Y-45629577D01*
X259894787Y-45553386D01*
X259932883Y-45477196D01*
X259970978Y-45439101D01*
X260047168Y-45401005D01*
X260237645Y-45401005D01*
X260351930Y-45439101D01*
X260618597Y-45401005D02*
X260809073Y-46201005D01*
X260961454Y-45629577D01*
X261113835Y-46201005D01*
X261304311Y-45401005D01*
X261951930Y-45401005D02*
X261799549Y-45401005D01*
X261723359Y-45439101D01*
X261685264Y-45477196D01*
X261609073Y-45591481D01*
X261570978Y-45743862D01*
X261570978Y-46048624D01*
X261609073Y-46124815D01*
X261647168Y-46162910D01*
X261723359Y-46201005D01*
X261875740Y-46201005D01*
X261951930Y-46162910D01*
X261990026Y-46124815D01*
X262028121Y-46048624D01*
X262028121Y-45858148D01*
X261990026Y-45781958D01*
X261951930Y-45743862D01*
X261875740Y-45705767D01*
X261723359Y-45705767D01*
X261647168Y-45743862D01*
X261609073Y-45781958D01*
X261570978Y-45858148D01*
X262713835Y-45401005D02*
X262561454Y-45401005D01*
X262485264Y-45439101D01*
X262447168Y-45477196D01*
X262370978Y-45591481D01*
X262332883Y-45743862D01*
X262332883Y-46048624D01*
X262370978Y-46124815D01*
X262409073Y-46162910D01*
X262485264Y-46201005D01*
X262637645Y-46201005D01*
X262713835Y-46162910D01*
X262751930Y-46124815D01*
X262790026Y-46048624D01*
X262790026Y-45858148D01*
X262751930Y-45781958D01*
X262713835Y-45743862D01*
X262637645Y-45705767D01*
X262485264Y-45705767D01*
X262409073Y-45743862D01*
X262370978Y-45781958D01*
X262332883Y-45858148D01*
X257513535Y-84262942D02*
X257627821Y-84301037D01*
X257818297Y-84301037D01*
X257894488Y-84262942D01*
X257932583Y-84224847D01*
X257970678Y-84148656D01*
X257970678Y-84072466D01*
X257932583Y-83996275D01*
X257894488Y-83958180D01*
X257818297Y-83920085D01*
X257665916Y-83881990D01*
X257589726Y-83843894D01*
X257551631Y-83805799D01*
X257513535Y-83729609D01*
X257513535Y-83653418D01*
X257551631Y-83577228D01*
X257589726Y-83539133D01*
X257665916Y-83501037D01*
X257856393Y-83501037D01*
X257970678Y-83539133D01*
X258237345Y-83501037D02*
X258427821Y-84301037D01*
X258580202Y-83729609D01*
X258732583Y-84301037D01*
X258923059Y-83501037D01*
X259570678Y-83501037D02*
X259418297Y-83501037D01*
X259342107Y-83539133D01*
X259304012Y-83577228D01*
X259227821Y-83691513D01*
X259189726Y-83843894D01*
X259189726Y-84148656D01*
X259227821Y-84224847D01*
X259265916Y-84262942D01*
X259342107Y-84301037D01*
X259494488Y-84301037D01*
X259570678Y-84262942D01*
X259608774Y-84224847D01*
X259646869Y-84148656D01*
X259646869Y-83958180D01*
X259608774Y-83881990D01*
X259570678Y-83843894D01*
X259494488Y-83805799D01*
X259342107Y-83805799D01*
X259265916Y-83843894D01*
X259227821Y-83881990D01*
X259189726Y-83958180D01*
X260104012Y-83843894D02*
X260027821Y-83805799D01*
X259989726Y-83767704D01*
X259951631Y-83691513D01*
X259951631Y-83653418D01*
X259989726Y-83577228D01*
X260027821Y-83539133D01*
X260104012Y-83501037D01*
X260256393Y-83501037D01*
X260332583Y-83539133D01*
X260370678Y-83577228D01*
X260408774Y-83653418D01*
X260408774Y-83691513D01*
X260370678Y-83767704D01*
X260332583Y-83805799D01*
X260256393Y-83843894D01*
X260104012Y-83843894D01*
X260027821Y-83881990D01*
X259989726Y-83920085D01*
X259951631Y-83996275D01*
X259951631Y-84148656D01*
X259989726Y-84224847D01*
X260027821Y-84262942D01*
X260104012Y-84301037D01*
X260256393Y-84301037D01*
X260332583Y-84262942D01*
X260370678Y-84224847D01*
X260408774Y-84148656D01*
X260408774Y-83996275D01*
X260370678Y-83920085D01*
X260332583Y-83881990D01*
X260256393Y-83843894D01*
X243226023Y-103312958D02*
X243340309Y-103351053D01*
X243530785Y-103351053D01*
X243606976Y-103312958D01*
X243645071Y-103274863D01*
X243683166Y-103198672D01*
X243683166Y-103122482D01*
X243645071Y-103046291D01*
X243606976Y-103008196D01*
X243530785Y-102970101D01*
X243378404Y-102932006D01*
X243302214Y-102893910D01*
X243264119Y-102855815D01*
X243226023Y-102779625D01*
X243226023Y-102703434D01*
X243264119Y-102627244D01*
X243302214Y-102589149D01*
X243378404Y-102551053D01*
X243568881Y-102551053D01*
X243683166Y-102589149D01*
X243949833Y-102551053D02*
X244140309Y-103351053D01*
X244292690Y-102779625D01*
X244445071Y-103351053D01*
X244635547Y-102551053D01*
X245283166Y-102551053D02*
X245130785Y-102551053D01*
X245054595Y-102589149D01*
X245016500Y-102627244D01*
X244940309Y-102741529D01*
X244902214Y-102893910D01*
X244902214Y-103198672D01*
X244940309Y-103274863D01*
X244978404Y-103312958D01*
X245054595Y-103351053D01*
X245206976Y-103351053D01*
X245283166Y-103312958D01*
X245321262Y-103274863D01*
X245359357Y-103198672D01*
X245359357Y-103008196D01*
X245321262Y-102932006D01*
X245283166Y-102893910D01*
X245206976Y-102855815D01*
X245054595Y-102855815D01*
X244978404Y-102893910D01*
X244940309Y-102932006D01*
X244902214Y-103008196D01*
X245740309Y-103351053D02*
X245892690Y-103351053D01*
X245968881Y-103312958D01*
X246006976Y-103274863D01*
X246083166Y-103160577D01*
X246121262Y-103008196D01*
X246121262Y-102703434D01*
X246083166Y-102627244D01*
X246045071Y-102589149D01*
X245968881Y-102551053D01*
X245816500Y-102551053D01*
X245740309Y-102589149D01*
X245702214Y-102627244D01*
X245664119Y-102703434D01*
X245664119Y-102893910D01*
X245702214Y-102970101D01*
X245740309Y-103008196D01*
X245816500Y-103046291D01*
X245968881Y-103046291D01*
X246045071Y-103008196D01*
X246083166Y-102970101D01*
X246121262Y-102893910D01*
X250369779Y-122362974D02*
X250484065Y-122401069D01*
X250674541Y-122401069D01*
X250750732Y-122362974D01*
X250788827Y-122324879D01*
X250826922Y-122248688D01*
X250826922Y-122172498D01*
X250788827Y-122096307D01*
X250750732Y-122058212D01*
X250674541Y-122020117D01*
X250522160Y-121982022D01*
X250445970Y-121943926D01*
X250407875Y-121905831D01*
X250369779Y-121829641D01*
X250369779Y-121753450D01*
X250407875Y-121677260D01*
X250445970Y-121639165D01*
X250522160Y-121601069D01*
X250712637Y-121601069D01*
X250826922Y-121639165D01*
X251093589Y-121601069D02*
X251284065Y-122401069D01*
X251436446Y-121829641D01*
X251588827Y-122401069D01*
X251779303Y-121601069D01*
X252007875Y-121601069D02*
X252541208Y-121601069D01*
X252198351Y-122401069D01*
X252998351Y-121601069D02*
X253074541Y-121601069D01*
X253150732Y-121639165D01*
X253188827Y-121677260D01*
X253226922Y-121753450D01*
X253265018Y-121905831D01*
X253265018Y-122096307D01*
X253226922Y-122248688D01*
X253188827Y-122324879D01*
X253150732Y-122362974D01*
X253074541Y-122401069D01*
X252998351Y-122401069D01*
X252922160Y-122362974D01*
X252884065Y-122324879D01*
X252845970Y-122248688D01*
X252807875Y-122096307D01*
X252807875Y-121905831D01*
X252845970Y-121753450D01*
X252884065Y-121677260D01*
X252922160Y-121639165D01*
X252998351Y-121601069D01*
X264657291Y-65212926D02*
X264771577Y-65251021D01*
X264962053Y-65251021D01*
X265038244Y-65212926D01*
X265076339Y-65174831D01*
X265114434Y-65098640D01*
X265114434Y-65022450D01*
X265076339Y-64946259D01*
X265038244Y-64908164D01*
X264962053Y-64870069D01*
X264809672Y-64831974D01*
X264733482Y-64793878D01*
X264695387Y-64755783D01*
X264657291Y-64679593D01*
X264657291Y-64603402D01*
X264695387Y-64527212D01*
X264733482Y-64489117D01*
X264809672Y-64451021D01*
X265000149Y-64451021D01*
X265114434Y-64489117D01*
X265381101Y-64451021D02*
X265571577Y-65251021D01*
X265723958Y-64679593D01*
X265876339Y-65251021D01*
X266066815Y-64451021D01*
X266295387Y-64451021D02*
X266828720Y-64451021D01*
X266485863Y-65251021D01*
X267095387Y-64527212D02*
X267133482Y-64489117D01*
X267209672Y-64451021D01*
X267400149Y-64451021D01*
X267476339Y-64489117D01*
X267514434Y-64527212D01*
X267552530Y-64603402D01*
X267552530Y-64679593D01*
X267514434Y-64793878D01*
X267057291Y-65251021D01*
X267552530Y-65251021D01*
X269419795Y-103312958D02*
X269534081Y-103351053D01*
X269724557Y-103351053D01*
X269800748Y-103312958D01*
X269838843Y-103274863D01*
X269876938Y-103198672D01*
X269876938Y-103122482D01*
X269838843Y-103046291D01*
X269800748Y-103008196D01*
X269724557Y-102970101D01*
X269572176Y-102932006D01*
X269495986Y-102893910D01*
X269457891Y-102855815D01*
X269419795Y-102779625D01*
X269419795Y-102703434D01*
X269457891Y-102627244D01*
X269495986Y-102589149D01*
X269572176Y-102551053D01*
X269762653Y-102551053D01*
X269876938Y-102589149D01*
X270143605Y-102551053D02*
X270334081Y-103351053D01*
X270486462Y-102779625D01*
X270638843Y-103351053D01*
X270829319Y-102551053D01*
X271057891Y-102551053D02*
X271591224Y-102551053D01*
X271248367Y-103351053D01*
X272238843Y-102817720D02*
X272238843Y-103351053D01*
X272048367Y-102512958D02*
X271857891Y-103084387D01*
X272353129Y-103084387D01*
X269419795Y-122362974D02*
X269534081Y-122401069D01*
X269724557Y-122401069D01*
X269800748Y-122362974D01*
X269838843Y-122324879D01*
X269876938Y-122248688D01*
X269876938Y-122172498D01*
X269838843Y-122096307D01*
X269800748Y-122058212D01*
X269724557Y-122020117D01*
X269572176Y-121982022D01*
X269495986Y-121943926D01*
X269457891Y-121905831D01*
X269419795Y-121829641D01*
X269419795Y-121753450D01*
X269457891Y-121677260D01*
X269495986Y-121639165D01*
X269572176Y-121601069D01*
X269762653Y-121601069D01*
X269876938Y-121639165D01*
X270143605Y-121601069D02*
X270334081Y-122401069D01*
X270486462Y-121829641D01*
X270638843Y-122401069D01*
X270829319Y-121601069D01*
X271057891Y-121601069D02*
X271591224Y-121601069D01*
X271248367Y-122401069D01*
X272276938Y-121601069D02*
X271895986Y-121601069D01*
X271857891Y-121982022D01*
X271895986Y-121943926D01*
X271972176Y-121905831D01*
X272162653Y-121905831D01*
X272238843Y-121943926D01*
X272276938Y-121982022D01*
X272315034Y-122058212D01*
X272315034Y-122248688D01*
X272276938Y-122324879D01*
X272238843Y-122362974D01*
X272162653Y-122401069D01*
X271972176Y-122401069D01*
X271895986Y-122362974D01*
X271857891Y-122324879D01*
X288469811Y-46162910D02*
X288584097Y-46201005D01*
X288774573Y-46201005D01*
X288850764Y-46162910D01*
X288888859Y-46124815D01*
X288926954Y-46048624D01*
X288926954Y-45972434D01*
X288888859Y-45896243D01*
X288850764Y-45858148D01*
X288774573Y-45820053D01*
X288622192Y-45781958D01*
X288546002Y-45743862D01*
X288507907Y-45705767D01*
X288469811Y-45629577D01*
X288469811Y-45553386D01*
X288507907Y-45477196D01*
X288546002Y-45439101D01*
X288622192Y-45401005D01*
X288812669Y-45401005D01*
X288926954Y-45439101D01*
X289193621Y-45401005D02*
X289384097Y-46201005D01*
X289536478Y-45629577D01*
X289688859Y-46201005D01*
X289879335Y-45401005D01*
X290107907Y-45401005D02*
X290641240Y-45401005D01*
X290298383Y-46201005D01*
X291288859Y-45401005D02*
X291136478Y-45401005D01*
X291060288Y-45439101D01*
X291022192Y-45477196D01*
X290946002Y-45591481D01*
X290907907Y-45743862D01*
X290907907Y-46048624D01*
X290946002Y-46124815D01*
X290984097Y-46162910D01*
X291060288Y-46201005D01*
X291212669Y-46201005D01*
X291288859Y-46162910D01*
X291326954Y-46124815D01*
X291365050Y-46048624D01*
X291365050Y-45858148D01*
X291326954Y-45781958D01*
X291288859Y-45743862D01*
X291212669Y-45705767D01*
X291060288Y-45705767D01*
X290984097Y-45743862D01*
X290946002Y-45781958D01*
X290907907Y-45858148D01*
X288469811Y-65212926D02*
X288584097Y-65251021D01*
X288774573Y-65251021D01*
X288850764Y-65212926D01*
X288888859Y-65174831D01*
X288926954Y-65098640D01*
X288926954Y-65022450D01*
X288888859Y-64946259D01*
X288850764Y-64908164D01*
X288774573Y-64870069D01*
X288622192Y-64831974D01*
X288546002Y-64793878D01*
X288507907Y-64755783D01*
X288469811Y-64679593D01*
X288469811Y-64603402D01*
X288507907Y-64527212D01*
X288546002Y-64489117D01*
X288622192Y-64451021D01*
X288812669Y-64451021D01*
X288926954Y-64489117D01*
X289193621Y-64451021D02*
X289384097Y-65251021D01*
X289536478Y-64679593D01*
X289688859Y-65251021D01*
X289879335Y-64451021D01*
X290107907Y-64451021D02*
X290641240Y-64451021D01*
X290298383Y-65251021D01*
X290869811Y-64451021D02*
X291403145Y-64451021D01*
X291060288Y-65251021D01*
X288469811Y-84262942D02*
X288584097Y-84301037D01*
X288774573Y-84301037D01*
X288850764Y-84262942D01*
X288888859Y-84224847D01*
X288926954Y-84148656D01*
X288926954Y-84072466D01*
X288888859Y-83996275D01*
X288850764Y-83958180D01*
X288774573Y-83920085D01*
X288622192Y-83881990D01*
X288546002Y-83843894D01*
X288507907Y-83805799D01*
X288469811Y-83729609D01*
X288469811Y-83653418D01*
X288507907Y-83577228D01*
X288546002Y-83539133D01*
X288622192Y-83501037D01*
X288812669Y-83501037D01*
X288926954Y-83539133D01*
X289193621Y-83501037D02*
X289384097Y-84301037D01*
X289536478Y-83729609D01*
X289688859Y-84301037D01*
X289879335Y-83501037D01*
X290107907Y-83501037D02*
X290641240Y-83501037D01*
X290298383Y-84301037D01*
X291060288Y-83843894D02*
X290984097Y-83805799D01*
X290946002Y-83767704D01*
X290907907Y-83691513D01*
X290907907Y-83653418D01*
X290946002Y-83577228D01*
X290984097Y-83539133D01*
X291060288Y-83501037D01*
X291212669Y-83501037D01*
X291288859Y-83539133D01*
X291326954Y-83577228D01*
X291365050Y-83653418D01*
X291365050Y-83691513D01*
X291326954Y-83767704D01*
X291288859Y-83805799D01*
X291212669Y-83843894D01*
X291060288Y-83843894D01*
X290984097Y-83881990D01*
X290946002Y-83920085D01*
X290907907Y-83996275D01*
X290907907Y-84148656D01*
X290946002Y-84224847D01*
X290984097Y-84262942D01*
X291060288Y-84301037D01*
X291212669Y-84301037D01*
X291288859Y-84262942D01*
X291326954Y-84224847D01*
X291365050Y-84148656D01*
X291365050Y-83996275D01*
X291326954Y-83920085D01*
X291288859Y-83881990D01*
X291212669Y-83843894D01*
X288469811Y-103312958D02*
X288584097Y-103351053D01*
X288774573Y-103351053D01*
X288850764Y-103312958D01*
X288888859Y-103274863D01*
X288926954Y-103198672D01*
X288926954Y-103122482D01*
X288888859Y-103046291D01*
X288850764Y-103008196D01*
X288774573Y-102970101D01*
X288622192Y-102932006D01*
X288546002Y-102893910D01*
X288507907Y-102855815D01*
X288469811Y-102779625D01*
X288469811Y-102703434D01*
X288507907Y-102627244D01*
X288546002Y-102589149D01*
X288622192Y-102551053D01*
X288812669Y-102551053D01*
X288926954Y-102589149D01*
X289193621Y-102551053D02*
X289384097Y-103351053D01*
X289536478Y-102779625D01*
X289688859Y-103351053D01*
X289879335Y-102551053D01*
X290107907Y-102551053D02*
X290641240Y-102551053D01*
X290298383Y-103351053D01*
X290984097Y-103351053D02*
X291136478Y-103351053D01*
X291212669Y-103312958D01*
X291250764Y-103274863D01*
X291326954Y-103160577D01*
X291365050Y-103008196D01*
X291365050Y-102703434D01*
X291326954Y-102627244D01*
X291288859Y-102589149D01*
X291212669Y-102551053D01*
X291060288Y-102551053D01*
X290984097Y-102589149D01*
X290946002Y-102627244D01*
X290907907Y-102703434D01*
X290907907Y-102893910D01*
X290946002Y-102970101D01*
X290984097Y-103008196D01*
X291060288Y-103046291D01*
X291212669Y-103046291D01*
X291288859Y-103008196D01*
X291326954Y-102970101D01*
X291365050Y-102893910D01*
X288469811Y-122362974D02*
X288584097Y-122401069D01*
X288774573Y-122401069D01*
X288850764Y-122362974D01*
X288888859Y-122324879D01*
X288926954Y-122248688D01*
X288926954Y-122172498D01*
X288888859Y-122096307D01*
X288850764Y-122058212D01*
X288774573Y-122020117D01*
X288622192Y-121982022D01*
X288546002Y-121943926D01*
X288507907Y-121905831D01*
X288469811Y-121829641D01*
X288469811Y-121753450D01*
X288507907Y-121677260D01*
X288546002Y-121639165D01*
X288622192Y-121601069D01*
X288812669Y-121601069D01*
X288926954Y-121639165D01*
X289193621Y-121601069D02*
X289384097Y-122401069D01*
X289536478Y-121829641D01*
X289688859Y-122401069D01*
X289879335Y-121601069D01*
X290298383Y-121943926D02*
X290222192Y-121905831D01*
X290184097Y-121867736D01*
X290146002Y-121791545D01*
X290146002Y-121753450D01*
X290184097Y-121677260D01*
X290222192Y-121639165D01*
X290298383Y-121601069D01*
X290450764Y-121601069D01*
X290526954Y-121639165D01*
X290565050Y-121677260D01*
X290603145Y-121753450D01*
X290603145Y-121791545D01*
X290565050Y-121867736D01*
X290526954Y-121905831D01*
X290450764Y-121943926D01*
X290298383Y-121943926D01*
X290222192Y-121982022D01*
X290184097Y-122020117D01*
X290146002Y-122096307D01*
X290146002Y-122248688D01*
X290184097Y-122324879D01*
X290222192Y-122362974D01*
X290298383Y-122401069D01*
X290450764Y-122401069D01*
X290526954Y-122362974D01*
X290565050Y-122324879D01*
X290603145Y-122248688D01*
X290603145Y-122096307D01*
X290565050Y-122020117D01*
X290526954Y-121982022D01*
X290450764Y-121943926D01*
X291098383Y-121601069D02*
X291174573Y-121601069D01*
X291250764Y-121639165D01*
X291288859Y-121677260D01*
X291326954Y-121753450D01*
X291365050Y-121905831D01*
X291365050Y-122096307D01*
X291326954Y-122248688D01*
X291288859Y-122324879D01*
X291250764Y-122362974D01*
X291174573Y-122401069D01*
X291098383Y-122401069D01*
X291022192Y-122362974D01*
X290984097Y-122324879D01*
X290946002Y-122248688D01*
X290907907Y-122096307D01*
X290907907Y-121905831D01*
X290946002Y-121753450D01*
X290984097Y-121677260D01*
X291022192Y-121639165D01*
X291098383Y-121601069D01*
X36438052Y-84262942D02*
X36552338Y-84301037D01*
X36742814Y-84301037D01*
X36819004Y-84262942D01*
X36857099Y-84224847D01*
X36895195Y-84148656D01*
X36895195Y-84072466D01*
X36857099Y-83996275D01*
X36819004Y-83958180D01*
X36742814Y-83920085D01*
X36590433Y-83881990D01*
X36514242Y-83843894D01*
X36476147Y-83805799D01*
X36438052Y-83729609D01*
X36438052Y-83653418D01*
X36476147Y-83577228D01*
X36514242Y-83539133D01*
X36590433Y-83501037D01*
X36780909Y-83501037D01*
X36895195Y-83539133D01*
X37161861Y-83501037D02*
X37352338Y-84301037D01*
X37504719Y-83729609D01*
X37657099Y-84301037D01*
X37847576Y-83501037D01*
X38266623Y-83843894D02*
X38190433Y-83805799D01*
X38152338Y-83767704D01*
X38114242Y-83691513D01*
X38114242Y-83653418D01*
X38152338Y-83577228D01*
X38190433Y-83539133D01*
X38266623Y-83501037D01*
X38419004Y-83501037D01*
X38495195Y-83539133D01*
X38533290Y-83577228D01*
X38571385Y-83653418D01*
X38571385Y-83691513D01*
X38533290Y-83767704D01*
X38495195Y-83805799D01*
X38419004Y-83843894D01*
X38266623Y-83843894D01*
X38190433Y-83881990D01*
X38152338Y-83920085D01*
X38114242Y-83996275D01*
X38114242Y-84148656D01*
X38152338Y-84224847D01*
X38190433Y-84262942D01*
X38266623Y-84301037D01*
X38419004Y-84301037D01*
X38495195Y-84262942D01*
X38533290Y-84224847D01*
X38571385Y-84148656D01*
X38571385Y-83996275D01*
X38533290Y-83920085D01*
X38495195Y-83881990D01*
X38419004Y-83843894D01*
%LPC*%
D11*
X110132905Y-28575024D03*
X183951717Y-28575024D03*
D12*
X18454703Y-123229791D03*
X123229791Y-123229791D03*
X204192359Y-123229791D03*
X280392423Y-123229791D03*
X237529887Y-85129759D03*
X161329823Y-85129759D03*
X85129759Y-85129759D03*
X24407833Y-85129759D03*
X280392423Y-47029727D03*
X204192359Y-47029727D03*
X108942279Y-47029727D03*
X13692199Y-47029727D03*
M02*
